<svg width="241" height="82" viewBox="0 0 241 82" fill="none" xmlns="http://www.w3.org/2000/svg">
<g clip-path="url(#clip0_261_3338)">
<path fill-rule="evenodd" clip-rule="evenodd" d="M34.2878 19.7325C35.3002 19.8946 36.2974 20.1073 37.2794 20.3707C37.6439 19.9757 37.9476 19.6414 38.8284 18.988C41.896 16.7393 46.3303 16.2835 49.003 17.9244L48.5626 18.1372C46.6036 19.0032 44.4472 19.6262 42.8223 22.4827C43.4703 22.8068 44.103 23.1563 44.7206 23.5311L45.9355 22.4827C47.4237 21.2064 54.9863 16.01 56.5961 15.8125C55.8216 16.9216 55.2901 17.5142 54.5611 18.8665L50.2787 27.8766V27.8918C55.533 33.1338 58.7828 40.3966 58.7828 48.4191C58.7828 56.4416 55.533 63.7044 50.2787 68.9616C45.0243 74.2187 37.7654 77.4703 29.7471 77.4703C21.7289 77.4703 14.47 74.2187 9.21561 68.9616C3.96124 63.7044 0.711426 56.4416 0.711426 48.4191C0.711426 40.3966 3.96124 33.149 9.21561 27.8918C10.6127 26.4787 12.1617 25.2176 13.8322 24.1237C12.3439 19.2008 11.7972 16.2683 12.3136 10.6161C12.4199 9.49169 12.4199 9.26378 12.7388 8.20019L13.4981 6.16418C14.1511 9.52208 14.7737 11.9683 16.4897 14.9008C17.0972 15.934 18.9802 18.3043 20.3925 19.8693C20.6558 20.163 20.8987 20.4315 21.1215 20.6746C23.2931 20.006 25.571 19.5806 27.94 19.4287C28.021 18.983 28.102 18.5221 28.183 18.046C28.8208 14.3842 29.6408 6.99986 30.8709 5.89069C32.025 7.57723 32.4958 10.0083 32.6629 12.3786C33.6803 11.8012 34.5611 10.2666 35.29 9.08146C37.6591 5.3285 37.2794 -0.870711 44.8876 0.603121C44.5383 1.21089 38.9347 4.72074 37.492 9.06626C37.082 10.2818 36.186 15.7517 34.713 18.8513C34.5712 19.1552 34.4295 19.4489 34.2878 19.7325ZM37.7198 5.98185C39.6484 4.0218 41.0304 2.79108 43.202 1.11972C42.0934 1.21089 39.041 0.982973 37.7198 5.98185ZM30.6431 19.3983L30.6583 19.3527L30.6887 19.2919L30.7342 19.2008L30.7646 19.14V19.1248H30.7798L30.795 19.0792L30.8102 19.0488V19.0336L30.8253 19.0184V19.0032L30.8405 18.988V18.9728L30.8557 18.9576V18.9425L30.8709 18.9273V18.9121H30.8861V18.8969V18.8817L30.9013 18.8665L30.9165 18.8361L30.9316 18.8209V18.8057V18.7905H30.9468V18.7601L30.962 18.7449V18.7297L30.9772 18.7145L30.9924 18.6993V18.669C31.9795 16.7697 34.5763 13.0015 34.9863 11.2086L29.8686 17.2559L29.8534 17.2863L29.8383 17.3167L29.8231 17.3471L29.7927 17.3926L29.7775 17.423L29.7623 17.4534L29.7471 17.4838L29.7319 17.5142L29.7168 17.5294L29.7016 17.5446L29.6864 17.575L29.6712 17.6206L29.656 17.651L29.6408 17.6661V17.6813L29.5953 17.7421L29.5801 17.7725L29.5649 17.8029V17.8181L29.5193 17.9092L29.5042 17.9396H29.489L29.4738 17.9852L29.4434 18.046L29.4282 18.0764L29.413 18.1068L29.3979 18.1372L29.3827 18.1827L29.3675 18.2131L29.3523 18.2435L29.3219 18.3043L29.3067 18.3499L29.2916 18.3803L29.2764 18.4107L29.2612 18.441L29.246 18.4714L29.2308 18.4866V18.517L29.1853 18.6082L29.1701 18.6234V18.6386L29.1549 18.6842L29.1245 18.7449L29.1093 18.7601V18.7753L29.0789 18.8513L29.0638 18.8817V18.8969L29.0486 18.9121L29.0334 18.9425L29.0182 18.988L29.003 19.0184V19.0336V19.0488L28.9878 19.0792L28.9726 19.1248L28.9575 19.1552L28.9423 19.1856L28.9271 19.2159L28.9119 19.2615V19.2919L28.8967 19.3223L28.8815 19.3527L28.8663 19.3983C28.5626 20.2491 28.3348 21.1304 28.1982 22.0421V22.1028V22.118L28.183 22.194L28.1678 22.2548V22.3307L28.1526 22.4067L28.1374 22.4827V22.5587L28.1222 22.6194V22.6954V22.7106L28.107 22.7714V22.8473V22.8625L28.0919 22.9233V22.9993V23.0297L28.0767 23.0601V23.136V23.1816L28.0615 23.212V23.288V23.3336V23.3639L28.0463 23.4399V23.5007V23.5159V23.5919L28.0311 23.6526V23.6678V23.7438V23.8046V23.8198L28.0159 23.9717V24.0477V24.1237V24.1388V24.1996V24.2756V24.2908V24.3516L28.0007 24.4275V24.4579V24.5035V24.5795V24.6099V24.6555V24.7314V24.8074V24.8834V24.9593V25.0353V25.1265V25.2024V25.2784V25.3544V25.4303V25.4455L28.0159 25.5215V25.5975V25.6127V25.6735V25.7494V25.7798V25.8406V25.9166V25.947L28.0311 25.9925V26.0685V26.1141V26.1597V26.2356V26.2812V26.3116L28.0463 26.4028V26.4484V26.4787V26.5547L28.0615 26.6307V26.6459V26.7219V26.7978L28.0767 26.889V26.965C28.6841 25.7494 28.8208 23.9261 29.3067 22.5131V22.4979V22.4827V22.4675L29.3219 22.4523V22.4371L29.3371 22.4219V22.3915L29.3523 22.3763V22.3611L29.3675 22.3307V22.3004L29.3827 22.2852V22.27L29.4282 22.1484L29.4434 22.118V22.1028V22.0876H29.4586V22.0573L29.4738 22.0269V22.0117V21.9965C29.8079 21.1304 30.2179 20.2188 30.6431 19.3983ZM33.2096 19.5806L33.2551 19.5046L33.3766 19.2463L33.3918 19.2311L33.4525 19.1248V19.1096L33.5133 18.988L33.574 18.8665V18.8513C33.6854 18.6386 33.7967 18.4208 33.9081 18.1979L33.9385 18.1372L33.9689 18.046C34.0499 17.8738 34.1359 17.6965 34.227 17.5142L34.2422 17.4686L34.2878 17.3471L34.303 17.3167L34.3637 17.1799L34.3789 17.1647L34.4396 17.028V17.0128L34.5004 16.8609H34.5156L34.7282 16.3443L34.7737 16.2379L34.7889 16.1771L34.8345 16.0708L34.8648 16.01L34.8952 15.9036L34.9256 15.8428C34.9964 15.6605 35.0622 15.4833 35.123 15.3111L35.1534 15.2655L35.2597 14.9616L35.2749 14.9312L35.3204 14.7944L35.3812 14.6121L35.4419 14.445V14.4298L35.4875 14.2778L35.5026 14.2627L35.6089 13.9132L35.6545 13.7916L35.6697 13.7461L35.7001 13.6245L35.7153 13.5637L35.7608 13.3966L35.7912 13.3054L35.8064 13.2143L35.8975 12.88L35.9127 12.8344L35.943 12.7129V12.6825L36.019 12.3786V12.3634C36.0392 12.2621 36.0595 12.1608 36.0797 12.0595L36.0949 11.9228V11.8924L36.1253 11.7708V11.7404L36.1405 11.6189L36.1556 11.5885L36.1708 11.4214V11.3302L36.186 11.2846C36.2164 10.9807 36.2265 10.692 36.2164 10.4185V10.4033L36.2012 10.297V10.2818L36.186 10.1602L31.6454 18.4866C31.0531 19.5806 30.4761 20.7658 29.9749 21.9965L29.9446 22.0876V22.1028L29.8686 22.3004L29.8231 22.4067L29.7927 22.5131L29.7623 22.5739L29.7471 22.6042L29.7168 22.7106L29.7016 22.741L29.6712 22.817L29.6408 22.8929V22.9233L29.6105 23.0145L29.5953 23.0601L29.5345 23.2272L29.5042 23.3336L29.489 23.3943L29.4738 23.4399L29.4282 23.5463L29.3979 23.6526L29.3827 23.7134L29.3675 23.7438L29.3371 23.8502V23.8805L29.3067 23.9565L29.2916 24.0477L29.2764 24.0629L29.2612 24.1692L29.246 24.2148L29.2308 24.2756L29.2004 24.382L29.1701 24.4883L29.1549 24.5491V24.5947L29.1245 24.701L29.0789 24.8986V24.9289L29.0486 25.0353V25.0657L29.0334 25.1417L29.0182 25.2328L29.003 25.248L28.9575 25.5671V25.5823L28.9271 25.6887V25.7494C28.8866 25.9824 28.8562 26.2154 28.836 26.4484C28.76 27.2688 28.7449 28.1045 28.836 28.9402L28.8512 28.925V28.9098H28.8663V28.8946V28.8794H28.8815V28.8642V28.849V28.8338H28.8967V28.8186V28.8034V28.7883H28.9119V28.7731V28.7579L28.9271 28.7427V28.7275V28.7123H28.9423C28.9575 28.7579 29.0182 28.5451 29.0486 28.4844L29.1093 28.3324L29.1245 28.302L29.1701 28.1805L29.2004 28.1045L29.2308 28.0285L29.2612 27.9222L29.2916 27.8766L29.3371 27.7551V27.7247L29.3979 27.5879V27.5727L29.4434 27.4512L29.4586 27.4208L29.5042 27.3296L29.5193 27.2536L29.5497 27.1929L29.5801 27.1017L29.5953 27.0713L29.6408 26.9498L29.6864 26.8282L29.7016 26.813L29.7319 26.7067L29.7471 26.6763L29.7775 26.6003L29.8079 26.5395L29.8231 26.4939L29.8534 26.4028L29.8686 26.3876L29.899 26.2812L29.9446 26.1749L29.9597 26.1445L29.9749 26.0837L30.0053 26.0381L30.0205 25.9773L30.0509 25.9166V25.8862L30.0964 25.795L30.1268 25.7038V25.6887L30.1572 25.6127L30.1723 25.5823L30.2027 25.5215L30.2179 25.4759L30.2331 25.4303L30.2635 25.3696V25.3544L30.2938 25.2632L30.3394 25.1872V25.1721L30.3698 25.0961L30.3849 25.0657L30.4001 25.0201L30.4153 24.9745L30.4305 24.9441L30.4609 24.8682L30.5064 24.777L30.5368 24.701V24.6858L30.5672 24.6251L30.5824 24.5795L30.5976 24.5491L30.6279 24.4883V24.4731L30.6735 24.3971L30.7039 24.3212V24.306L30.7342 24.23L30.7494 24.1996L30.7798 24.154L30.795 24.1085L30.8102 24.0781L30.8405 24.0173L30.8557 24.0021L30.8861 23.9109L30.9316 23.835V23.8198L30.962 23.759L30.9924 23.7134L31.0076 23.6678L31.038 23.6071L31.0531 23.5919L31.0835 23.5007L31.1291 23.4095L31.1442 23.3943L31.1898 23.288L31.2202 23.2272L31.2506 23.1816L31.2657 23.136L31.3113 23.0601L31.3265 23.0449L31.372 22.9537V22.9385L31.4176 22.8473L31.4328 22.817L31.4783 22.741L31.5391 22.6346L31.5695 22.5739L31.5846 22.5283L31.6454 22.4371V22.4219L31.7061 22.3155V22.3004L31.7821 22.1636L31.8276 22.0876C32.1313 21.5255 32.4958 20.8721 32.9514 20.0516C33.0324 19.9098 33.1184 19.7528 33.2096 19.5806ZM55.6849 53.4331C55.9886 51.8074 56.1557 50.136 56.1557 48.4191C56.1557 41.4298 53.4374 35.0634 49.003 30.3381C48.3804 31.2497 47.7578 32.4348 47.0744 33.3617C44.2954 37.1906 41.6986 38.9076 37.0364 41.1259C33.7107 42.7213 33.8626 41.2323 31.5543 44.7877C29.5193 47.9025 27.3781 50.7438 27.2414 54.907C27.7426 54.2992 28.0159 53.889 28.5778 53.2052C29.1093 52.5519 29.413 52.3848 30.0812 51.6706C31.6302 50.0752 31.9643 45.3043 41.8808 44.8637C41.5011 46.7629 38.7221 49.4067 37.0516 50.3032C31.9947 53.0381 32.1921 50.5311 29.9901 52.9469C28.5323 54.5423 26.7859 56.6543 26.1632 59.131C25.495 61.7747 24.5383 64.221 23.9309 66.6976C25.2521 66.1355 26.6947 64.692 28.0007 63.75C29.0334 63.0055 31.3265 61.6532 31.9187 60.696C32.7843 59.2981 33.2855 57.7179 34.2422 56.1073C35.0471 54.7854 36.3683 53.3572 37.4616 52.3696C42.0175 48.2671 48.0919 48.0544 53.1944 50.9565C53.9689 51.3971 54.4245 51.7314 55.0319 52.4607C55.3508 52.8558 55.5482 53.1748 55.6849 53.4331ZM42.0934 22.1332V22.118L42.1086 22.1028L42.1238 22.0876L42.1389 22.0724V22.0573L42.1541 22.0421L42.1693 22.0269L42.1845 22.0117V21.9965L42.1997 21.9813L42.2149 21.9661L42.2301 21.9509V21.9357L42.2453 21.9205L42.2604 21.9053L42.2756 21.8901V21.8749L42.2908 21.8597L42.306 21.8445L42.3212 21.8141L42.3364 21.799L42.3516 21.7838V21.7686L42.3667 21.7534L42.3819 21.7382L42.3971 21.723V21.7078H42.4123V21.6926L42.4275 21.6774L42.4427 21.6622V21.647L42.4578 21.6318L42.473 21.6166V21.6014H42.4882V21.5862L42.5034 21.571C43.2779 20.5074 44.3561 19.7629 45.1002 18.7145L44.9939 18.7297L44.9028 18.7449L44.8117 18.7601L44.7054 18.7753L44.6143 18.7905L44.5232 18.8057L44.4472 18.8361L44.3561 18.8513L44.2802 18.8817L44.1891 18.8969L44.1131 18.9273L44.0372 18.9576L43.9613 18.9728L43.8853 19.0032L43.8094 19.0336L43.7335 19.064L43.6727 19.0944L43.5968 19.14L43.5361 19.1704L43.4601 19.2008L43.3994 19.2311L43.3386 19.2767L43.2779 19.3071L43.202 19.3375L43.1412 19.3831L43.0805 19.4135L43.0349 19.4591L42.9742 19.5046L42.8527 19.5806L42.7919 19.611L42.7312 19.6566L42.6856 19.7022L42.6249 19.7325L42.5642 19.7781L42.5186 19.8237L42.4578 19.8541L42.3971 19.8997L42.3364 19.9453L42.2908 19.9908L42.2301 20.0212L42.1693 20.0668L42.1238 20.1124L42.063 20.1428L42.0023 20.1884L41.9415 20.234L41.8808 20.2643L41.82 20.3099L41.7593 20.3555L41.6985 20.3859L41.6378 20.4315L41.5771 20.4619L41.5163 20.5074L41.4556 20.5378L41.3796 20.5682L41.3189 20.6138L41.243 20.6442L41.1822 20.6746L41.1063 20.705L41.0304 20.7354L40.9544 20.7809L40.8785 20.8113L40.8026 20.8265L40.7266 20.8569L40.7722 20.7809C40.8127 20.7202 40.8532 20.6645 40.8937 20.6138L40.9241 20.5834L40.9696 20.5074L41.1063 20.3555L41.2126 20.234L41.243 20.2036L41.2733 20.1884V20.1732L41.3037 20.158L41.3493 20.0972L41.41 20.0516L41.4708 19.9908L41.5315 19.9453L41.5619 19.9149L41.6226 19.8693L41.653 19.8541L41.6834 19.8237L41.7137 19.8085L41.7441 19.7781L41.7745 19.7477L41.8049 19.7325L41.8656 19.687L41.896 19.6718L41.9263 19.6414L41.9567 19.6262L41.9871 19.5958L42.0326 19.5806L42.063 19.5654L42.0934 19.535L42.1238 19.5198L42.1541 19.4894L42.1845 19.4742L42.2301 19.4591L42.2604 19.4287L42.2908 19.4135L42.3212 19.3983L42.3516 19.3679L42.3971 19.3527L42.4275 19.3375L42.4578 19.3071L42.5338 19.2767L42.5642 19.2463L42.6401 19.2159L44.9332 17.8333C44.7307 17.8231 44.5333 17.8231 44.3409 17.8333H44.3257H44.3105C44.2194 17.8333 44.1283 17.8383 44.0372 17.8485H44.022L43.7639 17.8637H43.7335L43.7031 17.8789L43.4753 17.8941L43.4146 17.9092L43.1868 17.9396L43.1564 17.9548H43.1109L42.8831 18.0004L42.6249 18.0612L42.5945 18.0764L42.3667 18.1372L42.3364 18.1524H42.3212H42.306L42.0934 18.2131L42.063 18.2283L41.9871 18.2587L41.8352 18.3043L41.7745 18.3347L41.6682 18.3651L41.5467 18.4107L41.5315 18.4259L41.5011 18.441L41.3037 18.517L41.2733 18.5322L41.243 18.5474L41.0304 18.6538H41.0152L41 18.669L40.8178 18.7601L40.7418 18.7905L40.5748 18.8817L40.4533 18.9576L40.4229 18.9728L40.3166 19.0336L40.2862 19.0488L40.2255 19.0944L40.1192 19.1552H40.104L40.0281 19.2159L39.937 19.2767L39.8307 19.3375L39.7699 19.3831L39.7396 19.3983L39.6484 19.4591L39.6332 19.4742L39.5573 19.535L39.4662 19.5958L39.4206 19.6262L39.2992 19.7174L39.284 19.7325L39.1928 19.8085L39.1017 19.8845L39.0106 19.9605L38.9803 19.9757L38.8436 20.0972H38.8284L38.7525 20.1732L38.6613 20.2491L38.5702 20.3251C37.735 21.0848 37.0212 21.9509 36.4138 22.8473L36.3834 22.8929L36.3531 22.9385L36.2923 23.0449L36.2468 23.1208L36.2316 23.136L36.1708 23.2272L36.1101 23.3184L36.0949 23.3336L36.0493 23.4095L35.9886 23.5007L35.9582 23.5615L35.943 23.6071L35.8823 23.6982L35.8367 23.7742L35.8216 23.7894L35.776 23.8805L35.7153 23.9717V24.0021L35.6697 24.0781L35.6241 24.1692L35.5938 24.2148L35.5634 24.2604L35.5178 24.3516V24.3668L35.4723 24.4427L35.4267 24.5339L35.366 24.6555L35.3356 24.7314L35.29 24.8226L35.2597 24.8682L35.2445 24.9137L35.1989 25.0049L35.1534 25.0961L35.0774 25.2784L35.0623 25.3088L35.0015 25.4455L34.9711 25.5063V25.5367L34.9256 25.6279L34.8952 25.719L34.88 25.7342L34.8345 25.8862L34.8193 25.9318L34.7889 25.9773L34.7585 26.0685L34.7433 26.1293L34.7282 26.1445L34.713 26.2356L34.6826 26.3116L34.6674 26.3268V26.342C34.6269 26.4636 34.5915 26.58 34.5611 26.6915V26.7067L34.5459 26.7219L34.5307 26.7978L34.5156 26.8738L34.5004 26.889L34.47 27.0713L34.4548 27.1017L34.4396 27.1777L34.4244 27.2385V27.2536V27.2688L34.3941 27.3904V27.4208L34.3789 27.4664L34.3637 27.5727V27.6031L34.3485 27.6791L34.3333 27.7399V27.8614L34.3181 27.8918V27.9374V27.9982V28.0285V28.0589V28.1045V28.1653L34.3637 28.1197V28.1045L34.4244 28.0589V28.0437L34.47 27.9982L34.4852 27.983L34.5307 27.9374L34.5459 27.9222L34.5763 27.8766L34.5915 27.8614L34.637 27.8158L34.6522 27.7854L34.6826 27.7551L34.713 27.7095L34.7433 27.6791L34.7737 27.6487L34.8345 27.5727L34.8496 27.5423L34.8952 27.4968V27.4816L34.9408 27.4056H34.9559L35.0015 27.3296L35.0623 27.2536L35.1078 27.1777L35.1685 27.1017L35.1837 27.0865L35.2293 27.0257L35.2445 26.9953L35.2749 26.9346L35.3052 26.9194L35.3356 26.8586L35.3508 26.8282L35.3812 26.7826L35.4115 26.737L35.4419 26.6915L35.4723 26.6459L35.5026 26.6155L35.533 26.5547L35.5482 26.5243L35.5938 26.4636L35.6089 26.4484L35.6545 26.3724L35.6697 26.3572L35.7153 26.2812L35.776 26.1901L35.8367 26.0989L35.8975 26.0229L35.943 25.9318L36.0038 25.8406L36.019 25.8102L36.0645 25.7646L36.0797 25.719L36.1253 25.6735L36.1556 25.6279L36.186 25.5823L36.2164 25.5367L36.2316 25.5063L36.2771 25.4455L36.2923 25.4152L36.3379 25.3544L36.3531 25.324L36.3986 25.2632L36.4138 25.248L36.4746 25.1721V25.1569L36.5353 25.0809V25.0657L36.596 24.9897L36.6568 24.8986L36.7175 24.8226L36.7327 24.8074L36.7783 24.7314L36.7935 24.7162L36.839 24.6555L36.8542 24.6251L36.8998 24.5795L36.9301 24.5339L36.9605 24.5035L36.9909 24.4579L37.0212 24.4123L37.0668 24.3668L37.082 24.3364L37.1276 24.2908L37.1579 24.2604L37.2035 24.1996L37.2187 24.1844L37.2642 24.1237L37.2794 24.1085L37.3402 24.0477L37.4161 23.9717L37.4768 23.8957L37.5376 23.835L37.6287 23.7438L37.6742 23.6982L37.7046 23.683L37.7502 23.6374L37.7654 23.6071L37.8109 23.5767L37.8413 23.5463L37.8869 23.5159L37.9172 23.4855L37.9476 23.4551L37.9932 23.4247L38.0235 23.3943L38.0691 23.3639L38.0843 23.3488C38.2058 23.2576 38.3323 23.1766 38.4639 23.1056C38.4234 23.2069 38.3728 23.3133 38.3121 23.4247L38.2665 23.5007V23.5159L38.2209 23.5767V23.5919L38.1754 23.6526V23.683L38.1298 23.7438L38.1146 23.7742L38.0843 23.8198L38.0691 23.8502L38.0387 23.8957L38.0083 23.9413L37.978 23.9869L37.9476 24.0325L37.9172 24.0629L37.8869 24.1237L37.8717 24.154L37.8261 24.2148L37.8109 24.23L37.7654 24.306L37.7502 24.3212L37.7046 24.3971L37.6894 24.4123L37.6287 24.4883L37.568 24.5795H37.5528L37.492 24.6706L37.4313 24.7618H37.4161L37.3553 24.8378V24.853L37.2946 24.9289L37.2794 24.9441L37.2187 25.0201L37.2035 25.0505L37.1579 25.1113L37.1276 25.1417L37.082 25.2024L37.0516 25.2328L37.0061 25.2936L36.9757 25.3392L36.9453 25.3848L36.8998 25.4303L36.8694 25.4759L36.8238 25.5215L36.7935 25.5671L36.7479 25.6279L36.7175 25.6583L36.672 25.719L36.6416 25.7494L36.596 25.8102L36.5809 25.8406L36.5201 25.9166L36.5049 25.9318L36.4442 26.0077L36.429 26.0229L36.3682 26.1141H36.3531L36.2923 26.2052H36.2771L36.2164 26.2964L36.2012 26.3116L36.1405 26.3876V26.4028L36.0797 26.4787L36.0645 26.4939L36.0038 26.5699L35.9886 26.6003L35.943 26.6611L35.9127 26.6915L35.8671 26.7522L35.8367 26.7978L35.8064 26.8434L35.776 26.889L35.7304 26.9346L35.7001 26.9802L35.6393 27.0865L35.6089 27.1169L35.5634 27.1777L35.5482 27.2081L35.5026 27.284L35.4875 27.2992L35.4419 27.3752L35.4267 27.3904L35.3812 27.4664L35.366 27.4816L35.3204 27.5575V27.5727L35.2597 27.6639L35.2141 27.7399L35.1989 27.7551L35.1534 27.831V27.8462L35.1078 27.9222L35.0926 27.9374L35.0623 28.0134L35.0471 28.0285V28.0437L35.0015 28.1197L34.9863 28.1805L34.9559 28.2261L34.9408 28.2717L34.9256 28.3172L34.9104 28.3476L34.88 28.4084L34.8648 28.4388L34.8496 28.4844L34.8345 28.53L34.8193 28.5755L34.8041 28.6059L34.7889 28.6667V28.6971L34.7585 28.7579L34.7433 28.849C34.7332 28.9098 34.7231 28.9655 34.713 29.0162L34.8193 28.9554L34.8648 28.9402L34.9104 28.9098L35.0015 28.849H35.0167L35.123 28.7883L35.1534 28.7731L35.2141 28.7275L35.3052 28.6819L35.3204 28.6667L35.4267 28.6059L35.4571 28.5907L35.5178 28.5451L35.5938 28.4996L35.6241 28.4844L35.7153 28.4236L35.7456 28.4084L35.8216 28.3628L35.8823 28.3172L35.9127 28.302L36.0038 28.2413L36.019 28.2261L36.1101 28.1653L36.1708 28.1349L36.2923 28.0437L36.3075 28.0285L36.3986 27.9678L36.4442 27.9374L36.4897 27.907L36.5809 27.831L36.672 27.7703L36.7175 27.7399L36.7783 27.6943L36.8542 27.6335L36.8694 27.6183L36.9605 27.5575L36.9909 27.5271L37.0516 27.4816L37.1276 27.4208L37.1427 27.4056L37.2339 27.3448L37.249 27.3144L37.325 27.2688L37.3857 27.2081L37.4161 27.1929L37.5072 27.1169L37.5983 27.0409L37.6439 26.9953L37.6894 26.965L37.7654 26.889H37.7805L37.8565 26.813L37.902 26.7674L37.9476 26.737L38.0387 26.6611L38.1146 26.5851L38.2058 26.5091L38.2817 26.4332H38.2969L38.388 26.342L38.4184 26.3116L38.4639 26.266L38.5399 26.2052L38.555 26.1901L38.631 26.1141L38.6613 26.0837L38.7221 26.0229L38.7828 25.9621L38.798 25.947L38.9651 25.7798L39.0258 25.719L39.0562 25.7038L39.1321 25.6127L39.1473 25.5975L39.2232 25.5367L39.2688 25.4759L39.2992 25.4455L39.3751 25.3696L39.3903 25.3544L39.4662 25.2784L39.4966 25.2328L39.5421 25.1872L39.6181 25.1113L39.7092 25.0201L39.7396 24.9897L39.7851 24.9441L39.8459 24.8682L39.861 24.853L39.937 24.7618L39.9673 24.7314L40.0129 24.6858L40.0736 24.6099L40.0888 24.5947L40.1799 24.5035L40.1951 24.4731L40.2559 24.4123L40.3318 24.3212L40.4077 24.2452C41 23.5463 41.5619 22.8473 42.0934 22.1332ZM47.5755 25.4911L47.6363 25.4152L47.697 25.324L47.7578 25.2328L47.8185 25.1417L47.8337 25.1265L47.8945 25.0353L47.9096 25.0201L47.9704 24.9441L48.0008 24.9137L48.0615 24.8378L48.0767 24.8074L48.1374 24.7466L48.1678 24.701L48.2285 24.6403L48.2741 24.5795L48.3197 24.5339L48.3652 24.4731L48.4108 24.4275L48.4715 24.3516L48.5019 24.306L48.5778 24.23L48.6082 24.1996L48.6841 24.1085L48.6993 24.0781L48.7904 23.9869L48.8056 23.9717L48.8967 23.8654L48.9119 23.8502L49.0182 23.7438V23.7286L49.1245 23.6222L49.1397 23.6071L49.246 23.5007L49.2612 23.4855L49.3523 23.3791L49.3675 23.3488L49.4738 23.2576L49.489 23.2272L49.5801 23.136L49.6257 23.0905L49.7016 22.9993L49.7472 22.9537L49.8079 22.8777L49.8686 22.8322L49.9294 22.7562L49.9901 22.6954L50.0509 22.6346L50.1116 22.5587L50.1724 22.4979L50.2483 22.4219L50.2787 22.3763L50.3698 22.2852L50.4002 22.2548L50.4913 22.1484L50.5216 22.1332L50.6279 22.0117L50.6431 21.9965L50.7494 21.8901V21.8749L50.8709 21.7534L50.9924 21.6166L51.0987 21.4951L51.1139 21.4799L51.2202 21.3735L51.2354 21.3431L51.3265 21.252L51.3569 21.2216L51.4328 21.1304L51.4784 21.0848L51.5391 21.0089L51.5847 20.9481L51.6454 20.8873L51.7062 20.8265L51.7517 20.7657L51.8125 20.6898L51.858 20.6442L51.9643 20.5226L52.0251 20.4467L52.0554 20.4011L52.1314 20.3251L52.1465 20.2947L52.2225 20.2036L52.2377 20.1732L52.3288 20.082V20.0668L52.4199 19.9605L52.4958 19.8389H52.511L52.5869 19.7325L52.6629 19.6262V19.611L52.7236 19.5198L52.7388 19.5046L52.754 19.4894C52.7945 19.4185 52.835 19.3527 52.8755 19.2919L52.9362 19.2008V19.1856L52.9666 19.14L52.997 19.0792L53.0121 19.064C53.0425 19.0134 53.0678 18.9627 53.0881 18.9121V18.8969L53.1336 18.8057L53.164 18.7145L53.1944 18.6386V18.6234L53.2096 18.5474L53.2248 18.4714L46.9985 22.7258L46.9377 22.7562L46.9226 22.7866L46.8922 22.8018L46.8618 22.817L46.8466 22.8473L46.8162 22.8625L46.7859 22.8777V22.8929L46.7707 22.9081L46.7403 22.9233L46.7099 22.9385L46.6644 22.9841L46.634 22.9993L46.6188 23.0145L46.5885 23.0449H46.5733V23.0601L46.5429 23.0753L46.5125 23.1056L46.467 23.136L46.4366 23.1512L46.391 23.1968L46.3759 23.212H46.3607L46.2847 23.2728L46.2696 23.288L46.1632 23.3791L46.1025 23.4247L46.0418 23.4703L45.981 23.5311H45.9658L45.9506 23.5463L45.7836 23.683L45.7684 23.6982H45.7532L45.738 23.7286L45.5862 23.835L45.571 23.8502L45.5406 23.8805L45.5103 23.8957L45.4951 23.9109L45.4647 23.9261L45.4495 23.9565L45.4191 23.9717C44.675 24.5643 43.9765 25.1569 43.3083 25.7494L43.1868 25.8558L43.0653 25.9621L42.9742 26.0533L42.9438 26.0837L42.8223 26.1901L42.8071 26.2052L42.7008 26.2964L42.6249 26.3724L42.5793 26.418L42.2301 26.7522L42.1238 26.8434L42.1086 26.8586L42.0023 26.965L41.7897 27.1625L41.7593 27.1929L41.653 27.3144L41.6378 27.3296L41.5315 27.4208L41.4252 27.5423L41.3037 27.6487L41.1974 27.7703L41.1519 27.8158L41.0911 27.8918L40.9696 27.9982L40.8633 28.1197L40.757 28.2413L40.6811 28.3172L40.6355 28.3628L40.5292 28.4692L40.3166 28.7123L40.2103 28.8338L40.104 28.9554L40.0585 29.0162L39.9977 29.0921L39.9066 29.1833L39.8914 29.2137L39.7851 29.3352L39.6788 29.4568L39.6029 29.548L39.5725 29.5935L39.4662 29.7151L39.451 29.7303L39.3599 29.8366L39.2992 29.9126L39.2536 29.9734L39.1473 30.095V30.1101L39.041 30.2317L38.9347 30.3684L38.8588 30.4748L38.8436 30.5052L38.7373 30.6419L38.7069 30.6723L38.631 30.7787L38.5702 30.8547L38.5247 30.9154L38.4335 31.0522H38.4184L38.3273 31.1889L38.2665 31.2497L38.2209 31.3257L38.1298 31.4624L38.1146 31.4776L38.0235 31.6144L37.978 31.6599L37.9172 31.7663L37.8413 31.8727L37.8109 31.9031L37.7198 32.055L37.6894 32.0854L37.6135 32.2069L37.5528 32.2981L37.5072 32.3589L37.4161 32.5108H37.4009L37.3098 32.6628L37.2642 32.7235L37.2035 32.8147L37.1276 32.9515L37.1124 32.9666L37.0061 33.1338L36.9757 33.1794L36.9149 33.2857L36.839 33.4073L36.8086 33.4529L36.7023 33.6048L36.6872 33.6352L36.6112 33.7719L36.5505 33.8783L36.5049 33.9391L36.4138 34.1062C33.9689 38.1934 34.3637 40.2142 33.5588 41.4298C36.5809 41.3842 43.1716 36.8411 45.6469 33.8783L45.6925 33.8327L45.7228 33.8023L45.738 33.7719L45.7836 33.7263V33.7112L45.8292 33.6504L45.8443 33.6352L45.8747 33.6048L45.9203 33.5592V33.544L45.981 33.4832V33.4681L46.0266 33.4225L46.0569 33.3769L46.0721 33.3617L46.1025 33.3009H46.1177L46.1481 33.2401L46.1784 33.2098L46.1936 33.1794L46.2392 33.1186H46.2544L46.2847 33.0578L46.3151 33.0274L46.3303 32.997L46.3759 32.9363L46.4214 32.8755L46.4366 32.8451L46.467 32.8147L46.4973 32.7539H46.5125L46.5581 32.6931L46.5733 32.6628L46.6036 32.6172L46.634 32.5716L46.6492 32.5564L46.6948 32.4956V32.4804L46.7251 32.4348L46.7555 32.3893L46.7707 32.3589L46.8162 32.2981L46.8618 32.2373L46.877 32.2069L46.9074 32.1614L46.9377 32.1006H46.9529L46.9833 32.0398L47.0137 32.0094L47.0289 31.9638L47.0744 31.9182V31.9031L47.12 31.8423L47.1352 31.8119L47.1655 31.7663L47.1959 31.7207V31.7055L47.2415 31.6296L47.2566 31.6144L47.287 31.5688L47.3174 31.5232L47.3326 31.4928L47.3629 31.432H47.3781L47.4085 31.3561L47.4541 31.2953L47.4844 31.2193L47.53 31.1585L47.5452 31.1282L47.5755 31.0826L47.6059 31.0218L47.6515 30.9458L47.6667 30.9306L47.697 30.885L47.7274 30.8243V30.8091L47.773 30.7331L47.7882 30.7179L47.8185 30.6723L47.8489 30.6267V30.5964L47.8945 30.5356V30.5204L47.94 30.4596L47.9552 30.414L47.9704 30.3836L48.0159 30.3229L48.0463 30.2469L48.0767 30.2165L48.0919 30.1709L48.1222 30.1101H48.1374L48.1678 30.0342L48.183 30.0038L48.2134 29.9582L48.2437 29.9126V29.8974L48.2589 29.8822L48.3197 29.7455L48.35 29.6999L48.3652 29.6847C48.7297 29.001 49.079 28.302 49.4131 27.6487L49.6105 27.2385V27.2233L49.656 27.1625V27.1321L49.7016 27.0713L49.7168 27.0409L49.7472 26.9802L49.7623 26.9498L49.7927 26.889L49.8079 26.8434L49.8383 26.7978L49.8535 26.7522L49.9142 26.6459L49.9294 26.6155L49.9598 26.5395L49.9749 26.5243L50.0661 26.342V26.3268H50.0812L50.1268 26.2204L50.1875 26.1141L50.2331 26.0077V25.9925L50.2787 25.9166L50.2938 25.8862L50.3394 25.8102L50.3546 25.7646L50.4002 25.7038L50.4153 25.6583L50.4457 25.5823L50.4761 25.5367L50.5065 25.4759L50.552 25.3696L50.5976 25.2936L50.6583 25.1721L50.6735 25.1417L50.7039 25.0505L50.7191 25.0353L50.7646 24.9289H50.7798L50.8254 24.8074H50.8405L50.8861 24.701V24.6858L50.9468 24.5795V24.5643L50.9924 24.4731L51.0076 24.4427L51.0532 24.3516L51.0683 24.3212L51.1139 24.2452L51.1291 24.1996L51.1595 24.1237L51.1898 24.0781L51.2202 24.0021L51.2506 23.9413L51.2658 23.8957L51.3113 23.8198L51.3265 23.7742L51.3569 23.6982L51.3721 23.6678L51.4176 23.5767L51.4328 23.5463L51.4784 23.4551V23.4399L51.5391 23.3336V23.3184L51.5847 23.212L51.6454 23.0905L51.691 22.9841V22.9689L51.7365 22.8777L51.7517 22.8473L51.7821 22.7714L51.7973 22.7258L51.8276 22.665L51.8428 22.6042L51.8732 22.5435L51.9036 22.4979L51.9188 22.4371L51.9491 22.3763L51.9643 22.3307L51.9947 22.27L52.0099 22.2396L52.0402 22.1484V22.1332L52.0858 22.0421V22.0269L52.1162 21.9357L52.1314 21.9205L52.1617 21.8293L52.2073 21.723L52.2377 21.6318V21.6166L52.268 21.5407L52.2832 21.5103L52.3136 21.4039L52.3288 21.3583L52.344 21.3127L52.3591 21.2672L52.3743 21.2216L52.3895 21.176L52.4047 21.1304L52.4199 21.0848L52.4351 21.0392V21.0089L52.4503 20.9481L52.4655 20.9177L52.4806 20.8569V20.8417L52.4958 20.7809V20.7657L52.511 20.6898L52.4503 20.7354L52.4047 20.7809H52.3895L52.344 20.8265H52.3288L52.2832 20.8721L52.268 20.8873L52.2225 20.9177L52.1921 20.9481L52.1617 20.9785L52.1314 20.9937L52.101 21.0392L52.0554 21.0544L52.0251 21.0848L51.9947 21.1304L51.9643 21.1456L51.9188 21.1912L51.9036 21.2216L51.858 21.2672L51.8428 21.2823L51.7821 21.3431L51.7669 21.3583L51.7062 21.4191L51.6302 21.4951L51.5695 21.571L51.4935 21.647L51.4176 21.723V21.7382L51.3569 21.799L51.3417 21.8293L51.2809 21.8901L51.2658 21.9053L51.205 21.9661L51.1746 21.9965L51.1291 22.0573L51.0987 22.0876L51.0683 22.1332L51.0228 22.1788L50.9924 22.2244L50.9468 22.27L50.9165 22.3155L50.8557 22.3763L50.8405 22.4067L50.7798 22.4675L50.7646 22.4827L50.7039 22.5587L50.6887 22.5739L50.6128 22.665L50.5368 22.7562L50.4609 22.8473V22.8625L50.385 22.9537H50.3698L50.2938 23.0449L50.2787 23.0601L50.2179 23.136L50.2027 23.1512L50.142 23.2272L50.1116 23.2576L50.0661 23.3184L50.0357 23.3488L49.9901 23.4095L49.9446 23.4551L49.899 23.5007L49.8686 23.5615L49.8231 23.5919L49.7775 23.6526L49.7472 23.683L49.6712 23.7894L49.6105 23.8502L49.5801 23.8805L49.5194 23.9565L49.5042 23.9717L49.4282 24.0477V24.0629L49.3371 24.1388L49.2612 24.23L49.1853 24.3212L49.1701 24.3364L49.0942 24.4123L48.9423 24.5795L48.9119 24.6099L48.8512 24.6555L48.8208 24.6858L48.7297 24.777L48.6993 24.8226L48.6082 24.8986L48.5626 24.9441L48.5323 24.9745L48.4563 25.0505L48.3956 25.1113L48.3652 25.1265L48.3045 25.1872H48.2893L48.2134 25.2632L48.1374 25.324L47.9704 25.4607L47.8945 25.5215L47.7426 25.6279C47.6211 25.7089 47.4996 25.7798 47.3781 25.8406C47.4287 25.7393 47.4946 25.6228 47.5755 25.4911ZM16.6871 22.4827L16.6264 22.3915L16.5808 22.3307L16.5656 22.3004L16.5201 22.2244L16.4138 22.0421L16.3986 22.0269L16.353 21.9509L16.3075 21.8749L16.2467 21.7838L16.2164 21.723L16.2012 21.6926L16.1404 21.6014L16.0949 21.5103L16.0341 21.4191V21.4039L15.9886 21.3279L15.8823 21.1608L15.8519 21.1L15.8367 21.0696L15.7912 20.9785L15.6849 20.7961V20.7809L15.6393 20.705L15.533 20.5074L15.5178 20.4619L15.4874 20.4163L15.366 20.1732L15.3508 20.1428L15.3052 20.0516L15.2141 19.8541L15.1989 19.8085C15.047 19.5148 14.9104 19.2109 14.7889 18.8969L14.7585 18.8057L14.7433 18.7905L14.6218 18.5018V18.4714L14.5155 18.1979L14.4852 18.122V18.0916L14.3789 17.7877L14.3637 17.7725L14.3485 17.6965L14.2726 17.4838L14.2574 17.423L14.2422 17.3775L14.1511 17.0888V17.0736V17.0584L14.1207 16.9672C14.0701 16.7545 14.0195 16.5418 13.9688 16.3291L13.0577 13.1687L13.0425 13.3814V13.5029V13.5941L13.0273 13.8068V13.8372L13.0121 14.0044V14.0196V14.1715V14.2323V14.3386V14.445V14.5058V14.6729V14.84V14.8856V15.0072V15.0983V15.1895V15.3111V15.3566V15.5238V15.539V15.6909L13.0273 15.7517V15.858V15.9796V16.0404L13.0425 16.1923V16.2075V16.3746L13.0577 16.405V16.6329L13.0729 16.7241V16.8457L13.088 16.8912L13.1032 17.0584V17.0736V17.2407L13.1184 17.2863L13.1336 17.4078V17.5142L13.1488 17.575L13.164 17.7269L13.1792 17.9244V17.9396L13.1944 18.0916L13.2095 18.1676L13.2703 18.6082L13.2855 18.7753L13.3006 18.8209L13.3158 18.9425L13.331 19.0336V19.1096L13.3614 19.2463V19.2767L13.3918 19.4439V19.4591L13.4221 19.611L13.4373 19.6718L13.4525 19.7781L13.4677 19.8845L13.4829 19.9453L13.5133 20.0972V20.1124L13.5436 20.2795L13.5588 20.3099L13.574 20.4467L13.5892 20.5226L13.6196 20.5986L13.6347 20.7354L13.6499 20.7657L13.6803 20.9329L13.6955 20.9481L13.7259 21.1L13.741 21.1456L13.7562 21.252L13.7866 21.3583L13.8018 21.4191L13.8322 21.5558L13.8474 21.571L13.8777 21.7382L13.8929 21.7534L13.9233 21.8901L13.9385 21.9661L13.9688 22.0421L13.9992 22.1636L14.1055 22.5131L14.1207 22.5587L14.2422 22.9385V22.9689L14.3029 23.1056V23.136C14.3637 23.3285 14.4295 23.5159 14.5003 23.6982C14.8193 24.5491 15.1989 25.3392 15.6089 26.0229L15.6393 26.0837C15.7203 26.2154 15.8064 26.3521 15.8975 26.4939L15.9278 26.5395L16.0038 26.6459L16.0341 26.6915L16.1101 26.7978L16.3227 27.0713V27.0865L16.353 27.1321L16.429 27.2385L16.4745 27.284L16.5505 27.3752L16.5808 27.4208L16.6568 27.5271L16.6871 27.5727L16.7783 27.6639L16.8086 27.7095L16.8997 27.8158L16.9301 27.8462L17.0212 27.9526L17.0516 27.983L17.1427 28.0893L17.1731 28.1197L17.2642 28.2261L17.2946 28.2565L17.3857 28.3628L17.4161 28.3932L17.5072 28.4844L17.5376 28.53L17.6287 28.6211L17.659 28.6515L17.7653 28.7579L17.7957 28.7883L17.8868 28.8794L17.9172 28.9098L18.0235 29.0162L18.0539 29.0466L18.145 29.1377L18.1754 29.1681L18.2817 29.2745L18.312 29.2897L18.4183 29.396L18.5398 29.5024L18.555 29.5176L18.5702 29.548L18.6917 29.6391L18.7069 29.6695L18.8132 29.7607L18.8436 29.7911L18.9499 29.8822L19.0713 29.9886L19.0865 30.0038L19.1169 30.019L19.2232 30.1253L19.2536 30.1405L19.3903 30.2621L19.5117 30.3533L19.5269 30.3684L19.6484 30.4748L19.6636 30.49L19.7851 30.5812L19.8003 30.5964L19.9218 30.7027L19.937 30.7179L20.0584 30.8091L20.0736 30.8243L20.1951 30.9154L20.2103 30.9306L20.3318 31.0218L20.3622 31.037L20.4837 31.1433H20.4988L20.6203 31.2497L20.6355 31.2649L20.757 31.3561L20.8937 31.4624H20.9089L21.0303 31.5688H21.0455L21.167 31.6599L21.1822 31.6751L21.3037 31.7663L21.3189 31.7815L21.4404 31.8727L21.4556 31.8879L21.577 31.979H21.5922L21.7137 32.0702L21.7289 32.0854L21.8504 32.1766H21.8656L21.9871 32.2677L22.3819 32.5716H22.3971L22.5186 32.6628L22.6401 32.7539L22.6553 32.7691L22.7767 32.8451V32.8603L22.8982 32.9515L23.0349 33.0426L23.1564 33.1338L23.2779 33.2249L23.3994 33.3161L23.5209 33.4073L23.6423 33.4984L23.7487 33.5896L23.7335 33.3769V33.3617L23.7031 33.1642L23.6879 33.1338L23.6575 32.9515V32.9363L23.612 32.7691L23.5968 32.7235V32.6931L23.5512 32.5412L23.536 32.4956C23.4955 32.3741 23.45 32.2475 23.3994 32.1158L23.3842 32.0854L23.369 32.055L23.3083 31.8879L23.2779 31.8423C23.2273 31.7106 23.1665 31.5789 23.0956 31.4472L23.0805 31.4168L22.9894 31.2193L22.9742 31.1889L22.883 31.0218L22.8527 30.9762L22.8071 30.885L22.7312 30.7635V30.7483L22.6553 30.6267L22.6249 30.5812L22.5641 30.49L22.4882 30.3533L22.4123 30.2469L22.3971 30.2165L22.3212 30.095L22.2452 29.9734L22.23 29.9582L22.1541 29.8518L22.1389 29.8215L22.0478 29.6847L22.0023 29.6239L21.9415 29.548L21.8504 29.4112L21.8352 29.396L21.7593 29.2745L21.6682 29.1529L21.653 29.1377L21.5467 29.001L21.5011 28.925L21.4556 28.849L21.3493 28.7123L21.3189 28.6819L21.243 28.5755L21.1367 28.4388L21.0303 28.2868L20.9696 28.2109L20.9089 28.1501L20.8026 27.9982L20.7722 27.9678L20.6963 27.8614L20.5899 27.7247L20.5748 27.7095L20.4685 27.5727L20.3925 27.4816L20.347 27.4208L20.2407 27.284L20.1951 27.2233L20.1192 27.1321L19.9977 26.9802L19.8762 26.8282L19.8003 26.7219L19.7699 26.6763L19.6484 26.5395L19.6029 26.4787L19.5269 26.3876L19.4054 26.2356L19.3903 26.2204L19.284 26.0685L19.1928 25.9621L19.1625 25.9166L18.9802 25.6887L18.9195 25.6127L18.798 25.4455L18.7828 25.4303L18.6765 25.2936L18.5702 25.1569L18.555 25.1417L18.4335 24.9745L18.3728 24.8834L18.312 24.8226L18.1906 24.6555C17.6742 23.9565 17.1579 23.2272 16.6871 22.4827ZM20.2862 20.9481L20.271 20.9329L20.1951 20.8265L20.1647 20.8113L20.0888 20.705L20.0736 20.6898L19.9977 20.5986L19.9673 20.5682L19.8914 20.4771L19.861 20.4315L19.7851 20.3555L19.7547 20.3099L19.694 20.234L19.6636 20.2036L19.5877 20.1276L19.5573 20.082L19.4966 20.006L19.451 19.9605L19.3903 19.8845L19.3447 19.8389L19.2991 19.7781L19.2536 19.7174L19.1928 19.6566L19.1017 19.535L19.041 19.4742L18.9954 19.4287L18.9499 19.3679L18.9043 19.3071L18.8436 19.2463L18.798 19.2008L18.7373 19.1248L18.7069 19.0792L18.6461 19.0032L18.6006 18.9728L18.5398 18.8969L18.5095 18.8513L18.4335 18.7753L18.4183 18.7449L18.3424 18.6538L18.312 18.6234L18.2361 18.5474L18.2209 18.517L18.145 18.4259L18.1146 18.3955L18.0387 18.3043L18.0235 18.2891L17.9476 18.1979L17.9324 18.1676L17.8413 18.0764V18.0612L17.7502 17.9548L17.735 17.9396L17.6439 17.8333L17.5527 17.7269V17.7117L17.4616 17.6054L17.3705 17.4838H17.3553L17.2794 17.3775L17.2642 17.3623L17.1883 17.2559L17.1731 17.2407L17.082 17.1343V17.1192L16.9909 17.028V16.9976L16.8997 16.876L16.8238 16.7849L16.7934 16.7545L16.7327 16.6633L16.7023 16.6329L16.6416 16.5418L16.6112 16.5114L16.5505 16.4354L16.5201 16.3898L16.4594 16.3139L16.4442 16.2683L16.3834 16.1923L16.353 16.1467L16.2923 16.0708L16.2619 16.01L16.2012 15.9492L16.1708 15.8884L16.1253 15.8125L16.0797 15.7669L16.0341 15.6909L16.0038 15.6301L15.9582 15.5694L15.9127 15.5086L15.8671 15.4478L15.8367 15.3718L15.6697 15.1135L15.6393 15.0528L15.5786 14.9768L15.5482 14.9312L15.5026 14.84C15.4216 14.7084 15.3406 14.5716 15.2597 14.4298L15.2445 14.3842L15.1837 14.2778L15.1078 14.1411L15.0926 14.1107L15.047 14.0044L15.0319 13.974L14.9711 13.8524L14.9559 13.8372L14.8952 13.7157L14.88 13.6853L14.8193 13.5637C14.7484 13.4118 14.6775 13.2598 14.6067 13.1079L13.7562 11.4365V11.862V11.8772V12.257V12.2874V12.3026V12.3178L13.7714 12.6825V12.6977V12.728L13.7866 13.1079L13.8018 13.1383L13.817 13.4422V13.5029L13.8322 13.5485L13.8474 13.7461V13.8068L13.8625 13.9436L13.9081 14.2627V14.2778V14.3234L13.9385 14.521L13.9537 14.6425L13.9688 14.7033L13.9992 14.9464L14.0296 15.0831L14.06 15.2655L14.0751 15.3111L14.0903 15.4326L14.1511 15.6909L14.1663 15.7213L14.1814 15.7973L14.227 16.0556L14.2422 16.1011L14.3181 16.3898L14.3333 16.4202L14.3485 16.4962L14.394 16.6633V16.6785L14.4548 16.8305L14.5003 17.0128V17.028L14.5459 17.1647L14.6067 17.3319L14.6522 17.4838L14.6674 17.499L14.713 17.6661L14.7585 17.7877L14.7737 17.8181L14.8344 17.9852L14.8952 18.122V18.1372L14.9559 18.3043L14.9863 18.3499L15.0319 18.4562L15.0926 18.6082L15.1382 18.7145L15.1533 18.7753L15.2293 18.9273L15.2445 18.9576L15.3052 19.0792L15.366 19.2311L15.4419 19.3527V19.3831L15.5178 19.5198L15.5937 19.6718L15.6697 19.8237L15.7456 19.9605V19.9757L15.8215 20.1124L15.8367 20.1276L15.8975 20.2643L15.9886 20.4163L16.0645 20.553L16.2316 20.8417L16.3227 20.9785L16.4138 21.1304L16.4897 21.2672L16.5808 21.4039V21.4191L16.7631 21.6926L16.839 21.8141L16.8542 21.8293L16.9453 21.9813L17.0212 22.0876L17.0364 22.118L17.1275 22.2548C17.6135 22.9841 18.145 23.6982 18.6765 24.4275L18.7524 24.5187L18.7828 24.5643L18.8284 24.6251L18.9043 24.7314L18.9802 24.8226L18.9954 24.8378L19.0562 24.9289L19.1321 25.0353L19.1928 25.1113L19.2232 25.1417L19.3751 25.3392L19.4054 25.4L19.451 25.4455L19.6029 25.6583L19.618 25.6887L19.6788 25.7646L19.7547 25.871L19.8306 25.9621V25.9773L19.9218 26.0837L19.9977 26.1901L20.0433 26.2508L20.0736 26.2964L20.1496 26.4028L20.2255 26.5091L20.2559 26.5547L20.3014 26.6155L20.4685 26.8282V26.8434L20.5444 26.9346L20.6203 27.0409L20.6963 27.1473V27.1625L20.7874 27.2688L20.8633 27.3752L20.9089 27.4512L20.9392 27.4968L21.0911 27.7095L21.1215 27.7551L21.1822 27.831L21.3341 28.0589L21.41 28.1653L21.4859 28.2868L21.5467 28.378L21.577 28.4084L21.653 28.5148L21.7289 28.6363L21.7745 28.6971L21.8048 28.7579L21.8808 28.8794L21.9719 29.001L21.9871 29.0162L22.1997 29.3504V29.3656L22.2756 29.4872L22.3515 29.6087L22.4123 29.6847L22.4426 29.7303L22.5186 29.8518L22.5945 29.9886L22.6249 30.0342L22.6704 30.1101L22.7464 30.2317L23.0349 30.7331L23.0501 30.7483L23.2475 31.0978L23.2779 31.1433L23.4297 31.4168L23.4601 31.4624L23.5057 31.5536L23.5816 31.6903L23.6575 31.8271L24.6598 33.3617V33.2249L24.675 33.1794V33.073V32.997V32.9211V32.8147V32.7691V32.6172V32.4652L24.6598 32.4197V32.4045V32.2373V32.2221V32.1614L24.6446 32.0246L24.6294 31.8423V31.8271L24.6143 31.6903V31.6296L24.5687 31.2649V31.2345V31.2041L24.5383 31.0522V31.0218L24.5231 30.885L24.508 30.8243L24.4928 30.7179L24.4776 30.6116L24.4472 30.3988L24.4168 30.2317L24.4017 30.2013L24.3713 30.0646L24.3561 29.9886L24.3257 29.7759L24.3105 29.7303L24.2802 29.5632L24.2346 29.396L24.2194 29.3504L24.189 29.2289L24.1739 29.1377L24.1587 29.0618L24.1283 28.925L24.1131 28.8946L24.0676 28.7275L24.022 28.5603L24.0068 28.5148L23.9764 28.3932L23.9461 28.302L23.9309 28.2261L23.8853 28.0893L23.8701 28.0589L23.8246 27.8918V27.8766L23.779 27.7247L23.7487 27.6639L23.7183 27.5575L23.6879 27.4512L23.6727 27.3904L23.612 27.2385V27.2233L23.5512 27.0561V27.0409L23.4905 26.889L23.4753 26.8282L23.4297 26.737L23.3994 26.6155L23.369 26.5699L23.3234 26.418L23.3083 26.4028L23.2475 26.2356L23.2323 26.2052L23.1868 26.0837L23.1564 26.0077L23.126 25.9166L23.0805 25.795L23.0653 25.7494L22.9894 25.5975L22.9286 25.4455L22.9134 25.4L22.8527 25.2784L22.8223 25.2024L22.7919 25.1265L22.7312 25.0049L22.716 24.9745L22.6401 24.8074L22.5793 24.6555L22.549 24.6099L22.5034 24.5035L22.4578 24.4275L22.4275 24.3668L22.3667 24.23L22.3515 24.2148L22.2908 24.0629L22.2756 24.0477L22.2149 23.9109L22.1845 23.8654L22.1389 23.7742L22.0782 23.683L22.063 23.6222L21.9871 23.5007V23.4855L21.9111 23.3488L21.896 23.3184L21.82 23.212C21.3948 22.4371 20.9392 21.7382 20.4837 21.176L20.2862 20.9481ZM42.6249 25.3544C42.0883 25.0505 41.5366 24.7669 40.9696 24.5035C39.208 26.5243 37.8717 28.4084 34.7585 29.9582C32.3288 31.1737 29.9597 36.598 29.2308 39.1507C28.8663 40.4422 28.35 46.535 28.3804 48.1L32.1617 42.3414C33.8322 39.0899 33.1032 36.5221 38.6613 29.4112L41.8504 26.0381C42.0175 25.8862 42.2908 25.6431 42.6249 25.3544ZM35.5026 22.6346C34.6623 22.4422 33.8018 22.2953 32.921 22.194C30.6127 26.1445 28.6537 28.8338 29.2156 36.6132C29.8079 35.8839 30.4609 34.1062 31.0076 33.1642C31.4783 32.3437 32.754 30.6571 33.0273 29.8822C33.6955 27.9982 33.4981 26.4332 34.9256 23.7438C35.1686 23.2576 35.3508 22.9233 35.5026 22.6346ZM27.4389 22.1028C25.8595 22.2396 24.3105 22.5131 22.8223 22.9233C23.3842 23.8654 23.4905 24.5187 24.0068 25.9318C25.8747 30.8395 25.5254 34.6532 25.9962 35.9295C26.0114 35.9903 27.8793 39.6217 28.0919 39.9256C28.8815 38.0263 28.2589 32.6324 27.7578 30.6116C26.877 27.1017 27.0136 24.6706 27.4389 22.1028ZM14.9711 26.5091C13.6196 27.4208 12.3591 28.454 11.205 29.5935C11.9643 30.3077 12.8754 31.0674 13.331 31.6296C17.0972 36.2334 17.7957 40.3662 17.5831 46.6566C21.82 49.3611 24.0827 52.4911 23.6879 57.7179C23.612 58.7967 23.4297 58.7663 23.7183 59.9514L24.5535 62.0178C26.0417 57.0494 28.1222 50.1816 26.0721 45.3043C24.7509 42.1287 21.4404 45.7753 16.5049 34.4253C26.9529 35.58 24.8572 42.9796 27.4996 46.3223C28.6993 41.4906 26.1632 36.7804 22.8982 34.015C19.4662 31.1282 17.5983 30.5204 15.1989 26.8586L14.9711 26.5091ZM10.4457 30.3533C6.02654 35.0786 3.32342 41.4298 3.32342 48.4191C3.32342 55.7123 6.26951 62.3217 11.0531 67.1079C13.6196 69.6757 16.7175 71.7117 20.1647 73.0488C21.7896 70.405 24.0372 65.7404 23.4753 62.6712C22.8527 59.1917 22.716 59.6476 20.3318 57.7179C17.9172 55.7579 14.47 51.7162 13.4373 48.7534C12.5565 46.2463 12.5565 44.9244 11.9643 42.4022C10.7342 37.2058 12.0402 33.6048 10.4457 30.3533ZM20.8633 73.3223C23.6424 74.3099 26.6188 74.8417 29.7319 74.8417C37.0212 74.8417 43.6272 71.8788 48.4108 67.1079C51.1595 64.3577 53.3007 60.9998 54.6371 57.2469C53.8474 56.1377 50.795 54.2688 49.1701 54.2232C48.0767 54.1929 40.59 58.4624 37.7654 59.6779C29.3675 63.3397 34.9559 59.8147 26.6947 65.786C24.2498 67.5333 22.7616 68.3386 22.7312 70.1923C22.3212 70.4658 21.3948 72.0764 20.8633 73.3223ZM55.3356 54.9222C54.9104 52.9317 52.6021 52.6279 50.5976 53.5699C51.3721 54.1777 52.4047 54.4512 53.2703 55.0285C53.7411 55.3628 54.3941 56.0617 54.956 56.3048C55.0977 55.849 55.2243 55.3881 55.3356 54.9222ZM34.5307 58.2041C37.6135 55.5299 40.9393 52.871 44.9028 51.4731C47.8945 50.4095 47.7122 51.1388 48.4412 50.2272C45.5558 48.8141 41.1215 50.5463 39.0562 52.0201C37.082 53.4332 35.0623 56.0465 33.817 58.5688C33.9537 58.6296 34.227 58.4472 34.5307 58.2041ZM35.1078 58.2801C34.5004 58.9182 33.817 59.6931 33.4525 60.2705C35.1989 60.149 41.9567 56.9278 43.369 56.0617C50.1268 51.8834 51.9188 52.9014 53.3159 52.172C51.3417 49.4371 45.6469 51.6099 43.6576 52.4455C40.8937 53.6155 37.4616 56.2289 35.1078 58.2801ZM13.2399 44.8788C13.5588 48.0392 15.0774 50.212 16.4745 52.4151C17.3098 53.737 20.0584 56.9126 21.7289 57.6419C21.5315 56.5024 14.5307 45.6841 13.2399 44.8788ZM22.8982 57.8546C23.0653 54.6487 22.2756 51.9897 20.4988 50.0449C19.451 48.8901 16.0797 46.3679 14.7281 45.7297C15.2293 46.9301 15.6697 47.2036 16.7023 48.8597C18.5854 51.154 21.1822 56.5783 22.8982 57.8546ZM12.6932 33.6656L12.0858 32.8147C11.9946 35.7776 11.6454 39.88 12.9514 42.3262C12.9969 42.4022 13.5133 43.2379 13.574 43.329C14.2422 44.1647 14.0296 43.9672 14.8041 44.1191C14.6978 41.369 14.1966 36.0966 12.6932 33.6656ZM19.451 36.9019H19.4206L19.4054 36.8867L19.3903 36.8715H19.3751L19.3599 36.8563H19.3447V36.8411H19.3295L19.3143 36.826H19.2991L19.284 36.8108L19.2688 36.7956H19.2536V36.7804H19.2384L19.2232 36.7652H19.208L19.1928 36.75H19.1776L19.1625 36.7348H19.1473L19.1169 36.7196H19.1017V36.7044H19.0865H19.0713L19.0562 36.6892H19.041L19.0258 36.674H19.0106L18.9954 36.6588H18.9802L18.965 36.6436H18.9499L18.9347 36.6284L18.8891 36.6132L18.8587 36.598L18.8132 36.5677H18.798L18.7676 36.5525L18.8132 36.6892L18.8587 36.8411L18.9043 36.9779L18.9499 37.1146L19.0106 37.2666L19.0562 37.4033L19.1169 37.5401L19.1776 37.6768L19.2384 37.8136L19.2991 37.9351L19.3599 38.0719L19.4358 38.2086L19.4966 38.3302L19.5725 38.4669L19.6332 38.5885L19.7092 38.7252L19.7851 38.8468L19.861 38.9683L19.9521 39.0899L20.0281 39.2114L20.104 39.333L20.1951 39.4545L20.2862 39.5761L20.3622 39.6825L20.4533 39.804L20.5444 39.9104L20.6355 40.0167V40.0319L20.7418 40.1383L20.8329 40.2446L20.924 40.351L21.0303 40.4574L21.1215 40.5637L21.2278 40.6701L21.3341 40.7764L21.4404 40.8676L21.5467 40.974L21.653 41.0651L21.7593 41.1563L21.8656 41.2626L21.9719 41.3538L22.0934 41.445L22.1997 41.5361L22.3212 41.6273L22.4275 41.7033L22.549 41.7944L22.6704 41.8704L22.7767 41.9616L22.8982 42.0375L23.0197 42.1135L23.1412 42.1895L23.2627 42.2655L23.3842 42.3414L23.5209 42.4174L23.6423 42.4934L23.7638 42.5541L23.9005 42.6301L24.022 42.6909L24.1435 42.7517L24.2802 42.8124L24.4017 42.8732L24.5383 42.934L24.675 42.9948L24.7965 43.0555L24.9332 43.1011C24.8269 42.2807 22.7767 39.9711 22.3515 39.5609L19.451 36.9019ZM19.208 36.0511V36.0662L19.2232 36.0814L19.2384 36.0966H19.2536V36.1118L19.2688 36.127L19.284 36.1422L19.2991 36.1574L19.3143 36.1726L19.3295 36.1878L19.3447 36.203L19.3599 36.2182V36.2334H19.3751L19.3903 36.2486L19.4054 36.2638L19.4206 36.279L19.4358 36.2942L19.451 36.3094L19.4662 36.3246L19.4814 36.3397L19.4966 36.3549L19.5117 36.3701L19.5269 36.3853L19.5421 36.4005L19.5573 36.4157L19.5725 36.4309L19.5877 36.4461L19.618 36.4765L19.6636 36.5069V36.5221L19.6788 36.5373H19.694V36.5525L19.7244 36.5677V36.5829L19.7547 36.598V36.6132L19.7851 36.6284L19.8155 36.6588L19.9218 36.75L21.3189 38.0111L21.3493 38.0415L21.3644 38.0567V38.0719H21.3796L21.3948 38.0871L21.41 38.1023L21.4252 38.1175L21.4404 38.1327L21.4859 38.1782H21.5011V38.1934L24.5839 41.3842V41.2626L24.5687 41.1411L24.5535 41.0043L24.5231 40.8828L24.4928 40.746L24.4624 40.6245L24.432 40.4877L24.3865 40.3662L24.3409 40.2294L24.2953 40.1079L24.2346 39.9711L24.1739 39.8496L24.1131 39.7128L24.0524 39.5913L23.9764 39.4697L23.9157 39.333L23.8246 39.2114L23.7487 39.0899L23.6727 38.9683L23.5816 38.8316L23.4905 38.71L23.3994 38.6037L23.3083 38.4821L23.2171 38.3606L23.1108 38.239L23.0197 38.1327L22.9134 38.0111L22.8071 37.9047L22.7008 37.7984L22.5945 37.692L22.4882 37.5857L22.3819 37.4945L22.2756 37.3881L22.1541 37.297L22.0478 37.1906L21.9415 37.0995L21.82 37.0235L21.7137 36.9323L21.6074 36.8411L21.4859 36.7652L21.3796 36.6892L21.2581 36.6132L21.1518 36.5525L21.0455 36.4765L20.9392 36.4157L20.8177 36.3549L20.7114 36.3094L20.6051 36.2486L20.4988 36.203L20.3925 36.1574L20.3014 36.127L20.1951 36.0966L20.104 36.0662L19.9977 36.0359L19.9066 36.0055L19.8155 35.9903H19.7244L19.6484 35.9751H19.5573H19.4814L19.4054 35.9903L19.3295 36.0055L19.2536 36.0207C19.2333 36.0308 19.2131 36.0409 19.1928 36.0511H19.208ZM13.2247 33.1946C13.5133 34.9115 14.3637 36.674 14.8041 38.4062C15.3356 40.5789 14.9711 42.7972 15.3204 44.9244C16.2316 45.5322 15.7 45.4258 16.8086 45.8209C16.8238 42.539 16.3227 35.109 13.2247 33.1946ZM29.3067 16.4354C29.413 16.6329 30.2027 15.5997 30.7646 14.8704C30.9772 14.6425 31.1594 14.3994 31.3417 14.1867C31.4783 14.0651 31.5998 13.898 31.6758 13.7005C31.8428 13.4726 31.9339 13.275 31.9491 13.1383C31.9643 12.7888 31.9643 12.4546 31.9643 12.1355C31.9795 10.1298 31.1746 7.56204 30.8405 7.85073C30.6583 8.68641 30.4457 9.46131 30.2483 10.2514C29.9901 10.8136 29.9294 11.5733 29.8383 12.1963L29.8231 12.2266V12.2874C29.5497 13.9436 29.079 14.7945 29.1397 16.5874C29.2004 16.5418 29.2764 16.3898 29.3067 16.4354ZM39.4662 45.7297C36.5809 46.064 34.5156 47.2643 32.7236 49.2396C32.0706 49.9537 32.2225 49.665 31.7061 50.5767C33.1944 48.8749 37.6591 46.687 39.4662 45.7297ZM31.5695 51.2908C34.4548 50.9565 37.3857 49.3763 39.1777 47.4011C39.8155 46.7021 39.6181 46.7173 40.8026 45.9272C39.2992 46.2007 35.6089 48.4799 34.0296 49.4523C33.1032 50.0145 32.4047 50.3487 31.5695 51.2908Z" fill="#76212E"/>
</g>
<g clip-path="url(#clip1_261_3338)">
<path fill-rule="evenodd" clip-rule="evenodd" d="M76.4414 67.3582V59.7468H79.6906C81.0236 59.7468 81.84 60.4572 81.84 61.5905C81.84 62.3854 81.4735 62.9774 80.857 63.1973C81.84 63.3665 82.4899 64.1107 82.4899 65.227C82.4899 66.4956 81.5568 67.3582 80.0238 67.3582H76.4414ZM77.2245 66.6309H79.8739C80.9903 66.6309 81.6234 66.0727 81.6234 65.1425C81.6234 64.2122 80.9903 63.6709 79.8739 63.6709H77.2245V66.6309ZM77.2245 62.9774H79.5573C80.507 62.9774 81.0569 62.5377 81.0569 61.7427C81.0569 60.9308 80.507 60.491 79.5573 60.491H77.2245V62.9774ZM84.4561 66.6986C83.9395 66.1742 83.6729 65.5146 83.6729 64.7365C83.6729 63.9416 83.9395 63.2988 84.4727 62.7745C84.9893 62.2501 85.6557 61.9795 86.4389 61.9795C87.0387 61.9795 87.5553 62.1148 88.0052 62.3685V63.0958C87.5386 62.8252 87.0554 62.6899 86.5389 62.6899C85.9557 62.6899 85.4558 62.876 85.0559 63.2819C84.6671 63.654 84.4727 64.1389 84.4727 64.7365C84.4727 65.3229 84.6671 65.8134 85.0559 66.2081C85.4558 66.5802 85.9557 66.7831 86.5389 66.7831C87.122 66.7831 87.6386 66.6309 88.1051 66.3265V67.0369C87.6219 67.3413 87.0554 67.4935 86.4222 67.4935C85.6557 67.4935 84.9893 67.2229 84.4561 66.6986ZM89.988 66.7155C89.4381 66.2081 89.1715 65.5484 89.1715 64.7365C89.1715 63.9416 89.4215 63.2988 89.9047 62.7745C90.3934 62.2445 91.0266 61.9795 91.8042 61.9795C93.5371 61.9795 94.2203 63.5187 94.2203 64.7027V64.9226H89.9713C90.0546 66.0558 90.9377 66.7831 92.1708 66.7831C92.7706 66.7831 93.3205 66.614 93.837 66.2926V66.9861C93.4038 67.3244 92.8039 67.4935 92.0208 67.4935C91.221 67.4935 90.5378 67.2229 89.988 66.7155ZM93.4371 64.2798C93.4205 63.8908 93.2705 63.5187 92.9872 63.1804C92.7206 62.859 92.3041 62.6899 91.7709 62.6899C91.2377 62.6899 90.8211 62.859 90.5045 63.1635C90.1879 63.4849 90.0046 63.857 89.988 64.2798H93.4371ZM90.3212 60.1866C90.5378 59.9836 90.8544 59.9836 91.0377 60.1866C91.2543 60.3896 91.2543 60.694 91.0377 60.9139C90.8544 61.1169 90.5378 61.1169 90.3212 60.9139C90.1379 60.694 90.1379 60.3896 90.3212 60.1866ZM92.4707 60.1866C92.6706 59.9836 93.0039 59.9836 93.1872 60.1866C93.3871 60.3896 93.3871 60.694 93.1872 60.9139C93.0039 61.1169 92.6706 61.1169 92.4707 60.9139C92.2874 60.694 92.2874 60.3896 92.4707 60.1866ZM97.8027 68.9143V66.6817H98.4525C99.0357 65.9036 99.319 64.6181 99.3356 62.859L99.3523 62.1148H103.185V66.6817H104.151V68.9143H103.401V67.3582H98.5358V68.9143H97.8027ZM102.418 66.6817V62.7914H100.069V63.1128C100.069 64.6689 99.8188 65.8529 99.319 66.6817H102.418ZM104.734 66.6309C104.784 66.6478 104.851 66.6478 104.934 66.6478C105.384 66.6478 105.684 66.3434 105.851 65.7683C106.017 65.1932 106.067 64.635 106.101 63.7893L106.151 62.1148H110.016V67.3413H109.233V62.7914H106.884L106.85 63.8062C106.85 64.1276 106.834 64.4152 106.817 64.652C106.767 65.1256 106.684 65.7852 106.5 66.2081C106.267 66.8339 105.767 67.409 104.951 67.3582C104.851 67.3582 104.784 67.3582 104.734 67.3413V66.6309ZM111.416 67.3582L112.966 65.2609C112.116 65.1255 111.649 64.5505 111.649 63.7217C111.649 62.7745 112.316 62.1148 113.515 62.1148H116.165V67.3582H115.398V65.4131H113.749L112.299 67.3582H111.416ZM115.398 64.7196V62.8083H113.615C112.866 62.8083 112.449 63.1466 112.449 63.7724C112.449 64.3813 112.866 64.7196 113.615 64.7196H115.398ZM123.413 59.7637H124.179V62.0302C125.096 62.0472 125.829 62.3178 126.362 62.8083C126.895 63.2988 127.162 63.9416 127.162 64.7534C127.162 65.5484 126.895 66.1911 126.362 66.6817C125.846 67.1722 125.112 67.4259 124.179 67.4428V69.5402H123.413V67.4428C122.496 67.4428 121.763 67.1722 121.23 66.6986C120.714 66.2081 120.447 65.5484 120.447 64.7534C120.447 63.9416 120.714 63.2988 121.23 62.8083C121.752 62.3234 122.48 62.0641 123.413 62.0302V59.7637ZM124.179 66.7662C124.829 66.7662 125.346 66.5971 125.762 66.2419C126.179 65.8867 126.395 65.3962 126.395 64.7534C126.395 64.1107 126.179 63.6202 125.762 63.265C125.346 62.9098 124.829 62.7237 124.179 62.7237V66.7662ZM123.413 62.7068C122.78 62.7068 122.23 62.8929 121.813 63.2481C121.397 63.6202 121.197 64.0938 121.197 64.7365C121.197 65.3793 121.397 65.8698 121.813 66.225C122.23 66.5802 122.78 66.7662 123.413 66.7662V62.7068ZM127.745 66.614C127.795 66.6309 127.862 66.6309 127.945 66.6309C128.412 66.6309 128.712 66.3265 128.862 65.7683C129.045 65.1932 129.095 64.635 129.128 63.7724L129.161 62.0979H133.027V67.3413H132.261V62.7914H129.911L129.878 63.7893C129.861 64.1276 129.845 64.3982 129.828 64.635C129.795 65.1086 129.695 65.7852 129.528 66.2081C129.278 66.8339 128.778 67.3921 127.962 67.3413C127.878 67.3413 127.795 67.3413 127.745 67.3413V66.614ZM137.259 61.9626C138.093 61.9626 138.759 62.2332 139.276 62.7745C139.792 63.3157 140.059 63.9585 140.059 64.7196C140.059 65.4807 139.792 66.1404 139.276 66.6647C138.759 67.206 138.093 67.4766 137.259 67.4766C136.443 67.4766 135.776 67.206 135.26 66.6647C134.727 66.1404 134.477 65.4807 134.477 64.7196C134.477 63.9585 134.727 63.3157 135.26 62.7745C135.776 62.2332 136.443 61.9626 137.259 61.9626ZM138.692 63.2481C138.326 62.859 137.843 62.673 137.259 62.673C136.693 62.673 136.21 62.859 135.826 63.2481C135.46 63.654 135.26 64.1276 135.26 64.7196C135.26 65.2947 135.46 65.7852 135.826 66.1742C136.21 66.5633 136.693 66.7662 137.259 66.7662C137.843 66.7662 138.326 66.5633 138.692 66.1742C139.076 65.7852 139.259 65.2947 139.259 64.7196C139.259 64.1332 139.07 63.6427 138.692 63.2481ZM142.258 69.5063H141.492V62.0979H142.258V62.9267C142.741 62.284 143.408 61.9626 144.258 61.9626C145.024 61.9626 145.657 62.2332 146.124 62.7745C146.607 63.2988 146.857 63.9585 146.857 64.7196C146.857 65.4807 146.607 66.1404 146.124 66.6647C145.657 67.206 145.024 67.4766 144.258 67.4766C143.408 67.4766 142.741 67.1383 142.258 66.4956V69.5063ZM142.258 65.5822C142.558 66.2757 143.291 66.7662 144.074 66.7662C144.641 66.7662 145.124 66.5633 145.507 66.1742C145.874 65.7852 146.074 65.2947 146.074 64.7196C146.074 64.1445 145.874 63.654 145.507 63.265C145.124 62.876 144.641 62.673 144.074 62.673C143.291 62.673 142.575 63.1804 142.258 63.857V65.5822ZM148.29 67.3413V62.0979H149.056V66.1911L152.372 62.0979H153.089V67.3413H152.306V63.265L149.006 67.3413H148.29ZM155.305 66.6817C154.788 66.1573 154.522 65.4977 154.522 64.7196C154.522 63.9246 154.788 63.2819 155.322 62.7576C155.838 62.2332 156.505 61.9626 157.288 61.9626C157.888 61.9626 158.404 62.0979 158.854 62.3516V63.0789C158.371 62.8083 157.904 62.673 157.388 62.673C156.804 62.673 156.305 62.876 155.905 63.265C155.516 63.6371 155.322 64.122 155.322 64.7196C155.322 65.306 155.516 65.7965 155.905 66.1911C156.305 66.5633 156.804 66.7662 157.388 66.7662C157.971 66.7662 158.487 66.614 158.937 66.3095V67.0199C158.471 67.3244 157.904 67.4766 157.271 67.4766C156.488 67.4766 155.838 67.206 155.305 66.6817ZM161.67 67.3413V62.7745H159.804V62.0979H164.319V62.7745H162.436V67.3413H161.67ZM165.502 67.3413V62.0979H166.269V66.1911L169.585 62.0979H170.301V67.3413H169.535V63.265L166.219 67.3413H165.502ZM172.884 62.0979V64.2629L175.35 62.0979H176.4L173.667 64.4659L176.783 67.3413H175.683L172.884 64.7534V67.3413H172.117V62.0979H172.884ZM177.899 67.3413V62.0979H178.666V66.1911L181.981 62.0979H182.698V67.3413H181.915V63.265L178.616 67.3413H177.899ZM187.962 67.409V62.1486H188.729V66.2419L192.028 62.1486H192.745V67.409H191.978V63.3157L188.679 67.409H187.962ZM196.727 68.9481V66.7155H197.377C197.943 65.9374 198.243 64.6689 198.243 62.8929L198.26 62.1486H202.092V66.7155H203.059V68.9481H202.309V67.409H197.46V68.9481H196.727ZM201.326 66.7155V62.8421H198.976V63.1635C198.976 64.7196 198.726 65.9036 198.227 66.7155H201.326ZM204.758 66.7662C204.225 66.2419 203.958 65.5822 203.958 64.7873C203.958 63.9923 204.192 63.3326 204.675 62.8252C205.175 62.2952 205.808 62.0302 206.574 62.0302C208.307 62.0302 208.99 63.5694 208.99 64.7534V64.9733H204.742C204.825 66.0896 205.708 66.817 206.941 66.817C207.541 66.817 208.107 66.6647 208.607 66.3434V67.0369C208.174 67.3751 207.574 67.5274 206.791 67.5274C205.991 67.5274 205.308 67.2737 204.758 66.7662ZM208.207 64.3306C208.191 63.9246 208.041 63.5525 207.757 63.2312C207.491 62.8929 207.091 62.7237 206.541 62.7237C206.008 62.7237 205.591 62.8929 205.275 63.2142C204.975 63.5187 204.792 63.8908 204.758 64.3306H208.207ZM211.19 62.1486V64.3137L213.656 62.1486H214.706L211.973 64.5166L215.089 67.409H213.989L211.19 64.8211V67.409H210.423V62.1486H211.19ZM218.271 62.0302C219.105 62.0302 219.754 62.3009 220.288 62.8421C220.804 63.3665 221.071 64.0261 221.071 64.7873C221.071 65.5484 220.804 66.1911 220.288 66.7324C219.754 67.2567 219.105 67.5274 218.271 67.5274C217.455 67.5274 216.789 67.2567 216.272 66.7324C215.739 66.1911 215.489 65.5484 215.489 64.7873C215.489 64.0261 215.739 63.3665 216.272 62.8421C216.789 62.3009 217.455 62.0302 218.271 62.0302ZM219.704 63.3157C219.338 62.9267 218.855 62.7237 218.271 62.7237C217.705 62.7237 217.222 62.9267 216.839 63.3157C216.472 63.7048 216.272 64.1953 216.272 64.7873C216.272 65.3623 216.472 65.8528 216.839 66.2419C217.222 66.6309 217.705 66.817 218.271 66.817C218.855 66.817 219.338 66.6309 219.704 66.2419C220.088 65.8528 220.271 65.3623 220.271 64.7873C220.271 64.2009 220.082 63.7104 219.704 63.3157ZM223.27 69.574H222.504V62.1486H223.27V62.9943C223.753 62.3516 224.42 62.0302 225.27 62.0302C226.036 62.0302 226.653 62.3009 227.136 62.8252C227.619 63.3665 227.869 64.0092 227.869 64.7703C227.869 65.5484 227.619 66.1911 227.136 66.7324C226.653 67.2567 226.036 67.5274 225.27 67.5274C224.42 67.5274 223.753 67.206 223.27 66.5632V69.574ZM223.27 65.6499C223.57 66.3434 224.303 66.8339 225.086 66.8339C225.653 66.8339 226.136 66.6309 226.503 66.2419C226.886 65.8359 227.069 65.3454 227.069 64.7703C227.069 64.1953 226.886 63.7048 226.503 63.3157C226.136 62.9267 225.653 62.7406 225.086 62.7406C224.303 62.7406 223.587 63.2311 223.27 63.9246V65.6499ZM229.435 67.0707C229.052 66.7662 228.869 66.3434 228.869 65.8021C228.869 65.2609 229.069 64.838 229.469 64.5335C229.869 64.2122 230.368 64.06 230.985 64.06C231.651 64.06 232.268 64.2291 232.834 64.5674V64.043C232.834 63.1635 232.268 62.7406 231.135 62.7406C230.535 62.7406 229.969 62.9098 229.452 63.265V62.5038C229.952 62.1994 230.568 62.0302 231.302 62.0302C232.685 62.0302 233.618 62.7068 233.618 63.9754V66.1404C233.618 66.5294 233.801 66.7831 234.101 66.7831C234.217 66.7831 234.317 66.7662 234.401 66.7155V67.3244C234.301 67.409 234.134 67.4428 233.884 67.4428C233.384 67.4428 233.001 67.1722 232.918 66.614C232.396 67.2229 231.701 67.5274 230.835 67.5274C230.285 67.5274 229.819 67.3751 229.435 67.0707ZM232.834 65.9543V65.227C232.318 64.8718 231.751 64.7027 231.168 64.7027C230.218 64.7027 229.635 65.1086 229.635 65.7514C229.635 66.4618 230.235 66.8339 231.052 66.8339C231.785 66.8339 232.468 66.4279 232.834 65.9543Z" fill="#76212E"/>
<path fill-rule="evenodd" clip-rule="evenodd" d="M85.7353 30.7964C86.7444 31.0483 87.5072 31.4921 88.0235 32.1278C88.5399 32.7515 88.798 33.5611 88.798 34.5566C88.798 35.876 88.3286 36.8955 87.3899 37.6152C86.4393 38.3468 85.0605 38.7127 83.2534 38.7127H76.4414V23.4559H82.8485C84.4914 23.4559 85.7705 23.7977 86.6858 24.4814C87.6011 25.1531 88.0587 26.1186 88.0587 27.378C88.0587 28.2056 87.8534 28.9133 87.4427 29.501C87.0437 30.0767 86.4745 30.5085 85.7353 30.7964ZM78.5536 30.1667H82.7077C83.7404 30.1667 84.5325 29.9568 85.084 29.537C85.6355 29.1172 85.9113 28.4995 85.9113 27.6839C85.9113 26.8683 85.6297 26.2505 85.0664 25.8307C84.5149 25.3989 83.7286 25.1831 82.7077 25.1831H78.5536V30.1667ZM83.2182 36.9855C85.5064 36.9855 86.6506 36.1159 86.6506 34.3767C86.6506 33.5011 86.3631 32.8534 85.7881 32.4336C85.2131 32.0258 84.3564 31.8219 83.2182 31.8219H78.5536V36.9855H83.2182ZM104.552 23.4559V38.7127H102.457V25.345H95.8564L95.698 29.8249C95.6276 31.9239 95.4633 33.6271 95.2051 34.9345C94.947 36.2418 94.5304 37.2254 93.9554 37.8851C93.3921 38.5448 92.6235 38.8746 91.6495 38.8746C91.2154 38.8746 90.7694 38.8206 90.3118 38.7127L90.4702 36.7696C90.6932 36.8296 90.9161 36.8596 91.1391 36.8596C91.7493 36.8596 92.2421 36.6077 92.6176 36.1039C92.9814 35.6001 93.2572 34.8445 93.4449 33.837C93.6327 32.8414 93.7559 31.5221 93.8146 29.8788L94.0434 23.4559H104.552ZM118.897 34.8985H110.959L109.322 38.7127H107.122L113.881 23.4559H115.993L122.77 38.7127H120.534L118.897 34.8985ZM118.158 33.1533L114.937 25.6688L111.716 33.1533H118.158ZM139.65 36.8056V42.0411H137.661V38.6947H125.375L125.357 42.0411H123.386L123.404 36.8056H124.125C125.064 36.7456 125.727 35.99 126.114 34.5386C126.49 33.0753 126.724 31.0123 126.818 28.3496L126.959 23.4559H137.45V36.8056H139.65ZM128.684 28.5475C128.614 30.6945 128.449 32.4756 128.191 33.891C127.933 35.2943 127.511 36.2658 126.924 36.8056H135.338V25.345H128.79L128.684 28.5475ZM173.974 36.8056V42.0411H172.003V38.6947H159.716L159.699 42.0411H157.727L157.745 36.8056H158.467C159.406 36.7456 160.069 35.99 160.456 34.5386C160.831 33.0753 161.066 31.0123 161.16 28.3496L161.301 23.4559H171.791V36.8056H173.974ZM163.008 28.5475C162.938 30.6945 162.773 32.4756 162.515 33.891C162.245 35.2943 161.823 36.2658 161.248 36.8056H169.662V25.345H163.114L163.008 28.5475ZM187.721 36.8056V38.6947H176.896V23.4559H187.422V25.345H179.026V30.0408H186.507V31.8759H179.026V36.8056H187.721ZM196.258 32.0018H193.143V38.6947H191.066V23.4559H193.143V30.0768H196.311L200.993 23.4559H203.281L197.948 30.8324L203.528 38.6947H201.099L196.258 32.0018ZM212.399 38.8926C210.886 38.8926 209.524 38.5568 208.316 37.8851C207.107 37.2014 206.162 36.2658 205.482 35.0784C204.789 33.891 204.443 32.5656 204.443 31.1023C204.443 29.627 204.789 28.2956 205.482 27.1082C206.162 25.9207 207.107 24.9851 208.316 24.3015C209.524 23.6298 210.886 23.2939 212.399 23.2939C213.89 23.2939 215.239 23.6298 216.448 24.3015C217.656 24.9851 218.601 25.9147 219.282 27.0902C219.962 28.2776 220.303 29.615 220.303 31.1023C220.303 32.5776 219.962 33.9089 219.282 35.0964C218.601 36.2718 217.656 37.2014 216.448 37.8851C215.239 38.5568 213.89 38.8926 212.399 38.8926ZM212.399 36.9495C213.491 36.9495 214.47 36.6976 215.339 36.1939C216.219 35.6901 216.911 34.9884 217.416 34.0889C217.92 33.2013 218.173 32.2058 218.173 31.1023C218.173 29.9988 217.92 28.9973 217.416 28.0977C216.911 27.2101 216.219 26.5084 215.339 25.9927C214.47 25.4889 213.491 25.237 212.399 25.237C211.296 25.237 210.305 25.4889 209.425 25.9927C208.533 26.5084 207.834 27.2101 207.33 28.0977C206.825 28.9973 206.573 29.9988 206.573 31.1023C206.573 32.2058 206.825 33.2013 207.33 34.0889C207.834 34.9884 208.533 35.6901 209.425 36.1939C210.305 36.6976 211.296 36.9495 212.399 36.9495ZM229.579 23.4739C231.503 23.4739 233.023 23.9476 234.138 24.8952C235.241 25.8308 235.792 27.1261 235.792 28.7814C235.792 30.4366 235.241 31.738 234.138 32.6855C233.023 33.6331 231.503 34.1068 229.579 34.1068H225.882V38.7127H223.753V23.4739H229.579ZM229.508 32.1997C230.858 32.1997 231.891 31.9059 232.606 31.3182C233.31 30.7304 233.663 29.8848 233.663 28.7814C233.663 27.6779 233.31 26.8323 232.606 26.2446C231.891 25.6568 230.858 25.363 229.508 25.363H225.9V32.1997H229.508Z" fill="#76212E"/>
<path d="M76.4414 50.3733H235.792V51.4148H76.4414V50.3733Z" fill="#76212E"/>
<path d="M145.181 30.5845H154.555V31.626H145.181V30.5845Z" fill="#76212E"/>
</g>
<defs>
<clipPath id="clip0_261_3338">
<rect width="102" height="82" fill="white"/>
</clipPath>
<clipPath id="clip1_261_3338">
<rect width="164.558" height="61.4491" fill="white" transform="translate(76.4414 20.1697)"/>
</clipPath>
</defs>
</svg>
