<svg width="350" height="176" viewBox="0 0 350 176" fill="none" xmlns="http://www.w3.org/2000/svg">
<path d="M349.454 54.3193C350.057 54.3193 350.057 54.3193 349.454 54.3193C348.85 53.7157 348.85 53.7157 348.247 53.7157C348.247 53.7157 348.247 53.7156 347.643 53.1121C347.04 53.1121 347.04 52.5087 346.436 52.5087C344.022 50.6981 341.608 48.8873 339.194 47.0766C336.779 45.266 334.365 44.059 331.951 42.8519H331.347C330.14 42.2484 328.933 41.6447 327.726 41.0412C327.123 40.4376 326.519 40.4377 325.916 39.8342C325.312 39.2306 325.312 39.2305 324.708 38.627C324.105 38.0235 323.501 36.8164 322.294 36.2128C321.691 35.0058 321.087 34.4022 320.484 33.1951C319.277 30.7809 318.069 28.9702 316.862 26.556C316.259 25.349 315.655 24.7454 315.052 23.5383C314.448 22.9348 313.845 21.7277 313.241 21.1242C312.637 20.5206 312.034 19.3136 310.827 18.71C310.223 18.1065 309.016 17.5028 308.413 16.8993C306.602 15.6922 304.791 14.4851 302.981 13.8815C301.17 12.6744 299.359 12.0709 297.549 10.8638L296.945 10.2604C295.135 9.05328 293.324 7.84619 291.513 7.24264C289.703 6.03555 287.892 5.432 286.081 4.22491C284.271 3.01781 282.46 2.41412 280.65 1.81057C278.839 1.20702 277.028 0.603547 274.614 0C273.407 0 272.803 0 271.596 0C270.389 0 269.786 0 268.579 0C266.768 0 264.957 0.603584 263.147 0.603584C260.732 1.20713 257.715 1.81068 255.904 3.62132C254.697 4.82842 253.49 6.63898 252.283 8.44963C251.076 10.2603 249.869 12.0709 249.265 13.8815C248.058 15.6922 247.454 17.5029 246.851 19.3136C246.247 21.1242 245.04 22.9348 244.437 24.7455C243.833 26.5561 243.23 28.3667 242.023 30.1774C241.419 31.3845 240.815 32.5916 240.212 33.7987C239.005 36.2129 237.194 38.627 235.383 41.0412C234.78 42.2482 233.573 42.8518 232.969 44.0589C232.366 44.6624 231.159 45.8695 230.555 47.0766C229.348 48.8873 228.745 50.6981 227.537 52.5087C226.934 54.3193 226.33 56.13 226.33 58.5442C226.33 60.3548 226.33 62.1654 225.727 63.9761C225.727 65.7867 225.727 67.5974 225.123 70.0115V70.6151C225.123 71.2187 225.123 71.8221 225.123 72.4257C224.52 74.2363 224.52 76.6505 224.52 78.4612C224.52 80.2718 224.52 82.686 224.52 84.4966C224.52 88.7215 224.52 92.3428 224.52 96.5676V97.1712C224.52 97.1712 224.52 97.1712 224.52 97.7748C224.52 97.7748 224.52 97.7746 224.52 98.3782C224.52 98.9817 224.52 100.189 224.52 100.792C224.52 101.396 224.52 102.603 224.52 103.207C224.52 103.81 224.52 104.414 223.916 105.017C223.916 105.621 223.313 106.224 223.313 106.828C223.313 107.432 222.709 108.035 222.709 108.639C222.709 109.242 222.105 109.846 222.105 110.449L221.502 111.053L220.898 111.656C220.898 111.053 220.295 110.449 220.295 109.846C219.691 106.828 218.484 103.207 217.881 100.189C217.277 97.1712 216.07 94.1534 215.466 91.1357C215.466 90.5322 215.466 89.9285 214.863 89.3249C214.863 89.3249 214.863 89.3251 214.863 88.7215C214.259 86.9109 214.259 85.7037 213.656 83.8931C213.052 82.0824 212.449 80.8754 211.845 79.0648C211.242 77.8577 210.638 76.0469 210.034 74.8398C209.431 73.6328 208.827 71.8222 208.224 70.6151C207.62 69.408 207.017 68.2009 206.413 66.3902C205.81 65.1831 205.81 63.976 205.206 62.7689C204.603 61.5618 203.999 60.3548 203.396 58.5442C202.792 57.3371 202.188 56.1299 201.585 54.9229C200.981 53.7158 199.774 52.5086 199.171 51.3015C199.171 51.3015 199.171 50.6979 198.567 50.6979C198.567 50.6979 198.567 50.6979 197.963 50.0944V49.491C197.36 48.2839 197.36 47.6803 196.756 46.4732C195.549 44.6626 194.946 42.8518 193.739 41.0412C193.135 39.8341 192.532 39.2305 191.928 38.0234C191.324 36.8163 190.721 36.2128 190.117 35.0057C188.91 33.195 187.703 31.988 186.496 30.1774C186.496 30.1774 186.496 29.5738 185.893 29.5738C185.893 28.9702 185.289 28.9704 185.289 28.3668C185.289 28.3668 185.289 28.3668 185.289 27.7632C184.082 26.5561 183.478 25.349 182.271 23.5383C181.064 22.3312 179.857 21.1241 178.65 19.917C176.236 17.5028 173.218 15.0886 168.993 14.4851C167.183 14.4851 165.372 13.8815 164.165 13.8815C162.354 13.8815 159.94 13.278 158.129 13.8815C155.715 13.8815 153.905 14.4851 151.49 14.4851C147.266 15.0886 143.644 15.6923 139.419 16.2959C136.402 16.2959 133.988 16.8993 130.97 16.8993C129.763 16.8993 128.556 16.8993 127.349 17.5028C126.141 17.5028 125.538 17.5029 124.331 18.1064C121.313 18.71 118.899 19.9171 116.485 21.1242C115.277 21.7277 114.071 22.9348 112.863 23.5383C111.656 24.7454 111.053 25.349 109.846 26.556C108.035 28.9702 106.828 31.3845 105.621 33.7987C104.414 36.2129 103.81 38.0236 102.603 40.4378C101.999 41.0413 101.999 41.6448 101.396 42.2483C101.396 42.8519 100.792 42.8519 100.189 43.4555L99.5853 44.0589C98.9818 44.6624 98.3783 44.6625 97.7747 45.2661C97.1712 45.2661 96.5675 45.8696 95.964 45.8696C95.3604 45.8696 95.3605 45.8697 94.757 46.4732C94.1535 46.4732 93.5498 46.4732 92.9463 46.4732C91.7392 46.4732 90.5322 46.4732 88.7215 46.4732C85.7038 46.4732 83.2895 47.0767 80.2717 48.2838C77.8575 49.4909 74.8399 51.3015 73.0293 53.1121C71.2186 55.5263 69.4079 57.9406 68.8044 60.9583C68.2008 63.9761 67.5974 66.3902 67.5974 69.408C67.5974 70.6151 67.5974 72.4258 67.5974 73.6329C67.5974 74.84 68.2008 76.0469 68.2008 77.254C68.8043 79.0646 69.408 80.2718 70.0115 82.0825C70.6151 83.2896 71.2186 84.4967 72.4257 85.7038C73.0292 86.9109 73.6327 87.5145 74.8398 88.7215C75.4434 89.3251 76.047 90.5322 76.6506 91.1357C78.4612 92.9463 79.6683 94.1534 81.4789 95.964C82.0824 96.5676 82.6859 97.1712 83.2895 97.7748C83.893 98.3783 85.1003 98.9818 85.7038 99.5853C86.3073 100.189 87.5144 100.792 88.118 101.396C89.325 102.603 90.532 103.207 92.3427 104.414C93.5498 105.621 95.3605 106.224 96.5676 107.431C97.7747 108.035 98.3782 109.242 99.5853 109.846C100.189 110.449 101.396 111.053 102.603 112.26C104.414 114.071 106.828 115.278 108.639 117.088C109.242 117.692 109.846 118.295 110.449 118.295C111.656 118.899 112.863 120.106 114.07 121.313C117.088 123.727 120.106 126.745 123.124 129.159C126.141 132.177 129.763 134.591 133.384 137.005C135.195 138.212 137.005 139.419 138.816 140.626C139.419 141.23 140.626 141.834 141.23 141.834C143.041 142.437 144.248 143.644 146.059 144.248C147.266 144.851 148.473 145.455 149.68 145.455C150.283 145.455 150.887 145.455 151.49 146.059C152.094 146.059 152.697 146.059 153.301 146.059C153.905 146.059 154.508 146.059 155.715 146.059C156.319 146.059 156.922 146.059 156.922 146.059H157.526C158.129 146.059 158.733 146.059 159.94 146.059C159.94 146.059 159.94 146.059 160.544 146.059C159.94 147.266 159.94 148.473 159.94 149.68C159.337 149.68 158.733 149.68 158.129 149.076C155.112 148.473 152.697 147.266 149.68 146.059C145.455 144.248 141.834 142.437 138.212 140.626C134.591 138.816 130.97 137.609 127.349 135.798C125.538 135.195 123.727 133.988 121.917 133.384C120.106 132.177 117.692 130.97 115.881 130.366C114.674 129.763 113.467 128.556 112.26 127.952C111.656 127.349 111.053 127.349 111.053 126.745C110.449 126.141 109.242 125.538 108.639 124.934C106.224 123.124 104.414 121.917 101.999 120.106C100.189 118.899 97.7746 117.088 95.964 115.881C91.1356 112.863 85.7038 110.449 79.6683 109.242C76.6506 108.639 73.0293 108.639 70.0115 108.639C67.5973 108.639 65.1831 108.035 62.7689 108.035C61.5618 108.035 60.9582 108.035 59.7511 107.431C57.337 106.828 54.9229 106.828 52.5087 106.224C51.3016 106.224 50.0945 105.621 48.8874 105.621C47.6803 105.621 46.4731 105.621 44.6625 105.621C41.6447 105.621 39.2306 105.621 36.2128 106.828C33.1951 107.432 30.1774 109.242 27.7632 111.053C26.5561 112.26 25.349 113.467 24.1419 114.674C22.9348 115.881 21.7277 117.088 20.5206 118.295C18.7099 120.71 16.2958 123.727 15.0887 126.745C12.0709 133.988 13.278 141.834 14.4851 149.68C15.6922 155.112 16.8993 159.94 17.5028 165.372C17.5028 166.579 17.5028 167.786 17.5028 168.993C17.5028 169.597 17.5028 169.597 17.5028 170.2C17.5028 170.804 17.5028 171.407 17.5028 171.407C17.5028 172.011 17.5028 172.615 17.5028 173.218C17.5028 174.425 16.8993 175.632 16.8993 176.839C16.2957 178.046 16.2958 179.254 15.6923 180.461C15.0887 181.668 14.4851 182.875 13.8815 183.478C13.278 184.685 12.6745 185.289 12.0709 186.496C11.4674 187.1 11.4673 187.703 10.8638 188.307C10.2602 188.91 9.65676 189.514 9.05321 190.117C8.44966 190.721 7.84604 191.324 7.84604 191.928C7.24249 192.532 6.63906 193.135 6.63906 193.739C6.03551 194.342 6.03544 194.946 5.43189 195.549C4.82834 196.153 4.82845 196.756 4.22491 197.963C3.62136 199.171 3.0177 200.378 2.41415 201.585C1.81061 203.395 1.20713 205.206 0.603584 207.62C3.68286e-05 209.431 0 211.845 0 213.656C0 216.673 0.603474 220.295 1.81057 223.313C3.01766 226.934 4.82842 229.952 6.63906 232.366C9.05325 235.383 11.4674 237.798 14.4851 239.608C15.6922 240.815 17.5029 242.022 19.3136 243.23C20.5207 244.437 22.3312 245.04 23.5383 246.247C25.349 247.454 26.5562 248.058 28.3668 248.662C29.5739 249.265 31.3845 249.869 33.1951 250.472C34.4022 250.472 35.0057 250.472 36.2128 251.076C36.8164 251.076 37.4199 251.076 38.627 251.076C39.2305 251.076 39.834 251.076 41.0411 251.076C43.4553 251.076 45.8696 250.472 48.2838 249.869C49.4909 249.869 50.698 249.869 51.9051 249.869C52.5087 249.869 53.1121 249.869 53.7157 249.869C54.3192 249.869 54.9228 249.869 54.9228 249.869C55.5264 249.869 55.5263 249.869 56.1298 250.472C56.7334 250.472 56.7334 251.076 57.337 251.076C58.5441 251.679 59.7512 252.886 60.9583 254.094C61.5619 254.697 62.7689 255.301 63.3725 255.904C63.976 256.508 64.5795 256.508 65.183 257.111C65.7866 257.715 66.9938 257.715 67.5974 257.715C69.408 258.318 71.2186 258.318 73.0293 258.318C74.8399 258.318 76.6505 258.318 78.4612 258.318C80.8753 258.318 83.2896 258.318 85.7038 258.318C88.118 258.318 91.1357 257.715 93.5498 257.111C98.3782 256.508 103.207 255.301 108.035 254.094C110.449 253.49 113.467 252.886 115.881 252.283C117.088 251.679 118.899 251.679 120.106 251.076C121.313 250.472 122.52 250.472 123.727 249.869C126.141 249.265 127.952 248.058 130.366 246.851C130.97 246.247 132.177 246.247 132.78 245.644C133.384 245.04 134.591 244.437 135.195 243.833C136.402 243.23 137.005 242.023 138.212 241.419C141.834 237.798 144.851 234.176 148.473 229.952C151.49 226.33 154.508 222.106 157.526 218.484C158.733 216.674 160.544 214.863 162.354 213.052C162.958 212.449 164.165 211.242 164.768 210.638C165.975 209.431 166.579 208.827 167.786 207.62C168.993 206.413 170.2 205.206 172.011 203.999C173.218 202.792 174.425 202.188 175.029 200.981C176.236 199.774 177.443 198.567 178.65 197.36C179.857 196.757 181.064 196.153 182.271 195.549C183.478 194.946 184.686 194.342 185.289 193.739C185.893 193.739 185.893 194.342 186.496 194.342V194.946C186.496 195.549 185.893 195.549 185.893 196.153C185.289 196.756 185.289 197.964 184.686 198.567C183.478 201.585 182.271 204.603 180.461 208.224C179.857 210.035 178.65 211.845 178.046 213.052C177.443 214.863 176.236 216.07 175.632 217.277C175.029 218.484 173.822 219.691 173.218 220.898C172.011 222.105 171.408 223.312 170.2 225.123C169.597 225.727 169.597 226.33 168.993 226.934C167.786 228.745 165.975 230.555 164.768 232.366C162.958 234.176 161.751 235.987 159.94 237.798C158.129 239.608 156.922 241.419 155.112 243.23C153.905 245.04 152.094 246.851 150.283 248.058C148.473 249.869 146.662 251.679 144.851 252.886C143.041 254.697 141.23 255.904 139.419 257.715C137.609 258.922 135.798 260.732 134.591 261.94C132.78 263.75 130.97 264.957 129.159 266.164C127.952 266.768 126.745 267.975 125.538 268.579C121.313 270.993 117.692 274.011 114.07 277.632C112.863 278.839 111.656 280.046 111.053 281.253C110.449 282.46 109.846 283.667 109.846 285.478C109.242 286.685 109.242 287.892 109.242 289.703C109.242 293.324 109.242 296.945 110.449 299.963C111.053 301.774 112.26 303.584 112.863 304.791C113.467 305.395 113.467 305.999 114.07 305.999C115.278 307.809 116.485 309.016 118.295 310.827C119.502 311.43 120.106 312.638 121.313 313.241C122.52 313.845 123.124 314.448 124.331 315.052C127.952 317.466 131.573 319.88 135.195 322.898C135.798 323.501 136.402 323.501 137.005 324.105L137.609 324.708C137.609 324.708 137.609 324.708 137.609 325.312V325.916C138.212 326.519 138.212 327.726 138.212 328.933C138.816 330.14 138.816 331.348 139.419 332.555C140.023 333.762 140.626 334.969 141.23 335.572C141.834 336.78 143.041 337.987 143.644 338.59C144.248 339.194 145.455 340.401 146.059 341.004C147.869 342.815 149.68 344.626 151.49 345.833C153.301 347.04 155.715 348.247 157.526 349.454C158.733 350.057 159.337 350.661 160.544 350.661C161.751 351.265 162.958 351.265 164.165 351.265C165.372 351.265 166.579 351.265 167.786 351.265C168.993 351.265 170.2 350.661 171.407 350.661C173.822 350.058 176.236 349.454 178.046 348.85C179.254 348.247 180.461 347.643 181.668 347.04C182.875 346.436 183.478 345.833 184.686 345.229C185.893 344.626 187.1 344.022 188.91 343.418C191.928 342.211 194.946 341.608 197.963 340.401C200.981 339.797 203.396 338.59 206.413 337.987C207.017 337.987 207.62 337.987 208.224 337.383C208.827 337.383 209.431 337.383 210.034 337.383C211.242 337.383 211.845 337.383 213.052 337.383C214.259 337.383 216.07 337.383 217.277 337.987C218.484 337.987 219.691 338.59 220.898 338.59C223.313 339.194 225.123 339.797 227.537 340.401C229.952 341.004 231.762 341.608 234.176 342.211C236.59 342.815 239.005 342.815 241.419 342.815C243.833 342.815 246.247 342.815 248.058 342.211C249.265 342.211 250.472 342.211 251.679 342.211C253.49 342.211 255.301 341.608 257.111 341.004C258.922 340.401 260.129 339.194 261.336 337.987C261.939 337.383 261.94 337.383 262.543 336.779C263.75 335.572 264.354 334.365 264.957 332.555C265.561 331.951 265.561 330.744 266.164 330.141C267.372 327.726 267.975 325.916 268.579 323.501C269.182 321.087 269.786 319.277 270.993 316.862C271.596 316.259 271.596 315.655 272.2 314.448C272.803 313.845 272.803 312.638 273.407 312.034C274.01 310.223 275.218 309.016 275.821 307.206C277.028 304.791 277.632 302.377 278.235 299.963C279.442 296.945 279.442 293.928 280.046 290.306C280.046 289.703 280.046 289.703 280.046 289.099C280.046 287.892 280.046 287.289 280.046 286.081C280.046 284.874 280.046 284.271 280.046 283.064C280.046 281.857 279.443 280.649 278.839 279.442C278.839 278.839 278.839 278.235 278.235 277.632C277.632 275.218 277.632 272.803 277.028 270.993C277.028 270.993 277.028 270.993 277.028 271.596C277.028 269.786 276.425 267.975 276.425 266.164C276.425 265.561 276.425 264.957 276.425 263.75C276.425 262.543 275.821 261.94 275.821 260.733C275.821 260.129 275.218 259.525 275.218 258.318C275.218 257.715 274.614 257.111 274.614 256.508V255.904C274.01 254.093 273.407 252.886 272.803 251.076C272.2 249.869 271.596 248.661 270.993 246.851C270.389 245.644 269.786 244.437 269.786 243.833C269.182 242.022 267.975 239.608 266.768 237.798C266.164 236.591 265.561 235.383 264.957 234.78C264.354 233.573 263.75 232.366 262.543 231.159C261.94 229.951 261.336 228.744 260.733 228.141C260.129 226.934 259.525 226.33 258.922 225.123C256.508 221.502 253.49 217.277 250.472 213.656C248.661 211.845 247.454 209.431 245.644 207.62C244.437 205.81 242.626 203.999 241.419 202.188C241.419 202.188 241.419 202.188 240.815 201.585C239.608 199.774 238.401 198.567 237.798 196.757H238.401C239.005 197.36 240.212 197.964 240.815 198.567C242.626 199.774 243.23 201.585 245.04 202.792C245.644 203.396 246.851 203.999 248.058 204.603C249.869 205.81 251.076 207.017 252.283 208.224C254.093 209.431 255.301 210.638 257.111 212.449C258.922 213.656 260.732 214.863 261.94 216.673C262.543 217.277 262.543 217.881 263.147 217.881C263.75 218.484 263.75 218.484 264.354 219.088C265.561 220.295 267.371 222.105 268.579 223.916C272.2 228.141 275.821 232.366 279.442 236.591C283.064 240.815 286.685 244.437 290.306 248.662C292.117 250.472 293.928 252.886 295.738 254.697C297.549 256.508 299.963 258.318 302.377 260.129C303.584 260.733 304.791 261.94 305.999 262.543C307.206 263.147 308.413 263.75 310.223 264.354C312.637 265.561 315.052 266.164 318.07 266.768C320.484 267.372 323.501 267.975 325.916 268.579C327.123 268.579 328.933 269.182 330.14 269.182C331.348 269.182 332.555 269.182 334.365 269.182C335.572 269.182 336.779 268.579 337.383 267.975C338.59 267.371 339.797 266.768 341.004 266.164C342.211 265.561 343.418 264.354 344.626 263.75C345.833 262.543 347.04 261.336 348.247 260.129C348.85 259.525 349.454 258.922 350.057 258.318C350.661 257.715 351.868 256.508 353.075 255.904C353.679 255.904 353.679 255.3 354.282 255.3C354.886 255.3 354.886 254.697 355.489 254.697C356.093 254.697 356.093 254.697 356.697 254.094H357.3C357.904 254.094 358.507 254.094 359.111 254.094C360.318 254.094 361.525 254.094 362.732 254.697C363.939 254.697 365.146 254.697 366.353 254.697C368.767 254.697 371.182 254.697 374.199 254.094C375.406 254.094 376.614 253.49 378.424 253.49C379.631 253.49 380.838 252.886 382.045 252.283C383.252 251.679 384.46 251.076 385.667 250.472C386.874 249.869 388.081 248.662 388.684 248.058C390.495 246.247 392.909 244.437 394.72 242.626C395.323 242.023 395.927 241.419 396.531 240.815C397.134 240.212 397.134 240.212 397.738 239.608C398.341 238.401 398.945 237.798 399.548 236.591C400.152 235.384 400.755 234.176 401.359 232.969C403.773 228.141 405.584 222.709 407.394 217.881V217.277C407.998 215.466 407.998 213.656 407.998 211.845C407.998 211.242 407.998 210.035 407.998 209.431C407.998 208.827 407.998 208.224 407.998 207.017C407.998 205.206 407.394 203.999 407.394 202.188C406.791 199.171 406.187 196.757 404.98 194.342C404.377 191.928 403.773 188.91 402.566 186.496C400.755 181.064 398.945 176.236 397.134 171.407C396.531 169.597 396.531 167.786 395.927 165.976C395.927 164.768 395.927 163.561 395.927 162.354C395.927 161.147 395.927 159.94 396.531 158.733C397.134 155.715 397.134 153.301 397.738 150.283C397.738 149.076 397.738 147.266 398.341 146.059C398.341 144.851 398.341 143.644 398.341 142.437C398.341 139.419 398.341 136.402 397.738 133.988C397.134 131.573 396.531 128.556 395.324 126.141C394.72 124.331 393.513 123.124 391.702 121.917C389.892 120.106 386.874 119.502 384.46 119.502C381.442 119.502 379.028 120.106 376.01 120.709C373.596 121.917 371.182 123.124 368.164 123.727C365.75 124.934 363.335 125.538 360.921 126.745C358.507 127.952 356.093 129.159 353.075 129.763C350.057 130.97 347.04 131.573 344.022 132.78C341.608 133.988 339.194 135.195 336.779 136.402C334.365 137.609 331.951 138.816 329.537 140.626C324.708 143.644 320.484 146.662 316.259 149.076C314.448 150.283 312.034 151.49 310.223 152.094C308.413 153.301 306.602 153.905 304.188 154.508C302.981 155.112 301.774 155.112 300.566 155.715C299.359 156.319 297.549 156.319 296.342 156.319C294.531 156.319 293.324 156.319 291.513 156.922C290.306 156.922 289.099 156.922 287.289 156.922H286.685C286.081 156.922 285.478 156.922 285.478 156.319C284.874 156.319 283.667 155.715 283.064 155.715C282.46 155.715 281.857 155.715 281.253 155.112H280.65C280.65 152.094 280.046 149.68 279.442 147.266C278.839 144.851 277.632 143.041 277.028 140.626C277.028 140.626 277.028 140.626 277.632 140.626C278.839 140.626 280.046 140.626 281.253 140.626C282.46 140.626 283.667 140.626 284.874 140.626C287.289 140.626 290.306 140.627 292.72 140.023H293.324C296.342 139.42 299.963 139.419 302.981 138.212C304.791 137.609 305.999 137.609 307.809 137.005C309.62 136.402 310.827 135.798 312.637 135.195C314.448 134.591 316.259 133.384 318.07 132.177C319.88 130.97 321.691 129.763 323.501 128.556C325.312 127.348 326.519 126.141 328.33 124.934C330.14 123.727 331.348 121.917 332.555 120.709C333.762 119.502 334.969 118.295 336.779 117.088L337.383 116.485C338.59 115.277 340.401 113.467 341.608 111.656C342.815 110.449 344.022 108.639 345.229 106.828C346.436 105.017 347.643 103.81 348.85 101.999C350.057 100.189 351.264 98.9818 351.868 97.1712C353.075 95.3605 354.282 93.5499 354.886 91.7393C356.093 89.9286 356.697 88.118 357.3 85.7038C357.904 83.8932 358.507 81.479 358.507 79.6683C358.507 77.8577 358.507 75.4435 358.507 73.6329C358.507 71.8222 358.507 69.408 357.904 67.5974C357.904 66.3903 357.3 65.7867 357.3 64.5797C356.697 63.3726 356.696 62.769 356.093 61.5619C355.489 60.9584 354.886 59.7511 354.282 59.1476C353.075 56.7334 351.265 55.5264 349.454 54.3193ZM202.792 60.3547C202.792 60.9583 203.396 61.5618 203.396 62.1653C203.999 63.3724 204.603 65.1831 205.206 66.3902C205.81 67.5973 206.413 69.408 207.017 70.6151C207.62 71.8222 208.224 73.6328 208.827 74.8398C209.431 76.0469 210.034 77.8577 210.638 79.0648C211.845 81.4789 212.449 84.4966 213.052 86.9108C213.656 88.1179 213.656 89.9286 214.259 91.1357C214.863 92.3428 214.863 93.5499 215.466 94.757C216.07 96.5677 216.673 97.7747 216.673 99.5853C217.277 101.396 217.277 102.603 217.881 104.414C218.484 106.224 218.484 108.035 219.088 109.242C219.088 109.846 219.088 109.846 219.088 110.449C217.277 110.449 216.07 110.449 214.259 111.053H213.656V110.449C213.052 109.846 212.449 109.242 212.449 108.035C210.638 104.414 208.827 101.396 207.62 97.7748C207.62 97.1712 207.017 95.964 207.017 95.3604C207.017 94.7569 206.413 93.5498 206.413 92.9463C205.81 90.5321 205.206 88.118 205.206 85.7038C204.603 83.2896 204.602 80.8754 203.999 78.4612C203.999 77.8576 203.999 76.6506 203.999 76.047C203.999 74.2364 203.999 71.8222 203.396 70.0115C203.396 68.8044 203.396 68.2009 203.396 66.9938C203.396 65.7867 203.396 65.1832 203.396 63.9761C203.396 62.1654 202.792 60.3547 202.792 59.1476C202.792 59.1476 202.792 59.7512 202.792 60.3547ZM159.94 143.644H158.733C158.129 143.644 157.526 143.644 157.526 143.644C156.922 143.644 155.715 143.041 155.112 143.041H154.508C153.301 142.437 152.094 142.437 150.887 141.834C150.283 141.23 149.076 141.23 148.473 140.626C146.662 139.419 144.851 138.212 143.041 137.005C141.834 136.402 141.23 135.195 140.023 134.591L139.419 133.988C138.816 133.384 138.212 132.78 137.609 132.78C135.798 131.573 133.988 130.366 132.78 128.556C130.366 126.745 127.952 124.331 126.141 122.52C125.538 121.917 124.331 120.709 123.727 120.106C120.106 116.485 117.088 114.071 114.07 112.26C113.467 111.656 112.863 111.656 112.863 111.053L111.656 110.449C108.035 108.035 105.017 105.621 101.999 103.207C101.396 102.603 100.189 101.999 99.5853 101.396C98.9818 100.792 97.7747 100.189 97.1712 99.5853C97.1712 99.5853 96.5675 98.9817 95.964 98.9817C95.3604 98.3782 94.757 98.3783 94.757 97.7748L93.5498 96.5676L92.3427 95.3604L91.1357 94.1534C89.9286 93.5499 89.325 92.3428 88.118 91.1357C86.9109 89.9286 85.1001 88.1179 83.893 86.9108L83.2895 86.3072C82.0824 85.1001 81.4788 83.893 80.2717 83.2895C79.6682 82.0824 78.4611 80.8754 77.8576 79.6683C77.254 78.4612 76.6506 76.6505 76.047 75.4434C76.047 74.8399 76.047 74.8398 75.4434 74.2363C75.4434 73.6327 75.4434 73.0292 74.8398 71.8221V71.2185C74.8398 70.0114 74.8398 68.2009 74.8398 66.9938C74.8398 65.7867 74.8398 65.1832 74.8398 63.9761C74.8398 62.769 75.4434 62.1655 75.4434 61.5619C75.4434 60.9584 76.047 60.3547 76.047 59.7512C76.6506 59.1476 76.6504 58.5441 77.254 57.337C77.8575 56.7335 77.8576 56.13 78.4612 55.5264C79.0647 54.9229 79.6682 54.3192 80.2717 53.7157C80.8753 53.1121 80.8753 53.1122 81.4789 52.5087C82.0824 51.9052 82.6859 51.9051 83.2895 51.3015C83.893 50.698 84.4967 50.6979 85.1002 50.0944C85.7038 50.0944 86.3073 49.491 87.5144 49.491C88.1179 49.491 88.7214 49.4909 89.9285 48.8874C91.1356 48.8874 92.3427 48.8874 92.9463 48.8874H93.5498C94.7569 48.8874 95.9641 48.8874 97.1712 48.8874C98.3783 48.8874 99.5854 48.2838 100.189 48.2838C101.396 47.6802 102.603 47.0768 103.81 46.4732L104.414 47.0766L105.017 47.6802C105.017 48.2838 105.621 48.2838 105.621 48.8874L106.224 49.491C107.431 50.6981 108.035 51.9052 109.242 52.5087C110.449 53.7158 111.053 54.9227 112.26 56.1298C113.467 57.3369 114.674 58.5441 115.881 59.7512C117.088 60.9583 118.295 62.1653 118.899 62.7689C119.502 62.7689 119.502 63.3725 120.106 63.3725L120.709 63.9761C121.313 64.5796 121.916 65.1831 122.52 65.1831C122.52 65.1831 122.52 65.1831 123.124 65.7866C123.124 65.7866 123.727 65.7867 123.727 66.3902C124.331 66.9938 125.538 67.5972 126.141 68.2008C126.141 68.2008 126.141 68.2008 126.745 68.2008C126.745 68.2008 126.745 68.2008 127.349 68.2008C127.952 68.8043 129.159 69.408 129.763 70.0115C126.141 66.3903 123.124 62.7689 119.502 59.1476C117.088 56.7334 115.278 54.3193 112.863 52.5087C111.656 51.3016 110.449 50.0945 109.846 49.491C109.242 48.8874 108.638 48.2838 108.035 47.6802C107.431 47.0767 106.828 46.4732 106.224 45.8696L105.621 45.2661C105.621 45.2661 105.621 44.6625 105.017 44.6625C105.621 44.6625 105.621 44.0589 106.224 44.0589C107.431 42.8518 108.639 41.0412 109.846 38.627C110.449 36.8164 111.656 35.6093 112.26 33.7987C112.863 33.1951 112.863 31.9881 113.467 31.3845C114.07 30.781 114.07 30.1773 114.674 29.5738C115.278 28.9702 115.881 27.7632 116.485 27.1596C117.088 26.5561 117.692 25.9526 118.295 24.7455C118.899 24.1419 119.502 23.5383 120.106 23.5383C120.709 22.9348 121.313 22.3313 122.52 22.3313C123.124 21.7278 123.727 21.7277 124.331 21.1242C125.538 20.5206 126.745 20.5205 127.952 19.917C129.763 19.3134 130.97 19.3136 132.78 19.3136H133.988H135.195C135.798 19.3136 136.402 19.3136 137.005 19.3136H138.212H138.816H140.626C141.23 19.3136 141.23 19.3136 141.834 19.3136C143.644 19.3136 145.455 18.71 147.869 18.71C149.076 18.71 149.68 18.71 150.887 18.1064C152.094 18.1064 153.905 17.5028 155.112 17.5028C156.922 17.5028 158.129 16.8993 159.94 16.8993C161.147 16.8993 161.751 16.8993 162.958 16.8993H163.561C164.165 16.8993 165.372 16.8993 165.976 16.8993C167.183 16.8993 168.39 16.8993 169.597 17.5028H170.2C170.804 17.5028 171.407 17.5029 172.615 18.1064C173.218 18.1064 173.218 18.1065 173.822 18.71C173.822 18.71 174.425 18.71 174.425 19.3136C175.029 19.3136 175.632 19.917 175.632 20.5206C176.236 21.1241 176.839 21.7278 178.046 22.3313C178.65 22.9349 179.254 23.5383 179.254 24.1419C179.857 24.7454 179.857 24.7455 179.857 25.3491V25.9525C180.461 26.556 181.064 27.1597 181.668 28.3668L182.271 28.9702C184.082 31.9879 186.496 35.0058 188.307 37.42C189.514 38.6271 190.117 39.8341 191.325 41.6447L191.928 42.2483C192.532 42.8519 192.532 43.4555 193.135 43.4555L193.739 44.0589C193.739 44.6624 194.342 45.2661 194.342 45.2661L194.946 46.4732C195.549 47.0768 195.549 48.2838 196.153 48.8874C196.756 50.0945 197.36 50.6981 197.963 52.5087V53.1121C197.963 53.7156 198.567 54.3193 198.567 54.9229L199.171 56.1298L199.774 57.337V57.9406C200.378 59.1477 200.378 60.9582 200.378 62.1653C200.378 63.3724 200.378 65.1831 200.981 66.3902C200.981 66.9938 200.981 68.2008 200.981 68.8044V70.6151C200.981 71.8222 200.981 73.6328 200.981 74.8398C200.981 76.0469 200.981 77.2541 201.585 78.4612V79.0648C202.188 82.686 202.792 86.9108 203.396 90.5321V91.7393C203.396 92.9464 203.999 93.5499 203.999 94.757C203.999 95.9641 204.603 97.1712 204.603 97.7748C204.603 98.3783 205.206 99.5854 205.206 100.189V100.792C205.81 102 205.81 102.603 206.413 103.81C207.017 105.621 208.224 107.431 208.827 109.242V109.846C209.431 110.449 209.431 111.656 210.034 112.26H209.431C207.62 112.863 205.206 113.467 203.396 114.07C200.378 115.278 196.756 116.485 193.739 117.692C193.739 117.088 193.135 116.485 193.135 115.881C193.135 115.278 192.532 114.674 192.532 114.674C192.532 114.07 191.928 113.467 191.928 112.863C191.928 112.26 191.325 112.26 191.325 111.656C191.325 111.053 190.721 110.449 190.721 109.846L190.117 108.639C189.514 108.035 189.514 107.432 188.91 106.828L188.307 105.621C187.703 105.017 187.703 103.81 187.1 103.207C185.289 100.189 184.082 97.7748 182.271 94.757C180.461 92.3428 178.65 89.3249 176.839 86.3072C176.839 85.7037 176.236 85.7038 175.632 85.1002L175.029 84.4966C174.425 83.8931 174.425 83.893 173.822 83.2895V82.6861C173.218 81.479 172.011 80.8754 171.407 79.6683L170.804 79.0648L170.2 77.8576C170.804 79.0647 172.011 80.2718 172.615 82.0825C173.218 83.2896 173.822 84.4967 174.425 85.7038L175.029 86.9108C175.632 88.1179 176.236 88.7214 176.236 89.9285C178.047 92.9463 179.254 95.9641 180.461 97.7748L182.875 101.396C184.082 103.207 185.289 105.017 185.893 106.828C187.1 109.242 188.91 111.656 190.721 115.278C191.325 115.881 191.928 117.088 192.532 117.692C191.928 117.692 191.928 117.692 191.325 118.295C187.1 120.106 182.875 122.52 179.254 125.538C177.443 123.727 176.236 121.917 174.425 120.106C173.822 118.899 172.615 118.295 172.011 117.088C170.804 115.881 169.597 114.071 168.39 112.863C165.975 110.449 164.165 108.035 162.354 105.621C161.751 104.414 160.544 103.207 159.336 101.999C158.733 101.396 157.526 100.189 156.922 99.5853L155.715 98.3782C156.319 99.5853 157.526 100.189 158.129 101.396C159.337 103.207 160.544 105.017 161.751 106.828C162.958 108.639 164.165 110.449 165.372 112.26C167.183 114.674 168.993 116.485 170.804 118.899C172.011 120.106 172.614 120.71 173.822 121.917C174.425 122.52 174.425 122.52 175.029 123.124L175.632 123.727C176.236 123.727 176.236 124.331 176.839 124.934L177.443 125.538L178.046 126.141L178.65 126.745C177.443 127.952 176.236 129.159 174.425 130.366C173.822 130.97 173.218 131.573 172.615 132.177C171.407 133.384 170.804 133.987 169.597 135.195C168.993 134.591 167.786 134.591 167.183 133.988L166.579 133.384C165.976 133.384 165.975 132.78 165.372 132.78C164.165 132.177 163.561 131.573 162.354 131.573H161.751C161.751 131.573 161.147 131.573 161.147 130.97C160.544 130.366 159.94 130.366 159.336 129.763C158.733 129.159 158.129 129.159 157.526 128.556L156.922 127.952C155.715 127.349 154.508 126.141 153.301 125.538H152.697C151.49 124.331 149.68 123.124 148.473 121.917C147.266 120.71 146.058 119.502 144.248 117.692L143.644 117.088C143.041 116.485 141.834 115.278 141.23 114.674C140.626 114.07 140.023 113.467 139.419 112.863C138.816 112.26 138.212 111.656 138.212 111.053C137.609 109.846 136.402 108.638 135.195 107.431L133.988 106.224C133.384 105.621 132.78 105.017 132.177 103.81L131.573 103.207C130.97 102 129.763 101.396 129.159 100.189C129.159 100.189 128.556 99.5853 128.556 98.9817C129.763 100.792 130.366 101.999 131.573 104.414C132.78 106.828 134.591 109.242 136.402 112.26C137.609 113.467 138.212 115.277 139.419 116.485C140.023 117.088 140.023 117.692 140.626 117.692L141.23 118.295C141.834 118.899 142.437 119.502 143.041 120.106C144.248 121.917 146.058 123.124 147.869 124.934C149.68 126.141 151.49 127.952 153.301 129.159C154.508 129.763 155.715 130.97 156.922 131.573C157.526 132.177 158.129 132.78 159.336 132.78H159.94L160.544 133.384H161.147L161.751 133.988C161.751 133.988 162.354 133.987 162.354 134.591H162.958C162.958 134.591 163.561 134.591 163.561 135.195C164.165 135.798 165.372 135.798 165.976 136.402H166.579C167.183 136.402 167.786 137.005 168.39 137.005C168.39 137.005 168.39 137.609 167.786 137.609C166.579 139.419 165.372 141.23 164.768 143.041V143.644C164.165 143.644 164.165 143.644 163.561 143.644C162.958 143.644 162.958 143.644 162.354 143.644C160.544 143.644 160.544 143.644 159.94 143.644ZM111.053 248.058C109.846 248.058 108.639 248.662 106.828 248.662C105.621 248.662 104.414 249.265 103.207 249.265C100.792 249.869 98.9818 250.472 96.5676 250.472C94.7569 251.076 92.9463 251.076 90.5321 251.679C88.7215 251.679 86.9109 252.283 85.1002 252.283C83.2896 252.283 81.479 252.283 79.6683 252.283C76.047 252.283 72.4257 251.679 69.4079 251.679C68.8044 251.679 68.8043 251.679 68.2008 251.679C68.2008 251.679 67.5974 251.679 67.5974 251.076C67.5974 251.076 66.9938 251.076 66.9938 250.472C65.7867 249.869 65.1832 249.265 63.9761 248.058L62.7689 247.454C62.1653 246.851 60.9583 246.247 60.3547 245.644C57.9405 243.833 54.9228 242.626 51.3015 242.626C50.0944 242.626 48.2839 242.626 46.4732 242.626C45.2661 242.626 44.059 242.626 43.4555 243.23H42.8519H42.2483C41.0412 243.23 39.834 243.23 38.0234 243.833C37.4199 243.833 36.8164 243.833 36.8164 243.833C36.2129 243.833 36.2128 243.833 35.6093 243.833C35.0057 243.833 34.4022 243.23 33.7987 243.23C32.5916 242.626 30.7808 242.022 28.9702 240.815C27.7631 240.212 25.9526 239.005 24.7455 238.401C23.5384 237.798 22.3313 236.591 21.1242 235.383C19.3135 233.573 17.5029 232.366 16.2959 231.159C15.6923 230.555 14.4851 229.348 13.8815 228.141C13.278 227.537 12.6745 226.33 12.0709 225.727C11.4674 224.52 10.8638 223.916 10.8638 222.709C10.2602 221.502 10.2603 220.898 9.65679 219.691V220.295C10.2603 220.898 10.8638 221.502 11.4674 222.105V222.709C12.0709 223.313 12.071 223.916 12.6745 223.916C13.8816 224.52 14.4852 225.727 15.6923 226.33C18.1065 227.537 20.5205 228.744 22.9347 228.744C25.3489 228.744 27.7632 228.744 30.1774 228.141C31.988 227.537 34.4022 226.934 36.2128 225.727L36.8164 225.123C37.42 224.52 38.0234 224.52 38.627 223.916C40.4376 222.709 42.2482 222.105 44.0589 220.898L44.6625 220.295C45.8696 219.691 47.0767 219.088 48.2838 218.484C48.8873 218.484 49.4908 217.881 50.0944 217.881C50.6979 217.881 50.698 217.881 51.3015 217.881H51.9051C52.5087 217.881 52.5085 217.881 53.1121 217.881C53.7156 217.881 53.7157 217.881 54.3193 217.881C54.9228 217.881 55.5264 218.484 55.5264 218.484C56.13 218.484 56.1299 219.088 56.7334 219.088C57.337 219.691 58.544 220.295 59.1476 220.898L59.7511 221.502C60.9582 222.709 62.1654 223.916 63.3725 225.123C63.976 225.727 65.1831 226.934 65.7866 227.537L66.9938 228.744C70.0115 231.762 72.4256 233.573 74.8398 235.383C76.6505 236.591 78.4612 237.798 79.6683 238.401C81.479 239.608 83.2895 240.212 84.4966 240.815C86.9108 242.022 88.1179 242.626 89.9285 243.23C91.7392 243.833 93.5498 244.437 95.964 245.04C98.9817 245.644 102.603 246.851 106.828 246.851C108.035 247.454 109.846 248.058 111.053 248.058ZM162.958 171.407C162.354 172.011 161.147 172.011 160.544 172.615L159.336 173.218L156.319 174.425H155.715L153.905 175.029C153.301 175.029 152.697 175.632 152.697 175.632C152.094 175.632 152.094 176.236 151.49 176.236H150.887C149.076 176.236 146.662 176.839 144.851 176.839C144.248 176.839 143.644 176.839 142.437 177.443C140.627 177.443 138.816 178.046 137.609 178.046L135.195 178.65C132.78 178.65 130.97 179.254 129.159 179.254C128.556 179.254 128.556 179.254 127.952 179.254C127.349 179.254 126.745 179.254 125.538 179.254H123.727H121.917C120.106 179.254 118.899 179.254 117.088 178.65C115.881 178.65 114.674 178.046 114.07 178.046C112.863 177.443 111.656 177.443 109.846 176.236C109.242 176.236 108.638 175.632 108.035 175.632C109.242 176.236 111.053 177.443 112.26 178.046C115.278 179.857 118.295 180.461 121.917 181.064C123.124 181.064 124.331 181.668 125.538 181.668H126.141L130.366 182.271C130.97 182.271 131.573 182.271 132.177 182.271H132.78H133.384C133.988 182.271 134.591 182.271 135.195 182.271H137.609H139.419C141.23 182.271 143.644 182.271 144.851 181.668H146.059H148.473C149.076 181.668 149.076 181.668 149.68 181.668H150.283C150.887 181.668 151.49 181.668 152.094 181.064C152.698 181.064 152.697 181.064 153.301 180.461H153.905H154.508C155.715 179.857 156.922 179.857 158.129 179.254C159.94 178.65 161.751 178.046 162.958 177.443L164.768 176.839C165.372 177.443 165.372 178.046 165.976 178.046C167.183 179.857 168.39 181.064 169.597 182.875C170.2 183.478 170.804 184.082 171.407 184.686H170.804C170.2 184.686 169.597 185.289 168.993 185.289C168.39 185.893 167.786 185.893 167.183 186.496L165.976 187.1C165.372 187.703 164.768 187.703 163.561 188.307C162.354 188.91 160.544 189.514 159.336 190.721C158.733 191.325 157.526 191.324 156.922 191.928C156.319 192.532 155.112 192.532 154.508 193.135L153.301 193.739C152.094 194.342 151.49 194.342 150.283 194.946C149.68 195.549 148.473 195.549 147.869 196.153C147.266 196.756 146.058 196.757 145.455 197.36C144.248 197.964 143.644 198.567 142.437 199.171L141.23 199.774H140.626C140.023 199.774 140.023 200.378 139.419 200.378H138.816C138.212 200.378 138.212 200.981 137.609 200.981H137.005C136.402 200.981 136.402 201.585 135.798 201.585H135.195L134.591 202.188H133.988L132.78 202.792C132.177 202.792 132.177 202.792 131.573 203.396H130.97C129.763 203.999 128.556 203.999 127.349 204.603C124.934 205.206 122.52 205.81 120.106 206.413H119.502C118.295 207.017 116.485 207.017 114.674 207.62C112.863 208.224 111.656 208.224 109.846 208.224C107.431 208.224 105.017 208.827 102.603 208.827C101.396 208.827 100.792 208.827 99.5853 208.827H98.9817C98.3782 208.827 98.3783 208.827 97.7747 208.827C96.5676 208.827 94.7569 208.224 93.5498 208.224H92.9463H92.3427C94.1533 208.827 95.9641 209.431 97.7747 210.034C98.3783 210.034 98.9818 210.034 99.5853 210.638H100.189C101.396 210.638 102.603 211.242 104.414 211.242C109.242 211.845 113.467 211.845 117.692 210.638C119.502 210.034 121.313 210.035 123.124 209.431L124.934 208.827C126.141 208.827 126.745 208.224 127.952 208.224L129.763 207.62C130.366 207.62 130.97 207.62 130.97 207.017H131.573C132.177 207.017 132.78 206.413 133.988 206.413C134.591 206.413 135.798 205.81 136.402 205.206C137.005 205.206 137.005 205.206 137.609 204.603H138.212C138.212 204.603 138.816 204.603 138.816 203.999H139.419C140.023 203.999 140.626 203.396 141.23 203.396C141.834 202.792 143.041 202.792 143.644 202.188C144.851 201.585 146.058 200.378 147.869 199.774L148.473 199.171C149.076 199.171 149.68 198.567 150.283 198.567C151.49 197.964 152.094 197.964 153.301 197.36C153.905 197.36 154.508 196.757 155.112 196.757C155.715 196.153 156.922 196.153 157.526 195.549C159.337 194.946 160.544 194.342 161.751 193.135C162.354 192.532 162.958 192.532 164.165 191.928C164.768 191.324 165.372 191.325 166.579 190.721C167.183 190.117 167.786 190.117 168.39 189.514L168.993 188.91C169.597 188.307 170.804 188.307 171.407 187.703C172.011 187.703 172.615 187.1 173.218 187.1H173.822C175.632 188.91 177.443 190.118 179.254 191.325H178.65L177.443 191.928L176.839 192.532L176.236 193.135H175.632C175.632 193.135 175.029 193.135 175.029 193.739C174.425 194.342 173.822 194.946 173.218 194.946C172.011 196.153 170.804 197.36 169.597 197.963C167.786 199.774 165.976 201.585 163.561 203.396C161.751 205.206 160.544 206.413 159.336 208.224C157.526 210.638 155.715 212.449 154.508 213.656L152.094 216.673C149.68 219.691 147.266 222.105 145.455 225.123C143.644 226.934 142.437 228.745 140.626 230.555C139.419 231.762 138.212 233.573 136.402 234.78L135.798 235.383L135.195 235.987C133.987 237.194 132.78 237.798 131.573 239.005C130.97 239.005 130.97 239.608 130.366 239.608C129.763 239.608 129.159 239.608 128.556 239.608H127.952H127.349C126.745 239.608 126.745 239.608 126.141 239.608C123.727 240.212 120.709 240.815 117.692 240.815C117.088 240.815 115.881 240.815 115.278 240.815C112.26 240.815 108.639 240.212 105.621 239.608H105.017C103.81 239.608 102 239.005 100.792 239.005C98.9818 238.401 96.5675 237.798 95.3604 237.798C94.1533 237.194 92.9464 237.194 91.7393 236.591C90.5322 235.987 89.9286 235.987 88.7215 235.383L87.5144 234.78H86.9108C85.7037 234.176 83.8932 233.573 82.6861 232.969C82.0825 232.366 80.8753 232.366 80.2717 231.762C79.6682 231.159 79.0647 231.159 78.4612 230.555L77.8576 229.952C76.6505 229.348 75.4433 228.141 74.2363 227.537H73.6329L73.0293 226.934C72.4257 226.33 71.8221 225.727 71.2185 225.123C70.615 224.52 69.4079 223.313 68.8044 222.709L68.2008 222.105C66.3901 220.295 65.1831 219.088 63.3725 217.277C62.7689 216.674 62.1655 216.07 61.5619 216.07L60.9583 215.467C59.7512 214.259 57.3371 212.449 55.5264 211.845C53.1122 210.638 50.698 210.638 48.2838 210.638C46.4731 211.242 44.6625 211.845 42.2483 213.052C40.4377 214.259 38.6271 214.863 37.42 216.07C37.42 216.07 36.8164 216.673 36.2128 216.673C35.6093 217.277 35.0058 217.277 34.4023 217.881L31.9879 219.088C30.7808 219.691 29.5739 220.295 27.7632 220.898C27.1597 220.898 26.5562 221.502 25.3491 221.502C24.7455 221.502 24.1419 221.502 24.1419 221.502C23.5383 221.502 22.9349 221.502 22.3313 221.502C21.7278 221.502 21.1241 221.502 20.5206 221.502C19.917 221.502 19.3136 221.502 18.71 220.898C18.1065 220.898 17.5028 220.295 16.8993 220.295C16.2957 219.691 15.0886 219.691 14.4851 219.088C13.8816 219.088 13.2781 218.484 13.2781 217.881C12.071 217.277 11.4673 216.07 10.8638 215.467C9.65668 214.259 8.44974 213.052 7.24264 211.242C6.63909 210.638 6.63906 210.638 6.63906 210.034C6.63906 209.431 6.03547 208.827 6.03547 208.827C6.03547 207.62 6.03547 206.413 6.03547 205.81V205.206C6.03547 205.206 6.03547 205.206 6.03547 204.603C6.03547 203.999 6.03551 203.396 6.63906 203.396C7.2426 202.188 7.24249 200.378 7.84604 199.171C8.44959 197.964 8.44966 197.36 9.05321 196.757L9.65679 196.153C9.65679 195.549 10.2604 194.946 10.2604 194.342V193.739C10.8639 192.532 11.4674 191.928 12.0709 190.721C12.6745 190.117 12.6746 189.514 13.2781 189.514C13.2781 188.91 13.8815 188.91 13.8815 188.307L15.0887 186.496C15.0887 185.893 15.6923 185.893 15.6923 185.289V184.686C16.8994 182.271 18.1065 180.461 18.71 178.046C19.3136 175.632 19.917 173.822 20.5206 171.407C20.5206 171.407 21.1242 171.407 21.1242 172.011C24.1419 173.822 27.7632 175.632 30.781 176.839C31.3845 176.839 31.9879 177.443 31.9879 177.443C32.5915 177.443 33.1951 178.046 33.7987 178.046C34.4022 178.046 34.4021 178.047 35.0057 178.65C36.2128 178.65 36.8163 179.254 38.0234 179.254C39.2305 179.857 41.0412 179.857 42.2483 180.461C44.6625 181.064 47.6802 181.064 50.0944 181.668C51.905 181.668 53.1122 182.271 54.9228 182.271H55.5264C55.5264 182.271 55.5263 182.271 56.1298 182.271H56.7334C65.1831 182.875 73.6328 182.271 82.0825 181.668C77.8576 181.668 73.6328 181.668 69.4079 181.064C67.5973 181.064 65.7867 180.461 63.9761 180.461C63.3725 180.461 62.1655 180.461 61.5619 179.857C60.3548 179.857 59.7513 179.254 58.5442 179.254C56.7335 178.65 55.5263 178.65 53.7157 178.046C52.5086 178.046 51.3014 177.443 50.0944 177.443C48.8873 176.839 47.0767 176.839 45.8696 176.236C45.2661 175.632 44.059 175.632 43.4555 175.029C42.8519 174.425 41.6447 174.425 41.0411 173.822C40.4376 173.822 39.8341 173.218 38.627 173.218C38.0234 173.218 38.0236 172.615 37.42 172.615C36.8165 172.615 36.2128 172.011 35.6093 172.011C33.7986 170.804 31.3844 169.597 29.5738 168.39C27.1596 167.183 24.7455 165.372 22.3313 164.165C22.3313 162.354 22.3313 161.147 21.7277 159.336C21.1242 156.922 20.5205 154.508 19.917 152.697V152.094C19.3134 149.68 18.71 147.869 18.71 145.455C18.1065 143.041 18.1064 140.627 17.5028 138.212C17.5028 137.005 17.5028 135.195 17.5028 133.988C17.5028 132.781 17.5029 130.97 18.1064 129.763C18.1064 129.159 18.1065 127.952 18.71 126.745C18.71 126.141 19.3136 124.934 19.3136 124.331V123.727C19.9171 123.124 19.917 121.917 20.5206 121.313C21.1241 120.106 22.3312 118.295 23.5383 117.088C24.7454 115.881 25.349 114.674 27.1596 113.467L27.7632 112.863C28.9703 111.656 30.1774 110.449 31.3845 109.846C31.3845 109.846 31.3844 109.846 31.9879 109.846C32.5915 109.242 33.1951 109.242 33.7987 108.639C34.4022 108.035 35.6093 108.035 36.2128 107.431C37.4199 106.828 38.0235 106.828 39.2306 106.224C40.4377 106.224 41.6448 105.621 42.2483 105.621C44.6625 105.621 47.0768 105.621 49.491 105.621C50.6981 105.621 51.3016 105.621 52.5087 105.621C53.7158 105.621 54.3193 105.621 55.5264 106.224L57.9406 106.828C60.9583 107.432 63.9761 108.035 67.5974 108.035C69.408 108.035 71.2186 108.035 73.0293 108.035H74.2363C76.0469 108.035 77.8577 108.035 79.6683 108.639C80.8754 108.639 82.0824 109.242 83.893 109.242C85.7037 109.846 86.9109 110.449 88.7215 111.053C90.5322 111.656 92.3428 112.863 94.1534 114.07L95.3604 114.674C96.5675 115.278 97.171 115.881 98.3781 116.485C99.5852 117.692 101.396 118.295 103.207 120.106C104.414 121.313 106.224 122.52 107.431 123.124C108.035 123.727 109.242 124.331 109.846 124.934C110.449 125.538 111.053 125.538 111.656 126.141C112.26 126.745 112.863 127.349 114.07 127.952C114.674 127.952 114.674 128.556 115.278 128.556C115.881 129.159 116.485 129.763 117.692 129.763L118.899 130.366C119.502 130.97 120.106 130.97 121.313 131.573L122.52 132.177C123.727 132.78 124.331 133.384 125.538 133.988C127.952 135.195 130.97 136.402 133.384 137.609C135.195 138.212 137.005 139.42 138.816 140.023C140.627 140.627 141.834 141.23 143.644 142.437L145.455 143.041C147.869 144.248 150.283 145.455 152.094 146.059C154.508 147.266 156.922 147.869 158.733 148.473C159.336 148.473 159.94 149.076 160.544 149.076C159.94 150.887 159.94 152.094 159.94 153.905C159.94 155.112 159.94 155.715 159.94 156.922H158.129C157.526 156.922 156.922 156.922 155.715 156.922H155.112C153.905 156.922 152.698 156.922 152.094 156.922C150.283 156.922 148.473 156.319 146.662 156.319H146.059H144.851C143.041 156.319 141.23 155.715 139.419 155.715C137.609 155.715 135.798 155.112 133.384 154.508C131.573 153.905 130.366 153.301 128.556 153.301L127.349 152.697C126.745 152.697 126.141 152.094 125.538 152.094C124.934 152.094 123.727 151.49 123.124 151.49C119.502 150.283 115.881 149.076 112.863 147.869L111.053 147.266H111.656C115.278 149.076 118.899 150.887 123.124 152.697C123.727 153.301 124.934 153.301 125.538 153.905L126.745 154.508L127.952 155.112C129.159 155.715 130.366 155.715 130.97 156.319C130.97 156.319 131.573 156.319 132.177 156.922H132.78C133.384 156.922 133.987 157.526 134.591 157.526C135.798 158.129 137.005 158.13 138.212 158.13C139.419 158.13 140.023 158.733 141.23 158.733C143.644 159.336 145.455 159.337 147.869 159.94C149.076 159.94 150.283 160.544 151.49 160.544C152.698 160.544 153.301 160.544 153.905 160.544C154.508 160.544 155.715 160.544 156.319 160.544C157.526 160.544 158.733 159.94 159.94 159.94C159.94 160.544 159.94 161.147 160.544 161.751V162.354C160.544 162.958 160.544 162.958 161.147 163.561C161.147 167.183 161.751 168.993 162.958 171.407ZM266.768 313.845C266.164 315.052 265.561 316.259 265.561 317.466L264.957 319.277C264.354 320.484 264.354 322.294 263.75 323.501C263.147 324.709 263.147 325.916 262.543 326.519C262.543 327.123 261.94 327.726 261.94 328.33V328.933C261.336 329.537 261.336 330.14 260.733 331.348C260.129 331.951 259.525 332.555 259.525 333.158C258.922 333.762 258.922 334.365 258.318 334.365C257.715 334.969 257.111 334.969 256.508 335.572C255.904 335.572 255.904 336.176 255.3 336.176C255.3 336.176 254.697 336.176 254.697 336.779C254.094 336.779 254.093 336.779 253.49 337.383C252.283 337.383 251.076 337.987 249.869 337.987C249.265 337.987 248.662 337.987 248.662 337.987C248.058 337.987 246.851 337.987 246.247 337.987C245.644 337.987 244.437 337.987 243.833 337.987C242.022 337.987 240.212 337.987 239.005 337.987C237.194 337.987 235.987 337.987 234.176 337.383C233.573 337.383 232.969 337.383 232.366 336.779C230.555 336.176 229.348 336.176 227.537 335.572C224.52 334.969 221.502 334.365 218.484 333.762C216.07 333.158 213.656 333.158 211.845 333.158C210.638 333.158 209.431 333.158 208.224 333.762C207.017 333.762 205.81 334.365 205.206 334.365C203.395 334.969 202.188 334.969 200.378 335.572C199.774 335.572 199.171 336.176 198.567 336.176C197.36 336.78 196.153 336.779 194.946 337.383C193.739 337.383 193.135 337.987 191.928 337.987C189.514 338.59 187.1 339.194 185.289 340.401C184.686 341.004 184.082 341.004 182.875 341.608C181.668 342.211 179.857 342.815 178.65 343.418C177.443 344.022 176.236 344.022 175.029 344.626C173.218 345.229 171.407 345.229 169.597 345.833C168.993 345.833 168.39 345.833 167.786 345.833C167.183 345.833 166.579 345.833 165.976 345.833C165.372 345.833 165.372 345.833 164.768 345.833C164.165 345.833 163.561 345.229 162.958 345.229C162.354 344.626 161.751 344.626 161.147 344.022C158.733 342.815 156.922 341.004 155.112 339.797C154.508 339.194 153.905 338.59 153.301 337.987C152.094 336.779 150.887 334.969 149.076 333.158C148.473 332.555 148.473 331.951 147.869 331.951C147.869 331.348 147.266 330.744 147.266 330.744C146.662 330.14 146.662 329.537 146.662 328.933C146.662 328.33 146.059 327.726 146.059 327.123C146.059 326.519 146.058 326.519 145.455 325.916C145.455 325.312 145.455 324.709 144.851 324.105C144.248 322.898 144.248 321.691 143.041 320.484C142.437 319.277 141.23 318.673 140.023 317.466C138.212 316.259 136.402 314.448 134.591 313.241C132.177 311.43 130.97 310.223 129.159 309.016L127.952 308.413C127.349 307.809 126.745 307.809 126.141 307.206C124.934 306.602 124.331 305.999 123.124 305.395C122.52 304.792 122.52 304.791 121.917 304.188C121.313 303.584 120.106 302.377 119.502 301.17C118.899 300.567 118.899 299.963 118.295 299.36C117.692 298.756 117.692 298.152 117.088 297.549C117.088 296.945 117.088 296.945 116.485 296.342C117.088 296.342 117.692 296.342 117.692 296.342H118.295H118.899C120.71 296.342 121.917 295.738 124.331 295.738C125.538 295.738 126.745 295.135 128.556 295.135C130.97 294.531 133.384 293.928 135.195 293.928C137.005 293.928 138.816 293.928 140.626 293.928C140.626 293.928 140.626 293.928 141.23 293.928C141.834 293.928 142.437 293.928 143.041 293.928C143.644 293.928 144.248 293.928 144.851 294.531C145.455 294.531 145.455 294.531 146.059 295.135C146.662 295.135 146.662 295.738 147.266 295.738C147.869 295.738 147.869 296.342 148.473 296.342C150.283 298.152 152.094 299.963 153.905 301.17C154.508 301.774 155.112 302.377 155.715 302.981C156.922 304.188 158.129 305.999 159.94 307.206C161.751 309.016 164.165 310.827 166.579 313.241C168.39 314.448 170.2 316.259 172.615 317.466C174.425 318.673 176.839 320.484 179.254 321.087C181.668 322.294 184.082 322.898 186.496 322.898C188.91 323.501 191.325 324.105 193.739 324.105C196.153 324.709 199.171 324.708 200.981 325.312C203.999 325.312 206.413 325.916 208.827 325.312C211.242 325.312 213.656 324.709 215.466 324.105C216.674 323.501 217.881 322.898 218.484 322.898L219.088 322.294C219.691 321.691 220.295 321.691 220.898 321.691H221.502H222.105H222.709H223.313H223.916C223.916 321.691 224.52 321.691 224.52 322.294C225.123 322.898 226.33 323.501 226.934 324.105C227.537 324.709 228.141 325.312 228.744 325.312C230.555 326.519 232.366 327.123 233.573 328.33C235.987 329.537 238.401 330.14 240.815 330.744C243.23 331.347 245.644 331.951 247.454 331.951C248.661 331.951 249.869 331.951 251.076 331.951C252.283 331.951 253.49 331.348 254.697 331.348C256.508 330.744 258.318 330.14 259.525 328.33C260.129 327.726 260.732 327.123 261.336 326.519L261.94 325.916C263.75 324.105 264.957 322.294 266.164 320.484V319.88C265.561 316.259 266.164 315.052 266.768 313.845V313.241C267.372 313.241 266.768 313.845 266.768 313.845ZM235.383 197.963C236.591 199.171 237.798 200.378 238.401 202.188C239.005 202.792 239.608 203.999 240.212 204.603C240.815 205.206 241.419 205.81 242.023 206.413C243.23 207.62 244.437 209.431 245.644 210.638C246.851 212.449 248.058 214.259 249.265 216.07L249.869 217.277C251.076 219.088 251.679 220.295 252.886 222.105C253.49 222.709 254.093 223.916 254.093 224.52C254.697 225.727 255.3 226.934 255.904 227.537C256.508 228.745 257.111 229.951 258.318 231.159C258.922 231.762 258.922 232.366 259.525 232.969L260.129 233.573L260.733 234.78L261.336 235.383C261.336 235.987 261.94 235.987 261.94 236.591L262.543 238.401V239.005V239.608C262.543 240.212 263.147 240.212 263.147 240.815L264.354 244.437C264.957 246.247 265.561 248.662 266.768 251.076V251.679C266.768 252.283 267.371 253.49 267.371 254.094L267.975 255.3C267.975 255.904 268.579 257.111 268.579 257.715L269.182 260.733C269.786 263.147 270.389 265.561 270.389 267.975C270.389 270.389 270.993 272.803 271.596 275.218C272.2 277.028 272.2 279.443 272.803 281.253V282.46C272.803 283.064 272.803 284.271 273.407 284.874V286.081C273.407 286.685 273.407 287.289 274.01 288.496C274.01 289.099 274.01 289.099 274.01 289.703C274.01 291.513 274.01 292.721 274.01 293.928C274.01 295.135 274.01 295.738 274.01 296.945C274.01 298.152 273.407 298.756 273.407 299.963C273.407 300.567 272.803 300.567 272.803 301.17C272.2 302.377 271.596 302.981 270.993 304.188L270.389 305.395C269.786 306.602 269.182 307.206 268.579 308.413C267.975 309.62 267.372 310.223 266.768 311.431L266.164 312.034C265.561 312.638 265.561 313.241 264.957 313.241C264.354 313.845 263.75 315.052 263.147 315.655L262.543 316.259L260.129 319.277C259.525 319.88 258.922 320.484 258.318 321.087C257.715 321.691 257.111 322.294 255.904 322.898L255.3 323.501C254.697 323.501 254.697 324.105 254.093 324.105C254.093 324.105 253.49 324.105 253.49 324.708C252.886 324.708 252.886 324.708 252.283 324.708C251.679 324.708 251.076 324.708 250.472 324.708C249.869 324.708 249.265 324.708 248.058 324.708C247.454 324.708 246.247 324.708 245.04 324.708C243.23 324.708 242.022 324.105 240.212 323.501C238.401 322.898 237.194 322.294 235.383 321.691C234.176 321.087 232.969 320.484 231.762 319.88C230.555 319.277 229.348 318.07 228.141 317.466C226.934 316.862 226.33 315.655 225.123 315.052C222.709 313.241 219.691 312.638 217.277 313.241C216.07 313.845 214.259 313.845 213.052 314.448C211.845 315.052 211.242 315.052 210.034 315.655C208.827 316.259 207.62 316.259 207.017 316.862C205.81 316.862 204.603 317.466 202.792 317.466C201.585 317.466 200.981 317.466 199.774 317.466C196.756 317.466 194.342 316.862 191.325 316.862C191.928 316.259 191.928 315.655 192.532 315.655C193.135 315.052 193.739 314.448 194.342 313.241C194.946 312.034 196.153 310.827 196.756 309.62C197.964 308.413 198.567 306.602 199.774 305.395C200.981 303.584 201.585 302.377 202.792 300.567C200.378 302.981 198.567 305.999 196.153 308.413C195.549 309.62 194.342 310.223 193.739 311.431C192.532 313.241 191.324 314.448 189.514 316.259C189.514 316.259 189.514 316.259 188.91 316.862C185.289 316.259 181.668 315.655 178.65 315.052C178.046 315.052 176.839 314.448 176.236 313.845C175.029 313.241 173.822 312.638 172.615 312.034C170.2 310.223 167.786 309.016 165.372 307.206C162.958 305.395 160.544 303.584 158.733 301.17C157.526 299.963 156.922 299.359 155.715 298.152C154.508 296.945 153.301 295.738 152.094 295.135C151.49 294.531 150.283 293.324 149.68 292.72C147.869 291.513 146.662 290.306 144.248 289.703C141.834 289.099 138.816 288.496 135.195 289.099C132.78 289.099 130.97 289.703 127.952 290.306L125.538 290.91C123.727 291.513 122.52 291.513 120.709 292.117C118.295 292.72 116.485 293.324 114.07 293.324C114.07 293.324 114.07 293.324 113.467 293.324H112.863V292.72C112.863 292.117 112.863 290.91 112.863 290.306C112.863 289.703 112.863 289.099 112.863 287.892C112.863 287.289 112.863 286.081 113.467 285.478C113.467 284.874 114.07 284.874 114.07 284.271C114.07 284.271 114.07 283.667 114.674 283.667C114.674 283.064 115.278 283.064 115.278 282.46C115.881 281.857 116.485 281.253 117.088 280.65C118.295 280.046 118.899 278.839 120.106 278.235C121.313 277.632 122.52 276.425 123.124 275.821C124.331 275.218 124.934 274.614 126.141 274.01C127.952 272.803 129.763 271.596 131.573 270.389C132.78 269.182 133.987 268.579 135.195 267.371C135.798 266.768 136.402 266.164 137.005 266.164C138.816 264.354 140.627 263.147 142.437 261.336H143.041C144.851 260.129 146.662 258.318 148.473 257.111C150.283 255.904 151.49 254.093 153.301 252.886C153.905 252.283 154.508 251.679 155.112 251.076C155.715 250.472 156.319 249.869 156.922 249.265C158.129 248.058 159.337 246.851 160.544 245.04C163.561 241.419 166.579 237.798 169.597 234.176C172.011 231.159 175.632 226.934 178.046 222.709C179.254 220.898 180.461 218.484 181.064 216.673C182.271 214.259 182.875 212.449 184.082 209.431C184.685 207.017 185.893 205.206 186.496 202.792C187.1 201.585 187.1 200.378 187.703 199.171V197.963C187.703 197.36 188.307 196.756 188.307 195.549C191.325 196.756 193.739 197.36 196.756 197.963C197.36 197.963 197.963 197.964 198.567 198.567V200.378V201.585C198.567 202.792 198.567 203.999 197.963 204.603V205.81C197.963 207.62 197.36 209.431 196.756 211.845C196.153 214.863 195.549 217.881 194.946 221.502C194.342 224.52 193.739 227.537 192.532 230.555C191.928 231.762 191.928 232.969 191.325 234.176C191.325 234.176 191.325 234.176 191.325 234.78V235.383L190.721 236.591V237.194C190.721 237.798 190.721 237.798 190.117 238.401L189.514 240.212L188.91 241.419C188.307 242.023 188.307 243.23 187.703 243.833L187.1 245.04C186.496 245.644 186.496 246.851 185.893 247.454L184.686 249.869L183.478 252.283C183.478 252.886 182.875 253.49 182.875 254.094L181.668 256.508C181.064 257.111 180.461 258.318 179.857 258.922C179.857 258.922 179.857 259.525 179.254 259.525C179.254 260.129 178.65 260.129 178.65 260.733L178.046 261.336C177.443 261.94 177.443 262.543 176.839 263.147C176.236 263.75 175.029 264.957 174.425 265.561C175.632 264.354 176.839 263.75 178.046 262.543L178.65 261.94C178.65 261.94 178.65 261.94 179.254 261.336L179.857 260.733C180.461 260.129 180.461 260.129 181.064 259.525L181.668 258.318L182.271 257.111C182.875 256.508 182.875 256.508 183.478 255.904L184.082 255.3C184.685 254.093 185.289 252.886 186.496 251.679C188.307 249.265 189.514 246.247 191.325 243.23L191.928 242.626C191.928 242.023 192.532 242.023 192.532 241.419L193.135 239.608L193.739 239.005C194.342 237.798 194.946 236.591 195.549 234.78V234.176C195.549 233.573 195.549 233.573 196.153 232.969V232.366V231.762C196.153 231.159 196.756 230.555 196.756 229.952V229.348C197.36 228.141 197.36 226.934 197.963 225.727C198.567 222.709 199.171 219.691 199.774 216.07C200.378 214.259 200.378 213.052 200.378 211.242V210.638C200.378 210.034 200.378 209.431 200.378 208.827V207.62V205.81C200.378 205.206 200.378 204.603 200.378 203.999V203.396C200.378 202.792 200.378 202.188 200.378 201.585V199.774V197.963V197.36C200.378 197.36 200.378 197.36 200.981 197.36C202.792 197.36 204.602 197.963 207.017 197.963V198.567V199.171V199.774C207.017 200.378 207.017 201.585 207.62 202.188C207.62 202.792 208.224 203.999 208.224 204.603C208.827 208.224 210.034 210.638 210.638 213.052C210.638 210.034 210.638 207.017 210.638 203.999C210.638 202.792 210.638 202.188 210.638 200.981C210.638 199.774 210.638 199.171 210.638 197.963V197.36C212.449 197.36 214.259 197.36 216.07 197.36C218.484 197.36 220.295 197.36 222.709 197.36C222.709 197.36 222.709 197.963 223.313 197.963C223.916 199.171 223.916 200.378 224.52 201.585L225.123 202.792C225.727 203.999 225.727 205.206 226.33 206.413C226.33 207.017 226.934 207.62 226.934 208.224L227.537 210.034C227.537 210.638 227.537 210.638 228.141 211.242V211.845V212.449C228.141 213.052 228.744 213.656 228.744 213.656C228.744 214.259 228.744 214.259 228.744 214.863C228.744 215.466 228.744 216.07 228.744 216.07V217.277V217.881C228.744 218.484 229.348 219.088 229.348 219.691V220.898C229.348 222.105 229.952 222.709 229.952 223.916V224.52C229.952 225.123 230.555 226.33 230.555 226.934L231.159 228.141C231.762 229.951 232.366 231.762 232.969 234.176L233.573 235.383C232.969 231.762 232.366 228.141 231.762 224.52C231.762 223.313 231.159 221.502 231.159 220.295C231.159 219.691 231.159 219.088 231.159 218.484C231.159 217.277 231.159 216.07 230.555 215.467C230.555 214.863 230.555 213.656 229.952 213.052C229.952 212.449 229.348 212.449 229.348 211.845C229.348 211.242 228.744 210.638 228.744 210.034L228.141 207.62L227.537 205.206C226.934 203.999 226.934 203.395 226.33 202.188V201.585C226.33 200.981 225.727 199.774 225.727 199.171V198.567C226.33 198.567 226.33 198.567 226.934 198.567C229.952 198.567 232.366 197.964 234.78 197.36L235.383 197.963ZM383.856 243.833L383.253 244.437C382.649 245.04 382.046 245.04 381.442 245.644C380.838 245.644 380.235 246.247 379.631 246.247C378.424 246.851 377.217 246.851 376.01 247.454C374.199 248.058 372.992 248.058 371.182 248.058C369.371 248.058 366.957 248.058 365.146 248.058C363.336 248.058 361.525 247.454 359.714 247.454C358.507 247.454 357.3 246.851 355.489 247.454C353.679 247.454 351.868 248.058 350.057 249.265C347.643 250.472 345.229 252.283 343.418 254.094C342.815 254.697 342.211 255.301 341.004 255.904C339.797 256.508 338.59 257.715 337.987 258.318C336.779 258.922 335.572 259.525 334.365 260.129C333.762 260.129 333.762 260.129 333.158 260.733H332.555C332.555 260.733 332.555 260.733 331.951 260.733C331.347 260.733 331.347 260.733 330.744 260.733C328.33 260.129 325.916 259.525 323.501 258.922C322.294 258.318 321.087 258.318 319.88 257.715C318.673 257.715 317.466 257.111 316.259 257.111C315.052 256.508 313.845 256.508 312.034 255.904C310.223 255.301 309.016 254.697 307.206 253.49C305.395 252.283 304.188 251.679 302.981 250.472C301.774 249.869 301.17 248.662 299.963 247.454C293.324 240.815 287.289 234.176 280.65 227.537L279.442 226.33C275.821 222.709 272.803 219.088 269.182 216.07L268.579 215.467C266.768 213.656 264.957 212.449 263.75 210.638C261.336 208.827 259.525 207.017 257.111 205.206C254.697 203.395 252.283 201.585 249.265 199.774C248.058 199.171 246.851 198.567 245.04 197.36L244.437 196.757V196.153V195.549H245.04C245.04 196.153 245.04 196.757 245.644 196.757C246.247 196.757 246.851 197.36 247.454 196.757C247.454 196.757 247.454 196.757 248.058 196.757C248.662 196.757 248.661 196.757 249.265 196.757C249.869 196.757 249.869 196.757 250.472 196.757C251.679 196.757 253.49 197.36 255.3 197.963C255.904 197.963 256.508 198.567 257.111 198.567C257.715 198.567 258.318 199.171 258.922 199.774C260.129 200.378 260.732 200.981 261.94 201.585C264.354 203.395 266.164 205.81 268.579 207.62C269.786 208.827 270.993 210.035 272.2 211.242C275.218 214.259 278.235 216.673 281.857 219.691C284.874 222.105 287.892 224.52 291.513 226.934L292.117 227.537C292.72 228.141 293.324 228.141 293.928 228.744L294.531 229.348C295.135 229.952 295.738 229.952 296.342 230.555L296.945 231.159C297.549 231.762 298.152 231.762 298.756 232.366C299.359 232.969 299.963 232.969 300.566 233.573L301.17 234.176C303.584 235.383 305.999 235.987 308.413 235.987C310.827 235.987 313.241 235.383 315.655 234.176C317.466 233.573 318.673 232.366 319.88 231.762C320.484 231.762 320.484 231.159 321.087 231.159C321.691 230.555 322.898 229.952 323.501 229.348C324.105 229.348 324.105 228.744 324.708 228.744H325.312C325.312 228.744 325.916 228.744 326.519 228.744C327.123 228.744 327.123 228.744 327.726 228.744C328.33 228.744 328.33 228.744 328.933 228.744C329.537 228.744 330.14 228.744 330.14 229.348C330.744 229.348 331.347 229.952 331.951 229.952C332.555 229.952 333.158 230.555 333.762 231.159C334.969 231.762 336.176 232.969 337.383 233.573L337.987 234.176L338.59 234.78C339.797 235.987 341.608 237.194 342.815 238.401C343.418 239.005 344.626 239.608 345.229 240.212C345.833 240.815 347.04 241.419 347.643 242.023C348.247 242.023 348.85 242.626 349.454 242.626L350.057 243.23H350.661C351.265 243.833 352.472 243.833 353.679 244.437C355.489 245.04 357.3 245.644 359.714 246.851C361.525 247.454 363.336 248.058 365.75 248.662C369.975 249.869 373.596 249.869 377.217 249.265C379.028 249.265 380.235 248.662 381.442 248.662C382.046 244.437 382.649 244.437 383.856 243.833ZM289.099 160.544C291.513 160.544 293.324 160.544 295.738 159.94C299.963 159.94 304.188 158.733 307.809 156.922C310.223 155.715 312.638 154.508 315.052 152.697C317.466 150.887 319.88 149.68 322.294 147.869C322.898 147.266 324.105 146.662 324.708 146.059C325.915 144.851 327.123 144.248 328.933 143.041C329.537 142.437 330.744 141.834 331.347 141.23C334.365 139.419 337.383 137.005 340.401 135.195C341.608 134.591 342.815 133.988 344.626 133.384C345.833 132.78 347.04 132.78 347.643 132.177C348.85 131.573 350.661 131.573 351.868 130.97C353.679 130.366 356.093 129.763 357.904 128.556L359.111 127.952C361.525 127.349 363.336 126.141 365.75 125.538C368.767 124.331 371.182 123.727 374.199 122.52C375.406 121.917 376.614 121.917 377.821 121.313C378.424 121.313 379.028 121.313 380.235 120.709C380.838 120.709 381.442 120.709 382.045 120.709C382.649 120.709 383.253 120.709 383.856 120.709C384.46 120.709 384.46 120.709 385.063 120.709H385.667C385.667 120.709 386.27 120.71 386.27 121.313L386.874 121.917L387.477 122.52L388.081 123.124C388.684 123.727 388.684 124.331 389.288 124.934C389.288 125.538 389.892 126.141 389.892 126.745C390.495 127.349 390.495 128.556 390.495 129.159C391.099 130.366 391.099 132.177 391.099 133.988C391.099 135.798 391.099 137.005 391.099 138.816C391.099 143.644 390.495 148.473 389.892 153.301C389.288 156.319 389.288 158.733 389.288 161.751C389.288 162.958 389.288 164.768 389.892 165.976C389.892 167.183 390.495 168.993 391.099 170.2C391.702 172.011 392.306 174.425 393.513 176.236L394.116 178.046C394.72 180.461 395.927 182.875 396.531 185.893C397.134 187.703 397.738 188.91 397.738 190.721C398.341 191.928 398.341 193.135 398.945 193.739V194.342C399.548 196.757 400.152 199.171 400.755 201.585C400.755 202.188 401.359 203.395 401.359 203.999C401.359 205.81 401.359 207.62 401.359 208.827V209.431V210.034C401.359 210.638 400.755 211.242 400.755 211.845C400.755 212.449 400.755 212.449 400.152 213.052V213.656C400.152 214.259 399.548 214.259 399.548 214.863V215.467C399.548 216.07 398.945 216.674 398.945 217.277C397.738 218.484 397.134 219.691 396.531 220.898C396.531 221.502 395.927 222.105 395.927 222.105V222.709C395.927 223.313 395.324 223.916 395.324 224.52C394.72 225.123 394.72 225.727 394.116 226.934C393.513 227.537 393.513 228.141 393.513 228.141C393.513 228.744 392.909 228.744 392.306 229.348C391.099 231.159 389.288 232.366 388.081 234.176C388.081 234.176 387.477 234.176 387.477 234.78C386.874 235.383 386.27 235.987 385.667 236.591C384.46 237.194 383.856 237.798 382.649 238.401C382.045 238.401 382.046 239.005 381.442 239.005C380.838 239.005 380.235 239.608 379.631 239.608C379.028 239.608 377.821 239.608 377.217 240.212C376.01 240.212 375.406 240.212 374.199 240.212C373.596 240.212 373.596 240.212 372.992 240.212C372.992 240.212 372.992 240.212 372.389 240.212C371.785 240.212 370.578 240.212 369.974 240.212H369.371C367.56 239.608 365.75 239.608 364.543 239.005H363.939C363.335 239.005 362.732 238.401 362.128 238.401C360.921 237.798 360.318 237.798 359.111 237.194C357.3 236.591 356.093 235.987 354.282 235.383H353.679C353.075 234.78 352.472 234.78 351.265 234.176H350.661C350.057 234.176 350.057 234.176 349.454 233.573L348.85 232.969L348.247 232.366L347.643 231.762C347.04 231.159 345.833 230.555 345.229 229.952C344.022 229.348 343.419 228.744 342.211 228.141C341.608 227.537 341.004 226.934 340.401 226.33C339.797 225.727 338.59 225.123 337.987 224.52C336.176 223.313 334.365 221.502 331.951 220.898C328.933 219.691 326.519 219.088 324.105 219.088C321.691 219.088 319.88 220.295 317.466 221.502C316.862 222.106 315.655 222.709 315.052 223.313C313.845 223.916 313.241 224.52 312.034 224.52C311.431 224.52 310.827 225.123 310.223 225.123C309.62 225.123 309.016 225.123 309.016 225.123C308.413 225.123 308.413 225.123 307.809 225.123C307.206 225.123 307.206 225.123 306.602 225.123C305.998 225.123 305.395 225.123 304.791 224.52C304.188 224.52 302.981 223.916 302.377 223.313L301.17 222.709L299.963 222.105C299.36 222.105 298.756 221.502 298.756 221.502H298.152C296.945 220.898 295.738 220.295 293.928 219.088L290.91 217.277C288.496 215.466 285.478 213.656 283.064 211.845C280.046 209.431 277.632 207.62 275.218 205.206C273.407 203.999 272.2 202.188 270.389 200.981L269.182 199.774C267.975 198.567 267.372 197.964 266.164 196.757H265.561C264.354 195.549 262.543 194.342 261.336 193.135C260.129 191.928 257.715 191.325 255.904 190.117C255.3 190.117 254.697 189.514 253.49 189.514H252.886C252.283 189.514 252.283 189.514 251.679 189.514C251.076 189.514 250.472 189.514 249.265 189.514C248.661 189.514 248.058 189.514 247.454 189.514C246.851 189.514 246.247 189.514 245.644 189.514C245.644 189.514 246.247 189.514 246.247 188.91C247.454 188.307 248.058 187.703 249.265 187.1C250.472 186.496 251.679 185.893 252.283 185.289L252.886 185.893C253.49 185.893 253.49 186.496 254.093 186.496L255.904 187.1L257.715 187.703C258.922 188.307 260.129 188.91 260.733 189.514L261.94 190.117L262.543 190.721C263.147 190.721 263.147 190.721 263.75 191.325L265.561 191.928C266.768 192.532 267.371 193.135 268.579 193.135C269.786 193.739 271.596 194.342 272.803 194.946C275.821 195.549 278.235 196.153 281.253 196.757H282.46C283.064 196.757 283.667 196.757 284.271 197.36C284.874 197.36 286.081 197.963 286.685 197.963C288.496 198.567 290.306 198.567 291.513 198.567C291.513 198.567 291.513 198.567 290.91 198.567C289.703 197.964 288.496 197.36 287.289 196.757L286.685 196.153C286.081 196.153 285.478 195.549 284.874 195.549C283.667 194.946 283.064 194.342 281.857 194.342C280.046 193.739 278.235 193.135 275.821 192.532C274.011 191.928 272.2 191.325 270.389 190.721H269.786C269.182 190.721 268.579 190.117 267.975 190.117H267.371C266.768 190.117 266.164 189.514 265.561 189.514C264.957 189.514 264.957 189.514 264.354 188.91H263.75C261.94 188.307 260.732 187.703 258.318 186.496L257.111 185.893C255.904 185.289 255.301 184.686 254.093 184.686C254.093 184.686 254.697 184.686 254.697 184.082C255.904 183.478 257.111 182.271 258.318 181.064L259.525 181.668C260.732 182.271 261.94 182.875 262.543 182.875C263.147 182.875 263.75 183.478 263.75 183.478H264.354H264.957C265.561 183.478 266.164 184.082 266.164 184.082L267.371 184.686L268.579 185.289C269.182 185.289 269.786 185.893 269.786 185.893H270.389H270.993H271.596H272.2C272.803 185.893 273.407 185.893 274.01 186.496C275.821 187.1 277.632 187.1 278.839 187.703C281.857 188.307 284.874 188.91 287.892 189.514C289.099 190.117 290.91 190.117 292.117 190.721C293.928 191.325 295.738 191.324 297.549 191.928H298.152C298.756 191.928 299.36 192.532 299.963 192.532H300.566H301.17H301.774H302.377C302.981 192.532 303.584 192.532 304.791 192.532C305.395 192.532 305.998 192.532 307.206 192.532H307.809H308.413H309.016H309.62C310.827 192.532 311.43 192.532 312.637 192.532H313.845C315.052 192.532 316.259 192.532 316.862 192.532H318.07H318.673C319.276 192.532 319.88 192.532 320.484 192.532C322.294 192.532 324.105 192.532 325.312 191.928C325.916 191.928 327.123 191.928 327.726 191.325C328.33 191.325 328.933 191.325 329.537 190.721C330.744 190.117 332.555 190.117 333.762 189.514C335.572 188.91 337.383 188.307 338.59 187.703C337.987 187.703 337.383 188.307 336.779 188.307C336.176 188.307 335.572 188.307 334.969 188.91C334.365 188.91 333.762 188.91 333.158 188.91H332.555H331.951H331.347C329.537 188.91 328.33 188.91 326.519 189.514C325.916 189.514 325.312 189.514 324.708 189.514H324.105C323.501 189.514 322.898 189.514 322.294 189.514H321.691C321.087 189.514 321.087 189.514 320.484 189.514H319.276C316.862 189.514 314.448 189.514 312.034 189.514C310.223 189.514 308.413 189.514 306.602 189.514H305.999C305.395 189.514 304.791 189.514 304.188 189.514C303.584 189.514 303.584 189.514 302.981 189.514H301.774H301.17H300.566C299.963 189.514 299.963 189.514 299.36 189.514H298.756C297.549 189.514 296.945 188.91 295.738 188.91L293.324 188.307C292.117 187.703 290.306 187.703 289.099 187.1C285.478 186.496 283.064 185.893 280.046 185.289H279.442C278.235 185.289 277.028 184.686 275.218 184.686C274.011 184.686 272.2 184.082 270.993 183.478H269.786L268.579 182.875C267.975 182.875 267.371 182.271 267.371 182.271H266.768C265.561 181.668 264.957 181.668 263.75 181.064L262.543 180.461L261.336 179.857C260.732 179.254 259.525 179.254 258.922 178.65H258.318L258.922 178.046C261.336 176.236 263.147 175.029 264.957 173.218H265.561H266.164H267.371H267.975C268.579 173.218 269.786 173.822 270.389 173.822H271.596H272.803H273.407H274.01C274.614 173.822 275.218 173.822 275.821 174.425C276.425 174.425 277.632 174.425 278.235 174.425H279.442C280.046 174.425 280.65 174.425 281.253 174.425H281.857H283.064C284.271 174.425 284.874 174.425 286.081 174.425C287.892 174.425 289.703 173.822 291.513 173.218H292.117H293.324H294.531C295.135 173.218 295.738 173.218 296.342 172.615H296.945C298.756 172.615 299.963 172.011 301.17 172.011C302.377 172.011 304.188 172.011 305.395 171.407C307.206 171.407 308.413 171.407 310.223 170.804C311.43 170.804 313.241 170.2 315.052 170.2C315.655 170.2 315.655 170.2 316.259 170.2H316.862C317.466 169.597 318.673 169.597 319.276 168.993C321.087 168.39 322.294 167.786 323.501 166.579C324.105 165.976 324.708 165.976 325.312 165.372C325.916 164.768 326.519 164.165 327.123 163.561C326.519 163.561 325.916 164.165 325.312 164.165C324.708 164.165 324.709 164.165 324.105 164.768C323.501 164.768 322.898 165.372 321.691 165.372L320.484 165.976C319.88 165.976 319.276 166.579 318.673 166.579L317.466 167.183C316.862 167.183 316.259 167.786 315.655 167.786C315.052 167.786 313.845 168.39 313.241 168.39C312.637 168.39 312.638 168.39 312.034 168.39H311.43H310.827H310.223H309.016H308.413C307.809 168.39 307.206 168.39 306.602 168.39C305.395 168.39 304.791 168.39 303.584 168.39C300.566 168.39 297.549 168.993 294.531 169.597C293.927 169.597 292.72 169.597 292.117 170.2H290.91H289.703H289.099C287.288 170.804 284.874 171.407 283.064 171.407C281.857 171.407 280.649 171.407 280.046 171.407H278.839H277.632H275.218H274.01C273.407 171.407 272.803 171.407 272.2 171.407C271.596 171.407 270.993 171.407 270.993 171.407H270.389L268.579 170.804L266.164 170.2H264.957C264.354 170.2 263.75 170.2 263.147 169.597L263.75 168.993C264.354 168.39 264.354 168.39 264.957 167.786C266.768 165.975 267.975 164.165 269.182 162.354C270.389 160.544 271.596 158.129 272.2 155.715C272.2 154.508 272.803 153.301 272.803 152.094V151.49H273.407C274.01 151.49 274.01 151.49 274.614 152.094C274.614 152.094 275.218 152.094 275.218 152.697C275.821 152.697 276.425 153.301 277.028 153.301C277.632 153.301 278.235 153.905 279.442 153.905C287.288 160.544 288.496 160.544 289.099 160.544ZM266.164 132.177C267.372 133.987 268.579 135.798 269.786 137.609C270.389 139.419 271.596 141.23 272.2 143.041C272.803 144.248 272.803 145.455 273.407 146.662C273.407 147.869 274.01 149.076 274.01 150.887C274.01 152.094 274.01 152.697 274.01 153.905C274.01 154.508 274.01 155.112 274.01 155.112C274.01 156.319 273.407 156.922 273.407 158.733V159.336L272.803 160.544C272.2 161.147 272.2 162.354 271.596 162.958C270.993 163.561 270.389 164.768 269.786 165.372C269.182 166.579 267.975 167.183 266.768 168.39C264.957 170.2 262.543 172.011 260.733 173.218C257.111 175.632 252.886 178.046 249.265 180.461C246.247 182.271 243.23 183.478 239.608 184.686C237.194 185.289 235.384 185.893 233.573 186.496C231.762 187.1 229.951 187.1 228.141 187.703C225.727 187.703 222.709 188.307 219.088 188.307C214.259 188.307 209.431 187.703 205.206 187.1C202.188 186.496 199.774 185.893 197.36 185.289C195.549 184.686 193.135 184.082 191.325 182.875C189.514 181.668 187.703 181.064 185.893 179.857C183.478 178.65 181.668 177.443 179.857 176.236C178.046 174.425 176.236 173.218 174.425 171.407C173.218 169.597 172.011 168.39 170.2 166.579C169.597 165.372 168.993 164.165 167.786 163.561C167.183 162.354 166.579 161.751 166.579 160.544C166.579 159.94 165.976 159.336 165.976 158.733C165.976 158.129 165.976 158.129 165.976 157.526C165.976 156.922 165.976 156.922 165.976 156.319C165.976 155.715 165.976 155.112 165.976 155.112C166.579 155.715 167.183 155.715 167.786 156.319C168.39 156.319 168.993 156.319 169.597 156.319C170.2 156.319 170.2 156.319 170.804 156.319H171.407C171.407 156.319 171.407 156.319 172.011 156.319C172.011 156.319 172.011 156.319 171.407 156.319C170.804 155.715 170.2 155.715 169.597 155.112C168.993 154.508 168.993 154.508 168.39 153.905L167.786 153.301C167.786 153.301 167.786 153.301 167.786 152.697C167.786 152.094 167.786 152.094 167.183 151.49L167.786 150.887C168.39 150.283 168.993 149.076 169.597 148.473C169.597 148.473 169.597 147.869 170.2 147.869C170.804 147.869 170.804 147.266 171.407 147.266C172.011 146.662 172.615 146.662 172.615 146.059H173.218C173.822 146.059 173.822 145.455 173.822 145.455C175.029 144.248 175.029 143.041 174.425 141.834C174.425 141.23 173.822 141.23 173.218 140.626C173.218 140.626 173.218 140.627 173.822 140.023C175.029 138.212 176.839 137.005 178.046 135.195C179.857 133.987 181.064 132.177 182.875 130.97C184.685 129.763 187.1 127.952 189.514 126.745C193.135 124.934 197.36 123.124 200.981 121.917C201.585 121.917 202.188 121.313 202.792 121.313C205.206 120.106 208.224 119.502 211.242 118.899C213.656 118.295 216.673 117.692 220.295 117.692H221.502C222.105 117.692 222.105 117.692 222.709 117.692C224.52 117.692 226.33 117.692 228.744 117.692C231.159 117.692 232.969 117.692 235.987 118.295C239.005 118.899 241.419 119.502 244.437 120.106C246.247 120.709 248.661 121.313 250.472 122.52C252.283 123.124 254.697 124.331 256.508 125.538H257.111L257.715 126.141C258.922 126.745 260.129 127.952 261.336 128.556C262.543 129.763 263.75 130.366 264.354 131.573C264.354 129.763 265.561 130.97 266.164 132.177ZM274.614 133.988C274.01 133.384 274.01 133.384 273.407 132.78C272.2 130.97 270.993 129.159 269.786 127.349C269.786 127.349 269.786 126.745 270.389 126.745C270.993 126.141 271.596 124.934 272.2 124.331L272.803 123.727C273.407 123.124 274.614 122.52 275.218 121.313C275.821 120.71 276.425 120.709 277.028 120.106L277.632 119.502C278.235 118.899 278.839 118.295 279.442 117.692C280.046 117.088 280.65 116.485 281.253 116.485L281.857 115.881L282.46 115.278C283.064 114.674 283.667 114.071 284.271 112.863C284.271 112.863 284.271 112.26 284.874 112.26C285.478 111.656 285.478 111.656 286.081 111.053C286.685 110.449 286.685 109.846 287.289 109.242C287.892 108.035 288.496 107.431 289.099 106.224L290.306 105.017C289.099 105.621 288.496 106.828 287.892 107.431C287.289 108.035 287.289 108.035 286.685 108.639C286.081 109.242 286.081 109.242 285.478 109.846L284.874 110.449V111.053L284.271 111.656L283.667 112.26C283.064 112.863 281.857 114.07 281.253 114.674C280.65 115.278 280.046 115.881 279.442 116.485C278.235 117.692 277.028 118.899 275.218 120.709L274.01 121.917L272.803 123.124C272.2 123.727 271.596 124.934 270.389 125.538V126.141C269.786 126.745 269.786 126.745 269.182 127.349C267.975 126.141 266.768 124.331 264.957 123.124C263.147 121.313 261.336 120.106 258.318 118.899C258.318 118.295 258.922 118.295 258.922 118.295L259.525 117.692C259.525 117.692 259.525 117.692 260.129 117.088C260.129 116.485 260.733 116.485 260.733 115.881C261.336 115.278 261.94 114.07 262.543 113.467C262.543 112.863 263.147 112.863 263.147 112.26L263.75 111.656C264.354 111.053 264.957 109.846 264.957 109.242L265.561 108.035C266.164 106.828 266.768 105.621 267.371 104.414C269.182 100.792 270.993 97.7747 272.2 94.1534C273.407 91.1357 274.614 87.5143 275.821 83.8931C276.425 82.0824 276.425 80.2718 277.028 79.0648C277.028 77.8577 277.632 76.0469 277.632 74.8398V73.6329C277.028 74.84 276.425 76.6505 275.821 77.8576C275.218 79.0647 274.614 80.2718 274.01 81.4789C273.407 82.686 272.803 83.8931 272.2 85.1002C271.596 85.7038 271.596 86.3072 270.993 86.9108C269.786 88.7214 267.975 91.7393 266.768 94.757C266.164 95.9641 265.561 96.5677 265.561 97.7748L264.957 98.9817L264.354 99.5853L263.147 102.603C262.543 103.81 261.939 105.621 261.336 106.828C260.732 107.432 260.732 108.639 260.129 109.242L259.525 110.449V111.053C259.525 111.656 258.922 112.26 258.922 112.863C258.922 113.467 258.318 114.07 258.318 114.674L257.715 115.278C257.715 115.881 257.111 115.881 257.111 116.485C256.508 117.088 256.508 117.692 255.904 118.295C255.904 118.899 255.3 118.899 255.3 119.502C254.697 119.502 254.093 118.899 253.49 118.899C252.886 118.295 252.283 118.295 251.679 117.692C248.058 115.881 243.23 114.674 238.401 113.467H237.798L238.401 112.863V112.26C238.401 112.26 238.401 112.26 237.798 112.26V111.656C238.401 110.449 239.005 109.242 239.608 108.035C239.608 107.431 240.212 106.828 240.212 106.828C240.815 106.224 240.815 105.621 241.419 105.017C242.626 102.603 243.833 100.189 245.04 97.1712C245.04 96.5676 245.644 95.964 245.644 95.964V95.3604V94.757C245.644 94.1535 246.247 94.1534 246.247 93.5499L246.851 92.3427C246.851 91.7391 247.454 90.5321 247.454 89.9285L248.058 88.7215L248.662 87.5144C248.662 86.9108 248.661 86.9108 249.265 86.3072V85.7038V85.1002C249.265 84.4967 249.265 84.4966 249.869 83.8931C249.869 83.2895 250.472 82.0825 250.472 81.4789C251.076 80.2718 251.076 78.4611 251.679 77.254C251.679 76.0469 252.283 74.2364 252.283 73.0293L252.886 71.2185C253.49 68.8043 253.49 65.7866 254.093 62.7689C254.697 59.1476 254.697 56.1299 254.697 53.7157C254.697 51.905 254.697 50.0944 254.697 48.2838C254.697 47.0767 254.697 45.8696 254.697 45.2661C254.697 44.6625 254.697 44.059 254.697 43.4555V44.0589C254.697 45.266 254.093 45.8695 254.093 47.0766C254.093 48.2837 253.49 48.8873 253.49 50.0944L252.886 51.9051C252.886 52.5087 252.283 53.1121 252.283 53.7157C252.283 54.3192 251.679 54.9229 251.679 55.5264C251.076 57.9406 250.472 59.7511 249.869 62.1653C249.265 63.976 249.265 65.7866 248.662 68.2008C248.058 70.615 248.058 73.6328 247.454 76.047V76.6506V77.254V78.4612C247.454 79.0647 247.454 79.6682 246.851 80.8753V81.4789C246.851 82.0825 246.851 82.6859 246.247 83.2895V83.8931C246.247 84.4966 246.247 85.1003 245.644 85.7038V86.9108C245.644 87.5143 245.04 88.118 245.04 88.7215C245.04 89.3251 245.04 89.325 244.437 89.9285C243.833 91.7392 243.23 92.9464 243.23 94.757C242.022 98.3783 241.419 100.792 240.212 103.81L239.608 105.017C239.005 106.224 239.005 107.431 238.401 108.639L237.798 109.846L237.194 111.053V111.656C237.194 112.26 236.591 112.863 236.591 113.467C234.78 112.863 232.969 112.863 231.159 112.26C229.348 112.26 228.141 112.26 226.33 112.26C225.123 112.26 224.52 112.26 223.313 112.26C223.916 111.656 223.916 111.053 224.52 110.449C225.123 109.846 225.123 108.639 225.727 108.035V107.431C225.727 106.828 225.727 106.828 226.33 106.224C226.934 105.017 226.934 104.414 226.934 103.207C227.537 101.396 228.141 98.9818 228.141 97.1712C228.141 94.757 228.744 92.9463 228.744 91.1357C228.744 89.3251 228.744 87.5145 228.744 85.7038V85.1002C228.744 83.2896 228.744 81.4788 228.744 80.2717C228.744 78.4611 229.348 77.2541 229.348 75.4434C229.348 75.4434 229.348 75.4434 229.348 74.8398V74.2363C229.348 73.0292 229.952 71.2186 229.952 70.0115C229.952 68.2009 229.952 66.9937 230.555 65.1831C230.555 63.976 230.555 63.3724 230.555 62.1653C230.555 59.7511 230.555 57.9406 231.159 55.5264C231.159 54.9229 231.159 54.3192 231.762 53.7157C231.762 53.1121 232.366 51.9051 232.366 51.3015C232.969 50.698 232.969 49.4909 233.573 48.8874C234.176 48.2838 234.78 47.0768 235.383 46.4732V45.8696V45.2661C235.383 45.2661 235.383 45.266 235.383 44.6625C238.401 41.0412 240.212 38.0234 242.023 35.0057C242.626 33.7986 243.833 31.988 244.437 29.5738C245.04 27.7631 245.644 25.9525 246.247 24.1419V23.5383V22.9347C248.058 19.3134 249.265 15.6923 251.076 13.2781C252.283 11.4675 253.49 9.05329 254.697 7.24264C255.301 6.6391 255.3 6.63902 255.904 6.03547L256.508 5.43189L257.111 4.82831C257.715 4.82831 258.318 4.22491 258.318 4.22491C258.922 4.22491 259.525 4.22487 259.525 3.62132C261.336 3.01777 262.543 3.01774 264.354 3.01774C266.164 3.01774 267.975 3.0177 269.182 2.41415C270.389 2.41415 270.993 2.41415 272.2 2.41415C272.803 2.41415 273.407 2.41419 274.01 3.01774C274.614 3.01774 275.821 3.62132 276.425 3.62132C277.028 3.62132 277.632 4.22491 278.235 4.22491C280.046 4.82845 281.253 5.43196 282.46 6.63906C284.271 7.24261 285.478 8.4497 287.289 9.6568C287.892 10.2603 289.099 10.8638 289.703 11.4674C290.306 12.0709 290.91 12.6745 291.513 12.6745C292.72 13.8816 294.531 14.4851 295.738 15.0887L296.342 15.6923L296.945 16.2959C297.549 16.8994 298.152 16.8993 298.756 17.5028C299.359 18.1064 299.963 18.71 301.17 19.3136C301.774 19.9171 302.377 20.5206 302.981 20.5206C303.584 21.1241 303.584 21.1242 304.188 21.7277C304.791 22.3313 304.791 22.3312 305.395 22.9347C305.395 23.5383 305.999 23.5383 305.999 24.1419C305.999 24.7454 305.999 24.7455 305.999 25.3491C305.999 27.7633 305.395 29.5737 305.395 31.9879C305.395 32.5915 304.791 32.5916 304.791 33.1951C304.791 33.1951 304.791 33.7987 304.188 33.7987C304.188 34.4022 303.584 35.0057 303.584 35.0057C302.981 35.6092 302.981 36.8165 302.377 37.42C301.774 39.2307 300.567 41.0413 299.963 42.8519C298.756 45.8696 296.945 48.2838 295.135 51.3015C294.531 52.5086 293.324 53.7158 292.117 54.9229C289.703 57.337 287.892 59.1477 285.478 61.5619C287.288 60.3548 289.099 58.5441 290.91 57.337C292.117 56.7335 293.324 55.5264 293.928 54.9229C294.531 54.3193 295.135 53.7156 295.738 53.1121C296.342 52.5086 296.945 51.3015 297.549 50.6979C298.152 50.0944 298.756 49.4909 299.36 48.2838C299.963 47.6802 300.567 46.4732 301.17 45.8696C302.377 44.059 302.981 42.8518 304.188 41.0412C304.791 39.8341 305.395 38.6271 305.999 37.42C305.999 36.8165 306.602 36.2128 306.602 35.6093C306.602 35.6093 306.602 35.0057 307.206 35.0057C307.206 34.4021 307.809 33.7987 307.809 33.1951C307.809 32.5916 307.809 31.9879 307.809 31.9879V31.3845C309.62 35.0058 311.43 38.627 313.845 41.6447C314.448 42.2483 315.052 43.4553 316.259 44.0589C316.862 44.6624 318.069 45.2661 319.276 45.8696C321.087 46.4732 322.294 47.6802 324.105 48.2838H324.708C325.915 48.8873 327.123 49.4908 328.33 50.0944C328.933 50.6979 329.537 50.698 330.14 51.3015C330.744 51.9051 331.347 53.1121 331.951 53.7157C332.555 54.9228 333.762 56.1299 334.365 56.7334C334.969 57.9405 335.572 59.1476 336.176 59.7512C336.779 60.3547 336.779 61.5618 337.383 62.1653C337.383 62.7689 337.987 63.3725 337.987 63.9761C337.987 65.1832 338.59 65.7867 338.59 66.3902C338.59 67.5973 338.59 68.2009 338.59 69.408C338.59 70.0115 338.59 70.0116 338.59 70.6151C338.59 71.2187 338.59 71.8222 337.987 73.0293C337.987 74.2364 337.383 74.8399 336.779 75.4434C336.176 76.047 336.176 77.254 335.572 77.8576C334.969 79.0647 334.365 79.6682 333.762 80.2717C333.158 80.8753 332.555 82.0825 331.347 82.6861C330.744 83.2896 330.14 83.8931 329.537 84.4966C328.33 85.7037 327.726 86.9109 326.519 88.118L325.916 89.3249C324.708 90.532 324.105 91.7392 322.898 92.9463L322.294 93.5499C319.276 95.964 317.466 98.3783 314.448 100.189C314.448 100.189 314.448 100.189 313.845 100.189C313.241 100.792 312.638 100.792 312.034 101.396C311.431 101.999 310.827 101.999 310.223 101.999C309.62 101.999 309.016 102.603 308.413 102.603C307.809 102.603 306.602 103.207 305.999 103.207C305.395 103.207 304.791 103.81 304.188 103.81C303.584 103.81 302.377 104.414 301.774 104.414C300.567 105.017 299.359 105.621 298.152 106.828L297.549 107.431C296.342 108.638 295.738 109.846 294.531 111.656L293.928 112.26C293.324 113.467 292.117 114.674 291.513 115.881C289.099 118.899 286.685 121.313 284.271 123.727C284.271 123.727 283.667 123.727 283.667 124.331C283.064 124.934 282.46 125.538 281.857 126.141H281.253L280.65 126.745L280.046 127.349L279.442 127.952C278.839 128.556 278.235 128.556 277.632 129.159C277.028 129.763 276.425 129.763 275.218 130.366C274.614 130.366 274.01 130.97 273.407 130.97H272.803H272.2C271.596 130.97 270.993 131.573 270.389 131.573L269.786 132.177H269.182C275.821 133.384 275.218 133.988 274.614 133.988ZM350.057 62.7689L350.661 63.3725C350.661 63.3725 350.661 63.9761 351.265 63.9761C351.265 64.5796 351.868 65.1831 351.868 65.7866C351.868 66.9937 352.472 67.5973 352.472 68.8044C352.472 71.8221 353.075 74.8398 353.075 77.8576C353.075 78.4611 353.075 79.6682 353.075 80.2717C353.075 80.8753 352.472 82.0825 352.472 82.6861C351.868 83.8932 351.868 84.4967 351.265 85.7038C350.661 87.5145 349.454 88.7215 348.85 90.5321C347.04 93.5499 345.229 95.9641 344.022 97.7748C342.211 99.5854 341.004 101.396 339.194 103.81C337.383 106.224 335.572 108.035 333.762 109.846C329.537 113.467 326.519 116.485 323.501 118.295C321.691 119.502 319.88 120.71 318.07 121.917C316.259 123.124 314.448 124.331 312.637 125.538L312.034 126.141C310.223 126.745 309.016 127.952 307.206 128.556C305.395 129.159 304.188 129.763 302.981 129.763C301.774 130.366 299.963 130.366 298.756 130.97H298.152H297.549C295.135 131.573 293.324 132.177 291.513 132.177C289.703 132.78 287.892 132.78 285.478 132.78H284.874C283.064 132.78 281.857 133.384 280.046 133.384H279.442C278.839 133.384 278.235 133.384 277.632 133.988C277.632 133.988 277.632 133.988 278.235 133.988C278.839 133.988 278.839 133.384 279.442 133.384C280.649 132.78 282.46 132.177 283.667 132.177C284.271 132.177 285.478 131.573 286.081 131.573C287.288 130.97 287.892 130.97 289.099 130.366C290.306 129.763 290.91 129.159 291.513 129.159C292.72 128.556 293.928 127.348 295.135 126.141C296.342 124.934 297.549 123.727 298.756 123.124C299.359 122.52 299.36 122.52 299.963 121.917C300.567 121.313 301.774 120.106 302.377 119.502C303.584 118.295 304.188 117.088 304.791 115.881L305.395 115.278C305.999 114.674 307.206 113.467 307.809 112.26C308.413 111.656 308.413 111.656 309.016 111.053C309.016 111.053 309.62 111.053 309.62 110.449C309.62 110.449 310.223 110.449 310.223 109.846C311.43 109.242 312.638 109.242 313.845 108.639C315.052 108.639 316.259 108.035 317.466 107.431C318.069 107.431 318.673 106.828 319.276 106.828C319.88 106.828 320.484 106.224 321.087 106.224C321.691 105.621 322.294 105.621 322.898 105.017C323.501 104.414 324.105 103.81 324.708 103.81C325.915 103.207 327.123 102 328.33 100.792C329.537 100.189 330.14 98.9817 331.347 98.3782L331.951 97.7748C333.158 96.5677 334.365 95.3605 334.969 94.1534C335.572 92.9463 336.176 92.3428 336.779 91.1357L337.383 89.9285C337.986 88.7214 339.194 87.5145 340.401 85.7038V85.1002C341.004 83.8931 342.211 82.686 342.815 81.4789C344.625 78.4612 345.833 75.4435 346.436 73.0293C347.04 70.0115 347.04 66.9938 346.436 63.9761C345.833 62.1654 345.229 60.9582 344.626 59.1476C344.626 59.1476 344.626 58.5442 344.022 58.5442L344.626 59.1476C345.229 59.7511 345.833 60.3548 346.436 60.9583C348.85 61.5619 349.454 62.1653 350.057 62.7689Z" fill="#370014" fill-opacity="0.1"/>
</svg>
