<svg width="65" height="64" viewBox="0 0 65 64" fill="none" xmlns="http://www.w3.org/2000/svg">
<path d="M48.248 31.2848C48.3036 31.2971 48.3117 31.2144 48.2621 31.1995C47.1532 30.9293 45.9913 30.9409 44.9308 30.4629C44.8847 30.4393 44.8593 30.5149 44.9028 30.5324C45.9293 31.0322 47.1266 31.1207 48.248 31.2848Z" fill="#370014" fill-opacity="0.21"/>
<path d="M42.3224 45.8701C42.3518 45.9224 42.4311 45.8886 42.4078 45.8337C42.0107 44.951 41.3521 44.2156 40.6943 43.5158C39.9914 42.7776 39.2788 42.0507 38.6823 41.224C37.484 39.5584 36.385 37.8722 35.4431 36.0472C35.4136 35.9949 35.3256 36.0252 35.3516 36.0862C35.7008 36.9748 36.2076 37.8108 36.7163 38.6173C37.2545 39.476 37.8353 40.3166 38.4292 41.1371C39.0258 41.9638 39.7017 42.7063 40.4021 43.4384C41.1189 44.1923 41.8175 44.954 42.3224 45.8701Z" fill="#370014" fill-opacity="0.21"/>
<path d="M37.6667 40.4963C38.141 42.1024 39.3168 43.6983 40.7182 44.6221C40.7607 44.6544 40.8122 44.5892 40.7697 44.5569C39.4304 43.542 38.2612 42.0801 37.7338 40.4678C37.7217 40.4225 37.6546 40.451 37.6667 40.4963Z" fill="#370014" fill-opacity="0.21"/>
<path d="M21.9667 43.5511C22.7768 42.6447 23.329 41.5383 24.1791 40.6581C24.214 40.6216 24.1646 40.5562 24.1297 40.5927C23.2292 41.4222 22.664 42.5486 21.8877 43.4839C21.8336 43.5429 21.9187 43.6075 21.9667 43.5511Z" fill="#370014" fill-opacity="0.21"/>
<path d="M15.8633 22.4581C14.7577 22.2297 13.4506 22.1878 12.3997 22.6636C12.3448 22.687 12.3689 22.7776 12.429 22.7664C13.4966 22.55 14.497 22.4126 15.5844 22.5983C16.6718 22.784 17.7089 23.2072 18.6788 23.7094C20.7481 24.7812 22.5849 26.2544 24.4515 27.6285C25.3947 28.3221 26.3554 29.0227 27.3904 29.5764C27.4565 29.6131 27.5229 29.4984 27.4569 29.4617C25.4888 28.2892 23.7286 26.8267 21.8654 25.4944C20.0596 24.1953 18.0805 22.9123 15.8633 22.4581Z" fill="#370014" fill-opacity="0.21"/>
<path d="M25.9047 29.0985C25.9385 29.1273 25.9952 29.0744 25.9588 29.0395C25.2645 28.3048 24.4456 27.6664 23.6098 27.1071C22.7741 26.5478 21.8704 26.0319 20.8911 25.7785C20.8415 25.7636 20.81 25.8419 20.8595 25.8568C22.7815 26.379 24.4784 27.7604 25.9047 29.0985Z" fill="#370014" fill-opacity="0.21"/>
<path d="M28.0218 30.9278C27.4709 31.2413 26.7642 31.2394 26.149 31.1986C25.4068 31.147 24.6735 30.9979 23.9533 30.8288C22.44 30.4714 20.9607 30.0418 19.4059 29.8748C18.3853 29.7615 17.3627 29.7787 16.3389 29.8612C16.2763 29.8663 16.2943 29.9595 16.3509 29.957C18.2684 29.8761 20.1755 30.1093 22.0394 30.5625C23.3996 30.8987 24.757 31.3297 26.1659 31.4075C26.8229 31.445 27.5227 31.4138 28.0807 31.0324C28.1339 30.9881 28.0776 30.8896 28.0218 30.9278Z" fill="#370014" fill-opacity="0.21"/>
<path d="M35.8194 18.3554C35.3208 20.5699 34.158 22.5267 33.2994 24.6062C33.2819 24.6496 33.3515 24.6777 33.369 24.6342C34.2753 22.5992 35.5157 20.5878 35.896 18.3661C35.9109 18.3165 35.8283 18.3084 35.8194 18.3554Z" fill="#370014" fill-opacity="0.21"/>
<path d="M29.1366 16.8985C29.5939 18.0077 29.8824 19.1599 30.0558 20.3466C30.2062 21.3775 30.3496 22.4257 30.4103 23.4659C30.4609 24.3808 30.4105 25.2953 30.4403 26.2119C30.4658 27.0509 30.5278 27.9249 30.9209 28.6797C30.9452 28.7198 31.0062 28.6938 30.988 28.6511C30.6073 27.8407 30.5873 26.8624 30.5819 25.986C30.5721 25.0826 30.6251 24.1741 30.5649 23.2705C30.4903 22.2146 30.3513 21.1429 30.1871 20.0963C30.0126 18.9749 29.7292 17.8853 29.2246 16.8683C29.1951 16.816 29.1132 16.8436 29.1366 16.8985Z" fill="#370014" fill-opacity="0.21"/>
<path d="M30.8999 23.048C30.7077 24.2894 30.4863 25.7161 31.0157 26.9099C31.0364 26.9587 31.1096 26.9275 31.0889 26.8787C30.6134 25.6764 30.8017 24.307 30.9704 23.0612C30.9767 23.0081 30.9088 23.001 30.8999 23.048Z" fill="#370014" fill-opacity="0.21"/>
<path d="M43.5764 33.4085C42.7335 33.2556 41.9378 33.0107 41.1327 32.7265C41.0805 32.7055 41.0489 32.7837 41.1011 32.8047C41.8835 33.1202 42.7138 33.4297 43.5622 33.4938C43.6214 33.4974 43.6295 33.4147 43.5764 33.4085Z" fill="#370014" fill-opacity="0.21"/>
<path d="M55.4784 21.1722C55.0057 20.264 54.0186 20.331 53.191 20.6038C52.6788 20.7712 52.1864 21.0022 51.6768 21.1758C51.1733 21.3468 50.7198 21.3812 50.19 21.304C49.1156 21.1488 48.1421 20.6553 47.1099 20.3453C46.0107 20.0133 44.9603 19.9992 43.8636 20.3504C42.5004 20.7862 41.2217 21.4886 40.0741 22.3297C39.1349 23.0173 38.3502 23.848 37.5594 24.6814C37.5997 24.6067 37.6338 24.5345 37.668 24.4624C38.0408 23.7132 38.2822 22.9262 38.5446 22.1375C38.8184 21.308 39.1157 20.4829 39.4242 19.6673C39.7328 18.8518 40.0501 18.0398 40.3673 17.2278C40.66 16.4766 40.9849 15.7334 41.2255 14.9612C41.5618 13.889 41.5837 12.8569 41.0765 11.8337C40.7943 11.2551 40.4294 10.7188 40.0513 10.2026C39.7721 9.81713 39.453 9.40548 39.0105 9.21194C38.6897 9.06746 38.3242 9.07169 37.9832 9.01506C37.4125 8.92648 36.8108 8.71423 36.3977 8.28491C35.6392 7.4839 35.2064 6.31388 33.9683 6.16344C32.7833 6.01923 31.9966 6.98054 31.6309 8.00043C31.3906 8.67166 31.2632 9.43893 31.2916 10.1831C31.2683 10.1282 31.2414 10.082 31.212 10.0297C30.7713 9.17998 30.0731 8.60542 29.1408 8.36094C28.1789 8.11464 27.1263 8.23101 26.2236 8.61499C25.3453 8.98858 24.5254 9.66868 24.2417 10.6105C23.9361 11.6192 24.2744 12.6854 24.6957 13.6082C25.156 14.6225 25.7853 15.5433 26.2761 16.5446C26.9434 17.9102 27.2048 19.4053 27.407 20.8967C27.5213 21.7412 27.6261 22.597 27.8092 23.4339C27.9527 24.0931 28.1451 24.7315 28.34 25.3761C28.6505 26.4109 29.0027 27.4928 29.0214 28.5868C28.4657 27.4835 28.2472 26.2079 27.6976 25.102C27.3808 24.4588 26.9568 23.8685 26.4185 23.3988C25.7873 22.8461 25.0007 22.4532 24.2786 22.0257C23.6 21.6156 22.9406 21.183 22.317 20.6992C21.7673 20.2704 21.1887 19.8754 20.5664 19.5639C19.9068 19.2323 19.2146 18.9937 18.4936 18.8394C17.8108 18.6905 17.1104 18.585 16.4365 18.3891C15.7712 18.1967 15.1349 17.9199 14.5353 17.5771C14.0043 17.2772 13.5005 16.9224 12.9459 16.6685C12.4548 16.4453 11.9174 16.2993 11.3758 16.364C10.7656 16.4363 10.2321 16.7569 9.77146 17.1473C9.23586 17.5984 8.76707 18.1219 8.30439 18.6429C7.87052 19.13 7.40447 19.6091 7.02185 20.132C6.28101 21.1674 6.00312 22.5461 6.97516 23.5444C7.38567 23.9676 7.93414 24.2241 8.52026 24.3998C7.44101 24.4195 6.39704 24.5898 5.45292 25.1643C5.41892 25.1859 5.39439 25.2468 5.40385 25.286C5.59706 26.2482 5.39801 27.118 5.15963 28.0477C4.94851 28.8722 4.89065 29.6675 5.23052 30.4665C5.54703 31.2106 6.05572 32.0171 6.70538 32.5114C7.21607 32.8992 7.82581 33.0288 8.44894 33.0375C9.37752 33.0531 10.3032 32.8754 11.2325 32.9267C12.3368 32.9828 13.3759 33.3259 14.3861 33.7533C15.3814 34.1799 16.3477 34.7413 17.4131 34.9939C18.3759 35.2254 19.3683 35.1707 20.3219 34.9235C20.8863 34.7771 21.4386 34.5854 21.9779 34.3632C21.7311 34.5618 21.5042 34.7735 21.2861 34.9888C20.5172 35.7552 19.883 36.6516 19.3121 37.5787C18.7247 38.5345 18.212 39.5305 17.7427 40.544C17.3076 41.4854 16.8838 42.4363 16.64 43.4548C16.3609 44.6107 16.2637 45.8045 15.9846 46.9604C15.8377 47.5632 15.635 48.1536 15.3602 48.7098C15.1598 49.1192 14.8848 49.4378 14.608 49.7861C13.4107 51.2894 16.0283 52.6681 17.0466 53.301C18.0362 53.9172 19.0478 54.4665 20.1915 54.7508C21.3178 55.028 22.752 55.0806 23.7027 54.3016C23.7306 54.2826 23.7298 54.2469 23.7195 54.2225C24.1001 54.1182 24.4889 53.8808 24.7948 53.7363C25.4283 53.4308 26.0812 53.0522 26.8079 53.0673C27.2735 53.0781 27.8216 53.1475 28.2046 52.8117C28.5623 52.5011 28.7985 52.0405 29.0884 51.6722C29.4238 51.2415 29.871 50.972 30.3608 50.7349C30.719 50.5609 31.111 50.4158 31.4155 50.1494C32.1064 49.5386 32.2633 48.485 32.3727 47.6246C32.4483 47.0234 32.4856 46.4169 32.4577 45.8093C32.4321 45.3088 32.3647 44.8117 32.076 44.3871C32.0353 44.3252 31.9394 44.3876 31.9679 44.4547C32.1253 44.8415 32.1501 45.3063 32.1751 45.7207C32.2076 46.2543 32.1861 46.7964 32.1324 47.3306C32.0465 48.1955 31.9302 49.3614 31.228 49.9627C30.62 50.4806 29.7736 50.6245 29.1838 51.1851C29.4651 50.4748 29.8046 49.783 30.0833 49.0666C30.4146 48.2198 30.7026 47.305 30.5275 46.3855C30.5138 46.3193 30.418 46.3312 30.4195 46.4026C30.502 47.7649 29.9261 48.9678 29.411 50.1953C28.8416 50.9057 28.1535 51.4217 27.3179 51.7771C26.589 51.9431 25.8975 52.1292 25.1376 52.1715C24.4317 52.2053 23.7172 52.1851 23.0119 52.305C22.3188 52.4197 21.747 52.735 21.1837 53.1547C20.5767 53.6073 20.0282 53.9775 19.3019 54.1496C18.6812 53.9094 18.0833 53.5875 17.5168 53.2379C16.7817 52.7798 16.0162 52.3347 15.3528 51.7742C15.0367 51.5053 14.6958 51.1101 14.6081 50.7008C14.542 50.376 14.7436 50.1389 14.9331 49.9071C16.2744 48.285 16.4288 46.2097 16.798 44.2159C17.1707 42.2135 18.1202 40.297 19.0937 38.5216C20.1835 36.5454 21.5798 34.5109 23.7051 33.5637C23.7417 33.5481 23.7418 33.4976 23.7105 33.4749C23.7811 33.4377 23.8491 33.3944 23.9197 33.3571C24.6022 32.9804 25.286 32.776 26.0607 32.7346C26.3079 32.723 26.549 32.7141 26.791 32.6904C26.7789 32.9837 26.8346 33.2841 26.9479 33.5673C26.7318 33.652 26.5304 33.7881 26.3473 33.9164C26.05 34.1149 25.7691 34.3352 25.4996 34.5651C24.9788 35.0171 24.5022 35.5223 24.0517 36.0381C23.0966 37.1286 22.2309 38.3108 21.1604 39.2991C21.1132 39.3408 21.1714 39.4097 21.2211 39.3741C22.2991 38.505 23.1698 37.436 24.0742 36.3958C24.5474 35.8488 25.0345 35.3175 25.5754 34.8281C25.8398 34.586 26.112 34.3622 26.4041 34.1515C26.6029 34.0093 26.833 33.8898 27.0266 33.7354C27.1452 33.9803 27.3126 34.2045 27.5009 34.3764C27.7432 34.5903 28.0353 34.7182 28.3505 34.6633C28.4393 34.9569 28.5898 35.3106 28.8688 35.4585C28.2914 35.9129 27.8403 36.6306 27.4367 37.2057C26.8312 38.0682 26.2683 38.9631 25.6403 39.8065C25 40.6551 24.2487 41.378 23.5017 42.1279C22.8113 42.8249 22.154 43.5655 21.7738 44.4836C21.3279 45.552 21.2194 46.7362 20.6257 47.745C20.5924 47.8023 20.6663 47.8574 20.7082 47.8035C21.2612 47.0209 21.45 46.0762 21.7423 45.1884C22.0688 44.178 22.621 43.3597 23.3542 42.594C24.0655 41.8449 24.8585 41.1691 25.5108 40.3658C26.1631 39.5625 26.7155 38.6937 27.2879 37.838C27.6016 37.3732 27.9153 36.9084 28.2577 36.4603C28.5066 36.1311 28.7833 35.8333 29.0461 35.5199C29.3637 35.5721 29.6158 35.3352 29.7914 35.0876C29.8258 35.2531 29.8628 35.4246 29.8823 35.5892C29.8874 35.6518 29.9569 35.6799 30.0083 35.6652C30.2026 35.597 30.4473 35.5289 30.5966 35.3718C30.6001 35.3631 30.6062 35.3605 30.6158 35.3492C30.2154 36.6431 30.2916 38.0585 29.7808 39.313C29.7528 39.3825 29.8545 39.4185 29.8852 39.355C29.9902 39.1447 30.083 38.9396 30.1584 38.7274C30.139 39.4776 29.9141 40.2359 29.6694 40.9306C29.3448 41.861 28.9273 42.7589 28.5618 43.6778C27.7583 45.6834 27.5887 47.9093 26.4661 49.7913C26.4232 49.86 26.5196 49.9342 26.5625 49.8656C27.5475 48.3373 27.8231 46.513 28.3386 44.7956C28.7874 43.2937 29.5675 41.9103 30.0224 40.4059C30.2174 39.7467 30.3821 39.05 30.2786 38.3665C30.3831 38.0196 30.4468 37.6612 30.4965 37.2871C30.5899 36.5415 30.6511 35.7879 30.8829 35.0627C30.9048 34.9958 30.8484 34.9477 30.7944 34.9563C30.8014 34.9389 30.8119 34.9128 30.8189 34.8954C30.8435 34.8346 30.8062 34.764 30.741 34.7629C29.7421 34.6836 29.2898 33.9252 28.9762 33.0863C29.3199 33.7251 29.7186 34.3407 30.4923 34.3645C30.5575 34.3656 30.5961 34.2699 30.5204 34.2445C29.9778 34.0864 29.6053 33.7694 29.3142 33.2882C29.0768 32.8994 28.9012 32.4699 28.6394 32.0914C28.6542 32.0924 28.6664 32.0872 28.6812 32.0881C28.7317 32.0882 28.725 32.0046 28.6806 32.0019C28.1593 31.9787 27.6619 32.1471 27.2104 32.3896C27.1478 32.3946 27.0764 32.3962 27.0137 32.4012C27.0656 32.1846 27.1732 31.9804 27.3434 31.8216C27.7552 31.452 28.3583 31.4475 28.8961 31.4925C28.916 31.8441 29.044 32.1282 29.2625 32.4387C29.279 32.4605 29.3164 32.4806 29.3494 32.4737C29.582 32.4108 29.8093 32.3357 30.035 32.2397C30.0424 32.4094 30.0941 32.5819 30.1555 32.7431C29.9257 32.7616 29.6995 32.721 29.4705 32.7752C29.4191 32.7898 29.365 32.8488 29.3944 32.9011C29.5633 33.1966 29.8288 33.5159 30.2102 33.4473C30.3782 33.4191 30.5177 33.3237 30.6321 33.203C30.6346 33.2091 30.6372 33.2152 30.6398 33.2213C30.3686 33.7689 30.5347 34.4473 30.9475 34.9776C30.9805 35.0212 31.0518 35.0197 31.0842 34.9771C31.0973 34.9571 31.113 34.9432 31.1322 34.9207C31.1633 34.9938 31.1979 35.0583 31.2352 35.1289C31.262 35.1751 31.2906 35.2422 31.3427 35.2633C31.3688 35.2738 31.401 35.2817 31.4367 35.2809C31.5078 35.3803 31.5885 35.4685 31.6954 35.5166C31.6954 35.5166 31.6954 35.5166 31.7041 35.5201C31.7006 35.5288 31.7058 35.541 31.7084 35.5471C31.7519 35.8527 31.8042 36.1618 31.8599 36.4622C31.832 36.4813 31.8154 36.51 31.8249 36.5492C31.8861 36.7608 31.9412 36.9751 31.9902 37.1919C32.1642 38.1767 32.3086 39.1597 32.1867 40.1768C31.972 41.9751 31.249 43.8313 31.8124 45.63C31.8322 45.6936 31.9411 45.6617 31.9213 45.5981C31.5479 43.9923 32.0403 42.4575 32.3353 40.8987C32.336 40.9344 32.3368 40.97 32.3376 41.0057C32.346 41.7368 32.3615 42.4505 32.4953 43.1715C32.6154 43.8263 32.8103 44.4709 33.0332 45.0964C33.3424 45.9588 33.6795 46.8022 34.0594 47.6274C34.0002 47.6238 33.9625 47.7046 34.0129 47.7552C34.0381 47.7806 34.0606 47.7998 34.0832 47.819C34.0553 47.838 34.0413 47.8728 34.0691 47.9042C34.0717 47.9103 34.0803 47.9138 34.0829 47.9199C34.1081 47.9452 34.129 47.9435 34.1534 47.9332C34.1795 47.9437 34.2021 47.9629 34.2272 47.9882C34.975 49.5429 35.8979 51.0014 37.0989 52.2841C37.5198 52.7317 37.9564 53.1654 38.4148 53.5827C38.6535 53.8053 38.9174 54.0531 39.2383 54.1471C39.8888 54.3386 40.6252 53.6653 41.1447 53.3795C42.2177 52.7862 43.464 52.753 44.5595 52.2295C45.1747 51.9318 45.7774 51.4521 45.8081 50.7116C45.8265 50.3652 45.7343 50.0299 45.5846 49.7118C45.8794 49.7953 46.1908 49.8501 46.5041 49.8753C47.6178 49.9706 50.3321 50.0694 49.9522 48.279C49.8999 48.0203 49.7181 47.6438 49.7937 47.3812C49.907 46.9873 50.3747 46.8676 50.685 46.6996C51.0258 46.5186 51.2694 46.2277 51.6318 46.0807C51.8941 45.9692 52.1841 45.889 52.4066 45.7008C52.9204 45.2661 53.0621 44.3631 52.7381 43.7878C52.4012 43.182 51.7161 42.9261 51.2335 42.4687C50.5372 41.8141 49.8837 41.1413 49.1238 40.557C48.3439 39.9595 47.5201 39.496 46.6404 39.0707C46.577 39.04 46.5262 39.1409 46.5836 39.1741C47.8616 39.9774 49.1161 40.8268 50.2133 41.8654C50.4998 42.1325 50.761 42.4248 51.0449 42.6858C51.2862 42.9144 51.5695 43.0893 51.8396 43.2841C52.0985 43.4693 52.3677 43.6789 52.5131 43.97C52.6984 44.3378 52.6431 44.8006 52.4811 45.1649C52.2123 45.769 51.4446 45.793 50.9779 46.186C50.7215 46.3959 50.4818 46.5267 50.1846 46.6747C49.9423 46.7994 49.7042 47.0015 49.5903 47.2588C49.3994 47.7074 49.7878 48.248 49.7683 48.7101C49.7498 49.1069 49.3148 49.3712 48.9864 49.4965C48.5516 49.6598 48.0781 49.6812 47.6264 49.686C46.931 49.6937 46.14 49.6628 45.4634 49.4608C45.2954 49.1505 45.0786 48.861 44.8844 48.5907C44.3277 47.8407 43.7117 47.1375 43.0957 46.4344C43.0514 46.3812 42.959 46.4349 42.9911 46.4933C43.165 46.8515 43.3939 47.1863 43.6384 47.5072C43.659 48.5717 44.317 49.221 45.1777 49.568C45.2755 49.7641 45.3637 49.9714 45.4275 50.1892C46.0096 52.1673 42.7863 52.3282 41.6293 52.7916C41.5683 52.8175 41.5134 52.8409 41.4524 52.8668C40.747 53.0372 40.0107 53.0335 39.3283 52.7331C38.5181 52.3863 37.875 51.7379 37.3503 51.0463C37.0156 50.598 36.8942 50.1094 36.7547 49.5782C36.6513 49.1828 36.5167 48.7647 36.2172 48.4671C35.7442 47.9984 35.0886 48.0828 34.5252 47.8759C34.2517 47.3007 34.0062 46.7065 33.7667 46.1097C33.7355 45.7484 33.7644 45.376 33.8254 45.0115C33.8316 44.9584 33.7499 44.9356 33.735 44.9851C33.6525 45.2147 33.6058 45.4434 33.5921 45.6653C33.5515 45.553 33.5048 45.4432 33.4668 45.3369C33.2032 44.6495 32.9701 43.9491 32.8215 43.2272C32.6661 42.4722 32.6411 41.7193 32.6258 40.9552C32.6146 40.2684 32.5799 39.5773 32.5061 38.8957C32.459 37.9721 32.2682 37.0665 32.1019 36.1504C32.1157 36.1661 32.1261 36.1905 32.14 36.2062C32.1756 36.256 32.2557 36.2074 32.2324 36.1525C32.1416 35.9391 32.1144 35.7057 32.014 35.5036C32.1386 35.4578 32.2633 35.3615 32.3662 35.2817C32.5041 35.4535 32.6496 35.4061 32.7857 35.2689C32.7909 35.2811 32.7961 35.2933 32.7987 35.2994C33.7882 38.1846 36.366 40.1638 37.4226 43.0204C37.446 43.0753 37.5166 43.0381 37.5019 42.9867C37.0767 41.5469 36.1862 40.3338 35.3 39.1478C34.4328 37.9897 33.5726 36.8141 33.0228 35.4706C33.0688 35.4942 33.1236 35.5214 33.1748 35.5572C33.2174 35.5895 33.2628 35.527 33.2264 35.4921C33.1222 35.3995 33.0169 35.3722 32.9484 35.2789C32.9303 35.2362 32.9156 35.1849 32.8975 35.1422C33.3096 35.2982 33.7662 35.0679 34.0794 34.8051C34.8871 34.1302 35.1602 32.9264 34.2063 32.3093C34.3636 32.0696 34.4375 31.786 34.4487 31.5076C35.8663 31.5384 37.261 31.0748 38.6898 31.1657C40.3344 31.2729 41.7872 32.1315 43.3536 32.5457C43.4092 32.558 43.4408 32.4798 43.3886 32.4587C41.8817 31.9472 40.4313 31.1452 38.8277 30.999C37.3538 30.8697 35.9138 31.3453 34.4474 31.3352C34.4273 31.0341 34.3324 30.7431 34.1807 30.5051C35.6283 29.7597 37.2188 29.2993 38.8166 29.0086C38.8148 29.0381 38.8278 29.0686 38.8696 29.0653C40.7134 28.8788 42.5469 29.2946 44.3866 29.3692C45.0888 29.3946 45.7998 29.4235 46.5027 29.5351C46.8672 29.5961 47.2308 29.672 47.5821 29.8035C47.762 29.871 47.9411 29.9533 48.1009 30.0581C48.2408 30.1499 48.331 30.2772 48.4552 30.3829C48.5142 30.437 48.6093 30.3389 48.5564 30.2822C48.1808 29.8225 47.4286 29.5951 46.8745 29.4778C46.1039 29.3086 45.3128 29.2777 44.5305 29.2504C43.6237 29.2183 42.7328 29.1219 41.827 29.0246C41.0213 28.9423 40.1947 28.8617 39.3834 28.9187C41.0386 28.6612 42.7358 28.638 44.3905 28.8705C44.4436 28.8768 44.4542 28.8002 44.3986 28.7879C42.6615 28.4463 40.8563 28.4867 39.1081 28.7117C37.3329 28.941 35.5822 29.448 34.0012 30.2862C33.8085 30.0872 33.5643 29.9534 33.2832 29.9361C33.2928 29.9248 33.305 29.9196 33.3207 29.9057C33.458 29.9914 33.6419 29.8988 33.7405 29.792C34.2442 29.232 34.7314 28.6502 35.2187 28.0684C35.7792 27.405 36.3233 26.7198 36.8074 25.9953C37.1495 25.6481 37.4916 25.3009 37.8224 24.9441C38.3025 24.4302 38.7565 23.9057 39.2869 23.4424C40.3486 22.501 41.5553 21.714 42.8502 21.1344C43.9952 20.6258 45.1527 20.2991 46.4036 20.5305C47.4109 20.7143 48.3357 21.178 49.3202 21.4435C49.802 21.5771 50.2952 21.6699 50.7938 21.6738C51.2186 21.6732 51.6219 21.5377 52.0139 21.3925C52.8163 21.0945 54.0385 20.3441 54.8638 20.9294C55.7915 21.5865 55.1625 22.7832 54.9904 23.6487C54.9613 23.7835 54.9444 23.9131 54.9423 24.0437C52.9383 23.9381 50.9275 23.749 48.9152 23.7766C46.8882 23.8033 44.8127 24.0379 43.0162 25.047C42.97 25.0738 43.0012 25.147 43.0474 25.1201C44.9245 24.1992 47.0062 23.9116 49.0836 23.9355C51.0366 23.9547 52.9836 24.2141 54.9384 24.2038C54.9386 24.4414 54.9754 24.6634 55.0444 24.8934C54.1199 25.0057 53.234 24.6335 52.3115 24.6153C51.3473 24.6005 50.3981 24.7737 49.4518 24.9026C49.3978 24.9111 49.4045 24.9947 49.4611 24.9922C50.4813 24.9184 51.501 24.7079 52.5252 24.7621C53.3719 24.8053 54.2195 25.1722 55.0686 24.984C55.1057 25.105 55.155 25.2209 55.2129 25.3403C55.5505 26.0323 56.084 26.6769 55.9886 27.5025C55.8996 28.2247 55.3993 28.8264 54.9444 29.3657C54.7488 29.6001 54.5532 29.8346 54.3663 30.0725C54.2502 30.2228 54.2577 30.342 54.3035 30.4666C53.8905 30.3254 53.4643 30.2041 53.0548 30.0542C52.5175 29.8578 51.982 29.6318 51.4113 29.5432C50.7849 29.4423 50.1493 29.5398 49.5673 29.7801C49.4758 29.819 49.5137 29.9758 49.613 29.9552C50.1903 29.8393 50.7449 29.7546 51.333 29.8502C51.8593 29.9361 52.3549 30.1358 52.8487 30.3147C53.3773 30.5076 53.9165 30.6745 54.4486 30.8587C54.5156 30.8806 54.5825 30.9025 54.646 30.9332C55.8125 32.4394 54.842 34.6961 54.2075 36.3201C53.569 37.4777 52.048 37.6781 50.8397 37.8175C50.3103 37.877 49.7095 37.9885 49.1719 37.8931C48.4403 37.7649 47.9016 37.108 47.1446 37.0555C46.2518 36.9887 45.5768 37.8232 44.6965 37.6503C43.7574 37.0341 42.8672 36.3468 41.8957 35.7732C41.317 35.4287 40.706 35.1268 40.0721 34.9066C39.287 34.6356 38.4895 34.4202 37.7122 34.1169C37.0393 33.8558 36.4249 33.5121 35.7967 33.1527C35.6246 33.053 35.0711 32.7338 34.9275 33.0398C34.9004 33.0945 34.9812 33.1322 35.0135 33.0896C35.155 32.9142 36.352 33.7808 36.5153 33.877C37.1584 34.2373 37.8583 34.4942 38.5504 34.7328C39.2313 34.9618 39.9322 35.1534 40.5885 35.4433C41.2213 35.7287 41.8235 36.0776 42.3969 36.4604C43.436 37.1421 44.413 37.9149 45.5018 38.5106C46.5334 39.073 47.5502 39.2959 48.7177 39.1451C49.8791 38.9968 50.9968 38.5934 52.1014 38.21C53.0936 37.8671 54.0944 37.5783 54.8294 36.7831C55.45 36.1085 55.7188 35.2163 55.7917 34.321C55.8383 33.8041 55.8233 33.2775 55.7924 32.7648C55.7615 32.3026 55.7542 31.7943 55.5761 31.3587C55.4421 31.0267 55.1841 30.8267 54.866 30.6884C54.759 30.6402 54.6486 30.6007 54.5356 30.5552C54.4915 30.4515 54.457 30.3365 54.4763 30.2634C54.5088 30.1704 54.6684 30.0377 54.7347 29.9735C54.9608 29.726 55.1869 29.4786 55.3991 29.2155C55.7458 28.7943 56.0804 28.3279 56.2115 27.7895C56.3753 27.1076 56.1611 26.4856 55.8294 25.892C55.4977 25.2984 55.1476 24.7126 55.227 24.0018C55.3053 23.0681 55.933 22.0377 55.4784 21.1722ZM20.9877 53.5406C21.653 53.0559 22.2652 52.6154 23.1019 52.4828C24.4097 52.2722 25.9215 52.5583 27.1511 51.9777C27.9029 51.7299 28.6533 51.3604 29.1762 50.7778C29.0946 50.9925 29.0157 51.2134 28.949 51.429C28.7045 51.7347 28.4938 52.0692 28.2519 52.381C27.8685 52.8682 27.3725 52.8199 26.8025 52.8175C26.1585 52.8105 25.5859 53.09 25.0246 53.3792C24.7056 53.5437 24.3832 53.7169 24.0564 53.8631C23.7845 53.9859 23.4893 54.0539 23.22 54.1828C23.1895 54.1958 23.1955 54.2437 23.2277 54.2516C23.2981 54.2649 23.3721 54.2694 23.4409 54.2618C23 54.4277 22.5584 54.5579 22.0866 54.6001C21.5373 54.6465 20.9796 54.5884 20.4438 54.4634C20.1655 54.4017 19.8941 54.3226 19.6263 54.2349C20.1149 54.1135 20.5708 53.8475 20.9877 53.5406ZM43.773 47.6373C44.2006 48.1685 44.6683 48.6754 45.0193 49.2464C44.3838 48.9549 43.903 48.4679 43.773 47.6373ZM35.0493 48.1427C35.5591 48.2068 36.0043 48.3559 36.2658 48.8353C36.5274 49.3147 36.5632 49.8901 36.7368 50.3997C36.8931 50.8518 37.1819 51.226 37.4925 51.5837C38.3627 52.5965 39.5757 53.2978 40.8416 53.141C40.6324 53.2588 40.4223 53.3914 40.2131 53.5092C39.9882 53.6409 39.7031 53.8342 39.4281 53.8143C39.1505 53.7883 38.9127 53.551 38.7217 53.3729C38.2598 52.9643 37.8206 52.5245 37.3998 52.0769C36.5302 51.1502 35.7549 50.1403 35.14 49.0333C34.9607 48.7134 34.7936 48.3884 34.6326 48.0607C34.7639 48.0985 34.9048 48.1249 35.0493 48.1427ZM29.5445 34.3715C29.1709 34.4584 28.7269 34.4816 28.5871 34.0513C28.4792 33.7298 28.5968 33.3629 28.7552 33.0578C28.7674 33.0526 28.7822 33.0535 28.7883 33.0509C28.9688 33.5432 29.2008 34.0207 29.5445 34.3715ZM27.3081 32.6361C27.3038 32.6091 27.296 32.5908 27.297 32.576C27.5225 32.5305 27.755 32.4676 27.9755 32.3594C28.0304 32.3361 28.0124 32.2429 27.9462 32.2567C27.8321 32.2764 27.7242 32.2935 27.6075 32.3071C27.8733 32.1868 28.1581 32.0945 28.4515 32.0561C28.4506 32.0709 28.4497 32.0857 28.4514 32.1066C28.5317 32.3462 28.6172 32.5979 28.7052 32.8558C28.686 32.8783 28.6755 32.9044 28.6563 32.927C28.3498 32.9853 28.0511 33.062 27.7601 33.1569C27.7296 33.1699 27.6407 33.2149 27.6086 33.207C27.559 33.1921 27.4508 32.9716 27.4214 32.9193C27.3876 32.84 27.3348 32.7328 27.3081 32.6361ZM27.1498 32.6026C27.2309 32.8779 27.3651 33.1089 27.5377 33.3452C27.5568 33.3731 27.595 33.3784 27.6255 33.3654C27.9357 33.2479 28.2553 33.1696 28.581 33.0887C28.4112 33.4346 28.324 33.8391 28.4867 34.1876C28.7021 34.6434 29.2357 34.6109 29.6374 34.4545C29.8935 34.684 30.2107 34.8372 30.6083 34.8914C30.5785 34.9905 30.5451 35.0983 30.484 35.1748C30.3905 35.2937 30.2207 35.3516 30.0691 35.4017C30.0401 35.1979 29.9962 34.9933 29.9463 34.7912C29.9299 34.719 29.823 34.6708 29.7828 34.7455C29.6665 34.9463 29.4673 35.2399 29.2182 35.281C29.2278 35.2697 29.2314 35.261 29.241 35.2497C29.2637 35.2185 29.2281 35.1688 29.1941 35.1904C29.1479 35.2173 29.1078 35.2415 29.0642 35.2745C28.7337 35.1918 28.6009 34.7441 28.5172 34.4627C28.5026 34.4113 28.4408 34.4016 28.3955 34.4137C27.845 34.5758 27.4217 34.0716 27.1925 33.5496C27.196 33.5409 27.2082 33.5358 27.2143 33.5332C27.2431 33.4993 27.2076 33.4496 27.1684 33.4591C27.1623 33.4617 27.1623 33.4617 27.1562 33.4643C27.0767 33.2604 27.0232 33.067 27.0036 32.9025C26.9943 32.8128 26.9885 32.7145 26.9939 32.6257C27.0479 32.6171 27.1019 32.6086 27.1498 32.6026ZM30.2857 33.1847C30.0113 33.3014 29.789 33.1007 29.6451 32.8809C29.8601 32.8615 30.0863 32.9022 30.3032 32.8531C30.3632 32.842 30.3965 32.7846 30.3731 32.7297C30.3023 32.5294 30.1933 32.2732 30.2305 32.0557C30.2437 31.9853 30.1638 31.9328 30.1028 31.9588C29.9041 32.0505 29.5127 32.2818 29.3225 32.1394C29.1436 32.0066 29.0913 31.6975 29.0798 31.4503C29.1094 31.4522 29.1251 31.4383 29.1321 31.4209C29.2113 31.4376 29.2904 31.4544 29.367 31.4651C29.5027 31.4793 29.6194 31.4657 29.7247 31.4425C29.9344 31.4614 30.138 31.4828 30.3293 31.5599C30.3754 31.5835 30.4521 31.5437 30.4496 31.4871C30.4466 31.2939 30.4594 31.0868 30.5156 30.8972C30.7884 31.3862 31.2302 31.8322 31.6644 31.5322C31.6609 31.5409 31.6609 31.5409 31.6574 31.5496C31.5092 31.6414 31.3601 31.7481 31.2223 31.8643C31.2014 31.866 31.1805 31.8677 31.1622 31.8755C31.0429 31.883 30.9263 31.8966 30.8105 31.8954C30.7784 31.8875 30.7462 31.8796 30.7166 31.8778C30.5922 31.8731 30.5023 31.9329 30.4142 32.0136C30.3453 32.0717 30.3546 32.1614 30.4198 32.2129C30.5266 32.3115 30.6256 32.3919 30.722 32.4661C30.7185 32.4748 30.7185 32.4748 30.7149 32.4835C30.6415 32.6156 30.6089 32.7591 30.6033 32.8983C30.5211 33.0269 30.4225 33.1337 30.2857 33.1847ZM30.0419 31.3076C30.1413 31.2365 30.2294 31.1558 30.3072 31.0507C30.2921 31.1508 30.2796 31.2569 30.2794 31.3579C30.2063 31.3385 30.1272 31.3218 30.0419 31.3076ZM30.8492 31.1227C30.8831 31.1515 30.8986 31.1881 30.9116 31.2186C30.7893 31.0834 30.6809 30.9133 30.597 30.733C30.6101 30.713 30.6206 30.6869 30.6337 30.6669C30.7283 30.7707 30.8168 30.8772 30.8992 30.9862C30.8304 30.9938 30.7928 31.0747 30.8492 31.1227ZM31.0237 32.8708C31.0568 32.8639 31.0908 32.8422 31.1084 32.7988C31.1119 32.7901 31.1154 32.7814 31.1189 32.7727C31.1346 32.7588 31.1538 32.7362 31.1695 32.7223C31.1695 32.7223 31.1695 32.7223 31.1756 32.7197C31.1991 32.7241 31.2165 32.7312 31.2425 32.7417C31.2807 32.7975 31.3781 32.8064 31.4252 32.7648C31.5221 32.6876 31.5357 32.4657 31.5604 32.3544C31.5657 32.3161 31.5867 32.2639 31.6052 32.2057C31.7998 32.3246 31.9891 32.4817 32.0076 32.7116C31.7949 32.838 31.5926 32.9889 31.3929 33.1459C31.3432 33.1815 31.3638 33.2807 31.4291 33.2818C31.5091 33.2837 31.5927 33.277 31.6824 33.2677C31.6484 33.2893 31.6205 33.3084 31.5839 33.324C31.3756 33.427 31.1284 33.4385 30.9487 33.27C30.9009 33.2255 30.868 33.1819 30.8385 33.1296C30.8884 33.0436 30.9504 32.9524 31.0237 32.8708ZM30.8095 32.9259C30.8296 32.8885 30.8497 32.8511 30.8698 32.8138C30.875 32.826 30.8837 32.8295 30.8889 32.8417C30.8636 32.8668 30.8383 32.892 30.8095 32.9259ZM31.2242 32.4614C31.2435 32.3883 31.2541 32.3118 31.2552 32.2465C31.2822 32.2422 31.3066 32.2318 31.3249 32.2241C31.324 32.2388 31.317 32.2562 31.316 32.271C31.3002 32.3354 31.287 32.4059 31.2711 32.4702L31.2676 32.4789C31.2502 32.4719 31.2415 32.4684 31.2242 32.4614ZM32.2404 32.2596C32.2671 32.3563 32.2877 32.4556 32.2848 32.5504C32.2482 32.566 32.2142 32.5877 32.1802 32.6093C32.1243 32.3594 31.9108 32.1621 31.6448 32.0448C31.7643 31.9363 31.8439 31.8016 31.9009 31.6477C31.933 31.6557 31.9599 31.7018 32.0171 31.7856C32.0934 31.8972 32.174 32.0358 32.2188 32.1751C32.1813 32.2055 32.2021 32.2543 32.2404 32.2596ZM32.2583 32.6913C32.2548 32.7 32.2574 32.7061 32.2539 32.7148C32.2355 32.7731 32.2119 32.8192 32.1795 32.8617C32.1884 32.8147 32.1911 32.7704 32.1877 32.7286C32.2182 32.7156 32.24 32.6991 32.2583 32.6913ZM31.9881 32.8351C31.9714 32.9142 31.9373 32.9864 31.8918 33.0489C31.8038 33.0791 31.7168 33.0946 31.621 33.1065C31.737 33.0067 31.8643 32.9166 31.9881 32.8351ZM32.0482 33.1625C32.2286 33.0786 32.3647 32.9414 32.4227 32.7223C32.4307 32.6901 32.436 32.6518 32.4413 32.6135C32.6452 32.534 32.8603 32.4641 33.0659 32.4055C33.1891 32.8645 33.0763 33.3951 32.7602 33.7528C32.3395 34.2199 31.8833 33.9601 31.5981 33.5268C31.7811 33.449 31.9407 33.3162 32.0482 33.1625ZM32.4504 32.4656C32.4487 32.4447 32.4497 32.4299 32.448 32.409C32.4654 32.416 32.4827 32.423 32.501 32.4152C32.7135 32.3897 32.7724 32.1558 32.7868 31.9695C32.8858 32.0499 32.9604 32.1406 33.0167 32.2391C32.8164 32.3099 32.6308 32.3816 32.4504 32.4656ZM32.6658 32.0066C32.6577 32.0893 32.6014 32.3294 32.4691 32.3064C32.4543 32.3055 32.4379 32.2836 32.4214 32.2618C32.3568 32.0084 32.2112 31.7678 32.0578 31.5594C32.0873 31.5612 32.1108 31.5656 32.1343 31.57C32.3151 31.6732 32.4993 31.7677 32.6669 31.8909C32.6677 31.9266 32.6711 31.9684 32.6658 32.0066ZM31.7233 31.3487C31.5305 31.4883 31.3486 31.5009 31.1869 31.4256C31.2113 31.4152 31.2357 31.4049 31.254 31.3971C31.3028 31.3763 31.3091 31.3232 31.2848 31.2831C31.1106 31.0259 30.9241 30.7739 30.7185 30.5444C30.8145 30.4316 30.9409 30.3562 31.0803 30.3113C31.2954 30.2414 31.4844 30.2115 31.5804 30.4371C31.7006 30.7029 31.7685 31.0486 31.7233 31.3487ZM31.0787 34.4392C31.0527 34.3782 30.9699 34.4207 30.9872 34.4781C31.0096 34.5478 31.0407 34.621 31.0632 34.6907C31.0475 34.7046 31.0379 34.7159 31.0222 34.7298C30.7048 34.2885 30.5783 33.7877 30.7309 33.3338C30.8107 33.4368 30.9245 33.518 31.0793 33.5602C31.1871 33.5936 31.3029 33.5948 31.4143 33.569C31.4894 33.7963 31.5879 34.0786 31.4359 34.2801C31.3486 34.3964 31.2412 34.4997 31.14 34.6004C31.128 34.5551 31.102 34.4941 31.0787 34.4392ZM31.5582 35.0924C31.4645 34.9738 31.3673 34.8639 31.2335 34.7695C31.3915 34.6159 31.5703 34.4606 31.6561 34.2728C31.7113 34.1485 31.7082 34.0058 31.6755 33.8612C31.9689 34.1614 32.3671 34.3017 32.7675 33.973C32.88 33.8819 32.976 33.769 33.046 33.6456C32.8014 34.2899 32.2147 34.6547 31.4549 34.6465C31.3601 34.6436 31.3005 34.7914 31.4083 34.8248C31.5335 34.8652 31.664 34.9177 31.7979 34.9616C31.7463 35.0268 31.6783 35.0701 31.5852 35.0881C31.573 35.0933 31.5643 35.0898 31.5582 35.0924ZM32.4416 35.0696C32.4173 35.0295 32.3521 35.0284 32.3207 35.0562C32.1043 35.2418 31.8723 35.4414 31.6492 35.2049C31.7642 35.1704 31.8462 35.0923 31.9057 34.995C31.9762 35.0082 32.0405 35.0241 32.1145 35.0286C32.2476 35.0368 32.3774 35.0032 32.5088 34.9905C32.6168 34.9734 32.669 34.9945 32.7324 35.0251C32.6268 35.1493 32.5196 35.2021 32.4416 35.0696ZM33.9199 30.4C33.9259 30.4478 33.9588 30.4914 34.0084 30.5064C34.1671 30.727 34.2568 31.0057 34.2752 31.286C34.1212 31.2795 33.9732 31.2704 33.8227 31.2552C33.7253 31.2462 33.7075 31.3907 33.8014 31.4083C33.9632 31.4331 34.1199 31.4458 34.2739 31.4523C34.2627 31.7307 34.1775 32.0047 34.0002 32.2313C33.9714 32.2652 33.973 32.3366 34.019 32.3602C35.0323 32.9304 34.6531 34.1217 33.8543 34.6992C33.6834 34.8223 33.4899 34.9262 33.2835 34.9491C33.2026 34.962 33.1164 34.9626 33.0346 34.9397C33.026 34.9362 33.0173 34.9327 33.0025 34.9318C33.1213 34.7372 33.2142 34.5321 33.2614 34.4399C33.3148 34.3452 33.1557 34.276 33.1049 34.3768C33.0682 34.4429 32.9745 34.6628 32.8591 34.8488C32.8278 34.826 32.7966 34.8033 32.7557 34.7919C32.5818 34.7218 32.3247 34.8456 32.1376 34.8459C32.0932 34.8432 32.0489 34.8405 32.0019 34.8316C32.0089 34.8143 32.0194 34.7882 32.0264 34.7708C32.7022 34.5985 33.2014 34.1125 33.3262 33.3391C33.3944 32.9068 33.3941 32.3811 33.0983 32.0244C33.0098 31.9179 32.9004 31.8132 32.7779 31.7285C32.7201 31.5586 32.5714 31.5138 32.3974 31.4942C32.2566 31.4172 32.1036 31.3454 31.968 31.2806C31.9836 30.9787 31.9175 30.6539 31.7859 30.3785C31.9119 30.4546 32.0379 30.5306 32.157 30.5736C32.2005 30.5911 32.2485 30.5347 32.2182 30.4972C31.9423 30.1535 31.2965 29.8376 30.8659 30.0783C30.7309 30.1502 30.6383 30.2544 30.5536 30.3769C30.5032 30.3263 30.4529 30.2757 30.399 30.2337C30.3539 30.1953 30.265 30.2403 30.2787 30.3065C30.3055 30.4032 30.3461 30.5156 30.3954 30.6315C30.3158 30.7661 30.2423 30.8982 30.1489 31.0172C30.0362 31.1588 29.8706 31.2436 29.7017 31.2867C29.4772 31.2669 29.2527 31.2472 29.0476 31.1544C29.0128 31.1403 28.9675 31.1524 28.9422 31.1776C28.8188 31.1076 28.7085 31.0177 28.627 30.8939C28.4745 30.6706 28.4718 30.3765 28.6195 30.148C28.6911 30.0455 28.7792 29.9648 28.8873 29.8972C28.9482 29.9217 29.003 29.9488 29.0638 29.9734C29.1742 30.0128 29.2408 29.8477 29.1339 29.7995C29.1252 29.796 29.1139 29.7864 29.1052 29.7829C29.1662 29.7569 29.2333 29.7284 29.2864 29.7346C29.3838 29.7436 29.4359 29.8151 29.4722 29.9005C29.492 29.9641 29.5093 30.0216 29.5326 30.0765C29.5706 30.1828 29.7205 30.1118 29.6912 30.009C29.6792 29.9637 29.6636 29.9271 29.648 29.8905C29.5436 29.5604 29.4814 29.0755 29.9271 29.0227C30.3398 28.9768 30.6878 29.3546 30.861 29.6771C30.9008 29.7538 31.0357 29.7324 31.0212 29.6306C30.9716 29.3276 30.951 28.8897 31.2726 28.7313C31.2026 29.1933 31.2007 29.5614 31.3512 29.5766C31.4043 29.5829 31.4392 29.5464 31.4541 29.4968C31.4753 29.3942 31.4495 29.2827 31.4411 29.1783C31.4738 28.9843 31.5128 28.7372 31.5181 28.6989C31.5216 28.6902 31.5251 28.6815 31.5199 28.6693C31.7549 28.663 32 28.782 32.1789 28.9148C32.463 29.1253 32.6632 29.4435 32.6979 29.7961C32.7055 29.8649 32.7071 29.9363 32.6999 30.0041C32.6755 30.0145 32.6572 30.0223 32.6328 30.0327C32.5622 30.0699 32.6002 30.1762 32.6725 30.1598C32.5862 30.5495 32.3067 30.8917 32.0161 31.1737C31.9594 31.2267 32.034 31.3174 32.0908 31.2644C32.4449 30.9625 32.7576 30.563 32.8302 30.1072C32.8363 30.1046 32.845 30.1081 32.8511 30.1055C32.8964 30.0934 32.9478 30.0788 32.9905 30.0606C33.3657 29.9946 33.6952 30.1426 33.9199 30.4ZM33.4355 29.2951C33.3956 29.2689 33.325 29.3061 33.3335 29.3601C33.3352 29.381 33.3369 29.4019 33.336 29.4167C33.1945 29.5921 33.0111 29.8213 32.8263 29.9288C32.8281 29.8992 32.8274 29.8635 32.8266 29.8278C33.1487 29.4675 33.4908 29.1203 33.8355 28.7792C33.7089 28.9555 33.5735 29.1283 33.4355 29.2951ZM34.3383 28.5726C34.3287 28.5838 34.3191 28.5951 34.3034 28.609C34.4633 28.3753 34.6145 28.1382 34.7631 27.8949C34.9681 27.6996 35.1819 27.5078 35.3869 27.3126C35.049 27.7372 34.6936 28.1549 34.3383 28.5726ZM36.5531 25.7361C36.5086 25.7838 36.4615 25.8255 36.4231 25.8707C36.0469 26.2395 35.6795 26.6119 35.3121 26.9843C35.3453 26.9269 35.3821 26.8609 35.4153 26.8035C35.738 26.2413 36.0703 25.6678 36.3208 25.0714C36.7447 24.07 36.4519 22.9412 36.8167 21.9361C36.9956 21.4423 37.4411 21.1519 37.8396 20.8528C38.2007 20.5839 38.7019 20.3059 38.9258 19.901C38.9494 19.8549 38.8859 19.8243 38.8519 19.8459C38.4918 20.1 38.1533 20.388 37.7845 20.6385C37.4523 20.8735 37.0783 21.1118 36.8232 21.4435C36.2617 22.1722 36.4423 23.2911 36.3155 24.1445C36.2117 24.8657 35.8314 25.4957 35.4868 26.1249C35.1597 26.7106 34.8178 27.2954 34.4533 27.8609C33.8913 28.453 33.3404 29.0546 32.8087 29.6841C32.7401 29.3028 32.4939 28.9609 32.1716 28.7451C31.9891 28.621 31.7544 28.5264 31.5264 28.5153C31.5627 28.3126 31.5989 28.1099 31.6377 27.9133C31.7391 27.4236 31.8727 26.9418 32.015 26.4636C32.2969 25.5514 32.6309 24.6602 32.9849 23.7821C33.6657 22.0808 34.3962 20.3943 34.7944 18.6043C35.0244 17.5701 35.1456 16.5173 35.0919 15.4598C35.0859 15.4119 35.0059 15.4099 35.0057 15.4604C35.0045 17.5065 34.4685 19.4128 33.7427 21.3133C33.0283 23.173 32.1774 24.9827 31.6579 26.9108C31.6147 27.0804 31.3907 27.8744 31.2774 28.5564C31.2443 28.5633 31.2138 28.5763 31.1833 28.5892C30.8896 28.7286 30.8026 29.0321 30.8018 29.3349C30.5564 29.0288 30.1889 28.7745 29.7874 28.8805C29.4495 28.9666 29.3634 29.2553 29.3835 29.5565C29.3774 29.5591 29.3748 29.553 29.3687 29.5556C29.2067 29.5812 29.043 29.6365 28.8931 29.7075C27.5399 29.0154 26.6017 27.7073 25.4241 26.7677C24.7589 26.2367 23.9941 25.8273 23.2372 25.4362C22.3307 24.9647 21.4023 24.5601 20.4327 24.245C20.3806 24.224 20.3429 24.3048 20.3977 24.3319C21.3427 24.7079 22.2693 25.1421 23.16 25.6275C23.9474 26.0561 24.7425 26.503 25.4285 27.0827C26.4957 27.9829 27.4123 29.2065 28.6804 29.834C28.4441 30.0065 28.2806 30.2489 28.2989 30.5796C28.3197 30.9165 28.5271 31.1669 28.7938 31.3199C27.983 31.2254 27.059 31.424 26.8321 32.3128C26.8276 32.3363 26.8232 32.3598 26.8162 32.3772C26.5664 32.3826 26.3166 32.388 26.0633 32.4021C25.414 32.4334 24.8035 32.5562 24.2162 32.8349C23.5861 33.1317 23.0176 33.5392 22.3988 33.8456C21.8629 34.1096 21.2888 34.3178 20.7191 34.5025C19.6956 34.8226 18.6238 34.9615 17.5627 34.7359C16.3988 34.489 15.3458 33.8421 14.2539 33.3918C13.2637 32.9775 12.228 32.6761 11.1524 32.6366C10.1951 32.6045 9.23898 32.7951 8.28262 32.7481C7.55426 32.7122 6.94661 32.452 6.45463 31.905C5.81863 31.1887 5.2338 30.2202 5.23472 29.2403C5.23305 28.2542 5.70552 27.3329 5.73953 26.3461C5.74982 26.0824 5.73662 25.8143 5.69643 25.5505C5.68023 25.4277 5.64897 25.405 5.7197 25.3173C5.77473 25.2435 5.9019 25.2038 5.9847 25.1614C6.15639 25.0739 6.33937 24.9961 6.52144 24.9331C7.26191 24.6757 8.04712 24.6082 8.82181 24.5668C8.8575 24.566 8.8767 24.5435 8.88722 24.5174C9.36123 24.6327 9.83797 24.7036 10.2738 24.7631C11.604 24.9608 12.966 24.9793 14.2865 25.2387C14.3482 25.2485 14.372 25.1519 14.3137 25.1335C13.285 24.8148 12.1896 24.7117 11.1264 24.5661C10.0163 24.4117 8.82691 24.2909 7.81262 23.786C7.29983 23.5287 6.87102 23.1133 6.69761 22.5532C6.49397 21.9051 6.7091 21.2086 7.04656 20.6473C7.36391 20.1234 7.79765 19.6868 8.20011 19.2275C8.6602 18.7004 9.12028 18.1734 9.63071 17.697C10.0879 17.2648 10.5973 16.8536 11.2286 16.7292C11.7999 16.6158 12.3599 16.781 12.8762 17.0295C13.9697 17.5512 14.9137 18.2805 16.0876 18.6527C17.3407 19.0417 18.6599 19.1288 19.8787 19.6404C21.2366 20.208 22.2887 21.2083 23.5242 21.9792C24.2418 22.4303 24.9831 22.8352 25.6912 23.2976C26.4331 23.7887 26.9908 24.4734 27.3873 25.27C28.0166 26.5293 28.2276 27.9737 28.9885 29.1699C28.9858 29.2142 28.9796 29.2673 28.9768 29.3117C28.968 29.3587 29.0298 29.3684 29.0499 29.331C29.0595 29.3198 29.0604 29.3049 29.07 29.2937C29.0752 29.3059 29.0865 29.3155 29.0891 29.3216C29.187 29.4672 29.4025 29.2963 29.3045 29.1507C29.2612 29.0827 29.2204 29.0208 29.1832 28.9502C29.2449 28.6719 29.2274 28.3768 29.1977 28.0869C29.1419 27.4984 28.999 26.9253 28.8526 26.361C28.5312 25.1651 28.1305 24.0031 27.918 22.7753C27.6824 21.3917 27.5792 19.9807 27.2504 18.6151C26.9612 17.4272 26.4619 16.3719 25.8591 15.3102C24.8855 13.6139 23.4126 11.1504 25.2891 9.51671C26.7137 8.27689 29.4794 8.02243 30.6915 9.7037C30.9924 10.1231 31.2182 10.6033 31.3953 11.1042C31.4297 11.2697 31.4788 11.436 31.5402 11.5972C31.5479 11.6155 31.5531 11.6277 31.5644 11.6373C31.723 12.1965 31.8425 12.7651 31.9515 13.3094C32.1945 14.5241 32.38 15.7561 32.5813 16.9743C32.5924 17.0343 32.6821 17.025 32.677 16.9623C32.5879 15.8046 32.4596 14.6563 32.2477 13.5147C32.0822 12.6344 31.8827 11.7252 31.5639 10.874C31.439 10.0556 31.5197 9.17854 31.749 8.39674C32.0152 7.49843 32.602 6.45651 33.6638 6.4298C34.9337 6.40105 35.423 7.61908 36.1397 8.42346C36.7341 9.09261 37.5883 9.25507 38.4365 9.36964C39.4379 9.50552 39.9816 10.5636 40.459 11.3473C41.0196 12.2757 41.34 13.1982 41.1038 14.2855C40.9618 14.9509 40.6738 15.5776 40.4214 16.2036C40.1322 16.946 39.8343 17.685 39.5451 18.4275C38.9762 19.9011 38.4518 21.3775 37.9647 22.874C37.6513 23.8644 37.1552 24.8317 36.5531 25.7361ZM51.5772 37.9936C50.4848 38.3718 49.3689 38.7456 48.2034 38.8164C46.9812 38.8897 45.9538 38.4048 44.939 37.7632C44.9364 37.7571 44.9303 37.7597 44.9278 37.7536C45.5744 37.7667 46.1135 37.3068 46.7718 37.1781C47.6643 37.0073 48.258 37.9289 49.0782 38.113C49.6436 38.2398 50.2984 38.1198 50.8608 38.0534C51.1481 38.0177 51.4441 37.9854 51.7349 37.9409C51.6774 37.9582 51.6286 37.9789 51.5772 37.9936ZM54.9512 31.0411C55.0624 31.1162 55.1579 31.2052 55.2184 31.3307C55.4263 31.7177 55.4153 32.2338 55.4455 32.6603C55.4779 33.1939 55.4982 33.7327 55.4446 34.2669C55.3594 35.1675 55.0759 36.0588 54.3989 36.6853C54.2165 36.8493 54.0238 36.9889 53.8172 37.1128C53.8329 37.0989 53.8486 37.085 53.8582 37.0738C54.154 36.8039 54.2889 36.4944 54.3795 36.1317C55.0224 34.6122 55.8445 32.4978 54.9512 31.0411Z" fill="#370014" fill-opacity="0.21"/>
<path d="M22.9138 38.1715C24.079 36.6603 25.4396 35.2532 27.0776 34.2611C27.1395 34.2204 27.0745 34.1184 27.01 34.153C26.1664 34.5911 25.4144 35.2279 24.732 35.8927C24.0278 36.574 23.3827 37.3094 22.8339 38.119C22.8103 38.1651 22.8815 38.214 22.9138 38.1715Z" fill="#370014" fill-opacity="0.21"/>
<path d="M33.8924 38.2266C35.0147 39.6796 36.0192 41.2115 37.0917 42.7C37.1273 42.7497 37.1901 42.6942 37.1607 42.6419C36.2232 41.0815 35.1255 39.5676 33.9613 38.1685C33.9249 38.1336 33.8534 38.1856 33.8924 38.2266Z" fill="#370014" fill-opacity="0.21"/>
</svg>
