<svg width="135" height="135" viewBox="0 0 135 135" fill="none" xmlns="http://www.w3.org/2000/svg">
<path d="M73.7418 89.1488C74.4343 92.5647 75.0249 96.3386 71.8641 98.6088C69.1662 100.567 66.1971 101.813 63.8903 104.323C61.2864 107.18 59.9598 110.745 58.4687 114.245C56.7543 118.293 54.4565 121.725 50.4403 123.784C47.8293 125.132 44.8857 125.876 42.0314 126.514C38.5555 127.287 35.0101 127.777 31.4497 128.016C30.6372 128.058 29.7969 128.099 28.9288 128.139C28.9609 128.057 28.993 127.975 28.9973 127.891C29.5718 118.784 29.2521 109.128 32.5142 100.465C32.6106 100.219 32.2525 100.117 32.1576 100.335C28.2309 108.881 28.1826 118.629 27.8547 127.833C27.8476 127.972 27.8977 128.087 27.9492 128.173C22.4379 128.312 16.4577 127.785 11.824 124.951C8.5454 122.94 7.3356 119.805 6.93161 116.209C7.25656 115.862 7.66372 115.547 8.20595 115.323C8.43456 115.223 8.2886 114.797 8.05999 114.897C7.60561 115.041 7.20415 115.245 6.85699 115.478C6.83903 115.282 6.82106 115.085 6.8031 114.889C6.60224 111.694 6.95874 108.526 7.4253 105.393C7.89184 102.259 8.61489 99.0272 8.44048 95.8612C8.42393 95.6368 8.06732 95.5069 7.99743 95.7828C7.2399 98.5942 6.78606 101.477 6.27652 104.357C5.73061 107.402 5.32121 110.511 5.36053 113.586C5.36388 114.62 5.42013 115.713 5.5614 116.782C4.26113 118.727 3.95092 121.533 2.6771 123.508C-0.589116 123.454 -3.8955 123.09 -7.16126 122.477C-6.83031 118.164 -5.86974 114.105 -3.28052 110.437C-3.13127 110.249 -3.45577 110.037 -3.57715 110.226C-6.36002 113.857 -7.37918 117.968 -7.65864 122.368C-8.1017 122.29 -8.57122 122.182 -9.01427 122.104C-8.87493 122.111 -8.72993 122.007 -8.72002 121.812C-8.35854 112.498 -3.87636 104.567 -0.0209818 96.3254C0.0725396 96.1345 -0.254781 95.9782 -0.376159 96.1676C-4.72325 104.189 -9.22243 112.454 -9.39023 121.805C-9.39731 121.945 -9.31798 122.033 -9.20933 122.094C-10.3699 121.839 -11.529 121.557 -12.6588 121.248C-14.9464 120.629 -17.4248 119.916 -19.3047 118.424C-21.9645 116.333 -23.8446 113.192 -23.6411 109.738C-23.2781 103.693 -18.5573 98.7642 -16.1925 93.4641C-13.4186 87.2626 -13.6664 80.0415 -9.93425 74.2241C-7.62797 70.6253 -4.53616 67.5134 -2.04187 64.0638C0.361729 60.7494 2.36007 57.1628 3.75663 53.3222C4.09716 52.6689 4.43626 52.0436 4.7782 51.3625C4.87171 51.1716 4.60296 50.9624 4.48015 51.1796C1.33409 55.9093 -1.93857 60.381 -5.97029 64.3951C-9.91415 68.3298 -14.3384 71.821 -19.0688 74.7379C-23.827 77.6533 -28.8941 80.0502 -34.1559 81.8783C-36.8864 82.8292 -39.667 83.6658 -42.4963 84.3602C-45.3535 85.0533 -48.2607 85.632 -51.2005 85.2032C-54.0846 84.7773 -56.6948 83.3594 -58.8001 81.3525C-61.0405 79.2549 -62.0235 76.6066 -63.3967 73.9384C-63.8294 73.1062 -64.3485 72.3254 -64.9011 71.6547C-64.8161 71.6311 -64.7576 71.5782 -64.6976 71.4974C-61.7385 67.1495 -56.9553 64.2912 -52.3898 61.8689C-50.0352 60.6194 -47.6306 59.4843 -45.2274 58.3771C-47.256 59.8107 -49.2568 61.2458 -51.3355 62.5651C-51.5084 62.668 -51.3553 62.9552 -51.1824 62.8522C-48.3272 61.0974 -45.6307 59.1668 -42.8813 57.2948C-41.3368 56.591 -39.7644 55.8886 -38.2185 55.1569C-38.0177 55.0553 -38.1694 54.7403 -38.3701 54.8419C-39.0545 55.1144 -39.7125 55.4163 -40.3969 55.6888C-39.6468 55.224 -38.9246 54.7578 -38.176 54.3208C-38.0031 54.2179 -38.1283 53.9321 -38.329 54.0337C-39.8221 54.8239 -41.2358 55.7021 -42.623 56.6095C-46.3043 58.1268 -49.9856 59.6441 -53.5418 61.4471C-58.0459 63.7608 -62.6634 66.6554 -65.4817 70.9826C-66.5133 69.8405 -67.7192 68.8293 -68.9809 67.8153C-71.2633 65.995 -73.25 63.8544 -74.3974 61.1418C-75.3181 58.9157 -75.4736 56.477 -75.5483 54.0983C-75.6353 51.4117 -75.8059 48.7208 -75.8915 46.0063C-75.9445 44.2993 -75.9932 42.5086 -75.3244 40.8941C-74.5928 39.1431 -73.0464 37.8527 -71.5643 36.7266C-66.7664 33.0309 -61.4589 29.7522 -55.4244 28.6618C-52.1256 28.075 -48.7701 28.022 -45.4312 27.7446C-42.3152 27.4559 -39.391 26.5428 -36.6349 25.0902C-36.377 24.9636 -36.583 24.6179 -36.8394 24.7166C-42.9641 27.0318 -49.379 26.2588 -55.7243 27.4172C-56.1187 27.481 -56.5145 27.5726 -56.9104 27.6642C-59.5196 26.7773 -62.4221 26.7136 -65.1097 26.2697C-68.4062 25.7111 -71.5642 24.6286 -73.7763 21.9737C-79.0162 15.6724 -74.6889 8.04121 -71.8008 1.78973C-69.8856 -2.35983 -68.6785 -7.97031 -64.1522 -10.1711C-62.1755 -11.1324 -59.8748 -11.3228 -57.7204 -11.381C-54.6422 -11.476 -51.5503 -11.291 -48.4778 -11.2746C-46.2162 -11.2435 -43.8975 -11.2374 -41.6544 -10.8441C-41.4692 -10.6391 -41.2826 -10.4619 -41.0974 -10.257C-40.8064 -9.93484 -40.3715 -10.248 -40.4381 -10.5867C-40.1065 -10.5139 -39.8042 -10.4148 -39.474 -10.3142C-38.0433 -9.87826 -36.681 -9.19435 -35.4388 -8.34891C-33.8734 -7.26354 -32.7194 -5.77997 -31.2126 -4.6417C-30.8896 -4.40176 -30.4767 -4.82783 -30.6562 -5.14429C-32.0323 -7.75674 -35.0558 -9.83822 -37.7373 -10.9524C-38.9951 -11.4913 -40.32 -11.81 -41.6492 -12.0452C-42.8159 -13.2779 -44.0984 -14.4328 -45.3529 -15.5862C-46.7955 -16.8888 -48.2895 -18.2779 -49.2064 -20.0288C-51.6453 -24.8187 -47.2352 -29.6797 -43.7674 -32.4931C-41.7846 -34.1246 -39.6417 -35.6083 -37.7911 -37.3862C-36.352 -38.766 -35.2109 -40.3285 -34.2577 -42.0403C-27.6818 -38.9401 -23.0871 -32.5878 -18.4722 -27.1845C-13.409 -21.2554 -7.74498 -15.6031 -4.19038 -8.57726C-4.08882 -8.37652 -3.80165 -8.52956 -3.90321 -8.7303C-7.16496 -16.0207 -13.2649 -21.8907 -18.3225 -27.9312C-22.8259 -33.3289 -27.0928 -40.0837 -33.7902 -42.9944C-33.7609 -43.0209 -33.7595 -43.0487 -33.7302 -43.0752C-32.7979 -44.9277 -32.0814 -46.9309 -30.8496 -48.6286C-29.4671 -50.5421 -27.4597 -51.5577 -25.1491 -51.9432C-19.4267 -52.9377 -14.6706 -48.1139 -8.94874 -48.5496C-3.81492 -48.9593 -0.201684 -52.4358 3.98077 -55.0173C8.36396 -57.7003 13.9309 -59.485 18.9122 -57.4437C23.2918 -55.6566 26.7919 -51.9583 30.7724 -49.465C32.6401 -48.2805 34.6655 -47.4511 36.6881 -46.566C38.3554 -45.8387 39.9029 -44.9498 40.7682 -43.2853C42.0914 -40.7314 42.3059 -37.256 41.8299 -34.4862C41.3133 -31.467 39.8255 -28.5809 38.5135 -25.8536C38.4185 -25.6349 38.7737 -25.4772 38.8951 -25.6666C40.4939 -27.9882 42.2027 -30.2762 42.9296 -33.0333C43.6271 -35.7639 43.5542 -38.7293 42.8834 -41.4735C42.4696 -43.2268 41.6878 -44.887 40.2953 -46.0754C38.9822 -47.1759 37.337 -47.7903 35.7504 -48.4577C30.9641 -50.489 27.1697 -53.8949 22.8718 -56.7396C18.7341 -59.4365 14.3063 -60.2762 9.53955 -58.842C6.67391 -57.9818 4.06289 -56.6336 1.60208 -54.9426C-0.599423 -53.406 -2.75229 -51.7272 -5.26414 -50.6813C-8.37396 -49.4144 -11.4659 -49.5995 -14.5932 -50.7363C-17.254 -51.7097 -19.8934 -53.1011 -22.761 -53.3027C-25.127 -53.4788 -27.7305 -52.8287 -29.6991 -51.4759C-31.4084 -50.2775 -32.4758 -48.5156 -33.351 -46.6881C-33.8814 -45.5975 -34.3561 -44.504 -34.9129 -43.4427C-35.4089 -43.5796 -35.6658 -42.9221 -35.347 -42.5985C-35.7782 -41.8102 -36.2651 -41.0247 -36.8329 -40.2992C-38.6281 -37.9596 -41.0346 -36.2379 -43.3339 -34.4268C-47.2032 -31.4103 -52.4214 -26.5904 -50.8582 -21.0627C-50.2677 -18.9372 -48.7042 -17.2652 -47.1015 -15.8147C-45.794 -14.6027 -44.3973 -13.498 -43.0898 -12.2861C-44.1181 -12.3942 -45.1492 -12.4466 -46.1818 -12.4711C-49.6124 -12.5895 -53.0443 -12.6801 -56.4541 -12.6577C-58.8857 -12.6416 -61.4052 -12.5461 -63.6828 -11.7119C-68.5223 -9.94609 -70.1705 -5.00067 -72.012 -0.651796C-74.7121 5.74894 -79.8126 13.2012 -76.1758 20.2592C-74.395 23.7025 -71.2029 25.7646 -67.5318 26.6496C-65.7917 27.0454 -64.0153 27.2753 -62.2638 27.4481C-60.9583 27.5983 -59.6542 27.7763 -58.35 27.9543C-62.7167 29.2133 -66.5785 31.5316 -70.3722 34.1608C-73.703 36.4782 -76.8416 38.8613 -77.199 43.1459C-77.4072 45.594 -77.1138 48.0676 -77.0141 50.5035C-76.8964 53.1358 -77.0044 55.8125 -76.5788 58.4325C-76.1961 60.7989 -75.2154 62.9442 -73.804 64.86C-71.8442 67.53 -69.0474 69.125 -66.7626 71.4484C-64.5043 73.7424 -63.7433 76.9104 -62.0635 79.5941C-60.5647 81.9893 -58.1515 83.9839 -55.6443 85.2289C-50.2997 87.8194 -44.5004 86.4098 -39.0841 84.841C-33.4142 83.2292 -27.9111 81.05 -22.7141 78.2966C-14.7582 74.0348 -7.16892 68.1899 -1.38306 60.996C-2.31635 62.3176 -3.30537 63.6364 -4.26369 64.9009C-6.92944 68.4255 -10.2484 71.6098 -12.2108 75.5893C-13.8927 78.9963 -14.4991 82.6815 -15.3284 86.3553C-16.2304 90.3608 -17.7814 93.9421 -19.8605 97.4687C-23.134 103.058 -27.3352 109.857 -23.1558 116.133C-19.7014 121.281 -13.4599 122.716 -7.64299 123.71C-7.65432 123.933 -7.66566 124.156 -7.64912 124.381C-7.66469 124.687 -7.19095 124.711 -7.17537 124.405C-7.16404 124.182 -7.15413 123.987 -7.14422 123.792C-6.9227 123.831 -6.6733 123.871 -6.45178 123.911C-4.65027 124.198 -2.84732 124.457 -1.01087 124.606C0.184621 124.723 1.98046 125.121 3.17074 124.791C4.50318 124.411 5.12561 121.509 5.40802 120.35C5.58134 119.688 5.72823 118.997 5.90013 118.363C6.34421 120.621 7.21479 122.733 8.86331 124.381C13.6237 129.122 21.6997 129.644 28.0177 129.574C34.9795 129.48 42.2931 128.511 48.8443 126.05C52.7179 124.598 55.8887 122.133 57.972 118.523C60.0539 114.94 61.0173 110.826 63.3165 107.367C64.6768 105.34 66.4395 103.642 68.4903 102.321C69.9347 101.389 71.5099 100.63 72.8763 99.5822C76.3356 96.9361 75.5155 92.7314 74.2769 89.0642C74.1546 88.7227 73.6752 88.8101 73.7418 89.1488Z" fill="#370014" fill-opacity="0.19"/>
<path d="M127.228 60.8821C125.921 57.4629 124.361 54.0588 124.41 50.3453C124.422 49.5636 124.516 48.814 124.638 48.0658C124.914 48.1357 125.217 48.207 125.492 48.3048C125.712 48.3718 125.813 48.0417 125.593 47.9746C125.29 47.8754 124.988 47.7763 124.713 47.6785C125.094 45.6862 125.781 43.7094 126.218 41.7199C126.832 38.985 127.465 35.8601 126.655 33.1087C126.13 31.3498 124.963 30.117 123.537 29.0387C121.816 27.7219 120.089 26.5166 118.81 24.7472C117.294 22.6865 116.658 20.363 115.741 18.0534C113.836 13.2068 108.467 11.6488 103.604 11.6811C101.955 11.6811 100.353 11.8791 98.7974 12.2471C100.012 11.4426 101.226 10.6382 102.335 9.71666C104.755 7.71622 106.951 5.20143 108.133 2.27195C109.573 -1.31503 109.677 -5.55664 109.058 -9.332C108.824 -10.7688 107.898 -11.7938 107.206 -13.0303C106.744 -13.8361 106.43 -14.802 106.729 -15.7368C106.993 -16.5336 107.586 -17.202 108.013 -17.9068C109.3 -20.1325 108.356 -23.5611 107.265 -25.74C106.303 -27.6888 104.696 -29.0557 102.852 -30.1552C100.71 -31.4375 98.4462 -32.5305 96.5776 -34.2459C97.0197 -34.6984 96.3569 -35.4027 95.9163 -34.978C95.9149 -34.9501 95.887 -34.9515 95.8856 -34.9237C94.1884 -36.7142 92.9555 -38.8444 91.8369 -41.0247C90.9215 -42.8035 90.0103 -44.6659 88.4563 -45.9742C86.5805 -47.5503 84.113 -47.9272 81.7358 -47.8803C74.2138 -47.7596 68.323 -43.4488 61.6433 -40.659C58.5599 -39.3627 55.2611 -38.776 52.1305 -37.6498C49.4278 -36.6975 47.2193 -35.0215 45.2681 -32.9134C41.0395 -28.3226 36.4995 -23.105 34.5452 -17.0855C33.5841 -14.1168 33.3155 -11.0291 33.437 -7.92164C33.5788 -4.11461 34.6181 -0.373755 35.1251 3.39595C35.7123 7.78441 35.3063 11.9269 34.2508 16.2039C33.3072 19.9278 32.1114 23.6669 31.9996 27.5169C31.9807 28.438 32.019 29.334 32.1409 30.2342C31.0683 31.5488 29.9706 32.8062 28.8436 34.0901C28.7936 33.9758 28.7142 33.8879 28.6363 33.7722C28.5305 33.6551 28.4218 33.5936 28.2853 33.5308C28.3439 33.4779 28.3746 33.4236 28.4317 33.3986C28.6381 33.1855 28.3736 32.8927 28.1408 33.0765C27.9958 33.1809 27.8508 33.2852 27.7058 33.3896C27.5664 33.3826 27.4271 33.3754 27.2863 33.3962C27.4289 32.7888 27.5994 32.1828 27.7142 31.574C27.7534 31.3525 27.4525 31.2254 27.384 31.4734C27.1828 32.1337 26.9817 32.7941 26.8069 33.4837C26.779 33.4823 26.7526 33.4529 26.6969 33.4501C27.5417 29.4697 28.4144 25.4907 29.2593 21.5103C29.7741 19.0777 30.2609 16.6438 30.6657 14.1777C31.1152 11.3786 31.2318 8.53464 31.6799 5.76342C31.7555 5.3761 31.0602 5.31284 31.0668 5.73227C30.9895 8.35469 30.3505 11.0324 29.8844 13.6072C29.3791 16.4034 28.8181 19.1968 28.2292 21.9888C27.4556 25.6655 26.5999 29.3101 25.9642 33.0218C25.8556 32.9604 25.7177 32.9254 25.5798 32.8904C25.5254 32.8597 25.4725 32.8012 25.3903 32.7691C25.2552 32.6784 25.0602 32.6684 24.8901 32.7157C24.6686 32.6765 24.4192 32.6359 24.1684 32.6231C22.1508 27.24 22.7618 21.264 23.7294 15.4178C24.2994 11.8984 24.9809 8.38468 25.19 4.819C25.4543 0.166472 25.1334 -4.5158 24.6425 -9.15082C24.0727 -14.4325 23.2799 -19.7255 22.1749 -24.9225C22.1305 -25.1483 21.8183 -25.0524 21.8362 -24.8559C22.3758 -20.0787 23.2262 -15.3696 23.7379 -10.5938C24.2619 -5.51004 24.503 -0.356835 24.1881 4.74016C23.7558 12.1502 21.289 19.4569 21.8599 26.9179C22.0116 28.8814 22.3905 30.7726 23.0816 32.5679C22.8237 32.6945 22.6437 32.9369 22.741 33.2212C22.6017 33.2141 22.4609 33.2349 22.2923 33.2543C21.9272 33.2916 21.7723 33.591 21.7846 33.899C20.5281 31.6838 19.6466 29.2362 18.9588 26.8263C17.4651 21.5816 16.6222 16.1743 15.7208 10.8199C14.1523 1.54799 12.3471 -8.01535 8.85247 -16.7705C7.21709 -20.8769 4.85944 -26.1656 0.421293 -27.8998C0.174728 -27.9962 0.0727443 -27.6381 0.290025 -27.5153C4.4632 -25.5151 6.66775 -20.5136 8.22094 -16.4393C10.1454 -11.4241 11.4413 -6.13351 12.5713 -0.879274C13.4514 3.24467 14.2772 7.33792 14.8201 11.5006C15.5 16.8158 16.152 22.1295 17.6778 27.2921C18.488 30.0435 19.5362 33.0584 21.1659 35.6278C21.0237 35.6765 20.9373 35.7279 20.8216 35.8059C18.4881 31.6919 16.3525 27.5321 14.3633 23.24C12.4993 19.2337 11.0717 14.8864 8.77696 11.1097C4.72879 4.44991 -1.82222 -0.241561 -5.58039 -7.11015C-5.68195 -7.31089 -5.96912 -7.15784 -5.86756 -6.95711C-2.51088 0.1146 4.26874 4.70595 8.17333 11.4423C10.3816 15.2705 11.6949 19.6679 13.5018 23.6992C15.207 27.5298 17.1395 31.2881 19.3034 34.8905C18.4706 34.2335 17.7243 33.5251 17.4849 33.2894C15.0787 31.1555 12.8496 28.8349 10.6192 26.5423C8.57388 24.4546 6.58716 22.3141 4.48329 20.2794C1.58021 17.4776 -1.82071 15.1255 -5.04875 12.6704C-9.973 8.95563 -15.0045 5.15159 -20.3236 2.0594C-20.5687 1.93519 -20.7808 2.25967 -20.5649 2.41033C-15.7937 5.83791 -10.9583 9.10114 -6.36845 12.7989C-2.90516 15.5733 0.760247 18.2182 3.89715 21.3672C8.4431 25.9289 12.6542 31.0323 17.7622 34.9799C18.1646 35.3077 18.8358 35.8447 19.5141 36.2424C11.8324 34.008 4.5432 30.6481 -3.10638 28.3316C-11.0583 25.9159 -19.5353 25.0381 -26.9924 29.381C-27.2225 29.509 -27.0444 29.8534 -26.8144 29.7254C-18.8963 25.6573 -10.1145 27.1373 -2.00674 29.7844C5.27631 32.1662 12.4621 35.912 20.0847 37.1096C20.0484 37.2754 20.0385 37.4704 20.0021 37.6362C16.8875 37.897 13.8192 37.797 10.5964 37.4377C5.78945 36.914 1.02872 36.0296 -3.78394 35.6174C-8.48655 35.2387 -13.0531 35.4817 -17.5884 36.76C-22.1516 38.0369 -26.473 40.0525 -30.6635 42.2425C-35.5426 44.7885 -40.4274 47.446 -45.5834 49.3913C-45.7548 49.4664 -45.6575 49.7508 -45.4875 49.7035C-36.3313 46.5645 -28.2489 40.9123 -18.969 38.0869C-14.2301 36.6513 -9.46 36.251 -4.53303 36.6131C0.366059 36.9738 5.20899 37.8904 10.0996 38.4183C11.9332 38.6232 13.8811 38.7781 15.8083 38.7922C13.1896 39.19 10.6183 39.7578 8.04405 40.3814C5.32908 41.0258 2.60845 41.7816 -0.178796 42.1988C-4.09209 42.7822 -7.99832 43.2264 -11.8242 44.2893C-15.8773 45.4245 -19.7121 47.2134 -22.29 50.6587C-22.4407 50.8745 -22.1148 51.0587 -21.9655 50.8707C-17.1394 44.9692 -8.16218 44.2519 -1.15651 43.2946C4.49875 42.5203 9.98347 40.7035 15.6222 39.7048C17.0605 39.4426 18.5238 39.2375 19.98 39.1718C20.0853 39.8477 20.3607 40.4764 20.9525 40.9255C20.979 40.9548 21.0069 40.9562 21.0333 40.9855C21.0555 41.0984 21.0763 41.2392 21.0985 41.3521C20.8699 41.4522 20.6413 41.5524 20.4113 41.6804C20.4462 41.5424 20.5091 41.4059 20.5426 41.2958C20.6446 40.9378 20.1487 40.8008 19.9923 41.1282C19.7411 41.6742 19.4619 42.2188 19.2107 42.7649C18.6444 43.4625 18.1574 44.248 17.8084 45.0685C17.5878 45.5602 17.3951 46.0534 17.2303 46.5479C15.846 49.048 14.3251 51.4853 12.6385 53.8863C9.89862 57.7704 6.96931 61.5331 4.28233 65.4758C-1.33582 73.7679 -3.12468 83.6795 -7.65359 92.5299C-7.74852 92.7486 -7.47832 92.93 -7.35693 92.7406C-4.85512 88.5929 -3.25598 84.064 -1.54534 79.5409C0.324463 74.6346 2.56743 70.0826 5.58078 65.7654C8.35278 61.799 11.3142 57.9541 14.0054 53.9278C14.7909 52.7663 15.5499 51.5755 16.3103 50.3569C16.1927 51.0215 16.103 51.6875 16.0133 52.3535C15.6516 55.0732 15.5142 57.7764 15.2361 60.5004C15.0015 62.9192 14.7333 65.4481 13.6989 67.6587C13.604 67.8774 13.9592 68.0351 14.0527 67.8443C16.3273 63.7689 16.5321 58.6383 17.0416 54.11C17.3363 51.6104 17.6616 49.0565 18.4815 46.6674C18.8419 45.624 19.2844 44.6127 19.9164 43.7227C20.247 43.2646 20.724 42.6741 21.2233 42.1966C21.8389 46.0277 22.2315 49.8475 22.397 53.7395C22.5912 58.1639 22.5319 62.6313 22.867 67.0349C23.5135 75.757 26.7535 84.0242 27.5393 92.7534C27.5573 92.9499 27.8931 92.9391 27.9044 92.7161C27.7459 83.7394 24.1534 75.2586 23.6298 66.3192C23.1515 58.1364 23.4048 49.8512 21.6918 41.7733C21.8089 41.6675 21.9525 41.591 22.0683 41.5131C22.0975 41.4866 22.1254 41.488 22.1268 41.4602C22.6256 41.5414 23.1064 41.4261 23.5372 41.1966C24.9828 49.0373 28.8619 56.2753 32.1572 63.4556C35.8545 71.5225 38.7323 79.7713 39.341 88.6871C39.6784 93.5938 39.5714 98.4499 39.5172 103.365C39.5031 103.643 39.9211 103.664 39.9353 103.386C40.6959 95.0145 40.8226 86.4713 38.8659 78.2414C36.8426 69.6728 32.6002 61.8855 29.0394 53.8814C27.3606 50.0801 25.9912 46.2387 24.8239 42.2678C29.82 46.7685 34.1704 51.879 38.2001 57.2527C40.3465 60.0998 42.5208 62.9484 44.3479 66.0308C46.3559 69.4018 47.8732 73.0832 48.9096 76.8798C49.4751 78.9481 49.8998 81.0372 50.1559 83.1457C50.4049 85.3936 50.7663 88.178 50.2058 90.4126C50.1009 90.8264 50.7405 90.8869 50.731 90.5232C50.6908 88.5653 51.0128 86.6259 50.889 84.6638C50.7945 82.6753 50.5327 80.6782 50.1288 78.7298C49.3488 74.8345 48.0616 71.0252 46.3157 67.444C44.7228 64.15 42.5863 61.1077 40.4749 58.1226C38.1546 54.8475 35.6337 51.6739 32.9663 48.6327C30.5105 45.8257 27.8875 43.0102 24.8725 40.7615C25.1847 40.6656 25.4733 40.4847 25.7368 40.2466C25.7633 40.2759 25.7912 40.2773 25.8455 40.308C26.4709 40.6471 27.0428 39.838 26.5346 39.3931C26.5346 39.3931 26.5346 39.393 26.536 39.3652C26.6224 39.3137 26.6824 39.233 26.7703 39.1536C27.1854 39.2306 27.6049 39.2239 27.9993 39.1601C28.1901 39.2536 28.3795 39.375 28.5703 39.4685C28.4296 39.4893 28.3125 39.5952 28.2525 39.6759C28.1996 39.6174 28.1174 39.5852 28.0645 39.5267C27.6606 39.2268 27.1264 39.8422 27.4996 40.1965C31.8216 44.2159 36.6443 47.7299 41.5326 51.0517C46.6368 54.5241 51.9796 57.7013 57.5736 60.3325C65.5425 64.0623 74.687 65.0019 82.3097 69.4964C84.3181 70.6602 86.1702 72.1512 87.5845 74.0112C89.1017 76.0441 89.7645 78.3968 90.1136 80.8732C90.158 81.099 90.5232 81.0617 90.5066 80.8373C90.5474 71.7869 81.3291 67.351 74.0281 64.7728C69.9924 63.3663 65.8282 62.2886 61.8567 60.7178C55.942 58.3497 50.375 55.189 45.0171 51.7596C39.605 48.2994 34.5206 44.4369 29.4069 40.6008C30.045 40.689 30.711 40.7788 31.3785 40.8406C34.0307 41.9812 36.8071 42.8766 39.5334 43.6578C44.0514 44.9211 48.6449 45.7972 53.3211 46.1465C61.3371 46.7494 69.0333 44.8493 76.9681 44.3025C81.118 44.0105 85.6761 43.9347 89.5219 45.7786C89.6849 45.8707 89.8119 45.5699 89.649 45.4778C86.6307 43.8436 83.0943 43.608 79.7374 43.6889C75.7381 43.7651 71.7412 44.3444 67.775 44.8693C63.9774 45.3748 60.2734 45.6895 56.4319 45.4105C51.6164 45.0541 46.8221 44.2796 42.1577 43.1486C39.9774 42.6187 37.832 41.9508 35.7173 41.2287C37.8339 41.3642 39.9797 41.4732 42.0727 41.5237C46.4243 41.661 50.7693 41.3789 54.9868 40.3079C59.7422 39.0967 64.3838 37.3767 69.0892 36.0511C73.9089 34.6755 78.8008 33.5271 83.5955 32.0943C83.8784 32.0249 83.7882 31.6012 83.5053 31.6706C78.6567 32.5139 73.8763 33.668 69.0944 34.85C64.3961 36.0362 59.8466 37.5932 55.1733 38.8366C50.8973 39.9604 46.5216 40.2969 42.1406 40.186C38.4578 40.0827 34.7126 39.5571 31.0284 39.4817C30.3709 39.2248 29.6869 38.9385 29.0308 38.6537C29.353 38.3628 29.5665 38.0105 29.7535 37.6288C30.7312 36.5329 32.0306 35.7049 33.3786 35.019C32.6129 35.7904 31.8473 36.5617 31.0803 37.3609C30.786 37.6533 31.1828 38.0926 31.5035 37.8295C33.2228 36.436 34.9184 34.9575 36.5876 33.4497C39.3909 32.1672 42.2428 31.0269 45.0683 29.8573C47.8366 28.7127 50.7707 27.6045 53.2872 25.9163C56.8731 23.528 60.434 21.0826 63.8376 18.4336C67.6761 15.4715 71.5846 12.2335 74.0349 7.99933C74.1577 7.78206 73.8332 7.57 73.7104 7.78728C71.142 11.5963 67.3034 14.5585 63.6462 17.2504C60.0462 19.9174 56.3139 22.4379 52.5315 24.8441C49.9328 26.5002 46.9443 27.5777 44.1188 28.7474C42.6064 29.369 41.0954 29.9628 39.6095 30.6137C44.4597 25.8869 48.8868 20.6915 52.4948 15.1192C55.3145 10.7641 57.7052 6.052 59.5179 1.17081C61.2356 -3.4917 62.5396 -8.25901 64.2308 -12.9508C66.1833 -18.3837 68.5537 -23.7954 72.4881 -28.0938C72.6652 -28.2804 72.4022 -28.6011 72.1972 -28.4159C65.1506 -21.7051 62.7232 -11.3231 59.6727 -2.42554C56.2297 7.59757 50.8813 16.6298 43.7753 24.511C41.4364 27.1023 38.9373 29.5458 36.4383 31.9893C35.6367 32.3677 34.8352 32.7461 34.0601 33.1537C33.285 33.5614 31.4562 34.3625 30.342 35.3955C30.3462 35.3119 30.3783 35.2298 30.3826 35.1462C30.4288 34.7853 30.135 34.5189 29.8313 34.4476C30.6876 33.5411 31.544 32.6347 32.3474 31.6697C32.4404 32.0376 32.5599 32.4349 32.6808 32.8042C32.9241 33.5151 34.0545 33.2652 33.839 32.5557C33.6222 31.8741 33.4611 31.1954 33.3572 30.4916C36.4858 26.6552 39.2148 22.4352 41.5286 18.1383C43.7182 14.0865 45.2683 9.97429 46.2794 5.47147C47.3254 0.830718 48.0678 -3.88134 49.7756 -8.34876C49.8705 -8.56746 49.5125 -8.66948 49.419 -8.47865C47.5331 -4.35555 46.6377 0.069335 45.6044 4.45927C44.529 9.12647 42.9719 13.378 40.6902 17.5928C38.5006 21.6445 35.9643 25.3714 33.1578 28.9169C32.8269 22.7812 36.0452 16.6303 36.4389 10.5315C36.9242 3.18004 33.7848 -3.76887 34.0164 -11.0774C34.2221 -17.3254 37.1192 -22.6544 41.0192 -27.3737C43.2523 -30.0822 45.7211 -33.0301 48.6948 -34.9186C50.9464 -36.3409 53.4942 -36.9938 56.0434 -37.6745C59.3284 -38.5414 62.4033 -39.6704 65.4423 -41.1924C68.5091 -42.7129 71.5022 -44.4328 74.7708 -45.524C77.8971 -46.5666 81.6753 -47.2408 84.9312 -46.4327C87.0293 -45.935 88.4983 -44.603 89.6074 -42.7864C90.7931 -40.8263 91.6651 -38.7424 92.9372 -36.8337C93.5871 -35.8787 94.2957 -34.9765 95.0921 -34.1537C89.0969 -28.3395 82.389 -23.3438 75.9177 -18.0567C75.7712 -17.9245 75.9522 -17.6359 76.1265 -17.7667C83.0446 -22.5003 89.8125 -27.5767 95.7827 -33.4481C96.4761 -32.7982 97.2016 -32.2305 98.0122 -31.6864C99.8227 -30.4768 101.873 -29.5903 103.624 -28.2999C105.643 -26.8003 106.766 -24.7037 107.228 -22.2494C107.428 -21.2334 107.728 -19.9888 107.397 -18.9719C107.163 -18.2293 106.603 -17.6431 106.205 -16.9648C105.442 -15.6904 105.321 -14.4114 105.922 -13.0397C106.571 -11.5259 107.774 -10.4589 108.024 -8.76986C108.358 -6.54564 108.374 -4.11407 108.008 -1.86951C107.332 2.09153 105.099 5.35876 102.25 8.09181C100.958 9.31143 99.6168 10.4167 98.2476 11.5206C97.6354 12.0204 97.0233 12.5202 96.4391 13.0213C92.6354 14.1971 88.9885 16.1353 85.5646 18.0847C82.4279 19.8811 79.3398 21.8197 76.1237 23.5283C72.6219 25.362 68.9183 26.7664 65.1676 28.0008C57.7789 30.4473 49.9377 32.4517 43.5547 37.1007C43.0904 37.4403 43.6374 38.2225 44.1267 37.94C49.925 34.351 56.3714 32.3036 62.8192 30.2284C68.9255 28.2756 74.7394 26.0284 80.2978 22.7625C84.5303 20.2953 88.7212 17.5466 93.2613 15.6259C93.2178 15.9311 93.5645 16.256 93.8588 15.9636C94.298 15.5668 94.7359 15.1979 95.1723 14.8569C95.8274 14.6108 96.509 14.394 97.1891 14.205C100.138 13.349 103.232 12.9474 106.309 13.439C108.832 13.8187 111.834 14.6697 113.4 16.8448C114.522 18.4105 114.923 20.4146 115.643 22.1835C116.539 24.3524 117.836 26.3183 119.571 27.9152C120.906 29.1286 122.509 30.0203 123.814 31.288C125.357 32.8192 125.703 34.7927 125.596 36.9106C125.433 40.1154 124.443 43.1105 123.785 46.1505C119.896 44.6118 115.599 43.9464 111.457 43.5403C107.396 43.1664 102.745 42.8742 98.8467 44.2687C98.6196 44.341 98.6848 44.7075 98.9384 44.6645C107.02 43.4267 115.864 44.2393 123.637 46.8695C123.598 47.091 123.559 47.3125 123.519 47.534C122.583 47.2629 121.616 47.0462 120.585 46.9938C118.915 46.881 117.262 46.9646 115.578 47.1026C113.895 47.2405 112.235 47.4636 110.578 47.6308C109.594 47.7485 108.64 47.8397 107.659 47.9016C106.622 47.9607 105.624 47.7983 104.616 47.8588C104.224 47.8668 104.197 48.3963 104.586 48.4439C106.192 48.7211 108.021 48.4788 109.645 48.3937C111.326 48.3115 112.983 48.1442 114.666 48.0062C117.472 47.7855 120.554 47.6068 123.437 48.0606C123.115 50.0001 123.014 51.9787 123.414 54.0107C124.059 57.2566 125.617 60.1298 126.547 63.2783C127.574 66.7112 126.698 69.6562 124.49 72.4219C116.158 82.9789 103.433 71.1285 93.3233 71.5927C92.9596 71.6021 92.9341 72.1038 93.295 72.15C98.5058 72.9736 103.331 75.3422 108.338 76.8818C109.026 77.0844 109.742 77.2884 110.459 77.4646C111.644 79.4526 112.492 81.4515 112.147 83.8368C111.804 86.1943 110.463 88.3893 108.921 90.1549C105.601 93.8978 100.794 96.6711 95.8579 97.5938C85.1378 99.6195 76.6774 90.1651 71.3581 82.1275C70.8654 81.3761 70.2745 79.8093 69.4833 79.4339C68.883 79.1519 68.0148 79.1916 67.3559 78.9625C66.6412 78.7306 65.9294 78.443 65.2483 78.1011C62.7982 76.8311 60.7487 74.827 58.0823 73.9651C57.7257 73.8352 57.4465 74.3798 57.7711 74.5919C61.3141 76.8954 64.6339 79.7463 68.8372 80.6025C73.0673 88.0818 79.4526 96.0338 88.0147 98.5364C96.4947 101.007 106.792 96.3053 111.466 88.9991C113.651 85.5896 114.1 81.142 111.84 77.7862C115.493 78.4747 119.243 78.3579 122.454 76.2021C124.798 74.6168 126.767 72.1464 127.795 69.5164C128.902 66.4155 128.29 63.6184 127.228 60.8821ZM20.8915 37.1785C21.0308 37.1856 21.1688 37.2205 21.3081 37.2276C21.5854 37.2696 21.6609 36.8823 21.5008 36.7344C21.6416 36.7137 21.7559 36.6636 21.898 36.6149L21.9245 36.6442C21.8631 36.7529 21.8295 36.8629 21.796 36.973C21.7611 37.1109 21.7554 37.2224 21.7776 37.3353C21.7483 37.3617 21.7205 37.3603 21.719 37.3882C21.4375 37.4297 21.156 37.4713 20.8759 37.485C20.8523 37.4 20.858 37.2886 20.8915 37.1785ZM21.8617 38.4292C21.6402 38.39 21.3908 38.3494 21.14 38.3366C21.3086 38.3173 21.4787 38.27 21.6766 38.2242C21.7281 38.3106 21.8088 38.3706 21.8617 38.4292ZM23.1659 40.2557C22.7951 40.4045 22.3743 40.439 21.9326 40.3327C21.3266 40.1622 21.0177 39.6436 20.8788 39.0777C21.5226 39.0546 22.2765 39.0649 22.8782 39.319C22.9477 39.602 23.0728 39.8877 23.2287 40.1192C23.2273 40.147 23.1966 40.2014 23.1659 40.2557Z" fill="#370014" fill-opacity="0.19"/>
<path d="M72.0887 59.4776C71.8922 59.4956 71.9017 59.8592 72.1261 59.8427C78.231 59.5661 82.1251 63.7594 85.8478 68.0278C86.0065 68.2035 86.2422 67.964 86.1113 67.7898C82.7651 63.2611 78.1549 58.8638 72.0887 59.4776Z" fill="#370014" fill-opacity="0.19"/>
</svg>
