<svg width="30" height="27" viewBox="0 0 30 27" fill="none" xmlns="http://www.w3.org/2000/svg">
<path d="M29.7809 16.4004C29.7371 16.4004 29.7371 16.4441 29.7809 16.4004V16.4004Z" fill="#370014" fill-opacity="0.17"/>
<path d="M25.6583 4.85919C25.7017 4.85919 25.7017 4.85919 25.6583 4.85919C25.6149 4.81581 25.6149 4.8158 25.5715 4.8158C25.5715 4.8158 25.5715 4.8158 25.5281 4.77241C25.4848 4.77241 25.4847 4.72904 25.4414 4.72904C25.2678 4.59888 25.0943 4.4687 24.9207 4.33854C24.7472 4.20838 24.5736 4.12161 24.4001 4.03484H24.3567C24.2699 3.99145 24.1831 3.94806 24.0964 3.90467C24.053 3.86128 24.0096 3.86129 23.9662 3.8179C23.9228 3.77452 23.9228 3.77451 23.8794 3.73112C23.836 3.68774 23.7926 3.60097 23.7059 3.55758C23.6625 3.4708 23.6191 3.42742 23.5757 3.34064C23.4889 3.16709 23.4022 3.03693 23.3154 2.86338C23.272 2.77661 23.2286 2.73322 23.1852 2.64644C23.1418 2.60306 23.0984 2.51628 23.0551 2.4729C23.0117 2.42951 22.9683 2.34274 22.8815 2.29935C22.8381 2.25596 22.7514 2.21257 22.708 2.16918C22.5778 2.08241 22.4476 1.99563 22.3175 1.95225C22.1873 1.86547 22.0572 1.82208 21.927 1.73531L21.8836 1.69193C21.7535 1.60516 21.6233 1.51838 21.4931 1.475C21.363 1.38822 21.2328 1.34484 21.1026 1.25806C20.9725 1.17129 20.8423 1.12789 20.7122 1.0845C20.582 1.04111 20.4518 0.997733 20.2783 0.954346C20.1915 0.954346 20.1481 0.954346 20.0613 0.954346C19.9746 0.954346 19.9312 0.954346 19.8444 0.954346C19.7143 0.954346 19.5841 0.997736 19.4539 0.997736C19.2804 1.04112 19.0634 1.08451 18.9333 1.21467C18.8465 1.30145 18.7597 1.4316 18.673 1.56176C18.5862 1.69193 18.4994 1.82208 18.456 1.95225C18.3692 2.08241 18.3259 2.21258 18.2825 2.34274C18.2391 2.4729 18.1523 2.60306 18.1089 2.73322C18.0655 2.86339 18.0222 2.99354 17.9354 3.12371C17.892 3.21048 17.8486 3.29726 17.8052 3.38403C17.7184 3.55758 17.5883 3.73112 17.4581 3.90467C17.4147 3.99144 17.328 4.03483 17.2846 4.12161C17.2412 4.16499 17.1544 4.25177 17.111 4.33854C17.0243 4.4687 16.9809 4.59888 16.8941 4.72904C16.8507 4.8592 16.8073 4.98936 16.8073 5.16291C16.8073 5.29307 16.8073 5.42323 16.7639 5.55339C16.7639 5.68355 16.7639 5.81371 16.7205 5.98726V6.03065C16.7205 6.07404 16.7205 6.11742 16.7205 6.16081C16.6771 6.29097 16.6772 6.46452 16.6772 6.59468C16.6772 6.72484 16.6772 6.89839 16.6772 7.02855C16.6772 7.33226 16.6772 7.59259 16.6772 7.8963V7.93969C16.6772 7.93969 16.6772 7.93969 16.6772 7.98308C16.6772 7.98308 16.6772 7.98307 16.6772 8.02645C16.6772 8.06984 16.6772 8.15663 16.6772 8.20001C16.6772 8.2434 16.6772 8.33017 16.6772 8.37356C16.6772 8.41695 16.6772 8.46033 16.6338 8.50372C16.6338 8.5471 16.5904 8.5905 16.5904 8.63389C16.5904 8.67727 16.547 8.72065 16.547 8.76404C16.547 8.80743 16.5036 8.85081 16.5036 8.8942L16.4602 8.93759L16.4168 8.98098C16.4168 8.93759 16.3734 8.89421 16.3734 8.85082C16.33 8.63389 16.2433 8.37356 16.1999 8.15662C16.1565 7.93969 16.0697 7.72275 16.0263 7.50582C16.0263 7.46243 16.0263 7.41903 15.983 7.37565C15.983 7.37565 15.983 7.37566 15.983 7.33227C15.9396 7.20211 15.9396 7.11533 15.8962 6.98516C15.8528 6.855 15.8094 6.76823 15.766 6.63807C15.7226 6.5513 15.6792 6.42113 15.6358 6.33436C15.5925 6.24758 15.5491 6.11743 15.5057 6.03065C15.4623 5.94388 15.4189 5.8571 15.3755 5.72694C15.3321 5.64016 15.3321 5.55339 15.2888 5.46661C15.2454 5.37984 15.202 5.29307 15.1586 5.16291C15.1152 5.07614 15.0718 4.98936 15.0284 4.90258C14.985 4.81581 14.8983 4.72903 14.8549 4.64226C14.8549 4.64226 14.8549 4.59887 14.8115 4.59887C14.8115 4.59887 14.8115 4.59887 14.7681 4.55548V4.5121C14.7247 4.42533 14.7247 4.38194 14.6813 4.29517C14.5946 4.165 14.5512 4.03483 14.4644 3.90467C14.421 3.8179 14.3776 3.77451 14.3342 3.68773C14.2908 3.60096 14.2475 3.55757 14.2041 3.4708C14.1173 3.34064 14.0305 3.25387 13.9438 3.12371C13.9438 3.12371 13.9437 3.08032 13.9004 3.08032C13.9004 3.03693 13.857 3.03694 13.857 2.99355C13.857 2.99355 13.857 2.99355 13.857 2.95016C13.7702 2.86339 13.7268 2.77661 13.64 2.64644C13.5533 2.55967 13.4665 2.47289 13.3797 2.38612C13.2062 2.21257 12.9892 2.03902 12.6855 1.99564C12.5554 1.99564 12.4252 1.95225 12.3384 1.95225C12.2083 1.95225 12.0347 1.90886 11.9046 1.95225C11.731 1.95225 11.6008 1.99564 11.4273 1.99564C11.1236 2.03902 10.8633 2.08242 10.5596 2.12581C10.3426 2.12581 10.1691 2.16918 9.95214 2.16918C9.86536 2.16918 9.77859 2.16918 9.69181 2.21257C9.60504 2.21257 9.56165 2.21257 9.47487 2.25596C9.25794 2.29935 9.08438 2.38612 8.91083 2.4729C8.82406 2.51628 8.7373 2.60306 8.65052 2.64644C8.56375 2.73322 8.52036 2.77661 8.43358 2.86338C8.30342 3.03693 8.21664 3.21048 8.12987 3.38403C8.04309 3.55758 7.99971 3.68774 7.91293 3.86129C7.86955 3.90468 7.86954 3.94806 7.82615 3.99145C7.82615 4.03484 7.78277 4.03484 7.73939 4.07823L7.696 4.12161C7.65261 4.16499 7.60923 4.165 7.56584 4.20839C7.52245 4.20839 7.47906 4.25178 7.43567 4.25178C7.39228 4.25178 7.39229 4.25178 7.3489 4.29517C7.30552 4.29517 7.26212 4.29517 7.21874 4.29517C7.13196 4.29517 7.04519 4.29517 6.91503 4.29517C6.6981 4.29517 6.52454 4.33855 6.3076 4.42532C6.13405 4.5121 5.91712 4.64225 5.78696 4.77241C5.6568 4.94596 5.52663 5.11952 5.48325 5.33646C5.43986 5.55339 5.39648 5.72694 5.39648 5.94387C5.39648 6.03065 5.39648 6.16082 5.39648 6.24759C5.39648 6.33436 5.43986 6.42113 5.43986 6.5079C5.48324 6.63806 5.52664 6.72485 5.57003 6.85501C5.61341 6.94178 5.6568 7.02856 5.74357 7.11533C5.78696 7.20211 5.83035 7.2455 5.91712 7.33227C5.96051 7.37566 6.0039 7.46243 6.04729 7.50582C6.17745 7.63598 6.26422 7.72275 6.39438 7.85291C6.43777 7.8963 6.48115 7.93969 6.52454 7.98308C6.56792 8.02646 6.65471 8.06985 6.6981 8.11323C6.74148 8.15662 6.82826 8.2 6.87164 8.24339C6.95842 8.33016 7.04518 8.37355 7.17535 8.46033C7.26212 8.5471 7.39229 8.59049 7.47906 8.67726C7.56584 8.72065 7.60922 8.80743 7.696 8.85082C7.73938 8.89421 7.82616 8.93759 7.91293 9.02437C8.04309 9.15453 8.21664 9.2413 8.34681 9.37146C8.39019 9.41485 8.43357 9.45824 8.47696 9.45824C8.56374 9.50163 8.65051 9.5884 8.73729 9.67518C8.95422 9.84872 9.17116 10.0657 9.38809 10.2392C9.60503 10.4561 9.86536 10.6297 10.1257 10.8032C10.2558 10.89 10.386 10.9768 10.5162 11.0636C10.5596 11.1069 10.6463 11.1503 10.6897 11.1503C10.8199 11.1937 10.9067 11.2805 11.0368 11.3239C11.1236 11.3673 11.2104 11.4107 11.2971 11.4107C11.3405 11.4107 11.3839 11.4107 11.4273 11.4541C11.4707 11.4541 11.5141 11.4541 11.5575 11.4541C11.6008 11.4541 11.6442 11.4541 11.731 11.4541C11.7744 11.4541 11.8178 11.4541 11.8178 11.4541H11.8612C11.9046 11.4541 11.9479 11.4541 12.0347 11.4541C12.0347 11.4541 12.0347 11.4541 12.0781 11.4541C12.0347 11.5408 12.0347 11.6276 12.0347 11.7144C11.9913 11.7144 11.9479 11.7144 11.9046 11.671C11.6876 11.6276 11.5141 11.5408 11.2971 11.4541C10.9934 11.3239 10.7331 11.1937 10.4728 11.0636C10.2125 10.9334 9.95213 10.8466 9.69181 10.7165C9.56165 10.6731 9.43149 10.5863 9.30133 10.5429C9.17117 10.4561 8.99762 10.3694 8.86746 10.326C8.78068 10.2826 8.6939 10.1958 8.60713 10.1524C8.56374 10.1091 8.52035 10.109 8.52035 10.0657C8.47696 10.0223 8.39019 9.97889 8.34681 9.9355C8.17326 9.80534 8.04309 9.71856 7.86954 9.5884C7.73938 9.50162 7.56583 9.37147 7.43567 9.28469C7.08857 9.06776 6.6981 8.89421 6.26423 8.80743C6.04729 8.76404 5.78696 8.76404 5.57003 8.76404C5.39648 8.76404 5.22292 8.72065 5.04938 8.72065C4.9626 8.72065 4.91921 8.72065 4.83244 8.67726C4.65889 8.63387 4.48535 8.63388 4.3118 8.5905C4.22503 8.5905 4.13825 8.54711 4.05148 8.54711C3.9647 8.54711 3.87792 8.54711 3.74776 8.54711C3.53082 8.54711 3.35728 8.54711 3.14034 8.63389C2.92341 8.67727 2.70647 8.80743 2.53292 8.93759C2.44615 9.02436 2.35937 9.11114 2.2726 9.19791C2.18582 9.28469 2.09905 9.37147 2.01227 9.45824C1.88211 9.63179 1.70856 9.84872 1.62179 10.0657C1.40485 10.5863 1.49163 11.1503 1.5784 11.7144C1.66517 12.1049 1.75195 12.452 1.79534 12.8424C1.79534 12.9292 1.79534 13.016 1.79534 13.1028C1.79534 13.1461 1.79534 13.1462 1.79534 13.1895C1.79534 13.2329 1.79534 13.2763 1.79534 13.2763C1.79534 13.3197 1.79534 13.3631 1.79534 13.4065C1.79534 13.4933 1.75195 13.58 1.75195 13.6668C1.70856 13.7536 1.70857 13.8403 1.66518 13.9271C1.62179 14.0139 1.5784 14.1007 1.53501 14.1441C1.49162 14.2308 1.44824 14.2742 1.40485 14.361C1.36147 14.4044 1.36146 14.4478 1.31807 14.4912C1.27469 14.5345 1.2313 14.5779 1.18792 14.6213C1.14453 14.6647 1.10114 14.7081 1.10114 14.7515C1.05775 14.7949 1.01437 14.8383 1.01437 14.8816C0.970984 14.925 0.970979 14.9684 0.927592 15.0118C0.884204 15.0552 0.884212 15.0986 0.840825 15.1853C0.797438 15.2721 0.754043 15.3589 0.710656 15.4457C0.667268 15.5758 0.623886 15.706 0.580499 15.8795C0.537112 16.0097 0.537109 16.1833 0.537109 16.3134C0.537109 16.5303 0.580491 16.7907 0.667266 17.0076C0.75404 17.2679 0.88421 17.4849 1.01437 17.6584C1.18792 17.8754 1.36146 18.0489 1.5784 18.1791C1.66517 18.2658 1.79534 18.3526 1.92551 18.4394C2.01228 18.5262 2.14243 18.5695 2.22921 18.6563C2.35937 18.7431 2.44615 18.7865 2.57631 18.8299C2.66309 18.8733 2.79324 18.9166 2.92341 18.96C3.01018 18.96 3.05357 18.96 3.14034 19.0034C3.18373 19.0034 3.22711 19.0034 3.31389 19.0034C3.35727 19.0034 3.40066 19.0034 3.48743 19.0034C3.66098 19.0034 3.83454 18.96 4.00809 18.9166C4.09486 18.9166 4.18164 18.9166 4.26841 18.9166C4.3118 18.9166 4.35518 18.9166 4.39857 18.9166C4.44195 18.9166 4.48535 18.9166 4.48535 18.9166C4.52873 18.9166 4.52873 18.9166 4.57211 18.96C4.6155 18.96 4.61551 19.0034 4.65889 19.0034C4.74567 19.0468 4.83244 19.1336 4.91922 19.2204C4.96261 19.2637 5.04938 19.3071 5.09277 19.3505C5.13615 19.3939 5.17953 19.3939 5.22292 19.4373C5.26631 19.4807 5.35309 19.4807 5.39648 19.4807C5.52664 19.5241 5.6568 19.5241 5.78696 19.5241C5.91712 19.5241 6.04728 19.5241 6.17745 19.5241C6.35099 19.5241 6.52455 19.5241 6.6981 19.5241C6.87165 19.5241 7.08858 19.4807 7.26213 19.4373C7.60922 19.3939 7.95632 19.3071 8.30342 19.2204C8.47696 19.177 8.69391 19.1336 8.86746 19.0902C8.95423 19.0468 9.08438 19.0468 9.17116 19.0034C9.25793 18.96 9.34471 18.96 9.43149 18.9166C9.60503 18.8733 9.7352 18.7865 9.90875 18.6997C9.95213 18.6563 10.0389 18.6563 10.0823 18.6129C10.1257 18.5696 10.2125 18.5262 10.2558 18.4828C10.3426 18.4394 10.386 18.3526 10.4728 18.3092C10.7331 18.0489 10.95 17.7886 11.2104 17.4849C11.4273 17.2245 11.6442 16.9208 11.8612 16.6605C11.9479 16.5304 12.0781 16.4002 12.2083 16.27C12.2516 16.2266 12.3384 16.1399 12.3818 16.0965C12.4686 16.0097 12.512 15.9663 12.5987 15.8795C12.6855 15.7928 12.7723 15.706 12.9025 15.6192C12.9892 15.5324 13.076 15.4891 13.1194 15.4023C13.2062 15.3155 13.2929 15.2287 13.3797 15.142C13.4665 15.0986 13.5533 15.0552 13.64 15.0118C13.7268 14.9684 13.8136 14.925 13.857 14.8816C13.9004 14.8816 13.9004 14.925 13.9438 14.925V14.9684C13.9438 15.0118 13.9004 15.0118 13.9004 15.0552C13.857 15.0986 13.857 15.1853 13.8136 15.2287C13.7268 15.4457 13.64 15.6626 13.5099 15.9229C13.4665 16.0531 13.3797 16.1832 13.3363 16.27C13.2929 16.4002 13.2062 16.487 13.1628 16.5737C13.1194 16.6605 13.0326 16.7473 12.9892 16.8341C12.9025 16.9208 12.8591 17.0076 12.7723 17.1378C12.7289 17.1812 12.7289 17.2245 12.6855 17.2679C12.5988 17.3981 12.4686 17.5283 12.3818 17.6584C12.2516 17.7886 12.1649 17.9187 12.0347 18.0489C11.9046 18.1791 11.8178 18.3092 11.6876 18.4394C11.6009 18.5695 11.4707 18.6997 11.3405 18.7865C11.2104 18.9166 11.0802 19.0468 10.95 19.1336C10.8199 19.2637 10.6897 19.3505 10.5596 19.4807C10.4294 19.5675 10.2992 19.6976 10.2124 19.7844C10.0823 19.9146 9.95213 20.0013 9.82197 20.0881C9.73519 20.1315 9.64842 20.2183 9.56164 20.2617C9.25793 20.4352 8.99761 20.6521 8.73729 20.9125C8.65051 20.9992 8.56374 21.086 8.52035 21.1728C8.47696 21.2596 8.43358 21.3463 8.43358 21.4765C8.3902 21.5633 8.39019 21.65 8.39019 21.7802C8.39019 22.0405 8.39019 22.3009 8.47696 22.5178C8.52035 22.648 8.60713 22.7781 8.65052 22.8649C8.69391 22.9083 8.6939 22.9517 8.73729 22.9517C8.82406 23.0818 8.91084 23.1686 9.041 23.2988C9.12778 23.3421 9.17116 23.4289 9.25794 23.4723C9.34471 23.5157 9.3881 23.5591 9.47487 23.6025C9.7352 23.776 9.99552 23.9496 10.2558 24.1665C10.2992 24.2099 10.3426 24.2099 10.386 24.2533L10.4294 24.2967C10.4294 24.2967 10.4294 24.2967 10.4294 24.34V24.3834C10.4728 24.4268 10.4728 24.5136 10.4728 24.6004C10.5162 24.6871 10.5162 24.7739 10.5596 24.8607C10.6029 24.9475 10.6463 25.0342 10.6897 25.0776C10.7331 25.1644 10.8199 25.2512 10.8633 25.2946C10.9066 25.338 10.9934 25.4247 11.0368 25.4681C11.167 25.5983 11.2971 25.7284 11.4273 25.8152C11.5575 25.902 11.731 25.9888 11.8612 26.0755C11.9479 26.1189 11.9913 26.1623 12.0781 26.1623C12.1649 26.2057 12.2517 26.2057 12.3384 26.2057C12.4252 26.2057 12.512 26.2057 12.5987 26.2057C12.6855 26.2057 12.7723 26.1623 12.8591 26.1623C13.0326 26.1189 13.2062 26.0755 13.3363 26.0321C13.4231 25.9888 13.5099 25.9454 13.5967 25.902C13.6834 25.8586 13.7268 25.8152 13.8136 25.7718C13.9004 25.7284 13.9871 25.685 14.1173 25.6417C14.3342 25.5549 14.5512 25.5115 14.7681 25.4247C14.985 25.3813 15.1586 25.2946 15.3755 25.2512C15.4189 25.2512 15.4623 25.2512 15.5057 25.2078C15.5491 25.2078 15.5925 25.2078 15.6358 25.2078C15.7226 25.2078 15.766 25.2078 15.8528 25.2078C15.9396 25.2078 16.0697 25.2078 16.1565 25.2512C16.2433 25.2512 16.3301 25.2946 16.4168 25.2946C16.5904 25.338 16.7205 25.3813 16.8941 25.4247C17.0676 25.4681 17.1978 25.5115 17.3713 25.5549C17.5449 25.5983 17.7184 25.5983 17.892 25.5983C18.0655 25.5983 18.2391 25.5983 18.3693 25.5549C18.456 25.5549 18.5428 25.5549 18.6296 25.5549C18.7597 25.5549 18.8899 25.5115 19.0201 25.4681C19.1502 25.4247 19.237 25.338 19.3238 25.2512C19.3671 25.2078 19.3672 25.2078 19.4105 25.1644C19.4973 25.0776 19.5407 24.9909 19.5841 24.8607C19.6275 24.8173 19.6275 24.7305 19.6709 24.6872C19.7576 24.5136 19.801 24.3834 19.8444 24.2099C19.8878 24.0363 19.9312 23.9062 20.018 23.7326C20.0613 23.6892 20.0614 23.6459 20.1047 23.5591C20.1481 23.5157 20.1481 23.4289 20.1915 23.3855C20.2349 23.2554 20.3217 23.1686 20.3651 23.0384C20.4518 22.8649 20.4952 22.6913 20.5386 22.5178C20.6254 22.3009 20.6254 22.0839 20.6688 21.8236C20.6688 21.7802 20.6688 21.7802 20.6688 21.7368C20.6688 21.65 20.6688 21.6067 20.6688 21.5199C20.6688 21.4331 20.6688 21.3897 20.6688 21.3029C20.6688 21.2162 20.6254 21.1294 20.582 21.0426C20.582 20.9992 20.582 20.9558 20.5386 20.9125C20.4952 20.7389 20.4952 20.5654 20.4518 20.4352C20.4518 20.4352 20.4518 20.4352 20.4518 20.4786C20.4518 20.3484 20.4084 20.2183 20.4084 20.0881C20.4084 20.0447 20.4084 20.0013 20.4084 19.9146C20.4084 19.8278 20.3651 19.7844 20.3651 19.6976C20.3651 19.6542 20.3217 19.6108 20.3217 19.5241C20.3217 19.4807 20.2783 19.4373 20.2783 19.3939V19.3505C20.2349 19.2204 20.1915 19.1336 20.1481 19.0034C20.1047 18.9166 20.0613 18.8299 20.018 18.6997C19.9746 18.6129 19.9312 18.5262 19.9312 18.4828C19.8878 18.3526 19.801 18.1791 19.7143 18.0489C19.6709 17.9621 19.6275 17.8754 19.5841 17.832C19.5407 17.7452 19.4973 17.6584 19.4105 17.5716C19.3672 17.4849 19.3238 17.3981 19.2804 17.3547C19.237 17.2679 19.1936 17.2245 19.1502 17.1378C18.9767 16.8774 18.7597 16.5737 18.5428 16.3134C18.4126 16.1833 18.3259 16.0097 18.1957 15.8795C18.1089 15.7494 17.9788 15.6192 17.892 15.4891C17.892 15.4891 17.892 15.4891 17.8486 15.4457C17.7618 15.3155 17.6751 15.2287 17.6317 15.0986H17.6751C17.7184 15.142 17.8052 15.1853 17.8486 15.2287C17.9788 15.3155 18.0222 15.4457 18.1523 15.5324C18.1957 15.5758 18.2825 15.6192 18.3693 15.6626C18.4994 15.7494 18.5862 15.8362 18.673 15.9229C18.8031 16.0097 18.8899 16.0965 19.0201 16.2266C19.1502 16.3134 19.2804 16.4002 19.3672 16.5303C19.4105 16.5737 19.4105 16.6171 19.4539 16.6171C19.4973 16.6605 19.4973 16.6605 19.5407 16.7039C19.6275 16.7907 19.7576 16.9208 19.8444 17.051C20.1047 17.3547 20.3651 17.6584 20.6254 17.9621C20.8857 18.2658 21.146 18.5262 21.4064 18.8299C21.5365 18.96 21.6667 19.1336 21.7968 19.2638C21.927 19.3939 22.1005 19.5241 22.2741 19.6542C22.3609 19.6976 22.4476 19.7844 22.5344 19.8278C22.6212 19.8712 22.708 19.9145 22.8381 19.9579C23.0117 20.0447 23.1852 20.0881 23.4022 20.1315C23.5757 20.1749 23.7926 20.2183 23.9662 20.2617C24.053 20.2617 24.1831 20.305 24.2699 20.305C24.3567 20.305 24.4435 20.305 24.5736 20.305C24.6604 20.305 24.7472 20.2616 24.7906 20.2183C24.8773 20.1749 24.9641 20.1315 25.0509 20.0881C25.1377 20.0447 25.2244 19.9579 25.3112 19.9146C25.398 19.8278 25.4848 19.741 25.5715 19.6542C25.6149 19.6108 25.6583 19.5674 25.7017 19.5241C25.7451 19.4807 25.8318 19.3939 25.9186 19.3505C25.962 19.3505 25.962 19.3071 26.0054 19.3071C26.0488 19.3071 26.0488 19.2638 26.0922 19.2638C26.1356 19.2638 26.1356 19.2637 26.1789 19.2204H26.2223C26.2657 19.2204 26.3091 19.2204 26.3525 19.2204C26.4393 19.2204 26.526 19.2204 26.6128 19.2638C26.6996 19.2638 26.7864 19.2638 26.8731 19.2638C27.0467 19.2638 27.2202 19.2637 27.4372 19.2204C27.5239 19.2204 27.6107 19.177 27.7409 19.177C27.8277 19.177 27.9144 19.1336 28.0012 19.0902C28.088 19.0468 28.1748 19.0034 28.2615 18.96C28.3483 18.9166 28.4351 18.8299 28.4785 18.7865C28.6086 18.6563 28.7822 18.5262 28.9123 18.396C28.9557 18.3526 28.9991 18.3092 29.0425 18.2658C29.0859 18.2224 29.0859 18.2225 29.1293 18.1791C29.1727 18.0923 29.2161 18.0489 29.2594 17.9621C29.3028 17.8754 29.3462 17.7886 29.3896 17.7018C29.5631 17.3547 29.6933 16.9642 29.8235 16.6171V16.5737C29.8669 16.4436 29.8669 16.3134 29.8669 16.1833C29.8669 16.1399 29.8669 16.0531 29.8669 16.0097C29.8669 15.9663 29.8669 15.9229 29.8669 15.8362C29.8669 15.706 29.8235 15.6192 29.8235 15.4891C29.7801 15.2721 29.7367 15.0986 29.6499 14.925C29.6065 14.7515 29.5632 14.5345 29.4764 14.361C29.3462 13.9705 29.216 13.6234 29.0859 13.2763C29.0425 13.1461 29.0425 13.016 28.9991 12.8858C28.9991 12.7991 28.9991 12.7123 28.9991 12.6255C28.9991 12.5387 28.9991 12.4519 29.0425 12.3652C29.0859 12.1482 29.0859 11.9747 29.1293 11.7578C29.1293 11.671 29.1293 11.5408 29.1727 11.4541C29.1727 11.3673 29.1727 11.2805 29.1727 11.1937C29.1727 10.9768 29.1727 10.7599 29.1293 10.5863C29.0859 10.4128 29.0425 10.1958 28.9557 10.0223C28.9123 9.89211 28.8256 9.80534 28.6954 9.71857C28.5652 9.5884 28.3483 9.54501 28.1748 9.54501C27.9578 9.54501 27.7843 9.5884 27.5673 9.63179C27.3938 9.71856 27.2202 9.80534 27.0033 9.84872C26.8298 9.9355 26.6562 9.97888 26.4826 10.0657C26.3091 10.1524 26.1356 10.2392 25.9186 10.2826C25.7017 10.3694 25.4847 10.4128 25.2678 10.4995C25.0943 10.5863 24.9207 10.6731 24.7472 10.7599C24.5736 10.8466 24.4001 10.9334 24.2265 11.0636C23.8794 11.2805 23.5757 11.4974 23.272 11.671C23.1418 11.7578 22.9683 11.8445 22.8381 11.8879C22.708 11.9747 22.5778 12.0181 22.4043 12.0615C22.3175 12.1049 22.2307 12.1049 22.1439 12.1482C22.0572 12.1916 21.927 12.1916 21.8402 12.1916C21.7101 12.1916 21.6233 12.1916 21.4931 12.235C21.4063 12.235 21.3196 12.235 21.1894 12.235H21.146C21.1026 12.235 21.0592 12.235 21.0592 12.1916C21.0159 12.1916 20.9291 12.1482 20.8857 12.1482C20.8423 12.1482 20.7989 12.1482 20.7555 12.1049H20.7122C20.7122 11.8879 20.6688 11.7144 20.6254 11.5408C20.582 11.3673 20.4952 11.2371 20.4518 11.0636C20.4518 11.0636 20.4518 11.0636 20.4952 11.0636C20.582 11.0636 20.6688 11.0636 20.7555 11.0636C20.8423 11.0636 20.9291 11.0636 21.0159 11.0636C21.1894 11.0636 21.4064 11.0636 21.5799 11.0202H21.6233C21.8402 10.9768 22.1006 10.9768 22.3175 10.89C22.4476 10.8466 22.5344 10.8466 22.6646 10.8032C22.7947 10.7599 22.8815 10.7165 23.0117 10.6731C23.1418 10.6297 23.272 10.5429 23.4022 10.4561C23.5323 10.3694 23.6625 10.2826 23.7927 10.1958C23.9228 10.109 24.0096 10.0223 24.1397 9.9355C24.2699 9.84873 24.3567 9.71856 24.4435 9.63179C24.5302 9.54501 24.617 9.45823 24.7472 9.37146L24.7906 9.32807C24.8773 9.2413 25.0075 9.11114 25.0943 8.98098C25.181 8.8942 25.2678 8.76405 25.3546 8.63389C25.4414 8.50372 25.5281 8.41694 25.6149 8.28678C25.7017 8.15662 25.7885 8.06985 25.8318 7.93969C25.9186 7.80953 26.0054 7.67937 26.0488 7.54921C26.1356 7.41904 26.1789 7.28888 26.2223 7.11533C26.2657 6.98517 26.3091 6.81162 26.3091 6.68146C26.3091 6.5513 26.3091 6.37775 26.3091 6.24759C26.3091 6.11743 26.3091 5.94388 26.2657 5.81372C26.2657 5.72694 26.2223 5.68356 26.2223 5.59678C26.1789 5.51001 26.1789 5.46662 26.1356 5.37985C26.0922 5.33646 26.0488 5.24967 26.0054 5.20629C25.9186 5.03274 25.7885 4.94597 25.6583 4.85919ZM15.1152 5.29307C15.1152 5.33645 15.1586 5.37984 15.1586 5.42322C15.202 5.51 15.2454 5.64016 15.2888 5.72694C15.3321 5.81371 15.3755 5.94388 15.4189 6.03065C15.4623 6.11743 15.5057 6.24758 15.5491 6.33436C15.5925 6.42113 15.6359 6.5513 15.6792 6.63807C15.766 6.81162 15.8094 7.02855 15.8528 7.2021C15.8962 7.28887 15.8962 7.41904 15.9396 7.50582C15.983 7.59259 15.983 7.67937 16.0263 7.76614C16.0697 7.8963 16.1131 7.98307 16.1131 8.11323C16.1565 8.2434 16.1565 8.33016 16.1999 8.46033C16.2433 8.59049 16.2433 8.72066 16.2867 8.80743C16.2867 8.85082 16.2867 8.85081 16.2867 8.8942C16.1565 8.8942 16.0697 8.8942 15.9396 8.93759H15.8962V8.8942C15.8528 8.85081 15.8094 8.80743 15.8094 8.72065C15.6792 8.46033 15.5491 8.2434 15.4623 7.98308C15.4623 7.93969 15.4189 7.85291 15.4189 7.80952C15.4189 7.76613 15.3755 7.67936 15.3755 7.63597C15.3321 7.46242 15.2888 7.28888 15.2888 7.11533C15.2454 6.94178 15.2454 6.76823 15.202 6.59468C15.202 6.55129 15.202 6.46452 15.202 6.42114C15.202 6.29097 15.202 6.11743 15.1586 5.98726C15.1586 5.90049 15.1586 5.8571 15.1586 5.77033C15.1586 5.68355 15.1586 5.64017 15.1586 5.55339C15.1586 5.42323 15.1152 5.29306 15.1152 5.20629C15.1152 5.20629 15.1152 5.24968 15.1152 5.29307ZM12.0347 11.2805H11.9479C11.9045 11.2805 11.8612 11.2805 11.8612 11.2805C11.8178 11.2805 11.731 11.2371 11.6876 11.2371H11.6442C11.5575 11.1937 11.4707 11.1937 11.3839 11.1503C11.3405 11.107 11.2537 11.1069 11.2104 11.0636C11.0802 10.9768 10.95 10.89 10.8199 10.8032C10.7331 10.7599 10.6897 10.6731 10.6029 10.6297L10.5596 10.5863C10.5162 10.5429 10.4728 10.4995 10.4294 10.4995C10.2992 10.4128 10.1691 10.326 10.0823 10.1958C9.90874 10.0657 9.73519 9.8921 9.60503 9.76194C9.56164 9.71856 9.47487 9.63178 9.43149 9.5884C9.17116 9.32807 8.95422 9.15453 8.73729 9.02437C8.6939 8.98098 8.65052 8.98098 8.65052 8.93759L8.56374 8.8942C8.30342 8.72065 8.08648 8.54711 7.86954 8.37356C7.82616 8.33017 7.73938 8.28678 7.696 8.24339C7.65261 8.2 7.56584 8.15662 7.52245 8.11323C7.52245 8.11323 7.47906 8.06984 7.43567 8.06984C7.39228 8.02646 7.3489 8.02646 7.3489 7.98308L7.26213 7.8963L7.17535 7.80952L7.08858 7.72275C7.0018 7.67936 6.95842 7.59259 6.87164 7.50582C6.78487 7.41904 6.6547 7.28887 6.56793 7.2021L6.52454 7.15871C6.43776 7.07194 6.39438 6.98516 6.3076 6.94177C6.26421 6.855 6.17744 6.76824 6.13406 6.68146C6.09067 6.59469 6.04729 6.46452 6.0039 6.37775C6.0039 6.33436 6.0039 6.33435 5.96051 6.29097C5.96051 6.24758 5.96051 6.20419 5.91712 6.11742V6.07403C5.91712 5.98726 5.91712 5.8571 5.91712 5.77033C5.91712 5.68355 5.91712 5.64017 5.91712 5.55339C5.91712 5.46662 5.96051 5.42323 5.96051 5.37985C5.96051 5.33646 6.0039 5.29306 6.0039 5.24968C6.04729 5.20629 6.04728 5.1629 6.09067 5.07613C6.13405 5.03274 6.13406 4.98936 6.17745 4.94597C6.22083 4.90259 6.26421 4.85919 6.3076 4.8158C6.35099 4.77242 6.35099 4.77242 6.39438 4.72904C6.43777 4.68565 6.48115 4.68565 6.52454 4.64226C6.56792 4.59887 6.61132 4.59887 6.65471 4.55548C6.69809 4.55548 6.74148 4.5121 6.82825 4.5121C6.87164 4.5121 6.91502 4.5121 7.0018 4.46871C7.08857 4.46871 7.17535 4.46871 7.21874 4.46871H7.26213C7.3489 4.46871 7.43568 4.46871 7.52245 4.46871C7.60923 4.46871 7.696 4.42532 7.73939 4.42532C7.82616 4.38193 7.91294 4.33855 7.99971 4.29517L8.04309 4.33854L8.08648 4.38193C8.08648 4.42532 8.12987 4.42532 8.12987 4.46871L8.17326 4.5121C8.26003 4.59888 8.30342 4.68565 8.39019 4.72904C8.47697 4.81581 8.52036 4.90258 8.60713 4.98935C8.6939 5.07612 8.78068 5.1629 8.86746 5.24968C8.95423 5.33645 9.04101 5.42322 9.08439 5.46661C9.12778 5.46661 9.12777 5.51 9.17116 5.51L9.21455 5.55339C9.25794 5.59678 9.30132 5.64016 9.34471 5.64016C9.34471 5.64016 9.34471 5.64016 9.38809 5.68355C9.38809 5.68355 9.43149 5.68355 9.43149 5.72694C9.47487 5.77033 9.56164 5.81371 9.60503 5.85709C9.60503 5.85709 9.60503 5.85709 9.64842 5.85709C9.64842 5.85709 9.64842 5.85709 9.69181 5.85709C9.7352 5.90048 9.82197 5.94388 9.86536 5.98726C9.60503 5.72694 9.38809 5.46661 9.12777 5.20629C8.95422 5.03274 8.82407 4.8592 8.65052 4.72904C8.56375 4.64226 8.47697 4.55549 8.43358 4.5121C8.3902 4.46871 8.3468 4.42532 8.30342 4.38193C8.26003 4.33854 8.21665 4.29516 8.17326 4.25178L8.12987 4.20839C8.12987 4.20839 8.12987 4.165 8.08648 4.165C8.12987 4.165 8.12987 4.12161 8.17326 4.12161C8.26003 4.03483 8.34681 3.90467 8.43358 3.73112C8.47697 3.60096 8.56374 3.51419 8.60713 3.38403C8.65052 3.34064 8.65051 3.25387 8.6939 3.21049C8.73728 3.1671 8.73729 3.1237 8.78068 3.08032C8.82406 3.03693 8.86745 2.95016 8.91083 2.90677C8.95422 2.86338 8.99762 2.82 9.041 2.73322C9.08439 2.68984 9.12777 2.64644 9.17116 2.64644C9.21455 2.60306 9.25793 2.55968 9.34471 2.55968C9.38809 2.51629 9.43149 2.51628 9.47487 2.4729C9.56165 2.42951 9.64843 2.42951 9.7352 2.38612C9.86536 2.34273 9.95213 2.34274 10.0823 2.34274H10.1691H10.2558C10.2992 2.34274 10.3426 2.34274 10.386 2.34274H10.4728H10.5162H10.6463C10.6897 2.34274 10.6897 2.34274 10.7331 2.34274C10.8633 2.34274 10.9934 2.29935 11.167 2.29935C11.2537 2.29935 11.2971 2.29935 11.3839 2.25596C11.4707 2.25596 11.6009 2.21257 11.6876 2.21257C11.8178 2.21257 11.9046 2.16918 12.0347 2.16918C12.1215 2.16918 12.1649 2.16918 12.2517 2.16918H12.295C12.3384 2.16918 12.4252 2.16918 12.4686 2.16918C12.5554 2.16918 12.6421 2.16918 12.7289 2.21257H12.7723C12.8157 2.21257 12.8591 2.21257 12.9459 2.25596C12.9892 2.25596 12.9892 2.25596 13.0326 2.29935C13.0326 2.29935 13.076 2.29935 13.076 2.34274C13.1194 2.34274 13.1628 2.38612 13.1628 2.42951C13.2062 2.4729 13.2496 2.51629 13.3363 2.55968C13.3797 2.60306 13.4231 2.64645 13.4231 2.68983C13.4665 2.73322 13.4665 2.73323 13.4665 2.77661V2.81999C13.5099 2.86338 13.5533 2.90678 13.5967 2.99355L13.64 3.03693C13.7702 3.25386 13.9438 3.47081 14.0739 3.64436C14.1607 3.73113 14.2041 3.8179 14.2909 3.94806L14.3342 3.99145C14.3776 4.03484 14.3776 4.07823 14.421 4.07823L14.4644 4.12161C14.4644 4.16499 14.5078 4.20839 14.5078 4.20839L14.5512 4.29517C14.5946 4.33855 14.5946 4.42532 14.6379 4.46871C14.6813 4.55549 14.7247 4.59888 14.7681 4.72904V4.77241C14.7681 4.8158 14.8115 4.8592 14.8115 4.90258L14.8549 4.98935L14.8983 5.07613V5.11952C14.9417 5.20629 14.9417 5.33645 14.9417 5.42322C14.9417 5.51 14.9417 5.64016 14.985 5.72694C14.985 5.77033 14.985 5.8571 14.985 5.90048V6.03065C14.985 6.11743 14.985 6.24758 14.985 6.33436C14.985 6.42113 14.985 6.50791 15.0284 6.59468V6.63807C15.0718 6.8984 15.1152 7.2021 15.1586 7.46243V7.54921C15.1586 7.63598 15.202 7.67937 15.202 7.76614C15.202 7.85292 15.2454 7.93969 15.2454 7.98308C15.2454 8.02646 15.2888 8.11324 15.2888 8.15662V8.20001C15.3321 8.28679 15.3321 8.33018 15.3755 8.41695C15.4189 8.54711 15.5057 8.67727 15.5491 8.80743V8.85082C15.5925 8.89421 15.5925 8.98098 15.6358 9.02437H15.5925C15.4623 9.06775 15.2888 9.11114 15.1586 9.15452C14.9417 9.2413 14.6813 9.32808 14.4644 9.41485C14.4644 9.37146 14.421 9.32808 14.421 9.28469C14.421 9.24131 14.3776 9.19791 14.3776 9.19791C14.3776 9.15453 14.3342 9.11115 14.3342 9.06776C14.3342 9.02437 14.2909 9.02437 14.2909 8.98098C14.2909 8.93759 14.2475 8.89421 14.2475 8.85082L14.2041 8.76404C14.1607 8.72065 14.1607 8.67727 14.1173 8.63389L14.0739 8.54711C14.0305 8.50372 14.0305 8.41695 13.9871 8.37356C13.857 8.15662 13.7702 7.98308 13.64 7.76614C13.5099 7.59259 13.3797 7.37565 13.2496 7.15871C13.2496 7.11532 13.2062 7.11533 13.1628 7.07194L13.1194 7.02855C13.076 6.98517 13.076 6.98516 13.0326 6.94177V6.8984C12.9892 6.81162 12.9025 6.76824 12.8591 6.68146L12.8157 6.63807L12.7723 6.55129C12.8157 6.63807 12.9025 6.72485 12.9459 6.85501C12.9892 6.94178 13.0326 7.02856 13.076 7.11533L13.1194 7.2021C13.1628 7.28887 13.2062 7.33226 13.2062 7.41904C13.3363 7.63597 13.4231 7.85292 13.5099 7.98308L13.6834 8.24339C13.7702 8.37355 13.857 8.50372 13.9004 8.63389C13.9871 8.80743 14.1173 8.98098 14.2475 9.2413C14.2909 9.28469 14.3342 9.37146 14.3776 9.41485C14.3342 9.41485 14.3342 9.41485 14.2909 9.45824C13.9871 9.5884 13.6834 9.76194 13.4231 9.97888C13.293 9.84872 13.2062 9.71856 13.076 9.5884C13.0326 9.50162 12.9458 9.45823 12.9025 9.37146C12.8157 9.28469 12.7289 9.15453 12.6421 9.06776C12.4686 8.89421 12.3384 8.72065 12.2083 8.54711C12.1649 8.46033 12.0781 8.37355 11.9913 8.28678C11.9479 8.24339 11.8612 8.15662 11.8178 8.11323L11.731 8.02645C11.7744 8.11323 11.8612 8.15662 11.9046 8.24339C11.9913 8.37355 12.0781 8.50372 12.1649 8.63389C12.2516 8.76405 12.3384 8.89421 12.4252 9.02437C12.5554 9.19792 12.6855 9.32808 12.8157 9.50163C12.9025 9.5884 12.9458 9.63179 13.0326 9.71857C13.076 9.76195 13.076 9.76194 13.1194 9.80533L13.1628 9.84872C13.2062 9.84872 13.2062 9.89211 13.2496 9.9355L13.2929 9.97888L13.3363 10.0223L13.3797 10.0657C13.2929 10.1524 13.2062 10.2392 13.076 10.326C13.0326 10.3694 12.9892 10.4128 12.9459 10.4561C12.8591 10.5429 12.8157 10.5863 12.7289 10.6731C12.6855 10.6297 12.5988 10.6297 12.5554 10.5863L12.512 10.5429C12.4686 10.5429 12.4686 10.4995 12.4252 10.4995C12.3384 10.4561 12.295 10.4128 12.2083 10.4128H12.1649C12.1649 10.4128 12.1215 10.4128 12.1215 10.3694C12.0781 10.326 12.0347 10.326 11.9913 10.2826C11.9479 10.2392 11.9046 10.2392 11.8612 10.1958L11.8178 10.1524C11.731 10.1091 11.6442 10.0223 11.5575 9.97888H11.5141C11.4273 9.8921 11.2971 9.80534 11.2104 9.71857C11.1236 9.63179 11.0368 9.54501 10.9066 9.41485L10.8633 9.37146C10.8199 9.32807 10.7331 9.2413 10.6897 9.19791C10.6463 9.15453 10.6029 9.11115 10.5596 9.06776C10.5162 9.02437 10.4728 8.98098 10.4728 8.93759C10.4294 8.85081 10.3426 8.76404 10.2558 8.67726L10.1691 8.5905C10.1257 8.54711 10.0823 8.50372 10.0389 8.41695L9.99551 8.37356C9.95213 8.28679 9.86535 8.2434 9.82197 8.15662C9.82197 8.15662 9.77858 8.11323 9.77858 8.06984C9.86535 8.20001 9.90874 8.28678 9.99551 8.46033C10.0823 8.63387 10.2125 8.80743 10.3426 9.02437C10.4294 9.11114 10.4728 9.2413 10.5596 9.32807C10.6029 9.37146 10.6029 9.41485 10.6463 9.41485L10.6897 9.45824C10.7331 9.50163 10.7765 9.54501 10.8199 9.5884C10.9067 9.71856 11.0368 9.80534 11.167 9.9355C11.2971 10.0223 11.4273 10.1524 11.5575 10.2392C11.6442 10.2826 11.731 10.3694 11.8178 10.4128C11.8612 10.4561 11.9046 10.4995 11.9913 10.4995H12.0347L12.0781 10.5429H12.1215L12.1649 10.5863C12.1649 10.5863 12.2083 10.5863 12.2083 10.6297H12.2517C12.2517 10.6297 12.295 10.6297 12.295 10.6731C12.3384 10.7165 12.4252 10.7165 12.4686 10.7599H12.512C12.5554 10.7599 12.5987 10.8032 12.6421 10.8032C12.6421 10.8032 12.6421 10.8466 12.5987 10.8466C12.512 10.9768 12.4252 11.107 12.3818 11.2371V11.2805C12.3384 11.2805 12.3384 11.2805 12.295 11.2805C12.2517 11.2805 12.2516 11.2805 12.2083 11.2805C12.0781 11.2805 12.0781 11.2805 12.0347 11.2805ZM8.52035 18.7865C8.43358 18.7865 8.34681 18.8299 8.21665 18.8299C8.12987 18.8299 8.0431 18.8733 7.95632 18.8733C7.78277 18.9166 7.65261 18.96 7.47906 18.96C7.3489 19.0034 7.21874 19.0034 7.04519 19.0468C6.91503 19.0468 6.78487 19.0902 6.65471 19.0902C6.52455 19.0902 6.39439 19.0902 6.26423 19.0902C6.0039 19.0902 5.74357 19.0468 5.52664 19.0468C5.48325 19.0468 5.48324 19.0468 5.43986 19.0468C5.43986 19.0468 5.39648 19.0468 5.39648 19.0034C5.39648 19.0034 5.35309 19.0034 5.35309 18.96C5.26632 18.9166 5.22293 18.8733 5.13616 18.7865L5.04938 18.7431C5.00599 18.6997 4.91922 18.6563 4.87583 18.6129C4.70228 18.4828 4.48534 18.396 4.22502 18.396C4.13825 18.396 4.00809 18.396 3.87793 18.396C3.79115 18.396 3.70438 18.396 3.66099 18.4394H3.6176H3.57421C3.48744 18.4394 3.40066 18.4394 3.2705 18.4828C3.22711 18.4828 3.18373 18.4828 3.18373 18.4828C3.14034 18.4828 3.14034 18.4828 3.09695 18.4828C3.05356 18.4828 3.01018 18.4394 2.9668 18.4394C2.88002 18.396 2.74985 18.3526 2.61969 18.2658C2.53292 18.2224 2.40276 18.1357 2.31599 18.0923C2.22921 18.0489 2.14244 17.9621 2.05566 17.8754C1.9255 17.7452 1.79534 17.6584 1.70857 17.5716C1.66518 17.5283 1.5784 17.4415 1.53501 17.3547C1.49162 17.3113 1.44824 17.2245 1.40485 17.1812C1.36147 17.0944 1.31807 17.051 1.31807 16.9642C1.27469 16.8774 1.27469 16.8341 1.23131 16.7473V16.7907C1.27469 16.8341 1.31808 16.8774 1.36146 16.9208V16.9642C1.40485 17.0076 1.40486 17.051 1.44824 17.051C1.53502 17.0944 1.5784 17.1812 1.66518 17.2245C1.83873 17.3113 2.01227 17.3981 2.18582 17.3981C2.35937 17.3981 2.53292 17.3981 2.70647 17.3547C2.83663 17.3113 3.01018 17.2679 3.14034 17.1812L3.18373 17.1378C3.22712 17.0944 3.2705 17.0944 3.31389 17.051C3.44405 16.9642 3.57421 16.9208 3.70437 16.8341L3.74776 16.7907C3.83453 16.7473 3.92131 16.7039 4.00809 16.6605C4.05147 16.6605 4.09485 16.6171 4.13824 16.6171C4.18163 16.6171 4.18163 16.6171 4.22502 16.6171H4.26841C4.3118 16.6171 4.31179 16.6171 4.35518 16.6171C4.39856 16.6171 4.39857 16.6171 4.44196 16.6171C4.48534 16.6171 4.52874 16.6605 4.52874 16.6605C4.57212 16.6605 4.57212 16.7039 4.6155 16.7039C4.65889 16.7473 4.74566 16.7907 4.78905 16.8341L4.83244 16.8775C4.91921 16.9642 5.00599 17.051 5.09277 17.1378C5.13615 17.1812 5.22292 17.2679 5.26631 17.3113L5.35309 17.3981C5.57003 17.615 5.74357 17.7452 5.91712 17.8754C6.04728 17.9621 6.17745 18.0489 6.26423 18.0923C6.39439 18.1791 6.52454 18.2224 6.61132 18.2658C6.78487 18.3526 6.87164 18.396 7.0018 18.4394C7.13196 18.4828 7.26212 18.5262 7.43567 18.5696C7.65261 18.6129 7.91294 18.6997 8.21665 18.6997C8.30342 18.7431 8.43358 18.7865 8.52035 18.7865ZM12.2517 13.2763C12.2083 13.3197 12.1215 13.3197 12.0781 13.3631L11.9913 13.4065L11.7744 13.4932H11.731L11.6008 13.5366C11.5575 13.5366 11.5141 13.58 11.5141 13.58C11.4707 13.58 11.4707 13.6234 11.4273 13.6234H11.3839C11.2537 13.6234 11.0802 13.6668 10.95 13.6668C10.9066 13.6668 10.8633 13.6668 10.7765 13.7102C10.6463 13.7102 10.5162 13.7536 10.4294 13.7536L10.2558 13.797C10.0823 13.797 9.95213 13.8404 9.82197 13.8404C9.77858 13.8404 9.77859 13.8404 9.7352 13.8404C9.69181 13.8404 9.64842 13.8404 9.56164 13.8404H9.43149H9.30133C9.17117 13.8404 9.08438 13.8403 8.95422 13.797C8.86745 13.797 8.78067 13.7536 8.73729 13.7536C8.65051 13.7102 8.56375 13.7102 8.43358 13.6234C8.3902 13.6234 8.3468 13.58 8.30342 13.58C8.39019 13.6234 8.52036 13.7102 8.60713 13.7536C8.82407 13.8837 9.04101 13.9271 9.30133 13.9705C9.3881 13.9705 9.47487 14.0139 9.56164 14.0139H9.60503L9.90875 14.0573C9.95213 14.0573 9.99552 14.0573 10.0389 14.0573H10.0823H10.1257C10.1691 14.0573 10.2125 14.0573 10.2558 14.0573H10.4294H10.5596C10.6897 14.0573 10.8633 14.0573 10.95 14.0139H11.0368H11.2104C11.2537 14.0139 11.2537 14.0139 11.2971 14.0139H11.3405C11.3839 14.0139 11.4273 14.0139 11.4707 13.9705C11.5141 13.9705 11.5141 13.9705 11.5575 13.9271H11.6008H11.6442C11.731 13.8837 11.8178 13.8837 11.9046 13.8404C12.0347 13.797 12.1649 13.7536 12.2517 13.7102L12.3818 13.6668C12.4252 13.7102 12.4252 13.7536 12.4686 13.7536C12.5554 13.8837 12.6421 13.9705 12.7289 14.1007C12.7723 14.144 12.8157 14.1874 12.8591 14.2308H12.8157C12.7723 14.2308 12.7289 14.2742 12.6855 14.2742C12.6421 14.3176 12.5988 14.3176 12.5554 14.361L12.4686 14.4044C12.4252 14.4478 12.3818 14.4478 12.295 14.4912C12.2083 14.5345 12.0781 14.5779 11.9913 14.6647C11.9479 14.7081 11.8612 14.7081 11.8178 14.7515C11.7744 14.7949 11.6876 14.7949 11.6442 14.8383L11.5575 14.8816C11.4707 14.925 11.4273 14.925 11.3405 14.9684C11.2971 15.0118 11.2104 15.0118 11.167 15.0552C11.1236 15.0986 11.0368 15.0986 10.9934 15.142C10.9067 15.1854 10.8633 15.2287 10.7765 15.2721L10.6897 15.3155H10.6463C10.6029 15.3155 10.6029 15.3589 10.5596 15.3589H10.5162C10.4728 15.3589 10.4728 15.4023 10.4294 15.4023H10.386C10.3426 15.4023 10.3426 15.4457 10.2992 15.4457H10.2558L10.2124 15.4891H10.1691L10.0823 15.5324C10.0389 15.5324 10.0389 15.5325 9.99551 15.5758H9.95214C9.86536 15.6192 9.77859 15.6192 9.69181 15.6626C9.51826 15.706 9.34471 15.7494 9.17116 15.7928H9.12777C9.04099 15.8362 8.91084 15.8362 8.78068 15.8795C8.65052 15.9229 8.56375 15.9229 8.43358 15.9229C8.26004 15.9229 8.08648 15.9663 7.91293 15.9663C7.82616 15.9663 7.78277 15.9663 7.696 15.9663H7.65261C7.60922 15.9663 7.60923 15.9663 7.56584 15.9663C7.47907 15.9663 7.3489 15.9229 7.26213 15.9229H7.21874H7.17535C7.30551 15.9663 7.43568 16.0097 7.56584 16.0531C7.60923 16.0531 7.65261 16.0531 7.696 16.0965H7.73939C7.82616 16.0965 7.91293 16.1399 8.04309 16.1399C8.39019 16.1833 8.6939 16.1833 8.99761 16.0965C9.12777 16.0531 9.25793 16.0531 9.38809 16.0097L9.51826 15.9663C9.60504 15.9663 9.64843 15.9229 9.7352 15.9229L9.86536 15.8795C9.90874 15.8795 9.95214 15.8795 9.95214 15.8362H9.99551C10.0389 15.8362 10.0823 15.7928 10.1691 15.7928C10.2125 15.7928 10.2992 15.7494 10.3426 15.706C10.386 15.706 10.386 15.706 10.4294 15.6626H10.4728C10.4728 15.6626 10.5162 15.6626 10.5162 15.6192H10.5596C10.6029 15.6192 10.6463 15.5758 10.6897 15.5758C10.7331 15.5325 10.8199 15.5324 10.8633 15.4891C10.95 15.4457 11.0368 15.3589 11.167 15.3155L11.2104 15.2721C11.2537 15.2721 11.2971 15.2287 11.3405 15.2287C11.4273 15.1853 11.4707 15.1854 11.5575 15.142C11.6008 15.142 11.6442 15.0986 11.6876 15.0986C11.731 15.0552 11.8178 15.0552 11.8612 15.0118C11.9913 14.9684 12.0781 14.925 12.1649 14.8383C12.2083 14.7949 12.2517 14.7949 12.3384 14.7515C12.3818 14.7081 12.4252 14.7081 12.512 14.6647C12.5554 14.6213 12.5987 14.6213 12.6421 14.5779L12.6855 14.5345C12.7289 14.4911 12.8157 14.4912 12.8591 14.4478C12.9025 14.4478 12.9459 14.4044 12.9892 14.4044H13.0326C13.1628 14.5345 13.293 14.6213 13.4231 14.7081H13.3797L13.2929 14.7515L13.2496 14.7949L13.2062 14.8383H13.1628C13.1628 14.8383 13.1194 14.8383 13.1194 14.8816C13.076 14.925 13.0326 14.9684 12.9892 14.9684C12.9025 15.0552 12.8157 15.142 12.7289 15.1853C12.5988 15.3155 12.4686 15.4457 12.295 15.5758C12.1649 15.706 12.0781 15.7928 11.9913 15.9229C11.8612 16.0965 11.731 16.2266 11.6442 16.3134L11.4707 16.5303C11.2971 16.7473 11.1236 16.9208 10.9934 17.1378C10.8633 17.2679 10.7765 17.3981 10.6463 17.5283C10.5595 17.615 10.4728 17.7452 10.3426 17.832L10.2992 17.8754L10.2558 17.9187C10.1691 18.0055 10.0823 18.0489 9.99551 18.1357C9.95213 18.1357 9.95213 18.1791 9.90875 18.1791C9.86536 18.1791 9.82196 18.1791 9.77858 18.1791H9.7352H9.69181C9.64842 18.1791 9.64842 18.1791 9.60503 18.1791C9.43148 18.2225 9.21455 18.2658 8.99761 18.2658C8.95423 18.2658 8.86745 18.2658 8.82407 18.2658C8.60713 18.2658 8.34681 18.2225 8.12987 18.1791H8.08648C7.9997 18.1791 7.86955 18.1357 7.78278 18.1357C7.65262 18.0923 7.47906 18.0489 7.39228 18.0489C7.30551 18.0055 7.21874 18.0055 7.13197 17.9621C7.04519 17.9187 7.00181 17.9187 6.91503 17.8754L6.82825 17.832H6.78486C6.69809 17.7886 6.56794 17.7452 6.48116 17.7018C6.43777 17.6584 6.35099 17.6584 6.3076 17.615C6.26421 17.5716 6.22083 17.5716 6.17745 17.5283L6.13406 17.4849C6.04728 17.4415 5.9605 17.3547 5.87373 17.3113H5.83035L5.78696 17.2679C5.74358 17.2245 5.70018 17.1812 5.65679 17.1378C5.61341 17.0944 5.52663 17.0076 5.48325 16.9642L5.43986 16.9208C5.3097 16.7907 5.22293 16.7039 5.09277 16.5737C5.04938 16.5304 5.006 16.487 4.96261 16.487L4.91922 16.4436C4.83244 16.3568 4.6589 16.2266 4.52874 16.1833C4.35519 16.0965 4.18163 16.0965 4.00809 16.0965C3.87792 16.1399 3.74776 16.1832 3.57421 16.27C3.44405 16.3568 3.3139 16.4002 3.22712 16.487C3.22712 16.487 3.18373 16.5303 3.14034 16.5303C3.09695 16.5737 3.05357 16.5737 3.01019 16.6171L2.83663 16.7039C2.74985 16.7473 2.66308 16.7907 2.53292 16.8341C2.48954 16.8341 2.44615 16.8775 2.35938 16.8775C2.31599 16.8775 2.2726 16.8775 2.2726 16.8775C2.22921 16.8775 2.18583 16.8775 2.14244 16.8775C2.09905 16.8775 2.05566 16.8775 2.01227 16.8775C1.96888 16.8775 1.9255 16.8775 1.88212 16.8341C1.83873 16.8341 1.79533 16.7907 1.75195 16.7907C1.70856 16.7473 1.62179 16.7473 1.5784 16.7039C1.53501 16.7039 1.49163 16.6605 1.49163 16.6171C1.40486 16.5737 1.36146 16.487 1.31807 16.4436C1.2313 16.3568 1.14454 16.27 1.05776 16.1399C1.01437 16.0965 1.01437 16.0965 1.01437 16.0531C1.01437 16.0097 0.970981 15.9663 0.970981 15.9663C0.970981 15.8795 0.970981 15.7928 0.970981 15.7494V15.706C0.970981 15.706 0.970981 15.706 0.970981 15.6626C0.970981 15.6192 0.970984 15.5758 1.01437 15.5758C1.05776 15.4891 1.05775 15.3589 1.10114 15.2721C1.14452 15.1853 1.14453 15.142 1.18792 15.0986L1.23131 15.0552C1.23131 15.0118 1.2747 14.9684 1.2747 14.925V14.8816C1.31808 14.7949 1.36147 14.7515 1.40485 14.6647C1.44824 14.6213 1.44825 14.5779 1.49163 14.5779C1.49163 14.5345 1.53501 14.5345 1.53501 14.4912L1.62179 14.361C1.62179 14.3176 1.66518 14.3176 1.66518 14.2742V14.2308C1.75195 14.0573 1.83873 13.9271 1.88212 13.7536C1.9255 13.58 1.96888 13.4499 2.01227 13.2763C2.01227 13.2763 2.05566 13.2763 2.05566 13.3197C2.2726 13.4499 2.53292 13.58 2.74986 13.6668C2.79325 13.6668 2.83663 13.7102 2.83663 13.7102C2.88001 13.7102 2.92341 13.7536 2.9668 13.7536C3.01018 13.7536 3.01017 13.7536 3.05356 13.797C3.14034 13.797 3.18372 13.8404 3.2705 13.8404C3.35727 13.8837 3.48744 13.8837 3.57421 13.9271C3.74776 13.9705 3.96469 13.9705 4.13824 14.0139C4.2684 14.0139 4.35519 14.0573 4.48535 14.0573H4.52874C4.52874 14.0573 4.52873 14.0573 4.57211 14.0573H4.6155C5.22292 14.1007 5.83035 14.0573 6.43777 14.0139C6.13406 14.0139 5.83035 14.0139 5.52664 13.9705C5.39648 13.9705 5.26632 13.9271 5.13616 13.9271C5.09277 13.9271 5.006 13.9271 4.96261 13.8837C4.87583 13.8837 4.83245 13.8404 4.74567 13.8404C4.61551 13.797 4.52873 13.797 4.39857 13.7536C4.31179 13.7536 4.22502 13.7102 4.13824 13.7102C4.05147 13.6668 3.92131 13.6668 3.83454 13.6234C3.79115 13.58 3.70438 13.58 3.66099 13.5366C3.61761 13.4932 3.53082 13.4932 3.48743 13.4499C3.44405 13.4499 3.40066 13.4065 3.31389 13.4065C3.2705 13.4065 3.27051 13.3631 3.22712 13.3631C3.18373 13.3631 3.14034 13.3197 3.09695 13.3197C2.96679 13.2329 2.79324 13.1461 2.66308 13.0594C2.48953 12.9726 2.31599 12.8424 2.14244 12.7557C2.14244 12.6255 2.14244 12.5387 2.09905 12.4086C2.05566 12.235 2.01227 12.0615 1.96888 11.9313V11.8879C1.92549 11.7144 1.88212 11.5842 1.88212 11.4107C1.83873 11.2371 1.83872 11.0636 1.79534 10.89C1.79534 10.8032 1.79534 10.6731 1.79534 10.5863C1.79534 10.4995 1.79534 10.3694 1.83873 10.2826C1.83873 10.2392 1.83873 10.1524 1.88212 10.0657C1.88212 10.0223 1.92551 9.9355 1.92551 9.89211V9.84872C1.96889 9.80534 1.96888 9.71856 2.01227 9.67518C2.05566 9.5884 2.14243 9.45823 2.22921 9.37146C2.31598 9.28469 2.35937 9.19791 2.48953 9.11113L2.53292 9.06776C2.6197 8.98098 2.70647 8.89421 2.79325 8.85082C2.79325 8.85082 2.79324 8.85082 2.83663 8.85082C2.88001 8.80743 2.92341 8.80743 2.9668 8.76404C3.01018 8.72065 3.09695 8.72065 3.14034 8.67726C3.22712 8.63387 3.2705 8.63388 3.35728 8.5905C3.44405 8.5905 3.53083 8.54711 3.57421 8.54711C3.74776 8.54711 3.92132 8.54711 4.09486 8.54711C4.18164 8.54711 4.22503 8.54711 4.3118 8.54711C4.39858 8.54711 4.44196 8.54711 4.52874 8.5905L4.70228 8.63389C4.91922 8.67727 5.13616 8.72065 5.39648 8.72065C5.52664 8.72065 5.6568 8.72065 5.78696 8.72065H5.87373C6.00389 8.72065 6.13406 8.72065 6.26423 8.76404C6.351 8.76404 6.43777 8.80743 6.56793 8.80743C6.69809 8.85082 6.78487 8.8942 6.91503 8.93759C7.04519 8.98098 7.17535 9.06775 7.30551 9.15452L7.39228 9.19791C7.47906 9.2413 7.52244 9.28468 7.60922 9.32807C7.69599 9.41484 7.82616 9.45823 7.95632 9.5884C8.0431 9.67517 8.17325 9.76194 8.26003 9.80533C8.30341 9.84872 8.3902 9.89211 8.43358 9.9355C8.47697 9.97889 8.52035 9.97888 8.56374 10.0223C8.60713 10.0657 8.65051 10.1091 8.73729 10.1524C8.78067 10.1524 8.78068 10.1958 8.82407 10.1958C8.86745 10.2392 8.91084 10.2826 8.99761 10.2826L9.08439 10.326C9.12778 10.3694 9.17116 10.3694 9.25794 10.4128L9.34471 10.4561C9.43148 10.4995 9.47487 10.5429 9.56164 10.5863C9.73519 10.6731 9.95213 10.7598 10.1257 10.8466C10.2558 10.89 10.386 10.9768 10.5162 11.0202C10.6463 11.0636 10.7331 11.107 10.8633 11.1937L10.9934 11.2371C11.167 11.3239 11.3405 11.4107 11.4707 11.4541C11.6442 11.5408 11.8178 11.5842 11.9479 11.6276C11.9913 11.6276 12.0347 11.671 12.0781 11.671C12.0347 11.8012 12.0347 11.8879 12.0347 12.0181C12.0347 12.1049 12.0347 12.1482 12.0347 12.235H11.9046C11.8612 12.235 11.8178 12.235 11.731 12.235H11.6876C11.6009 12.235 11.5141 12.235 11.4707 12.235C11.3405 12.235 11.2104 12.1916 11.0802 12.1916H11.0368H10.95C10.8199 12.1916 10.6897 12.1482 10.5596 12.1482C10.4294 12.1482 10.2992 12.1049 10.1257 12.0615C9.99552 12.0181 9.90874 11.9747 9.77858 11.9747L9.69181 11.9313C9.64842 11.9313 9.60503 11.8879 9.56164 11.8879C9.51825 11.8879 9.43148 11.8445 9.38809 11.8445C9.12777 11.7578 8.86746 11.671 8.65052 11.5842L8.52035 11.5408H8.56374C8.82406 11.671 9.08438 11.8011 9.38809 11.9313C9.43148 11.9747 9.51825 11.9747 9.56164 12.0181L9.64842 12.0615L9.7352 12.1049C9.82197 12.1482 9.90875 12.1482 9.95214 12.1916C9.95214 12.1916 9.99552 12.1916 10.0389 12.235H10.0823C10.1257 12.235 10.1691 12.2784 10.2124 12.2784C10.2992 12.3218 10.386 12.3218 10.4728 12.3218C10.5595 12.3218 10.6029 12.3652 10.6897 12.3652C10.8633 12.4086 10.9934 12.4086 11.167 12.452C11.2537 12.452 11.3405 12.4953 11.4273 12.4953C11.5141 12.4953 11.5575 12.4953 11.6008 12.4953C11.6442 12.4953 11.731 12.4953 11.7744 12.4953C11.8612 12.4953 11.9479 12.452 12.0347 12.452C12.0347 12.4953 12.0347 12.5387 12.0781 12.5821V12.6255C12.0781 12.6689 12.0781 12.6689 12.1215 12.7123C12.1215 12.9726 12.1649 13.1028 12.2517 13.2763ZM19.7143 23.5157C19.6709 23.6025 19.6275 23.6892 19.6275 23.776L19.5841 23.9062C19.5407 23.9929 19.5407 24.1231 19.4973 24.2099C19.4539 24.2967 19.4539 24.3834 19.4105 24.4268C19.4105 24.4702 19.3672 24.5136 19.3672 24.557V24.6004C19.3238 24.6438 19.3238 24.6871 19.2804 24.7739C19.237 24.8173 19.1936 24.8607 19.1936 24.9041C19.1502 24.9475 19.1502 24.9909 19.1068 24.9909C19.0634 25.0342 19.0201 25.0342 18.9767 25.0776C18.9333 25.0776 18.9333 25.121 18.8899 25.121C18.8899 25.121 18.8465 25.121 18.8465 25.1644C18.8031 25.1644 18.8031 25.1644 18.7597 25.2078C18.673 25.2078 18.5862 25.2512 18.4994 25.2512C18.456 25.2512 18.4126 25.2512 18.4126 25.2512C18.3693 25.2512 18.2825 25.2512 18.2391 25.2512C18.1957 25.2512 18.1089 25.2512 18.0655 25.2512C17.9354 25.2512 17.8052 25.2512 17.7184 25.2512C17.5883 25.2512 17.5015 25.2512 17.3713 25.2078C17.3279 25.2078 17.2846 25.2078 17.2412 25.1644C17.111 25.121 17.0243 25.121 16.8941 25.0776C16.6772 25.0342 16.4602 24.9909 16.2433 24.9475C16.0697 24.9041 15.8962 24.9041 15.766 24.9041C15.6792 24.9041 15.5925 24.9041 15.5057 24.9475C15.4189 24.9475 15.3321 24.9909 15.2888 24.9909C15.1586 25.0342 15.0718 25.0342 14.9417 25.0776C14.8983 25.0776 14.8549 25.121 14.8115 25.121C14.7247 25.1644 14.6379 25.1644 14.5512 25.2078C14.4644 25.2078 14.421 25.2512 14.3342 25.2512C14.1607 25.2946 13.9871 25.3379 13.857 25.4247C13.8136 25.4681 13.7702 25.4681 13.6834 25.5115C13.5967 25.5549 13.4665 25.5983 13.3797 25.6417C13.2929 25.685 13.2062 25.6851 13.1194 25.7284C12.9892 25.7718 12.8591 25.7718 12.7289 25.8152C12.6855 25.8152 12.6421 25.8152 12.5987 25.8152C12.5554 25.8152 12.512 25.8152 12.4686 25.8152C12.4252 25.8152 12.4252 25.8152 12.3818 25.8152C12.3384 25.8152 12.295 25.7718 12.2517 25.7718C12.2083 25.7284 12.1649 25.7284 12.1215 25.6851C11.9479 25.5983 11.8178 25.4681 11.6876 25.3813C11.6442 25.3379 11.6008 25.2946 11.5575 25.2512C11.4707 25.1644 11.3839 25.0342 11.2538 24.9041C11.2104 24.8607 11.2104 24.8173 11.167 24.8173C11.167 24.7739 11.1236 24.7305 11.1236 24.7305C11.0802 24.6871 11.0802 24.6438 11.0802 24.6004C11.0802 24.557 11.0368 24.5136 11.0368 24.4702C11.0368 24.4268 11.0368 24.4268 10.9934 24.3834C10.9934 24.34 10.9934 24.2967 10.95 24.2533C10.9066 24.1665 10.9067 24.0797 10.8199 23.993C10.7765 23.9062 10.6897 23.8628 10.6029 23.776C10.4728 23.6892 10.3426 23.5591 10.2124 23.4723C10.0389 23.3421 9.95213 23.2554 9.82197 23.1686L9.7352 23.1252C9.69181 23.0818 9.64842 23.0818 9.60503 23.0384C9.51826 22.995 9.47487 22.9517 9.38809 22.9083C9.34471 22.8649 9.34472 22.8649 9.30133 22.8215C9.25794 22.7781 9.17116 22.6913 9.12777 22.6046C9.08438 22.5612 9.08439 22.5178 9.041 22.4744C8.99762 22.431 8.99761 22.3876 8.95422 22.3442C8.95422 22.3008 8.95422 22.3009 8.91083 22.2575C8.95422 22.2575 8.99761 22.2575 8.99761 22.2575H9.041H9.08439C9.21455 22.2575 9.30133 22.2141 9.47487 22.2141C9.56165 22.2141 9.64842 22.1707 9.77858 22.1707C9.95213 22.1273 10.1257 22.0839 10.2558 22.0839C10.386 22.0839 10.5162 22.0839 10.6463 22.0839C10.6463 22.0839 10.6463 22.0839 10.6897 22.0839C10.7331 22.0839 10.7765 22.0839 10.8199 22.0839C10.8633 22.0839 10.9066 22.0839 10.95 22.1273C10.9934 22.1273 10.9934 22.1273 11.0368 22.1707C11.0802 22.1707 11.0802 22.2141 11.1236 22.2141C11.167 22.2141 11.167 22.2575 11.2104 22.2575C11.3405 22.3876 11.4707 22.5178 11.6008 22.6046C11.6442 22.6479 11.6876 22.6913 11.731 22.7347C11.8178 22.8215 11.9046 22.9517 12.0347 23.0384C12.1649 23.1686 12.3384 23.2988 12.512 23.4723C12.6421 23.5591 12.7723 23.6892 12.9459 23.776C13.076 23.8628 13.2496 23.993 13.4231 24.0363C13.5967 24.1231 13.7702 24.1665 13.9438 24.1665C14.1173 24.2099 14.2909 24.2533 14.4644 24.2533C14.638 24.2967 14.8549 24.2967 14.985 24.34C15.202 24.34 15.3755 24.3834 15.5491 24.34C15.7226 24.34 15.8962 24.2967 16.0263 24.2533C16.1131 24.2099 16.1999 24.1665 16.2433 24.1665L16.2867 24.1231C16.33 24.0797 16.3734 24.0797 16.4168 24.0797H16.4602H16.5036H16.547H16.5904H16.6338C16.6338 24.0797 16.6772 24.0797 16.6772 24.1231C16.7205 24.1665 16.8073 24.2099 16.8507 24.2533C16.8941 24.2967 16.9375 24.34 16.9809 24.34C17.111 24.4268 17.2412 24.4702 17.328 24.557C17.5015 24.6438 17.6751 24.6871 17.8486 24.7305C18.0221 24.7739 18.1957 24.8173 18.3259 24.8173C18.4126 24.8173 18.4994 24.8173 18.5862 24.8173C18.673 24.8173 18.7597 24.7739 18.8465 24.7739C18.9767 24.7305 19.1068 24.6871 19.1936 24.557C19.237 24.5136 19.2804 24.4702 19.3238 24.4268L19.3672 24.3834C19.4973 24.2533 19.5841 24.1231 19.6709 23.993V23.9496C19.6275 23.6892 19.6709 23.6025 19.7143 23.5157V23.4723C19.7576 23.4723 19.7143 23.5157 19.7143 23.5157ZM17.4581 15.1853C17.5449 15.2721 17.6317 15.3589 17.6751 15.4891C17.7184 15.5324 17.7618 15.6192 17.8052 15.6626C17.8486 15.706 17.892 15.7494 17.9354 15.7928C18.0222 15.8795 18.1089 16.0097 18.1957 16.0965C18.2825 16.2266 18.3692 16.3568 18.456 16.487L18.4994 16.5737C18.5862 16.7039 18.6296 16.7907 18.7163 16.9208C18.7597 16.9642 18.8031 17.051 18.8031 17.0944C18.8465 17.1812 18.8899 17.2679 18.9333 17.3113C18.9767 17.3981 19.0201 17.4849 19.1068 17.5716C19.1502 17.615 19.1502 17.6584 19.1936 17.7018L19.237 17.7452L19.2804 17.832L19.3238 17.8754C19.3238 17.9187 19.3672 17.9187 19.3672 17.9621L19.4105 18.0923V18.1357V18.1791C19.4105 18.2225 19.4539 18.2224 19.4539 18.2658L19.5407 18.5262C19.5841 18.6563 19.6275 18.8299 19.7143 19.0034V19.0468C19.7143 19.0902 19.7576 19.177 19.7576 19.2204L19.801 19.3071C19.801 19.3505 19.8444 19.4373 19.8444 19.4807L19.8878 19.6976C19.9312 19.8712 19.9746 20.0447 19.9746 20.2183C19.9746 20.3918 20.018 20.5654 20.0613 20.7389C20.1047 20.8691 20.1047 21.0426 20.1481 21.1728V21.2596C20.1481 21.3029 20.1481 21.3897 20.1915 21.4331V21.5199C20.1915 21.5633 20.1915 21.6066 20.2349 21.6934C20.2349 21.7368 20.2349 21.7368 20.2349 21.7802C20.2349 21.9104 20.2349 21.9971 20.2349 22.0839C20.2349 22.1707 20.2349 22.2141 20.2349 22.3009C20.2349 22.3876 20.1915 22.431 20.1915 22.5178C20.1915 22.5612 20.1481 22.5612 20.1481 22.6046C20.1047 22.6913 20.0613 22.7347 20.018 22.8215L19.9746 22.9083C19.9312 22.995 19.8878 23.0384 19.8444 23.1252C19.801 23.212 19.7576 23.2554 19.7143 23.3421L19.6709 23.3855C19.6275 23.4289 19.6275 23.4723 19.5841 23.4723C19.5407 23.5157 19.4973 23.6025 19.4539 23.6458L19.4105 23.6892L19.237 23.9062C19.1936 23.9496 19.1502 23.993 19.1068 24.0363C19.0634 24.0797 19.0201 24.1231 18.9333 24.1665L18.8899 24.2099C18.8465 24.2099 18.8465 24.2533 18.8031 24.2533C18.8031 24.2533 18.7597 24.2533 18.7597 24.2967C18.7163 24.2967 18.7163 24.2967 18.673 24.2967C18.6296 24.2967 18.5862 24.2967 18.5428 24.2967C18.4994 24.2967 18.456 24.2967 18.3693 24.2967C18.3259 24.2967 18.2391 24.2967 18.1523 24.2967C18.0222 24.2967 17.9354 24.2533 17.8052 24.2099C17.675 24.1665 17.5883 24.1231 17.4581 24.0797C17.3713 24.0363 17.2846 23.993 17.1978 23.9496C17.111 23.9062 17.0242 23.8194 16.9375 23.776C16.8507 23.7326 16.8073 23.6459 16.7205 23.6025C16.547 23.4723 16.33 23.4289 16.1565 23.4723C16.0697 23.5157 15.9396 23.5157 15.8528 23.5591C15.766 23.6025 15.7226 23.6025 15.6358 23.6458C15.5491 23.6892 15.4623 23.6892 15.4189 23.7326C15.3321 23.7326 15.2454 23.776 15.1152 23.776C15.0284 23.776 14.985 23.776 14.8983 23.776C14.6813 23.776 14.5078 23.7326 14.2909 23.7326C14.3342 23.6892 14.3342 23.6458 14.3776 23.6458C14.421 23.6025 14.4644 23.5591 14.5078 23.4723C14.5512 23.3855 14.638 23.2987 14.6813 23.212C14.7681 23.1252 14.8115 22.995 14.8983 22.9083C14.985 22.7781 15.0284 22.6913 15.1152 22.5612C14.9417 22.7347 14.8115 22.9517 14.6379 23.1252C14.5946 23.212 14.5078 23.2554 14.4644 23.3421C14.3776 23.4723 14.2908 23.5591 14.1607 23.6892C14.1607 23.6892 14.1607 23.6892 14.1173 23.7326C13.857 23.6892 13.5967 23.6459 13.3797 23.6025C13.3363 23.6025 13.2496 23.5591 13.2062 23.5157C13.1194 23.4723 13.0326 23.4289 12.9459 23.3855C12.7723 23.2554 12.5987 23.1686 12.4252 23.0384C12.2516 22.9083 12.0781 22.7781 11.9479 22.6046C11.8612 22.5178 11.8178 22.4744 11.731 22.3876C11.6442 22.3008 11.5575 22.2141 11.4707 22.1707C11.4273 22.1273 11.3405 22.0405 11.2971 21.9971C11.167 21.9104 11.0802 21.8236 10.9066 21.7802C10.7331 21.7368 10.5162 21.6934 10.2558 21.7368C10.0823 21.7368 9.95214 21.7802 9.7352 21.8236L9.56164 21.867C9.43148 21.9104 9.34471 21.9104 9.21455 21.9537C9.041 21.9971 8.91084 22.0405 8.73729 22.0405C8.73729 22.0405 8.73728 22.0405 8.6939 22.0405H8.65052V21.9971C8.65052 21.9538 8.65052 21.867 8.65052 21.8236C8.65052 21.7802 8.65052 21.7368 8.65052 21.65C8.65052 21.6067 8.65051 21.5199 8.6939 21.4765C8.6939 21.4331 8.73729 21.4331 8.73729 21.3897C8.73729 21.3897 8.73729 21.3463 8.78068 21.3463C8.78068 21.3029 8.82407 21.3029 8.82407 21.2596C8.86745 21.2162 8.91084 21.1728 8.95422 21.1294C9.041 21.086 9.08438 20.9992 9.17116 20.9558C9.25793 20.9125 9.34471 20.8257 9.38809 20.7823C9.47487 20.7389 9.51826 20.6955 9.60503 20.6521C9.73519 20.5654 9.86535 20.4786 9.99551 20.3918C10.0823 20.305 10.1691 20.2616 10.2558 20.1749C10.2992 20.1315 10.3426 20.0881 10.386 20.0881C10.5162 19.9579 10.6463 19.8712 10.7765 19.741H10.8199C10.95 19.6542 11.0802 19.5241 11.2104 19.4373C11.3405 19.3505 11.4273 19.2204 11.5575 19.1336C11.6008 19.0902 11.6442 19.0468 11.6876 19.0034C11.731 18.96 11.7744 18.9166 11.8178 18.8733C11.9046 18.7865 11.9913 18.6997 12.0781 18.5696C12.295 18.3092 12.512 18.0489 12.7289 17.7886C12.9025 17.5716 13.1628 17.2679 13.3363 16.9642C13.4231 16.8341 13.5099 16.6605 13.5533 16.5303C13.64 16.3568 13.6834 16.2266 13.7702 16.0097C13.8136 15.8362 13.9004 15.706 13.9438 15.5324C13.9871 15.4457 13.9871 15.3589 14.0305 15.2721V15.1853C14.0305 15.142 14.0739 15.0986 14.0739 15.0118C14.2909 15.0986 14.4644 15.142 14.6813 15.1853C14.7247 15.1853 14.7681 15.1853 14.8115 15.2287V15.3589V15.4457C14.8115 15.5324 14.8115 15.6192 14.7681 15.6626V15.7494C14.7681 15.8795 14.7247 16.0097 14.6813 16.1833C14.638 16.4002 14.5946 16.6171 14.5512 16.8775C14.5078 17.0944 14.4644 17.3113 14.3776 17.5283C14.3342 17.615 14.3342 17.7018 14.2909 17.7886C14.2909 17.7886 14.2909 17.7886 14.2909 17.832V17.8754L14.2475 17.9621V18.0055C14.2475 18.0489 14.2475 18.0489 14.2041 18.0923L14.1607 18.2224L14.1173 18.3092C14.0739 18.3526 14.0739 18.4394 14.0305 18.4828L13.9871 18.5696C13.9438 18.6129 13.9437 18.6997 13.9004 18.7431L13.8136 18.9166L13.7268 19.0902C13.7268 19.1336 13.6834 19.177 13.6834 19.2204L13.5967 19.3939C13.5533 19.4373 13.5099 19.5241 13.4665 19.5675C13.4665 19.5675 13.4665 19.6108 13.4231 19.6108C13.4231 19.6542 13.3797 19.6542 13.3797 19.6976L13.3363 19.741C13.2929 19.7844 13.2929 19.8278 13.2496 19.8712C13.2062 19.9146 13.1194 20.0013 13.076 20.0447C13.1628 19.9579 13.2496 19.9146 13.3363 19.8278L13.3797 19.7844C13.3797 19.7844 13.3797 19.7844 13.4231 19.741L13.4665 19.6976C13.5099 19.6542 13.5099 19.6542 13.5533 19.6108L13.5967 19.5241L13.64 19.4373C13.6834 19.3939 13.6834 19.3939 13.7268 19.3505L13.7702 19.3071C13.8136 19.2204 13.857 19.1336 13.9438 19.0468C14.0739 18.8733 14.1607 18.6563 14.2909 18.4394L14.3342 18.396C14.3342 18.3526 14.3776 18.3526 14.3776 18.3092L14.421 18.1791L14.4644 18.1357C14.5078 18.0489 14.5512 17.9621 14.5946 17.832V17.7886C14.5946 17.7452 14.5946 17.7452 14.6379 17.7018V17.6584V17.615C14.6379 17.5716 14.6813 17.5283 14.6813 17.4849V17.4415C14.7247 17.3547 14.7247 17.2679 14.7681 17.1812C14.8115 16.9642 14.8549 16.7473 14.8983 16.487C14.9417 16.3568 14.9417 16.27 14.9417 16.1399V16.0965C14.9417 16.0531 14.9417 16.0097 14.9417 15.9663V15.8795V15.7494C14.9417 15.706 14.9417 15.6626 14.9417 15.6192V15.5758C14.9417 15.5325 14.9417 15.4891 14.9417 15.4457V15.3155V15.1853V15.142C14.9417 15.142 14.9417 15.142 14.985 15.142C15.1152 15.142 15.2454 15.1853 15.4189 15.1853V15.2287V15.2721V15.3155C15.4189 15.3589 15.4189 15.4457 15.4623 15.4891C15.4623 15.5324 15.5057 15.6192 15.5057 15.6626C15.5491 15.9229 15.6359 16.0965 15.6792 16.27C15.6792 16.0531 15.6792 15.8362 15.6792 15.6192C15.6792 15.5324 15.6792 15.4891 15.6792 15.4023C15.6792 15.3155 15.6792 15.2721 15.6792 15.1853V15.142C15.8094 15.142 15.9396 15.142 16.0697 15.142C16.2433 15.142 16.3734 15.142 16.547 15.142C16.547 15.142 16.547 15.1853 16.5904 15.1853C16.6338 15.2721 16.6338 15.3589 16.6772 15.4457L16.7205 15.5324C16.7639 15.6192 16.7639 15.706 16.8073 15.7928C16.8073 15.8362 16.8507 15.8795 16.8507 15.9229L16.8941 16.0531C16.8941 16.0965 16.8941 16.0965 16.9375 16.1399V16.1833V16.2266C16.9375 16.27 16.9809 16.3134 16.9809 16.3134C16.9809 16.3568 16.9809 16.3568 16.9809 16.4002C16.9809 16.4436 16.9809 16.487 16.9809 16.487V16.5737V16.6171C16.9809 16.6605 17.0242 16.7039 17.0242 16.7473V16.8341C17.0242 16.9208 17.0676 16.9642 17.0676 17.051V17.0944C17.0676 17.1378 17.111 17.2245 17.111 17.2679L17.1544 17.3547C17.1978 17.4849 17.2412 17.615 17.2846 17.7886L17.328 17.8754C17.2846 17.615 17.2412 17.3547 17.1978 17.0944C17.1978 17.0076 17.1544 16.8774 17.1544 16.7907C17.1544 16.7473 17.1544 16.7039 17.1544 16.6605C17.1544 16.5737 17.1544 16.487 17.111 16.4436C17.111 16.4002 17.111 16.3134 17.0676 16.27C17.0676 16.2266 17.0242 16.2266 17.0242 16.1833C17.0242 16.1399 16.9809 16.0965 16.9809 16.0531L16.9375 15.8795L16.8941 15.706C16.8507 15.6192 16.8507 15.5758 16.8073 15.4891V15.4457C16.8073 15.4023 16.7639 15.3155 16.7639 15.2721V15.2287C16.8073 15.2287 16.8073 15.2287 16.8507 15.2287C17.0676 15.2287 17.2412 15.1854 17.4147 15.142L17.4581 15.1853ZM28.1314 18.4828L28.088 18.5262C28.0446 18.5695 28.0012 18.5696 27.9578 18.6129C27.9144 18.6129 27.871 18.6563 27.8277 18.6563C27.7409 18.6997 27.6541 18.6997 27.5673 18.7431C27.4372 18.7865 27.3504 18.7865 27.2202 18.7865C27.0901 18.7865 26.9165 18.7865 26.7864 18.7865C26.6562 18.7865 26.526 18.7431 26.3959 18.7431C26.3091 18.7431 26.2223 18.6997 26.0922 18.7431C25.962 18.7431 25.8318 18.7865 25.7017 18.8733C25.5281 18.96 25.3546 19.0902 25.2244 19.2204C25.181 19.2637 25.1377 19.3071 25.0509 19.3505C24.9641 19.3939 24.8773 19.4807 24.8339 19.5241C24.7472 19.5674 24.6604 19.6108 24.5736 19.6542C24.5302 19.6542 24.5302 19.6542 24.4868 19.6976H24.4435C24.4435 19.6976 24.4435 19.6976 24.4001 19.6976C24.3567 19.6976 24.3567 19.6976 24.3133 19.6976C24.1397 19.6542 23.9662 19.6108 23.7927 19.5675C23.7059 19.5241 23.6191 19.5241 23.5323 19.4807C23.4456 19.4807 23.3588 19.4373 23.272 19.4373C23.1852 19.3939 23.0985 19.3939 22.9683 19.3505C22.8381 19.3071 22.7514 19.2637 22.6212 19.177C22.491 19.0902 22.4043 19.0468 22.3175 18.96C22.2307 18.9166 22.1873 18.8299 22.1006 18.7431C21.6233 18.2658 21.1894 17.7886 20.7122 17.3113L20.6254 17.2245C20.3651 16.9642 20.1481 16.7039 19.8878 16.487L19.8444 16.4436C19.7143 16.3134 19.5841 16.2266 19.4973 16.0965C19.3238 15.9663 19.1936 15.8362 19.0201 15.706C18.8465 15.5758 18.673 15.4457 18.456 15.3155C18.3692 15.2721 18.2825 15.2287 18.1523 15.142L18.1089 15.0986V15.0552V15.0118H18.1523C18.1523 15.0552 18.1523 15.0986 18.1957 15.0986C18.2391 15.0986 18.2825 15.142 18.3259 15.0986C18.3259 15.0986 18.3259 15.0986 18.3693 15.0986C18.4126 15.0986 18.4126 15.0986 18.456 15.0986C18.4994 15.0986 18.4994 15.0986 18.5428 15.0986C18.6296 15.0986 18.7597 15.142 18.8899 15.1853C18.9333 15.1853 18.9767 15.2287 19.0201 15.2287C19.0634 15.2287 19.1068 15.2721 19.1502 15.3155C19.237 15.3589 19.2804 15.4023 19.3672 15.4457C19.5407 15.5758 19.6709 15.7494 19.8444 15.8795C19.9312 15.9663 20.018 16.0531 20.1047 16.1399C20.3217 16.3568 20.5386 16.5303 20.7989 16.7473C21.0159 16.9208 21.2328 17.0944 21.4931 17.2679L21.5365 17.3113C21.5799 17.3547 21.6233 17.3547 21.6667 17.3981L21.7101 17.4415C21.7534 17.4849 21.7968 17.4849 21.8402 17.5283L21.8836 17.5716C21.927 17.615 21.9704 17.615 22.0138 17.6584C22.0572 17.7018 22.1005 17.7018 22.1439 17.7452L22.1873 17.7886C22.3609 17.8753 22.5344 17.9187 22.708 17.9187C22.8815 17.9187 23.0551 17.8753 23.2286 17.7886C23.3588 17.7452 23.4456 17.6584 23.5323 17.615C23.5757 17.615 23.5757 17.5716 23.6191 17.5716C23.6625 17.5283 23.7493 17.4849 23.7927 17.4415C23.836 17.4415 23.836 17.3981 23.8794 17.3981H23.9228C23.9228 17.3981 23.9662 17.3981 24.0096 17.3981C24.053 17.3981 24.053 17.3981 24.0964 17.3981C24.1397 17.3981 24.1397 17.3981 24.1831 17.3981C24.2265 17.3981 24.2699 17.3981 24.2699 17.4415C24.3133 17.4415 24.3567 17.4849 24.4001 17.4849C24.4435 17.4849 24.4868 17.5283 24.5302 17.5716C24.617 17.615 24.7038 17.7018 24.7906 17.7452L24.8339 17.7886L24.8773 17.832C24.9641 17.9187 25.0943 18.0055 25.181 18.0923C25.2244 18.1357 25.3112 18.1791 25.3546 18.2224C25.398 18.2658 25.4848 18.3092 25.5281 18.3526C25.5715 18.3526 25.6149 18.396 25.6583 18.396L25.7017 18.4394H25.7451C25.7885 18.4828 25.8752 18.4828 25.962 18.5262C26.0922 18.5695 26.2223 18.6129 26.3959 18.6997C26.526 18.7431 26.6562 18.7865 26.8298 18.8299C27.1335 18.9167 27.3938 18.9166 27.6541 18.8733C27.7843 18.8733 27.871 18.8299 27.9578 18.8299C28.0012 18.5262 28.0446 18.5262 28.1314 18.4828ZM21.3196 12.4953C21.4931 12.4953 21.6233 12.4953 21.7968 12.452C22.1005 12.452 22.4043 12.3652 22.6646 12.235C22.8381 12.1482 23.0117 12.0615 23.1852 11.9313C23.3588 11.8011 23.5323 11.7144 23.7059 11.5842C23.7493 11.5408 23.836 11.4974 23.8794 11.4541C23.9662 11.3673 24.053 11.3239 24.1831 11.2371C24.2265 11.1937 24.3133 11.1503 24.3567 11.1069C24.5736 10.9768 24.7906 10.8032 25.0075 10.6731C25.0943 10.6297 25.181 10.5863 25.3112 10.5429C25.398 10.4995 25.4848 10.4995 25.5281 10.4561C25.6149 10.4128 25.7451 10.4128 25.8318 10.3694C25.962 10.326 26.1356 10.2826 26.2657 10.1958L26.3525 10.1524C26.526 10.1091 26.6562 10.0223 26.8298 9.97888C27.0467 9.8921 27.2202 9.84872 27.4372 9.76194C27.5239 9.71856 27.6107 9.71856 27.6975 9.67518C27.7409 9.67518 27.7843 9.67517 27.871 9.63179C27.9144 9.63179 27.9578 9.63179 28.0012 9.63179C28.0446 9.63179 28.088 9.63179 28.1314 9.63179C28.1748 9.63179 28.1747 9.63179 28.2181 9.63179H28.2615C28.2615 9.63179 28.3049 9.63179 28.3049 9.67518L28.3483 9.71857L28.3917 9.76194L28.4351 9.80533C28.4785 9.84872 28.4785 9.89211 28.5219 9.9355C28.5219 9.97889 28.5652 10.0223 28.5652 10.0657C28.6086 10.109 28.6086 10.1958 28.6086 10.2392C28.652 10.326 28.652 10.4561 28.652 10.5863C28.652 10.7165 28.652 10.8032 28.652 10.9334C28.652 11.2805 28.6086 11.6276 28.5652 11.9747C28.5219 12.1916 28.5219 12.3652 28.5219 12.5821C28.5219 12.6689 28.5219 12.7991 28.5652 12.8858C28.5652 12.9726 28.6086 13.1028 28.652 13.1895C28.6954 13.3197 28.7388 13.4933 28.8256 13.6234L28.8689 13.7536C28.9123 13.9271 28.9991 14.1007 29.0425 14.3176C29.0859 14.4478 29.1293 14.5345 29.1293 14.6647C29.1727 14.7515 29.1727 14.8383 29.2161 14.8816V14.925C29.2594 15.0986 29.3028 15.2721 29.3462 15.4457C29.3462 15.4891 29.3896 15.5758 29.3896 15.6192C29.3896 15.7494 29.3896 15.8795 29.3896 15.9663V16.0097V16.0531C29.3896 16.0965 29.3462 16.1399 29.3462 16.1833C29.3462 16.2266 29.3462 16.2266 29.3028 16.27V16.3134C29.3028 16.3568 29.2594 16.3568 29.2594 16.4002V16.4436C29.2594 16.487 29.2161 16.5304 29.2161 16.5737C29.1293 16.6605 29.0859 16.7473 29.0425 16.8341C29.0425 16.8775 28.9991 16.9208 28.9991 16.9208V16.9642C28.9991 17.0076 28.9557 17.051 28.9557 17.0944C28.9123 17.1378 28.9123 17.1812 28.8689 17.2679C28.8256 17.3113 28.8256 17.3547 28.8256 17.3547C28.8256 17.3981 28.7822 17.3981 28.7388 17.4415C28.652 17.5716 28.5218 17.6584 28.4351 17.7886C28.4351 17.7886 28.3917 17.7886 28.3917 17.832C28.3483 17.8754 28.3049 17.9187 28.2615 17.9621C28.1748 18.0055 28.1314 18.0489 28.0446 18.0923C28.0012 18.0923 28.0012 18.1357 27.9578 18.1357C27.9144 18.1357 27.871 18.1791 27.8277 18.1791C27.7843 18.1791 27.6975 18.1791 27.6541 18.2224C27.5673 18.2224 27.5239 18.2224 27.4372 18.2224C27.3938 18.2224 27.3938 18.2224 27.3504 18.2224C27.3504 18.2224 27.3504 18.2224 27.307 18.2224C27.2636 18.2224 27.1768 18.2224 27.1335 18.2224H27.0901C26.9599 18.1791 26.8297 18.1791 26.743 18.1357H26.6996C26.6562 18.1357 26.6128 18.0923 26.5694 18.0923C26.4827 18.0489 26.4393 18.0489 26.3525 18.0055C26.2223 17.9621 26.1356 17.9187 26.0054 17.8754H25.962C25.9186 17.832 25.8752 17.832 25.7885 17.7886H25.7451C25.7017 17.7886 25.7017 17.7886 25.6583 17.7452L25.6149 17.7018L25.5715 17.6584L25.5281 17.615C25.4848 17.5716 25.398 17.5283 25.3546 17.4849C25.2678 17.4415 25.2244 17.3981 25.1377 17.3547C25.0943 17.3113 25.0509 17.2679 25.0075 17.2245C24.9641 17.1812 24.8773 17.1378 24.8339 17.0944C24.7038 17.0076 24.5736 16.8775 24.4001 16.8341C24.1831 16.7473 24.0096 16.7039 23.836 16.7039C23.6625 16.7039 23.5323 16.7907 23.3588 16.8775C23.3154 16.9208 23.2286 16.9642 23.1852 17.0076C23.0985 17.051 23.0551 17.0944 22.9683 17.0944C22.9249 17.0944 22.8815 17.1378 22.8381 17.1378C22.7947 17.1378 22.7514 17.1378 22.7514 17.1378C22.708 17.1378 22.708 17.1378 22.6646 17.1378C22.6212 17.1378 22.6212 17.1378 22.5778 17.1378C22.5344 17.1378 22.491 17.1378 22.4476 17.0944C22.4043 17.0944 22.3175 17.051 22.2741 17.0076L22.1873 16.9642L22.1006 16.9208C22.0572 16.9208 22.0138 16.8775 22.0138 16.8775H21.9704C21.8836 16.8341 21.7968 16.7907 21.6667 16.7039L21.4497 16.5737C21.2762 16.4436 21.0593 16.3134 20.8857 16.1833C20.6688 16.0097 20.4952 15.8795 20.3217 15.706C20.1915 15.6192 20.1047 15.4891 19.9746 15.4023L19.8878 15.3155C19.801 15.2287 19.7576 15.1854 19.6709 15.0986H19.6275C19.5407 15.0118 19.4105 14.925 19.3238 14.8383C19.237 14.7515 19.0634 14.7081 18.9333 14.6213C18.8899 14.6213 18.8465 14.5779 18.7597 14.5779H18.7163C18.673 14.5779 18.673 14.5779 18.6296 14.5779C18.5862 14.5779 18.5428 14.5779 18.456 14.5779C18.4126 14.5779 18.3692 14.5779 18.3259 14.5779C18.2825 14.5779 18.2391 14.5779 18.1957 14.5779C18.1957 14.5779 18.2391 14.5779 18.2391 14.5345C18.3259 14.4911 18.3692 14.4478 18.456 14.4044C18.5428 14.361 18.6296 14.3176 18.673 14.2742L18.7163 14.3176C18.7597 14.3176 18.7597 14.361 18.8031 14.361L18.9333 14.4044L19.0634 14.4478C19.1502 14.4912 19.237 14.5345 19.2804 14.5779L19.3672 14.6213L19.4105 14.6647C19.4539 14.6647 19.4539 14.6647 19.4973 14.7081L19.6275 14.7515C19.7143 14.7949 19.7576 14.8383 19.8444 14.8383C19.9312 14.8816 20.0614 14.925 20.1481 14.9684C20.3651 15.0118 20.5386 15.0552 20.7555 15.0986H20.8423C20.8857 15.0986 20.9291 15.0986 20.9725 15.142C21.0159 15.142 21.1026 15.1853 21.146 15.1853C21.2762 15.2287 21.4063 15.2287 21.4931 15.2287C21.4931 15.2287 21.4931 15.2287 21.4497 15.2287C21.363 15.1853 21.2762 15.142 21.1894 15.0986L21.146 15.0552C21.1026 15.0552 21.0593 15.0118 21.0159 15.0118C20.9291 14.9684 20.8857 14.925 20.7989 14.925C20.6688 14.8816 20.5386 14.8382 20.3651 14.7949C20.2349 14.7515 20.1047 14.7081 19.9746 14.6647H19.9312C19.8878 14.6647 19.8444 14.6213 19.801 14.6213H19.7576C19.7142 14.6213 19.6709 14.5779 19.6275 14.5779C19.5841 14.5779 19.5841 14.5779 19.5407 14.5345H19.4973C19.3672 14.4911 19.2804 14.4478 19.1068 14.361L19.0201 14.3176C18.9333 14.2742 18.8899 14.2308 18.8031 14.2308C18.8031 14.2308 18.8465 14.2308 18.8465 14.1874C18.9333 14.1441 19.0201 14.0573 19.1068 13.9705L19.1936 14.0139C19.2804 14.0573 19.3672 14.1007 19.4105 14.1007C19.4539 14.1007 19.4973 14.1441 19.4973 14.1441H19.5407H19.5841C19.6275 14.1441 19.6709 14.1874 19.6709 14.1874L19.7576 14.2308L19.8444 14.2742C19.8878 14.2742 19.9312 14.3176 19.9312 14.3176H19.9746H20.018H20.0613H20.1047C20.1481 14.3176 20.1915 14.3176 20.2349 14.361C20.3651 14.4044 20.4952 14.4044 20.582 14.4478C20.7989 14.4912 21.0159 14.5345 21.2328 14.5779C21.3196 14.6213 21.4497 14.6213 21.5365 14.6647C21.6667 14.7081 21.7968 14.7081 21.927 14.7515H21.9704C22.0138 14.7515 22.0572 14.7949 22.1006 14.7949H22.1439H22.1873H22.2307H22.2741C22.3175 14.7949 22.3609 14.7949 22.4476 14.7949C22.491 14.7949 22.5344 14.7949 22.6212 14.7949H22.6646H22.708H22.7514H22.7947C22.8815 14.7949 22.9249 14.7949 23.0117 14.7949H23.0985C23.1852 14.7949 23.272 14.7949 23.3154 14.7949H23.4022H23.4455C23.4889 14.7949 23.5323 14.7949 23.5757 14.7949C23.7059 14.7949 23.836 14.7949 23.9228 14.7515C23.9662 14.7515 24.053 14.7515 24.0964 14.7081C24.1397 14.7081 24.1831 14.7081 24.2265 14.6647C24.3133 14.6213 24.4435 14.6213 24.5302 14.5779C24.6604 14.5345 24.7906 14.4912 24.8773 14.4478C24.8339 14.4478 24.7905 14.4912 24.7472 14.4912C24.7038 14.4912 24.6604 14.4911 24.617 14.5345C24.5736 14.5345 24.5302 14.5345 24.4868 14.5345H24.4435H24.4001H24.3567C24.2265 14.5345 24.1397 14.5345 24.0096 14.5779C23.9662 14.5779 23.9228 14.5779 23.8794 14.5779H23.836C23.7927 14.5779 23.7493 14.5779 23.7059 14.5779H23.6625C23.6191 14.5779 23.6191 14.5779 23.5757 14.5779H23.4889C23.3154 14.5779 23.1418 14.5779 22.9683 14.5779C22.8381 14.5779 22.708 14.5779 22.5778 14.5779H22.5344C22.491 14.5779 22.4476 14.5779 22.4043 14.5779C22.3609 14.5779 22.3609 14.5779 22.3175 14.5779H22.2307H22.1873H22.1439C22.1005 14.5779 22.1005 14.5779 22.0572 14.5779H22.0138C21.927 14.5779 21.8836 14.5345 21.7968 14.5345L21.6233 14.4912C21.5365 14.4478 21.4063 14.4478 21.3196 14.4044C21.0593 14.361 20.8857 14.3176 20.6688 14.2742H20.6254C20.5386 14.2742 20.4518 14.2308 20.3217 14.2308C20.2349 14.2308 20.1047 14.1874 20.018 14.1441H19.9312L19.8444 14.1007C19.801 14.1007 19.7576 14.0573 19.7576 14.0573H19.7143C19.6275 14.0139 19.5841 14.0139 19.4973 13.9705L19.4105 13.9271L19.3238 13.8837C19.2804 13.8403 19.1936 13.8403 19.1502 13.797H19.1068L19.1502 13.7536C19.3238 13.6234 19.4539 13.5366 19.5841 13.4065H19.6275H19.6709H19.7576H19.801C19.8444 13.4065 19.9312 13.4499 19.9746 13.4499H20.0613H20.1481H20.1915H20.2349C20.2783 13.4499 20.3217 13.4499 20.3651 13.4932C20.4085 13.4932 20.4952 13.4932 20.5386 13.4932H20.6254C20.6688 13.4932 20.7122 13.4932 20.7555 13.4932H20.7989H20.8857C20.9725 13.4932 21.0159 13.4932 21.1026 13.4932C21.2328 13.4932 21.363 13.4499 21.4931 13.4065H21.5365H21.6233H21.7101C21.7534 13.4065 21.7968 13.4065 21.8402 13.3631H21.8836C22.0138 13.3631 22.1005 13.3197 22.1873 13.3197C22.2741 13.3197 22.4043 13.3197 22.491 13.2763C22.6212 13.2763 22.708 13.2763 22.8381 13.2329C22.9249 13.2329 23.0551 13.1895 23.1852 13.1895C23.2286 13.1895 23.2286 13.1895 23.272 13.1895H23.3154C23.3588 13.1462 23.4455 13.1461 23.4889 13.1028C23.6191 13.0594 23.7059 13.016 23.7927 12.9292C23.836 12.8858 23.8794 12.8858 23.9228 12.8424C23.9662 12.799 24.0096 12.7557 24.053 12.7123C24.0096 12.7123 23.9662 12.7557 23.9228 12.7557C23.8794 12.7557 23.8794 12.7557 23.836 12.799C23.7927 12.799 23.7493 12.8424 23.6625 12.8424L23.5757 12.8858C23.5323 12.8858 23.4889 12.9292 23.4455 12.9292L23.3588 12.9726C23.3154 12.9726 23.272 13.016 23.2286 13.016C23.1852 13.016 23.0984 13.0594 23.0551 13.0594C23.0117 13.0594 23.0117 13.0594 22.9683 13.0594H22.9249H22.8815H22.8381H22.7514H22.708C22.6646 13.0594 22.6212 13.0594 22.5778 13.0594C22.491 13.0594 22.4476 13.0594 22.3609 13.0594C22.1439 13.0594 21.927 13.1028 21.7101 13.1462C21.6667 13.1462 21.5799 13.1462 21.5365 13.1895H21.4497H21.363H21.3196C21.1894 13.2329 21.0159 13.2763 20.8857 13.2763C20.7989 13.2763 20.7122 13.2763 20.6688 13.2763H20.582H20.4952H20.3217H20.2349C20.1915 13.2763 20.1481 13.2763 20.1047 13.2763C20.0614 13.2763 20.018 13.2763 20.018 13.2763H19.9746L19.8444 13.2329L19.6709 13.1895H19.5841C19.5407 13.1895 19.4973 13.1895 19.4539 13.1462L19.4973 13.1028C19.5407 13.0594 19.5407 13.0594 19.5841 13.016C19.7142 12.8858 19.801 12.7557 19.8878 12.6255C19.9746 12.4953 20.0614 12.3218 20.1047 12.1482C20.1047 12.0615 20.1481 11.9747 20.1481 11.8879V11.8445H20.1915C20.2349 11.8445 20.2349 11.8445 20.2783 11.8879C20.2783 11.8879 20.3217 11.8879 20.3217 11.9313C20.3651 11.9313 20.4084 11.9747 20.4518 11.9747C20.4952 11.9747 20.5386 12.0181 20.6254 12.0181C21.1894 12.4953 21.2762 12.4953 21.3196 12.4953ZM19.6709 10.4561C19.7576 10.5863 19.8444 10.7165 19.9312 10.8466C19.9746 10.9768 20.0614 11.107 20.1047 11.2371C20.1481 11.3239 20.1481 11.4107 20.1915 11.4974C20.1915 11.5842 20.2349 11.671 20.2349 11.8011C20.2349 11.8879 20.2349 11.9313 20.2349 12.0181C20.2349 12.0615 20.2349 12.1049 20.2349 12.1049C20.2349 12.1916 20.1915 12.235 20.1915 12.3652V12.4086L20.1481 12.4953C20.1047 12.5387 20.1047 12.6255 20.0613 12.6689C20.018 12.7123 19.9746 12.799 19.9312 12.8424C19.8878 12.9292 19.801 12.9726 19.7143 13.0594C19.5841 13.1895 19.4105 13.3197 19.2804 13.4065C19.0201 13.58 18.7163 13.7536 18.456 13.9271C18.2391 14.0573 18.0222 14.1441 17.7618 14.2308C17.5883 14.2742 17.4581 14.3176 17.328 14.361C17.1978 14.4044 17.0676 14.4044 16.9375 14.4478C16.7639 14.4478 16.547 14.4912 16.2867 14.4912C15.9396 14.4912 15.5925 14.4478 15.2888 14.4044C15.0718 14.361 14.8983 14.3176 14.7247 14.2742C14.5946 14.2308 14.421 14.1874 14.2909 14.1007C14.1607 14.0139 14.0305 13.9705 13.9004 13.8837C13.7268 13.797 13.5967 13.7102 13.4665 13.6234C13.3363 13.4933 13.2062 13.4065 13.076 13.2763C12.9892 13.1461 12.9025 13.0594 12.7723 12.9292C12.7289 12.8424 12.6855 12.7557 12.5987 12.7123C12.5554 12.6255 12.512 12.5821 12.512 12.4953C12.512 12.452 12.4686 12.4086 12.4686 12.3652C12.4686 12.3218 12.4686 12.3218 12.4686 12.2784C12.4686 12.235 12.4686 12.235 12.4686 12.1916C12.4686 12.1482 12.4686 12.1049 12.4686 12.1049C12.512 12.1482 12.5554 12.1482 12.5987 12.1916C12.6421 12.1916 12.6855 12.1916 12.7289 12.1916C12.7723 12.1916 12.7723 12.1916 12.8157 12.1916H12.8591C12.8591 12.1916 12.8591 12.1916 12.9025 12.1916C12.9025 12.1916 12.9025 12.1916 12.8591 12.1916C12.8157 12.1482 12.7723 12.1482 12.7289 12.1049C12.6855 12.0615 12.6855 12.0615 12.6421 12.0181L12.5987 11.9747C12.5987 11.9747 12.5987 11.9747 12.5987 11.9313C12.5987 11.8879 12.5988 11.8879 12.5554 11.8445L12.5987 11.8011C12.6421 11.7578 12.6855 11.671 12.7289 11.6276C12.7289 11.6276 12.7289 11.5842 12.7723 11.5842C12.8157 11.5842 12.8157 11.5408 12.8591 11.5408C12.9025 11.4974 12.9459 11.4974 12.9459 11.4541H12.9892C13.0326 11.4541 13.0326 11.4107 13.0326 11.4107C13.1194 11.3239 13.1194 11.2371 13.076 11.1503C13.076 11.107 13.0326 11.1069 12.9892 11.0636C12.9892 11.0636 12.9892 11.0636 13.0326 11.0202C13.1194 10.89 13.2496 10.8032 13.3363 10.6731C13.4665 10.5863 13.5533 10.4561 13.6834 10.3694C13.8136 10.2826 13.9871 10.1524 14.1607 10.0657C14.421 9.9355 14.7247 9.80534 14.985 9.71857C15.0284 9.71857 15.0718 9.67518 15.1152 9.67518C15.2888 9.5884 15.5057 9.54502 15.7226 9.50163C15.8962 9.45824 16.1131 9.41485 16.3734 9.41485H16.4602C16.5036 9.41485 16.5036 9.41485 16.547 9.41485C16.6771 9.41485 16.8073 9.41485 16.9809 9.41485C17.1544 9.41485 17.2846 9.41485 17.5015 9.45824C17.7184 9.50163 17.892 9.54501 18.1089 9.5884C18.2391 9.63178 18.4126 9.67517 18.5428 9.76194C18.673 9.80533 18.8465 9.8921 18.9767 9.97888H19.0201L19.0634 10.0223C19.1502 10.0657 19.237 10.1524 19.3238 10.1958C19.4105 10.2826 19.4973 10.326 19.5407 10.4128C19.5407 10.2826 19.6275 10.3694 19.6709 10.4561ZM20.2783 10.5863C20.2349 10.5429 20.2349 10.5429 20.1915 10.4995C20.1047 10.3694 20.018 10.2392 19.9312 10.109C19.9312 10.109 19.9312 10.0657 19.9746 10.0657C20.018 10.0223 20.0614 9.9355 20.1047 9.89211L20.1481 9.84872C20.1915 9.80534 20.2783 9.76195 20.3217 9.67518C20.3651 9.63179 20.4084 9.63178 20.4518 9.5884L20.4952 9.54501C20.5386 9.50162 20.582 9.45824 20.6254 9.41485C20.6688 9.37146 20.7122 9.32807 20.7555 9.32807L20.7989 9.28469L20.8423 9.2413C20.8857 9.19792 20.9291 9.15453 20.9725 9.06776C20.9725 9.06776 20.9725 9.02437 21.0159 9.02437C21.0593 8.98098 21.0593 8.98098 21.1026 8.93759C21.146 8.8942 21.146 8.85082 21.1894 8.80743C21.2328 8.72066 21.2762 8.67727 21.3196 8.5905L21.4064 8.50372C21.3196 8.5471 21.2762 8.63387 21.2328 8.67726C21.1894 8.72065 21.1894 8.72065 21.146 8.76404C21.1026 8.80743 21.1026 8.80743 21.0592 8.85082L21.0159 8.8942V8.93759L20.9725 8.98098L20.9291 9.02437C20.8857 9.06775 20.7989 9.15453 20.7555 9.19791C20.7122 9.2413 20.6688 9.28468 20.6254 9.32807C20.5386 9.41484 20.4518 9.50162 20.3217 9.63179L20.2349 9.71857L20.1481 9.80533C20.1047 9.84872 20.0613 9.93549 19.9746 9.97888V10.0223C19.9312 10.0657 19.9312 10.0657 19.8878 10.109C19.801 10.0223 19.7142 9.89211 19.5841 9.80533C19.4539 9.67517 19.3238 9.5884 19.1068 9.50163C19.1068 9.45824 19.1502 9.45824 19.1502 9.45824L19.1936 9.41485C19.1936 9.41485 19.1936 9.41485 19.237 9.37146C19.237 9.32807 19.2804 9.32808 19.2804 9.28469C19.3238 9.24131 19.3672 9.15452 19.4105 9.11113C19.4105 9.06775 19.4539 9.06775 19.4539 9.02437L19.4973 8.98098C19.5407 8.93759 19.5841 8.85082 19.5841 8.80743L19.6275 8.72065C19.6709 8.63388 19.7142 8.5471 19.7576 8.46033C19.8878 8.2 20.018 7.98308 20.1047 7.72275C20.1915 7.50582 20.2783 7.24549 20.3651 6.98516C20.4085 6.855 20.4084 6.72485 20.4518 6.63807C20.4518 6.5513 20.4952 6.42113 20.4952 6.33436V6.24759C20.4518 6.33436 20.4085 6.46452 20.3651 6.55129C20.3217 6.63807 20.2783 6.72484 20.2349 6.81162C20.1915 6.89839 20.1481 6.98517 20.1047 7.07194C20.0614 7.11533 20.0613 7.15871 20.018 7.2021C19.9312 7.33226 19.801 7.54921 19.7143 7.76614C19.6709 7.85292 19.6275 7.8963 19.6275 7.98308L19.5841 8.06984L19.5407 8.11323L19.4539 8.33017C19.4105 8.41694 19.3671 8.54711 19.3238 8.63389C19.2804 8.67727 19.2804 8.76404 19.237 8.80743L19.1936 8.8942V8.93759C19.1936 8.98098 19.1502 9.02437 19.1502 9.06776C19.1502 9.11115 19.1068 9.15453 19.1068 9.19791L19.0634 9.2413C19.0634 9.28469 19.0201 9.28468 19.0201 9.32807C18.9767 9.37146 18.9767 9.41485 18.9333 9.45824C18.9333 9.50163 18.8899 9.50162 18.8899 9.54501C18.8465 9.54501 18.8031 9.50163 18.7597 9.50163C18.7163 9.45824 18.673 9.45824 18.6296 9.41485C18.3693 9.28469 18.0222 9.19791 17.6751 9.11113H17.6317L17.6751 9.06776V9.02437C17.6751 9.02437 17.6751 9.02437 17.6317 9.02437V8.98098C17.6751 8.8942 17.7184 8.80743 17.7618 8.72065C17.7618 8.67726 17.8052 8.63389 17.8052 8.63389C17.8486 8.5905 17.8486 8.5471 17.892 8.50372C17.9788 8.33017 18.0655 8.15662 18.1523 7.93969C18.1523 7.8963 18.1957 7.85291 18.1957 7.85291V7.80952V7.76614C18.1957 7.72275 18.2391 7.72275 18.2391 7.67936L18.2825 7.59258C18.2825 7.54919 18.3259 7.46242 18.3259 7.41904L18.3693 7.33227L18.4126 7.24549C18.4126 7.2021 18.4126 7.2021 18.456 7.15871V7.11533V7.07194C18.456 7.02856 18.456 7.02855 18.4994 6.98516C18.4994 6.94178 18.5428 6.85501 18.5428 6.81162C18.5862 6.72484 18.5862 6.59468 18.6296 6.5079C18.6296 6.42113 18.673 6.29097 18.673 6.2042L18.7163 6.07403C18.7597 5.90048 18.7597 5.68355 18.8031 5.46661C18.8465 5.20629 18.8465 4.98935 18.8465 4.8158C18.8465 4.68564 18.8465 4.55548 18.8465 4.42532C18.8465 4.33855 18.8465 4.25177 18.8465 4.20839C18.8465 4.165 18.8465 4.12162 18.8465 4.07823V4.12161C18.8465 4.20838 18.8031 4.25177 18.8031 4.33854C18.8031 4.42532 18.7597 4.4687 18.7597 4.55548L18.7163 4.68565C18.7163 4.72903 18.673 4.77242 18.673 4.8158C18.673 4.85919 18.6296 4.90259 18.6296 4.94597C18.5862 5.11952 18.5428 5.24967 18.4994 5.42322C18.456 5.55338 18.456 5.68355 18.4126 5.85709C18.3693 6.03064 18.3692 6.24759 18.3259 6.42114V6.46453V6.5079V6.59468C18.3259 6.63807 18.3259 6.68145 18.2825 6.76823V6.81162C18.2825 6.85501 18.2825 6.89839 18.2391 6.94177V6.98516C18.2391 7.02855 18.2391 7.07195 18.1957 7.11533V7.2021C18.1957 7.24549 18.1523 7.28888 18.1523 7.33227C18.1523 7.37566 18.1523 7.37565 18.1089 7.41904C18.0655 7.5492 18.0221 7.63598 18.0221 7.76614C17.9354 8.02646 17.892 8.20001 17.8052 8.41695L17.7618 8.50372C17.7184 8.59049 17.7184 8.67727 17.6751 8.76404L17.6317 8.85082L17.5883 8.93759V8.98098C17.5883 9.02437 17.5449 9.06775 17.5449 9.11113C17.4147 9.06775 17.2846 9.06775 17.1544 9.02437C17.0242 9.02437 16.9375 9.02437 16.8073 9.02437C16.7205 9.02437 16.6771 9.02437 16.5904 9.02437C16.6338 8.98098 16.6338 8.93759 16.6772 8.8942C16.7205 8.85081 16.7205 8.76404 16.7639 8.72065V8.67726C16.7639 8.63387 16.7639 8.63388 16.8073 8.5905C16.8507 8.50372 16.8507 8.46033 16.8507 8.37356C16.8941 8.2434 16.9375 8.06985 16.9375 7.93969C16.9375 7.76614 16.9809 7.63598 16.9809 7.50582C16.9809 7.37565 16.9809 7.2455 16.9809 7.11533V7.07194C16.9809 6.94178 16.9809 6.81161 16.9809 6.72484C16.9809 6.59468 17.0242 6.50791 17.0242 6.37775C17.0242 6.37775 17.0242 6.37774 17.0242 6.33436V6.29097C17.0242 6.20419 17.0676 6.07404 17.0676 5.98726C17.0676 5.8571 17.0676 5.77032 17.111 5.64016C17.111 5.55338 17.111 5.51 17.111 5.42322C17.111 5.24967 17.111 5.11952 17.1544 4.94597C17.1544 4.90259 17.1544 4.85919 17.1978 4.8158C17.1978 4.77242 17.2412 4.68565 17.2412 4.64226C17.2846 4.59887 17.2846 4.5121 17.328 4.46871C17.3713 4.42532 17.4147 4.33855 17.4581 4.29517V4.25178V4.20839C17.4581 4.20839 17.4581 4.20838 17.4581 4.165C17.6751 3.90467 17.8052 3.68773 17.9354 3.4708C17.9788 3.38402 18.0655 3.25386 18.1089 3.08032C18.1523 2.95015 18.1957 2.82 18.2391 2.68983V2.64644V2.60305C18.3692 2.34273 18.456 2.08242 18.5862 1.90887C18.673 1.77871 18.7597 1.60516 18.8465 1.475C18.8899 1.43161 18.8899 1.4316 18.9333 1.38822L18.9767 1.34483L19.0201 1.30144C19.0634 1.30144 19.1068 1.25806 19.1068 1.25806C19.1502 1.25806 19.1936 1.25806 19.1936 1.21467C19.3238 1.17128 19.4105 1.17128 19.5407 1.17128C19.6709 1.17128 19.801 1.17128 19.8878 1.12789C19.9746 1.12789 20.018 1.12789 20.1047 1.12789C20.1481 1.12789 20.1915 1.12789 20.2349 1.17128C20.2783 1.17128 20.3651 1.21467 20.4084 1.21467C20.4518 1.21467 20.4952 1.25806 20.5386 1.25806C20.6688 1.30145 20.7555 1.34483 20.8423 1.43161C20.9725 1.47499 21.0593 1.56177 21.1894 1.64854C21.2328 1.69193 21.3196 1.73531 21.363 1.7787C21.4064 1.82209 21.4497 1.86548 21.4931 1.86548C21.5799 1.95225 21.7101 1.99564 21.7968 2.03903L21.8402 2.08242L21.8836 2.12581C21.927 2.16919 21.9704 2.16918 22.0138 2.21257C22.0572 2.25596 22.1005 2.29935 22.1873 2.34274C22.2307 2.38613 22.2741 2.42951 22.3175 2.42951C22.3609 2.4729 22.3609 2.4729 22.4043 2.51629C22.4476 2.55967 22.4476 2.55967 22.491 2.60305C22.491 2.64644 22.5344 2.64645 22.5344 2.68983C22.5344 2.73322 22.5344 2.73323 22.5344 2.77661C22.5344 2.95016 22.491 3.08031 22.491 3.25386C22.491 3.29725 22.4476 3.29725 22.4476 3.34064C22.4476 3.34064 22.4476 3.38403 22.4043 3.38403C22.4043 3.42742 22.3609 3.4708 22.3609 3.4708C22.3175 3.51419 22.3175 3.60097 22.2741 3.64436C22.2307 3.77452 22.1439 3.90468 22.1006 4.03484C22.0138 4.25178 21.8836 4.42532 21.7534 4.64226C21.7101 4.72903 21.6233 4.81581 21.5365 4.90258C21.363 5.07613 21.2328 5.2063 21.0592 5.37985C21.1894 5.29307 21.3196 5.1629 21.4497 5.07613C21.5365 5.03274 21.6233 4.94597 21.6667 4.90258C21.7101 4.8592 21.7534 4.8158 21.7968 4.77241C21.8402 4.72903 21.8836 4.64226 21.927 4.59887C21.9704 4.55548 22.0138 4.5121 22.0572 4.42532C22.1005 4.38193 22.1439 4.29516 22.1873 4.25178C22.2741 4.12161 22.3175 4.03483 22.4043 3.90467C22.4476 3.8179 22.491 3.73113 22.5344 3.64436C22.5344 3.60097 22.5778 3.55758 22.5778 3.51419C22.5778 3.51419 22.5778 3.4708 22.6212 3.4708C22.6212 3.42741 22.6646 3.38403 22.6646 3.34064C22.6646 3.29725 22.6646 3.25386 22.6646 3.25386V3.21049C22.7947 3.47081 22.9249 3.73112 23.0985 3.94806C23.1418 3.99145 23.1852 4.07822 23.272 4.12161C23.3154 4.16499 23.4022 4.20839 23.4889 4.25178C23.6191 4.29516 23.7059 4.38193 23.836 4.42532H23.8794C23.9662 4.46871 24.053 4.51209 24.1397 4.55548C24.1831 4.59887 24.2265 4.59887 24.2699 4.64226C24.3133 4.68565 24.3567 4.77242 24.4001 4.8158C24.4435 4.90258 24.5302 4.98935 24.5736 5.03274C24.617 5.11951 24.6604 5.20629 24.7038 5.24968C24.7472 5.29306 24.7472 5.37984 24.7906 5.42322C24.7906 5.46661 24.8339 5.51 24.8339 5.55339C24.8339 5.64017 24.8773 5.68355 24.8773 5.72694C24.8773 5.81371 24.8773 5.8571 24.8773 5.94387C24.8773 5.98726 24.8773 5.98727 24.8773 6.03065C24.8773 6.07404 24.8773 6.11743 24.8339 6.2042C24.8339 6.29097 24.7905 6.33436 24.7472 6.37775C24.7038 6.42113 24.7038 6.50791 24.6604 6.55129C24.617 6.63807 24.5736 6.68145 24.5302 6.72484C24.4868 6.76823 24.4435 6.85501 24.3567 6.8984C24.3133 6.94178 24.2699 6.98517 24.2265 7.02855C24.1397 7.11533 24.0964 7.20211 24.0096 7.28888L23.9662 7.37565C23.8794 7.46242 23.836 7.5492 23.7493 7.63597L23.7059 7.67936C23.4889 7.85291 23.3588 8.02646 23.1418 8.15662C23.1418 8.15662 23.1418 8.15662 23.0985 8.15662C23.0551 8.20001 23.0117 8.2 22.9683 8.24339C22.9249 8.28678 22.8815 8.28678 22.8381 8.28678C22.7947 8.28678 22.7514 8.33017 22.708 8.33017C22.6646 8.33017 22.5778 8.37356 22.5344 8.37356C22.491 8.37356 22.4476 8.41695 22.4043 8.41695C22.3609 8.41695 22.2741 8.46033 22.2307 8.46033C22.1439 8.50371 22.0572 8.54711 21.9704 8.63389L21.927 8.67726C21.8402 8.76404 21.7968 8.85082 21.7101 8.98098L21.6667 9.02437C21.6233 9.11114 21.5365 9.19792 21.4931 9.28469C21.3196 9.50163 21.146 9.67517 20.9725 9.84872C20.9725 9.84872 20.9291 9.84872 20.9291 9.89211C20.8857 9.9355 20.8423 9.97888 20.7989 10.0223H20.7555L20.7122 10.0657L20.6688 10.109L20.6254 10.1524C20.582 10.1958 20.5386 10.1958 20.4952 10.2392C20.4518 10.2826 20.4084 10.2826 20.3217 10.326C20.2783 10.326 20.2349 10.3694 20.1915 10.3694H20.1481H20.1047C20.0614 10.3694 20.018 10.4128 19.9746 10.4128L19.9312 10.4561H19.8878C20.3651 10.5429 20.3217 10.5863 20.2783 10.5863ZM25.7017 5.46661L25.7451 5.51C25.7451 5.51 25.7451 5.55339 25.7885 5.55339C25.7885 5.59678 25.8318 5.64016 25.8318 5.68355C25.8318 5.77032 25.8752 5.81371 25.8752 5.90048C25.8752 6.11742 25.9186 6.33436 25.9186 6.55129C25.9186 6.59468 25.9186 6.68145 25.9186 6.72484C25.9186 6.76823 25.8752 6.85501 25.8752 6.8984C25.8318 6.98517 25.8319 7.02856 25.7885 7.11533C25.7451 7.2455 25.6583 7.33226 25.6149 7.46243C25.4847 7.67936 25.3546 7.85292 25.2678 7.98308C25.1377 8.11324 25.0509 8.2434 24.9207 8.41695C24.7906 8.5905 24.6604 8.72066 24.5302 8.85082C24.2265 9.11115 24.0096 9.32808 23.7927 9.45824C23.6625 9.54501 23.5323 9.63179 23.4022 9.71857C23.272 9.80534 23.1418 9.8921 23.0117 9.97888L22.9683 10.0223C22.8381 10.0657 22.7514 10.1524 22.6212 10.1958C22.491 10.2392 22.4043 10.2826 22.3175 10.2826C22.2307 10.326 22.1005 10.326 22.0138 10.3694H21.9704H21.927C21.7534 10.4128 21.6233 10.4561 21.4931 10.4561C21.363 10.4995 21.2328 10.4995 21.0592 10.4995H21.0159C20.8857 10.4995 20.7989 10.5429 20.6688 10.5429H20.6254C20.582 10.5429 20.5386 10.5429 20.4952 10.5863C20.4952 10.5863 20.4952 10.5863 20.5386 10.5863C20.582 10.5863 20.582 10.5429 20.6254 10.5429C20.7122 10.4995 20.8423 10.4561 20.9291 10.4561C20.9725 10.4561 21.0593 10.4128 21.1026 10.4128C21.1894 10.3694 21.2328 10.3694 21.3196 10.326C21.4063 10.2826 21.4497 10.2392 21.4931 10.2392C21.5799 10.1958 21.6667 10.109 21.7534 10.0223C21.8402 9.93549 21.927 9.84872 22.0138 9.80533C22.0572 9.76194 22.0572 9.76195 22.1006 9.71857C22.1439 9.67518 22.2307 9.58839 22.2741 9.54501C22.3609 9.45823 22.4043 9.37147 22.4476 9.28469L22.491 9.2413C22.5344 9.19792 22.6212 9.11114 22.6646 9.02437C22.708 8.98098 22.708 8.98098 22.7514 8.93759C22.7514 8.93759 22.7947 8.93759 22.7947 8.8942C22.7947 8.8942 22.8381 8.89421 22.8381 8.85082C22.9249 8.80743 23.0117 8.80743 23.0985 8.76404C23.1852 8.76404 23.272 8.72065 23.3588 8.67726C23.4022 8.67726 23.4455 8.63389 23.4889 8.63389C23.5323 8.63389 23.5757 8.5905 23.6191 8.5905C23.6625 8.54711 23.7059 8.5471 23.7493 8.50372C23.7926 8.46033 23.836 8.41695 23.8794 8.41695C23.9662 8.37356 24.053 8.28679 24.1397 8.20001C24.2265 8.15663 24.2699 8.06984 24.3567 8.02645L24.4001 7.98308C24.4868 7.8963 24.5736 7.80953 24.617 7.72275C24.6604 7.63598 24.7038 7.59259 24.7472 7.50582L24.7906 7.41904C24.8339 7.33226 24.9207 7.2455 25.0075 7.11533V7.07194C25.0509 6.98517 25.1376 6.89839 25.181 6.81162C25.3112 6.59468 25.398 6.37775 25.4414 6.2042C25.4847 5.98726 25.4847 5.77033 25.4414 5.55339C25.398 5.42323 25.3546 5.33645 25.3112 5.20629C25.3112 5.20629 25.3112 5.16291 25.2678 5.16291L25.3112 5.20629C25.3546 5.24967 25.398 5.29307 25.4414 5.33646C25.6149 5.37984 25.6583 5.42322 25.7017 5.46661Z" fill="#370014" fill-opacity="0.17"/>
<path d="M29.2598 16.7472L29.3031 16.7039C29.3031 16.7472 29.2598 16.7906 29.2598 16.8774C29.2598 16.7906 29.2598 16.7906 29.2598 16.7472Z" fill="#370014" fill-opacity="0.17"/>
<path d="M25.5709 13.0159C25.5709 13.0159 25.6143 13.0159 25.6143 12.9726C25.6577 12.9726 25.6577 12.9292 25.7011 12.9292C25.7445 12.8858 25.8312 12.8424 25.8746 12.8424C25.918 12.799 25.9614 12.799 26.0048 12.7556C25.918 12.7556 25.8312 12.7556 25.7445 12.799C25.7011 12.799 25.6577 12.8424 25.6143 12.8424C25.5709 12.8424 25.5709 12.8424 25.5275 12.8858H25.4841C25.4841 12.8858 25.4407 12.8858 25.4407 12.9292C25.3974 12.9725 25.3974 12.9725 25.4407 13.0159C25.4407 13.0593 25.4841 13.0593 25.5275 13.0593C25.5275 13.0159 25.5275 13.0159 25.5709 13.0159Z" fill="#370014" fill-opacity="0.17"/>
<path d="M15.897 17.4849C15.897 17.5283 15.897 17.5283 15.897 17.4849C15.8103 17.615 15.8103 17.7018 15.7669 17.7886C15.7669 17.832 15.7669 17.8753 15.7669 17.9187V18.0055C15.7669 18.0923 15.7669 18.1791 15.7669 18.2658C15.7669 18.4394 15.7669 18.6129 15.7669 18.7865C15.7669 18.96 15.7669 19.1336 15.7235 19.3071V19.3939C15.7235 19.4373 15.7235 19.4807 15.7235 19.5674C15.7235 19.6108 15.7235 19.6542 15.7235 19.741C15.7235 19.7844 15.7235 19.8278 15.7235 19.8712V19.9145C15.6801 20.1315 15.6801 20.3484 15.6801 20.5654C15.6801 20.7823 15.6367 21.0426 15.6367 21.3463C15.6367 21.4331 15.6367 21.5633 15.6367 21.65V21.5633C15.6367 21.5199 15.6367 21.4765 15.6801 21.4331C15.7669 21.1728 15.8103 20.9125 15.8537 20.7389C15.897 20.6087 15.897 20.522 15.9404 20.3918V20.3484C15.9838 20.2183 15.9838 20.1315 16.0272 20.0013C16.0272 19.9145 16.0706 19.7844 16.0706 19.6976C16.0706 19.6108 16.0706 19.5241 16.0706 19.4807C16.0706 19.2637 16.0706 19.0034 16.0706 18.6997C16.0706 18.6129 16.0706 18.4828 16.0706 18.396V18.3092V18.2224C16.0706 18.1357 16.0706 18.0055 16.0706 17.9187C16.0706 17.8753 16.0706 17.832 16.0706 17.7886C16.0706 17.7452 16.0706 17.7452 16.0706 17.7018V17.6584V17.615C16.0706 17.5716 16.0272 17.5716 16.0272 17.5716C15.9838 17.4849 15.9404 17.4849 15.897 17.4849Z" fill="#370014" fill-opacity="0.17"/>
<path d="M21.9255 7.63602C21.9255 7.6794 21.8821 7.67941 21.9255 7.7228C21.9255 7.76618 21.9689 7.76617 21.9689 7.80956C22.0123 7.85295 22.0557 7.80956 22.0991 7.80956C22.0991 7.80956 22.0991 7.80957 22.0991 7.76619C22.1425 7.7228 22.1425 7.6794 22.1425 7.63602C22.1425 7.59263 22.1425 7.54925 22.1425 7.50586C22.0557 7.54925 22.0123 7.59263 21.9689 7.63602C21.9689 7.59263 21.9689 7.63602 21.9255 7.63602Z" fill="#370014" fill-opacity="0.17"/>
<path d="M14.6814 13.1462C14.638 13.1462 14.5946 13.1462 14.5946 13.1462C14.5946 13.1462 14.5946 13.1462 14.5512 13.1462C14.5078 13.0594 14.421 13.016 14.3343 12.9292L14.2909 12.8858C14.2909 12.8425 14.2475 12.7991 14.2041 12.7557C14.1607 12.7123 14.0739 12.7123 13.9872 12.7557C13.9004 12.7991 13.9004 12.8858 13.9004 12.9726C13.9004 13.016 13.9438 13.0594 13.9872 13.1028C14.0306 13.1462 14.0739 13.1895 14.1173 13.2329C14.1607 13.2763 14.2041 13.3197 14.2475 13.3631C14.3343 13.4065 14.3777 13.4933 14.5078 13.4933C14.5946 13.4933 14.6814 13.4499 14.7248 13.4065L14.7681 13.3631C14.7681 13.3631 14.7681 13.3631 14.7681 13.3197C14.7681 13.2763 14.8115 13.2329 14.8115 13.1896C14.8115 13.1462 14.8549 13.0594 14.8549 13.016C14.8115 13.0594 14.7248 13.1028 14.6814 13.1462Z" fill="#370014" fill-opacity="0.17"/>
<path d="M16.6342 13.1894C16.6342 13.1894 16.5908 13.2328 16.5474 13.2328C16.5041 13.2328 16.5041 13.2762 16.4607 13.2762C16.4607 13.2762 16.4607 13.2762 16.4173 13.2762C16.4173 13.2762 16.4173 13.2762 16.3739 13.2762H16.3305C16.2437 13.2762 16.157 13.2761 16.0702 13.2328H16.0268C16.0268 13.2328 16.0268 13.2328 15.9834 13.2328C15.94 13.1894 15.8533 13.146 15.8099 13.1894C15.7665 13.2328 15.7231 13.3195 15.8099 13.3629C15.8533 13.4063 15.8966 13.4063 15.94 13.4497C15.9834 13.4931 16.0268 13.4931 16.0702 13.4931C16.157 13.4931 16.2871 13.5365 16.3739 13.4931C16.4607 13.4931 16.5474 13.4497 16.5908 13.4063C16.5908 13.4063 16.5908 13.4063 16.6342 13.3629C16.6776 13.3195 16.721 13.2328 16.721 13.146C16.6776 13.146 16.6776 13.1894 16.6342 13.1894Z" fill="#370014" fill-opacity="0.17"/>
<path d="M18.2391 12.7123C18.2391 12.7557 18.1957 12.7556 18.1957 12.799C18.1957 12.799 18.1957 12.799 18.1523 12.8424C18.1523 12.8424 18.1523 12.8424 18.1089 12.8424H18.0655H18.0222H17.9788C17.9354 12.8424 17.892 12.8424 17.892 12.8424C17.8486 12.8424 17.8486 12.8424 17.8052 12.8424C17.7618 12.8424 17.7618 12.8424 17.7185 12.8424C17.6751 12.8424 17.5883 12.8858 17.5883 12.9292C17.5449 12.9726 17.5883 13.0594 17.6317 13.1028C17.6317 13.1461 17.6751 13.1461 17.7185 13.1461C17.7185 13.1461 17.7618 13.1461 17.8052 13.1461C17.8486 13.1461 17.892 13.1461 17.9354 13.1461C18.0222 13.1461 18.1523 13.1027 18.1957 13.0594C18.1957 13.0594 18.2391 13.0594 18.2391 13.016C18.2825 12.9726 18.2825 12.9726 18.2825 12.9292C18.2825 12.8858 18.3259 12.8424 18.3259 12.8424C18.3259 12.7556 18.3259 12.7123 18.2825 12.6255C18.2825 12.6689 18.2391 12.7123 18.2391 12.7123Z" fill="#370014" fill-opacity="0.17"/>
<path d="M17.154 12.1482C17.2408 12.0614 17.2842 11.9746 17.2842 11.8878C17.2842 11.8445 17.2408 11.7577 17.2408 11.7577H17.1974H17.154H17.1107H17.0673C16.8937 11.6709 16.6768 11.7577 16.6334 11.9312C16.59 12.1048 16.7202 12.2783 16.8937 12.3217C16.9371 12.2783 17.0673 12.2349 17.154 12.1482Z" fill="#370014" fill-opacity="0.17"/>
<path d="M15.5922 11.9312C15.5488 11.9746 15.5488 12.018 15.5054 12.018L15.462 12.0614L15.4187 12.1048L15.3753 12.1482H15.3319C15.3319 12.1482 15.3319 12.1482 15.2885 12.1482H15.2451H15.2017H15.1583C15.1583 12.1482 15.1583 12.1482 15.115 12.1482C15.115 12.1482 15.1149 12.1482 15.0716 12.1482C15.0716 12.1482 15.0282 12.1482 15.0282 12.1048C15.0282 12.1048 15.0282 12.1048 15.0282 12.0614C15.0282 12.0614 15.0282 12.0614 15.0282 12.018C15.0282 11.9746 14.9848 11.9746 14.9848 11.9312V11.8879C14.9848 11.8879 14.9848 11.8879 14.9848 11.8445C14.9848 11.8445 14.9848 11.8445 14.9414 11.8879C14.9414 11.8879 14.9414 11.8879 14.9414 11.9312C14.9414 11.9312 14.9414 11.9313 14.9414 11.9746C14.9414 12.018 14.9414 12.018 14.9414 12.0614C14.9414 12.1048 14.9848 12.1048 14.9848 12.1482C15.0282 12.235 15.1583 12.3217 15.2885 12.3217C15.3319 12.3217 15.3319 12.3217 15.3753 12.3217C15.4187 12.3217 15.4187 12.3217 15.462 12.2784C15.5054 12.2784 15.5488 12.235 15.5922 12.1916C15.5922 12.1482 15.6356 12.1482 15.6356 12.1048C15.6356 12.0614 15.679 12.0614 15.679 12.018C15.7224 11.9746 15.7224 11.8879 15.7224 11.8445C15.6356 11.8445 15.6356 11.8879 15.5922 11.9312Z" fill="#370014" fill-opacity="0.17"/>
<path d="M14.1162 11.4106C14.203 11.4106 14.2898 11.3673 14.3332 11.2805L14.3766 11.2371L14.42 11.1937C14.4633 11.1503 14.4633 11.1503 14.4633 11.1069C14.42 11.1069 14.42 11.1503 14.3766 11.1503C14.3332 11.1503 14.2898 11.1937 14.2898 11.1937C14.2464 11.1937 14.203 11.1937 14.203 11.2371C14.1596 11.2371 14.1596 11.2371 14.1162 11.2371H14.0729C14.0729 11.2371 14.0729 11.2371 14.0295 11.2371C13.9861 11.2371 13.9427 11.2371 13.9427 11.2371C13.8993 11.2805 13.8993 11.3239 13.9427 11.3673C13.9427 11.4106 13.9861 11.4106 14.0295 11.4106C14.0295 11.454 14.0729 11.454 14.1162 11.4106Z" fill="#370014" fill-opacity="0.17"/>
<path d="M16.2435 11.3239C16.3303 11.2371 16.3737 11.1937 16.3737 11.1504C16.3737 11.107 16.3737 11.0636 16.3737 11.0202C16.2869 11.0202 16.2435 11.0202 16.2001 11.0202C16.1567 11.0202 16.1133 11.0202 16.1133 11.0202C16.0699 11.0202 16.07 11.0202 16.0266 11.0202C15.8964 10.9334 15.7228 10.9768 15.6795 11.0636C15.5927 11.1937 15.6795 11.3673 15.8096 11.4107C15.8964 11.4541 15.9832 11.4975 16.1133 11.4541C16.1133 11.4541 16.2001 11.4107 16.2435 11.3239Z" fill="#370014" fill-opacity="0.17"/>
<path d="M18.4993 11.4974C18.5427 11.4106 18.4993 11.3238 18.4559 11.2371C18.4559 11.2804 18.4125 11.2804 18.4125 11.3238C18.4125 11.3238 18.4125 11.3672 18.3692 11.3672C18.3692 11.3672 18.3692 11.3672 18.3258 11.3672H18.2824H18.239H18.1956C18.1522 11.3672 18.1522 11.3672 18.1088 11.3672H18.0654C18.0221 11.3672 18.0221 11.3672 17.9787 11.3672C17.9353 11.3672 17.9353 11.3672 17.8919 11.3238H17.8485C17.8051 11.3238 17.8051 11.3238 17.7617 11.3672C17.675 11.4106 17.7617 11.5408 17.8051 11.5842C17.8485 11.6275 17.8485 11.6275 17.8919 11.6275C17.9353 11.6275 17.9787 11.6709 17.9787 11.6709C18.0655 11.6709 18.1088 11.6709 18.1956 11.6709C18.2824 11.6709 18.3692 11.6275 18.4559 11.5408C18.4559 11.5842 18.4559 11.5408 18.4993 11.4974Z" fill="#370014" fill-opacity="0.17"/>
<path d="M17.4146 10.6732C17.458 10.6732 17.458 10.6298 17.5014 10.6298C17.5448 10.5865 17.5448 10.5431 17.5448 10.4563H17.5014C17.458 10.4563 17.4146 10.4563 17.3712 10.4563C17.3278 10.4563 17.2844 10.4563 17.241 10.4997C17.1977 10.5431 17.1543 10.5865 17.1977 10.6298C17.1977 10.6732 17.2411 10.7166 17.2844 10.7166C17.3278 10.7166 17.3712 10.7166 17.4146 10.6732Z" fill="#370014" fill-opacity="0.17"/>
<path d="M16.3728 10.3261C16.286 10.3261 16.2426 10.3261 16.1992 10.3261C16.1558 10.3261 16.0691 10.3261 16.0257 10.3261C15.9823 10.3261 15.9389 10.3261 15.8955 10.3261C15.8955 10.3261 15.8955 10.3261 15.8521 10.3261H15.8087C15.8087 10.3261 15.8087 10.3261 15.7653 10.3261C15.722 10.2827 15.6786 10.2827 15.6352 10.2827C15.6352 10.2827 15.5918 10.2827 15.5918 10.3261C15.5918 10.4129 15.6786 10.4997 15.7653 10.543C15.8955 10.5864 16.0257 10.5864 16.1558 10.543C16.1992 10.543 16.2426 10.4997 16.286 10.4997C16.3294 10.4997 16.3294 10.4563 16.3728 10.4563C16.4595 10.4129 16.4595 10.3695 16.3728 10.3261C16.4161 10.3261 16.4161 10.3261 16.3728 10.3261Z" fill="#370014" fill-opacity="0.17"/>
<path d="M18.8894 11.4105C18.846 11.4105 18.846 11.4105 18.846 11.4539H18.8026C18.7592 11.4539 18.7592 11.4539 18.7158 11.4539C18.6724 11.4539 18.6724 11.4539 18.629 11.4539C18.5857 11.4539 18.5857 11.4539 18.5423 11.4972C18.4555 11.5406 18.4121 11.584 18.4121 11.6708C18.4121 11.7576 18.4555 11.801 18.5423 11.8444C18.5857 11.8444 18.629 11.8877 18.6724 11.8877C18.7158 11.8877 18.7592 11.8877 18.8026 11.8444C18.846 11.8444 18.8894 11.801 18.9327 11.7576L18.9761 11.7142C19.0195 11.6708 19.0195 11.584 19.0195 11.5406C19.0195 11.4973 18.9761 11.4105 18.9761 11.3671C18.9761 11.3237 18.9327 11.3671 18.8894 11.4105Z" fill="#370014" fill-opacity="0.17"/>
<path d="M2.31602 13.5802C2.31602 13.5364 2.31602 13.5364 2.31602 13.5802C2.27227 13.5364 2.27227 13.5364 2.31602 13.5802C2.31602 13.5364 2.27227 13.5364 2.31602 13.5802Z" fill="#370014" fill-opacity="0.17"/>
<path d="M18.7158 22.1707C18.7158 22.2574 18.7158 22.3008 18.7158 22.3876C18.7158 22.431 18.7158 22.4744 18.7158 22.5611C18.7158 22.6045 18.7158 22.6479 18.7158 22.6913V22.7347C18.7158 22.7347 18.7158 22.7347 18.7158 22.7781C18.7158 22.8215 18.6724 22.8649 18.6724 22.9082C18.6724 22.9516 18.6724 22.9516 18.6724 22.995C18.6724 23.0818 18.629 23.1252 18.629 23.2119C18.629 23.2987 18.5857 23.3421 18.5857 23.4289C18.5857 23.4723 18.5857 23.5157 18.5423 23.5157C18.5423 23.559 18.4989 23.6458 18.4989 23.6892C18.4989 23.6892 18.4989 23.6892 18.4989 23.7326C18.4555 23.776 18.4555 23.8194 18.4121 23.8627V23.9061H18.4555C18.4555 23.8628 18.4989 23.8628 18.4989 23.8194C18.4989 23.776 18.5423 23.776 18.5423 23.7326V23.6892V23.6458C18.5423 23.6024 18.5423 23.6024 18.5857 23.559V23.5157C18.629 23.4289 18.629 23.2987 18.6724 23.2119C18.7158 23.0818 18.7158 22.9516 18.7592 22.8648V22.8215C18.7592 22.7781 18.7592 22.7781 18.7592 22.7347C18.7592 22.6913 18.7592 22.6479 18.7592 22.5611C18.7592 22.4744 18.7592 22.431 18.7592 22.3442C18.7592 22.0839 18.7158 21.8236 18.6724 21.5632C18.7158 21.7802 18.7158 21.9537 18.7158 22.1707Z" fill="#370014" fill-opacity="0.17"/>
</svg>
