<svg width="50" height="50" viewBox="0 0 50 50" fill="none" xmlns="http://www.w3.org/2000/svg">
<circle cx="25" cy="25" r="24" transform="matrix(-1 0 0 1 50 0)" stroke="#CFB2A1" stroke-width="2"/>
<path d="M34 26H35V24H34V26ZM15.2929 24.2929C14.9024 24.6834 14.9024 25.3166 15.2929 25.7071L21.6569 32.0711C22.0474 32.4616 22.6805 32.4616 23.0711 32.0711C23.4616 31.6805 23.4616 31.0474 23.0711 30.6569L17.4142 25L23.0711 19.3431C23.4616 18.9526 23.4616 18.3195 23.0711 17.9289C22.6805 17.5384 22.0474 17.5384 21.6569 17.9289L15.2929 24.2929ZM34 24L16 24V26L34 26V24Z" fill="#CFB2A1"/>
</svg>
