<svg width="22.000000" height="23.000000" viewBox="0 0 22 23" fill="none" xmlns="http://www.w3.org/2000/svg" xmlns:xlink="http://www.w3.org/1999/xlink">
	<desc>
			Created with Pixso.
	</desc>
	<defs/>
	<path id="Vector" d="M16.4 22.39C15.83 22.39 15.28 22.22 14.81 21.91C14.34 21.59 13.97 21.15 13.75 20.62C13.54 20.1 13.48 19.52 13.59 18.97C13.7 18.41 13.98 17.9 14.38 17.5C14.78 17.1 15.29 16.83 15.84 16.72C16.4 16.61 16.97 16.66 17.5 16.88C18.02 17.1 18.47 17.46 18.78 17.93C19.1 18.41 19.27 18.96 19.27 19.53C19.27 20.29 18.96 21.01 18.43 21.55C17.89 22.09 17.16 22.39 16.4 22.39ZM16.4 18.22C16.14 18.22 15.89 18.3 15.68 18.44C15.46 18.59 15.3 18.79 15.2 19.03C15.1 19.27 15.07 19.53 15.12 19.78C15.17 20.03 15.3 20.26 15.48 20.45C15.66 20.63 15.89 20.75 16.15 20.8C16.4 20.85 16.66 20.83 16.9 20.73C17.14 20.63 17.34 20.46 17.48 20.25C17.63 20.04 17.7 19.78 17.7 19.53C17.7 19.18 17.57 18.85 17.32 18.61C17.08 18.36 16.75 18.22 16.4 18.22ZM9.11 22.39C8.54 22.39 7.99 22.22 7.52 21.91C7.05 21.59 6.68 21.15 6.46 20.62C6.25 20.1 6.19 19.52 6.3 18.97C6.41 18.41 6.68 17.9 7.08 17.5C7.48 17.1 8 16.83 8.55 16.72C9.11 16.61 9.68 16.66 10.21 16.88C10.73 17.1 11.18 17.46 11.49 17.93C11.81 18.41 11.97 18.96 11.97 19.53C11.97 20.29 11.67 21.01 11.13 21.55C10.6 22.09 9.87 22.39 9.11 22.39ZM9.11 18.22C8.85 18.22 8.6 18.3 8.39 18.44C8.17 18.59 8.01 18.79 7.91 19.03C7.81 19.27 7.78 19.53 7.83 19.78C7.88 20.03 8.01 20.26 8.19 20.45C8.37 20.63 8.6 20.75 8.86 20.8C9.11 20.85 9.37 20.83 9.61 20.73C9.85 20.63 10.05 20.46 10.19 20.25C10.34 20.04 10.41 19.78 10.41 19.53C10.41 19.18 10.27 18.85 10.03 18.61C9.79 18.36 9.45 18.22 9.11 18.22ZM16.05 16.14L9.6 16.14C8.41 16.14 7.26 15.7 6.36 14.92C5.46 14.15 4.88 13.07 4.7 11.89L3.38 2.68C3.34 2.37 3.18 2.08 2.94 1.88C2.71 1.67 2.41 1.56 2.1 1.56L0.78 1.56C0.57 1.56 0.37 1.48 0.22 1.33C0.08 1.18 0 0.98 0 0.78C0 0.57 0.08 0.37 0.22 0.22C0.37 0.08 0.57 0 0.78 0L2.1 0C2.78 0 3.45 0.25 3.97 0.7C4.49 1.15 4.83 1.77 4.93 2.45L6.25 11.67C6.37 12.48 6.77 13.21 7.38 13.75C8 14.28 8.78 14.57 9.6 14.58L16.05 14.58C16.84 14.58 17.61 14.3 18.22 13.79C18.83 13.28 19.24 12.58 19.38 11.8L20.4 6.22C20.43 6.03 20.42 5.84 20.37 5.65C20.33 5.47 20.24 5.29 20.11 5.15C19.99 5 19.84 4.88 19.66 4.8C19.49 4.72 19.3 4.68 19.11 4.68L7.03 4.68C6.82 4.68 6.62 4.6 6.47 4.45C6.33 4.31 6.25 4.11 6.25 3.9C6.25 3.69 6.33 3.5 6.47 3.35C6.62 3.2 6.82 3.12 7.03 3.12L19.11 3.12C19.53 3.12 19.94 3.21 20.32 3.39C20.7 3.57 21.04 3.83 21.31 4.15C21.58 4.47 21.77 4.85 21.88 5.25C21.99 5.66 22 6.08 21.93 6.5L20.91 12.08C20.71 13.22 20.11 14.25 19.22 14.99C18.33 15.73 17.21 16.14 16.05 16.14Z" fill="#FFFFFF" fill-opacity="1.000000" fill-rule="nonzero"/>
</svg>
