<svg width="25" height="26" viewBox="0 0 25 26" fill="none" xmlns="http://www.w3.org/2000/svg">
<path d="M17.7085 24.1981C17.1419 24.1981 16.5881 24.0301 16.117 23.7153C15.6459 23.4005 15.2788 22.9532 15.062 22.4297C14.8452 21.9063 14.7884 21.3303 14.899 20.7746C15.0095 20.219 15.2823 19.7085 15.6829 19.3079C16.0835 18.9073 16.594 18.6345 17.1496 18.524C17.7053 18.4134 18.2813 18.4702 18.8047 18.687C19.3282 18.9038 19.7755 19.2709 20.0903 19.742C20.4051 20.2131 20.5731 20.7669 20.5731 21.3335C20.5725 22.0931 20.2705 22.8214 19.7335 23.3585C19.1964 23.8955 18.4681 24.1975 17.7085 24.1981ZM17.7085 20.0314C17.451 20.0314 17.1992 20.1078 16.9851 20.2509C16.771 20.3939 16.6041 20.5973 16.5055 20.8352C16.407 21.0731 16.3812 21.3349 16.4314 21.5875C16.4817 21.8401 16.6057 22.0721 16.7878 22.2542C16.9699 22.4363 17.2019 22.5603 17.4545 22.6106C17.7071 22.6608 17.9689 22.635 18.2068 22.5365C18.4447 22.4379 18.6481 22.271 18.7911 22.0569C18.9342 21.8428 19.0106 21.591 19.0106 21.3335C19.01 20.9883 18.8727 20.6575 18.6286 20.4134C18.3845 20.1693 18.0537 20.032 17.7085 20.0314ZM10.4168 24.1981C9.85027 24.1981 9.29643 24.0301 8.82535 23.7153C8.35427 23.4005 7.98711 22.9532 7.7703 22.4297C7.55349 21.9063 7.49676 21.3303 7.60729 20.7746C7.71782 20.219 7.99064 19.7085 8.39126 19.3079C8.79188 18.9073 9.3023 18.6345 9.85798 18.524C10.4137 18.4134 10.9896 18.4702 11.5131 18.687C12.0365 18.9038 12.4839 19.2709 12.7986 19.742C13.1134 20.2131 13.2814 20.7669 13.2814 21.3335C13.2809 22.0931 12.9789 22.8214 12.4418 23.3585C11.9047 23.8955 11.1764 24.1975 10.4168 24.1981ZM10.4168 20.0314C10.1593 20.0314 9.90756 20.1078 9.69343 20.2509C9.4793 20.3939 9.31241 20.5973 9.21386 20.8352C9.11531 21.0731 9.08952 21.3349 9.13976 21.5875C9.19001 21.8401 9.31402 22.0721 9.49612 22.2542C9.67822 22.4363 9.91023 22.5603 10.1628 22.6106C10.4154 22.6608 10.6772 22.635 10.9151 22.5365C11.153 22.4379 11.3564 22.271 11.4995 22.0569C11.6425 21.8428 11.7189 21.591 11.7189 21.3335C11.7184 20.9883 11.581 20.6575 11.3369 20.4134C11.0929 20.1693 10.762 20.032 10.4168 20.0314ZM17.3564 17.9481H10.9054C9.71616 17.9426 8.56831 17.511 7.67007 16.7316C6.77182 15.9522 6.18269 14.8767 6.00954 13.7002L4.68766 4.48245C4.64256 4.17318 4.48805 3.89034 4.2522 3.68526C4.01635 3.48018 3.71478 3.36646 3.40225 3.36475H2.0835C1.8763 3.36475 1.67758 3.28244 1.53107 3.13592C1.38456 2.98941 1.30225 2.7907 1.30225 2.5835C1.30225 2.3763 1.38456 2.17758 1.53107 2.03107C1.67758 1.88456 1.8763 1.80225 2.0835 1.80225H3.40225C4.09088 1.80535 4.75558 2.05517 5.2758 2.50639C5.79601 2.95761 6.13726 3.58034 6.23766 4.26162L7.55433 13.4793C7.67294 14.2845 8.07625 15.0205 8.69108 15.5537C9.30591 16.0869 10.0915 16.3821 10.9054 16.3856H17.3564C18.1498 16.3864 18.9182 16.1084 19.5275 15.6002C20.1367 15.0921 20.5481 14.386 20.6897 13.6054L21.7043 8.02516C21.7386 7.83696 21.731 7.64351 21.682 7.45857C21.6331 7.27364 21.544 7.10177 21.4211 6.95518C21.2981 6.80859 21.1444 6.69089 20.9709 6.61045C20.7973 6.53 20.6081 6.48879 20.4168 6.48975H8.3335C8.1263 6.48975 7.92758 6.40744 7.78107 6.26092C7.63456 6.11441 7.55225 5.9157 7.55225 5.7085C7.55225 5.5013 7.63456 5.30258 7.78107 5.15607C7.92758 5.00956 8.1263 4.92725 8.3335 4.92725H20.4168C20.8364 4.92734 21.2508 5.01959 21.6307 5.19746C22.0107 5.37534 22.3469 5.6345 22.6157 5.95663C22.8845 6.27877 23.0792 6.656 23.1861 7.06168C23.2931 7.46735 23.3096 7.89157 23.2345 8.30433L22.22 13.8856C22.0131 15.025 21.413 16.0557 20.5243 16.7981C19.6355 17.5405 18.5144 17.9474 17.3564 17.9481Z" fill="#292E35"/>
</svg>
