<svg width="29" height="30" viewBox="0 0 29 30" fill="none" xmlns="http://www.w3.org/2000/svg">
<path d="M21.2577 29.1428C20.5421 29.1428 19.8426 28.9306 19.2476 28.5331C18.6527 28.1355 18.1889 27.5705 17.9151 26.9094C17.6413 26.2483 17.5696 25.5208 17.7092 24.819C17.8488 24.1172 18.1934 23.4725 18.6994 22.9665C19.2053 22.4606 19.85 22.116 20.5518 21.9764C21.2536 21.8368 21.9811 21.9084 22.6422 22.1823C23.3033 22.4561 23.8683 22.9198 24.2659 23.5148C24.6634 24.1098 24.8756 24.8093 24.8756 25.5248C24.8749 26.4842 24.4935 27.404 23.8152 28.0823C23.1368 28.7607 22.217 29.1421 21.2577 29.1428ZM21.2577 23.8803C20.9324 23.8803 20.6144 23.9768 20.344 24.1575C20.0736 24.3382 19.8628 24.595 19.7383 24.8955C19.6138 25.196 19.5813 25.5267 19.6447 25.8457C19.7082 26.1647 19.8648 26.4577 20.0948 26.6877C20.3248 26.9177 20.6178 27.0743 20.9368 27.1378C21.2558 27.2012 21.5865 27.1686 21.887 27.0442C22.1875 26.9197 22.4443 26.7089 22.625 26.4385C22.8057 26.168 22.9022 25.8501 22.9022 25.5248C22.9015 25.0889 22.728 24.671 22.4197 24.3627C22.1115 24.0545 21.6936 23.881 21.2577 23.8803ZM12.0483 29.1428C11.3327 29.1428 10.6332 28.9306 10.0383 28.5331C9.44331 28.1355 8.97958 27.5705 8.70575 26.9094C8.43191 26.2483 8.36027 25.5208 8.49987 24.819C8.63946 24.1172 8.98404 23.4725 9.49002 22.9665C9.996 22.4606 10.6407 22.116 11.3425 21.9764C12.0443 21.8368 12.7717 21.9084 13.4328 22.1823C14.0939 22.4561 14.659 22.9198 15.0565 23.5148C15.4541 24.1098 15.6663 24.8093 15.6663 25.5248C15.6656 26.4842 15.2842 27.404 14.6058 28.0823C13.9275 28.7607 13.0076 29.1421 12.0483 29.1428ZM12.0483 23.8803C11.723 23.8803 11.4051 23.9768 11.1347 24.1575C10.8642 24.3382 10.6534 24.595 10.529 24.8955C10.4045 25.196 10.3719 25.5267 10.4354 25.8457C10.4988 26.1647 10.6555 26.4577 10.8854 26.6877C11.1154 26.9177 11.4085 27.0743 11.7275 27.1378C12.0465 27.2012 12.3771 27.1686 12.6776 27.0442C12.9781 26.9197 13.235 26.7089 13.4157 26.4385C13.5964 26.168 13.6928 25.8501 13.6928 25.5248C13.6921 25.0889 13.5186 24.671 13.2104 24.3627C12.9021 24.0545 12.4842 23.881 12.0483 23.8803ZM20.813 21.2491H12.6653C11.1634 21.2421 9.71363 20.697 8.57916 19.7127C7.44468 18.7283 6.7006 17.3699 6.48191 15.884L4.81239 4.24203C4.75542 3.85142 4.56028 3.49418 4.2624 3.23517C3.96452 2.97615 3.58365 2.83253 3.18891 2.83037H1.52334C1.26164 2.83037 1.01067 2.72641 0.825623 2.54136C0.640578 2.35632 0.536621 2.10534 0.536621 1.84365C0.536621 1.58196 0.640578 1.33098 0.825623 1.14594C1.01067 0.960891 1.26164 0.856934 1.52334 0.856934H3.18891C4.05865 0.860857 4.89817 1.17638 5.5552 1.74627C6.21222 2.31616 6.64323 3.10266 6.77003 3.96312L8.43298 15.605C8.58278 16.622 9.09216 17.5515 9.86869 18.2249C10.6452 18.8984 11.6375 19.2712 12.6653 19.2756H20.813C21.815 19.2766 22.7855 18.9255 23.555 18.2837C24.3245 17.6419 24.8441 16.7502 25.023 15.7642L26.3044 8.71645C26.3477 8.47875 26.3381 8.23443 26.2762 8.00086C26.2144 7.76729 26.1018 7.55021 25.9466 7.36507C25.7914 7.17993 25.5972 7.03127 25.378 6.92967C25.1588 6.82807 24.9199 6.77602 24.6783 6.77723H9.41706C9.15537 6.77723 8.90439 6.67327 8.71935 6.48823C8.5343 6.30318 8.43035 6.05221 8.43035 5.79051C8.43035 5.52882 8.5343 5.27784 8.71935 5.0928C8.90439 4.90775 9.15537 4.8038 9.41706 4.8038H24.6783C25.2081 4.80392 25.7315 4.92042 26.2114 5.14508C26.6913 5.36974 27.116 5.69706 27.4554 6.10391C27.7949 6.51076 28.0408 6.98721 28.1759 7.49958C28.3109 8.01194 28.3318 8.54772 28.237 9.06904L26.9556 16.1181C26.6944 17.5572 25.9365 18.859 24.814 19.7966C23.6915 20.7342 22.2756 21.2482 20.813 21.2491Z" fill="#8E8E8E"/>
</svg>
