<svg width="31" height="24" viewBox="0 0 31 24" fill="none" xmlns="http://www.w3.org/2000/svg">
<path d="M29.5284 18.4771L22.8192 11.7663C24.078 8.90828 23.5394 5.44295 21.2022 3.10525C18.1572 0.0595239 13.2284 0.0591137 10.183 3.10525C7.14515 6.14382 7.14515 11.0879 10.183 14.1265C12.5971 16.5411 16.1349 17.0009 18.9592 15.6952L25.6341 22.3717C26.7103 23.4482 28.4524 23.4483 29.5286 22.3715C30.6019 21.2978 30.6017 19.5508 29.5284 18.4771ZM11.4261 12.8836C9.07344 10.5304 9.07344 6.70142 11.4261 4.34813C13.7841 1.98963 17.6007 1.98922 19.9591 4.34813C22.3118 6.70142 22.3118 10.5304 19.9591 12.8836C17.6011 15.2422 13.7844 15.2425 11.4261 12.8836ZM28.2853 21.1288C27.8962 21.518 27.2664 21.5182 26.8772 21.1289L20.5 14.75C21.024 14.338 21.4935 13.8609 21.897 13.3303L28.2852 19.72C28.6735 20.1084 28.6736 20.7404 28.2853 21.1288ZM1.21244 11.353H4.96038C5.4458 11.353 5.83933 10.9594 5.83933 10.474C5.83933 9.98862 5.4458 9.59509 4.96038 9.59509H1.21244C0.727029 9.59509 0.333496 9.98862 0.333496 10.474C0.333496 10.9594 0.727029 11.353 1.21244 11.353ZM1.21244 15.1031H6.36588C6.85129 15.1031 7.24482 14.7096 7.24482 14.2242C7.24482 13.7388 6.85129 13.3453 6.36588 13.3453H1.21244C0.727029 13.3453 0.333496 13.7388 0.333496 14.2242C0.333496 14.7096 0.727029 15.1031 1.21244 15.1031ZM1.21244 18.8533H10.1139C10.5993 18.8533 10.9928 18.4598 10.9928 17.9744C10.9928 17.489 10.5993 17.0954 10.1139 17.0954H1.21244C0.727029 17.0954 0.333496 17.489 0.333496 17.9744C0.333496 18.4598 0.727029 18.8533 1.21244 18.8533ZM20.4209 20.8456H1.21244C0.727029 20.8456 0.333496 21.2391 0.333496 21.7245C0.333496 22.21 0.727029 22.6035 1.21244 22.6035H20.4209C20.9063 22.6035 21.2998 22.21 21.2998 21.7245C21.2998 21.2391 20.9063 20.8456 20.4209 20.8456Z" fill="#8E8E8E"/>
</svg>
