<svg width="25" height="25" viewBox="0 0 25 25" fill="none" xmlns="http://www.w3.org/2000/svg">
<path fill-rule="evenodd" clip-rule="evenodd" d="M22.5 3H2.5C1.125 3 0.0125 4.125 0.0125 5.5L0 20.5C0 21.875 1.125 23 2.5 23H22.5C23.875 23 25 21.875 25 20.5V5.5C25 4.125 23.875 3 22.5 3ZM22 8.3125L13.1625 13.8375C12.7625 14.0875 12.2375 14.0875 11.8375 13.8375L3 8.3125C2.6875 8.1125 2.5 7.775 2.5 7.4125C2.5 6.575 3.4125 6.075 4.125 6.5125L12.5 11.75L20.875 6.5125C21.5875 6.075 22.5 6.575 22.5 7.4125C22.5 7.775 22.3125 8.1125 22 8.3125Z" fill="#CFB2A1"/>
</svg>
