<svg width="25.000000" height="20.000000" viewBox="0 0 25 20" fill="none" xmlns="http://www.w3.org/2000/svg" xmlns:xlink="http://www.w3.org/1999/xlink">
	<desc>
			Created with Pixso.
	</desc>
	<defs/>
	<path id="🔹Icon-Color" d="M22.5 -0.5L2.5 -0.5C1.12 -0.5 0.01 0.62 0.01 2L0 17C0 18.37 1.12 19.5 2.5 19.5L22.5 19.5C23.87 19.5 25 18.37 25 17L25 2C25 0.62 23.87 -0.5 22.5 -0.5ZM22 4.81L13.16 10.33C12.76 10.58 12.23 10.58 11.83 10.33L3 4.81C2.68 4.61 2.5 4.27 2.5 3.91C2.5 3.07 3.41 2.57 4.12 3.01L12.5 8.25L20.87 3.01C21.58 2.57 22.5 3.07 22.5 3.91C22.5 4.27 22.31 4.61 22 4.81Z" fill="#76212E" fill-opacity="1.000000" fill-rule="evenodd"/>
</svg>
