<svg width="20.000000" height="25.000000" viewBox="0 0 20 25" fill="none" xmlns="http://www.w3.org/2000/svg" xmlns:xlink="http://www.w3.org/1999/xlink">
	<desc>
			Created with Pixso.
	</desc>
	<defs/>
	<path id="Location Pin" d="M9.5 -0.51C8.25 -0.54 7 -0.32 5.84 0.14C4.68 0.6 3.62 1.29 2.73 2.17C1.84 3.05 1.14 4.1 0.67 5.26C0.2 6.41 -0.03 7.65 0 8.9C0 16.78 8.79 24.07 9.16 24.37C9.26 24.45 9.37 24.49 9.49 24.49C9.61 24.49 9.72 24.45 9.81 24.37C10.21 24.02 19 16 19 8.9C19.02 7.65 18.79 6.41 18.32 5.26C17.85 4.1 17.15 3.05 16.26 2.17C15.37 1.29 14.31 0.6 13.15 0.14C11.99 -0.32 10.74 -0.54 9.5 -0.51ZM9.5 13.49C8.6 13.49 7.73 13.23 6.99 12.74C6.25 12.24 5.68 11.54 5.34 10.72C5 9.89 4.91 8.99 5.08 8.12C5.26 7.24 5.68 6.44 6.31 5.81C6.94 5.18 7.74 4.76 8.62 4.58C9.49 4.41 10.39 4.5 11.22 4.84C12.04 5.18 12.74 5.75 13.24 6.49C13.73 7.23 14 8.1 14 8.99C14 10.19 13.52 11.33 12.68 12.18C11.83 13.02 10.69 13.49 9.5 13.49Z" fill="#76212E" fill-opacity="1.000000" fill-rule="nonzero"/>
</svg>
