<svg width="19" height="26" viewBox="0 0 19 26" fill="none" xmlns="http://www.w3.org/2000/svg">
<path d="M9.50017 0.500043C8.25061 0.464647 7.00686 0.683168 5.84421 1.14238C4.68155 1.60159 3.62416 2.29194 2.73604 3.17165C1.84792 4.05136 1.14753 5.10213 0.677275 6.26036C0.207018 7.41859 -0.0233319 8.6602 0.000168186 9.91004C0.000168186 17.79 8.80017 25.08 9.17017 25.38C9.26073 25.4575 9.37599 25.5001 9.49517 25.5001C9.61434 25.5001 9.7296 25.4575 9.82017 25.38C10.2102 25.03 19.0002 17.01 19.0002 9.91004C19.0237 8.6602 18.7933 7.41859 18.3231 6.26036C17.8528 5.10213 17.1524 4.05136 16.2643 3.17165C15.3762 2.29194 14.3188 1.60159 13.1561 1.14238C11.9935 0.683168 10.7497 0.464647 9.50017 0.500043ZM9.50017 14.5C8.61015 14.5 7.74012 14.2361 7.0001 13.7417C6.26008 13.2472 5.6833 12.5444 5.34271 11.7221C5.00212 10.8999 4.913 9.99505 5.08663 9.12214C5.26027 8.24922 5.68885 7.4474 6.31819 6.81806C6.94752 6.18873 7.74935 5.76014 8.62226 5.58651C9.49518 5.41288 10.4 5.50199 11.2222 5.84259C12.0445 6.18318 12.7473 6.75996 13.2418 7.49998C13.7362 8.24 14.0002 9.11003 14.0002 10C14.0002 11.1935 13.5261 12.3381 12.6821 13.182C11.8382 14.0259 10.6936 14.5 9.50017 14.5Z" fill="#CFB2A1"/>
</svg>
