<svg width="28" height="28" viewBox="0 0 28 28" fill="none" xmlns="http://www.w3.org/2000/svg">
<path d="M16.5756 1.31668C15.2199 -0.0958202 12.7799 -0.0970703 11.4243 1.31668L0.821188 11.9198C-0.400062 13.0798 0.503063 15.2998 2.20056 15.2498H3.37494V24.6248C3.37494 26.3479 4.77681 27.7498 6.49994 27.7498C10.8837 27.7486 17.1168 27.7504 21.4999 27.7498C23.2231 27.7498 24.6249 26.3479 24.6249 24.6248V15.2498H25.7993C26.8749 15.2498 27.7499 14.3748 27.7499 13.2992C27.7499 12.7854 27.5418 12.2829 27.1787 11.9198L16.5756 1.31668ZM11.4999 26.4998V19.6248C11.4999 19.2798 11.7806 18.9998 12.1249 18.9998H15.8749C16.2193 18.9998 16.4999 19.2798 16.4999 19.6248V26.4998H11.4999ZM25.7993 13.9998H23.9999C23.8342 13.9998 23.6752 14.0657 23.558 14.1829C23.4408 14.3001 23.3749 14.459 23.3749 14.6248V24.6248C23.3749 25.6586 22.5337 26.4998 21.4999 26.4998H17.7499V19.6248C17.7499 18.5911 16.9087 17.7498 15.8749 17.7498H12.1249C11.0912 17.7498 10.2499 18.5911 10.2499 19.6248V26.4998H6.49994C5.46619 26.4998 4.62494 25.6586 4.62494 24.6248V14.6248C4.62494 14.459 4.55909 14.3001 4.44188 14.1829C4.32467 14.0657 4.1657 13.9998 3.99994 13.9998H2.20056C1.59431 14.0186 1.26306 13.2198 1.70494 12.8036L12.3081 2.20043C13.1987 1.27293 14.8012 1.27168 15.6918 2.20043L26.2949 12.8036C26.7312 13.2211 26.4106 14.0173 25.7993 13.9998Z" fill="#76212E"/>
</svg>
