<svg width="20" height="21" viewBox="0 0 20 21" fill="none" xmlns="http://www.w3.org/2000/svg">
<path d="M0.625 5.71923H10.8013C11.082 6.85337 12.1079 7.69685 13.3276 7.69685C14.5472 7.69685 15.5732 6.85337 15.8539 5.71923H19.375C19.7202 5.71923 20 5.43939 20 5.09423C20 4.74908 19.7202 4.46923 19.375 4.46923H15.8538C15.5732 3.33509 14.5472 2.49158 13.3275 2.49158C12.1079 2.49158 11.0819 3.33509 10.8012 4.46923H0.625C0.279844 4.46923 0 4.74908 0 5.09423C0 5.43939 0.279844 5.71923 0.625 5.71923ZM13.3276 3.74158C14.0734 3.74158 14.6802 4.34837 14.6802 5.09419C14.6802 5.84005 14.0734 6.44685 13.3276 6.44685C12.5817 6.44685 11.9749 5.84005 11.9749 5.09419C11.9749 4.34837 12.5817 3.74158 13.3276 3.74158ZM0.625 11.125H4.14617C4.42688 12.2592 5.45277 13.1026 6.67246 13.1026C7.89215 13.1026 8.91805 12.2592 9.19875 11.125H19.375C19.7202 11.125 20 10.8452 20 10.5C20 10.1549 19.7202 9.87501 19.375 9.87501H9.19871C8.91801 8.74087 7.89211 7.89736 6.67242 7.89736C5.45273 7.89736 4.42684 8.74087 4.14613 9.87501H0.625C0.279844 9.87501 0 10.1549 0 10.5C0 10.8452 0.279805 11.125 0.625 11.125ZM6.67242 9.14736C7.41828 9.14736 8.02508 9.75416 8.02508 10.5C8.02508 11.2458 7.41828 11.8526 6.67242 11.8526C5.92656 11.8526 5.31977 11.2458 5.31977 10.5C5.31977 9.75416 5.92656 9.14736 6.67242 9.14736ZM19.375 15.2808H15.8538C15.5731 14.1467 14.5472 13.3031 13.3275 13.3031C12.1079 13.3031 11.082 14.1467 10.8012 15.2808H0.625C0.279844 15.2808 0 15.5606 0 15.9058C0 16.251 0.279844 16.5308 0.625 16.5308H10.8013C11.082 17.6649 12.1079 18.5085 13.3276 18.5085C14.5473 18.5085 15.5732 17.6649 15.8539 16.5308H19.375C19.7202 16.5308 20 16.251 20 15.9058C20 15.5606 19.7202 15.2808 19.375 15.2808ZM13.3276 17.2585C12.5817 17.2585 11.9749 16.6517 11.9749 15.9058C11.9749 15.1599 12.5817 14.5531 13.3276 14.5531C14.0734 14.5531 14.6802 15.1599 14.6802 15.9058C14.6802 16.6517 14.0734 17.2585 13.3276 17.2585Z" fill="#292E35"/>
</svg>
