<svg width="32.000000" height="32.000000" viewBox="0 0 32 32" fill="none" xmlns="http://www.w3.org/2000/svg" xmlns:xlink="http://www.w3.org/1999/xlink">
	<desc>
			Created with Pixso.
	</desc>
	<defs>
		<clipPath id="clip223_7644">
			<rect id="Frame" rx="-0.500000" width="13.000000" height="13.000000" transform="translate(9.500000 9.500000)" fill="white" fill-opacity="0"/>
		</clipPath>
		<clipPath id="clip225_3704">
			<rect id="9920775951556105709 (2) 1" rx="15.666667" width="31.333334" height="31.333334" transform="translate(0.333333 0.333333)" fill="white" fill-opacity="0"/>
		</clipPath>
	</defs>
	<rect id="9920775951556105709 (2) 1" rx="15.666667" width="31.333334" height="31.333334" transform="translate(0.333333 0.333333)" fill="#76212E" fill-opacity="1.000000"/>
	<g clip-path="url(#clip225_3704)">
		<rect id="Frame" rx="-0.500000" width="13.000000" height="13.000000" transform="translate(9.500000 9.500000)" fill="#FFFFFF" fill-opacity="0"/>
		<g clip-path="url(#clip223_7644)">
			<path id="Vector" d="M19.5 9L12.5 9C10.57 9 9 10.57 9 12.5L9 19.5C9 21.42 10.57 23 12.5 23L19.5 23C21.42 23 23 21.42 23 19.5L23 12.5C23 10.57 21.42 9 19.5 9ZM16 18.91C14.38 18.91 13.08 17.61 13.08 16C13.08 14.38 14.38 13.08 16 13.08C17.61 13.08 18.91 14.38 18.91 16C18.91 17.61 17.61 18.91 16 18.91ZM19.79 13.08C19.3 13.08 18.91 12.69 18.91 12.2C18.91 11.72 19.3 11.33 19.79 11.33C20.27 11.33 20.66 11.72 20.66 12.2C20.66 12.69 20.27 13.08 19.79 13.08Z" fill="#FFFFFF" fill-opacity="1.000000" fill-rule="nonzero"/>
		</g>
	</g>
</svg>
