<svg width="20" height="21" viewBox="0 0 20 21" fill="none" xmlns="http://www.w3.org/2000/svg">
<path d="M5.50744 8.76977C6.17396 10.0207 6.99671 11.1811 7.95576 12.223C9.07782 13.4013 10.3936 14.3768 11.8455 15.1067C11.8986 15.1305 11.956 15.1428 12.0141 15.1428C12.0723 15.1428 12.1297 15.1305 12.1828 15.1067C12.3611 15.0274 12.5211 14.9121 12.6531 14.7681C12.8044 14.6055 12.946 14.4342 13.0773 14.2549C13.706 13.4288 14.4778 12.4077 15.5716 12.9208L15.6381 12.9516L19.2824 15.0554H19.3131C19.5368 15.2169 19.7166 15.432 19.8362 15.6812C19.9559 15.9303 20.0115 16.2056 19.998 16.4818C19.9799 17.1188 19.8042 17.7412 19.4869 18.2931C19.0833 18.9828 18.4683 19.5228 17.7337 19.8325C17.0448 20.1319 16.3167 20.3306 15.5716 20.4225C14.4647 20.5846 13.3355 20.4916 12.2697 20.1506C11.1011 19.755 9.98668 19.2138 8.95247 18.5394L8.86558 18.483C8.32378 18.1443 7.74109 17.7851 7.16862 17.3593C4.8851 15.6275 2.97285 13.4513 1.54617 10.9608C0.385906 8.84674 -0.253009 6.56339 0.0945607 4.38267C0.238474 3.22158 0.806789 2.15552 1.68929 1.39123C2.13446 1.04467 2.64407 0.790816 3.18824 0.644554C3.73241 0.498292 4.3002 0.462563 4.85831 0.539463C4.93421 0.54556 5.00746 0.570271 5.07162 0.611425C5.13579 0.652579 5.18891 0.708917 5.22632 0.775494L7.56219 4.74185C7.71868 4.92103 7.82026 5.14178 7.85472 5.37755C7.88917 5.61331 7.85504 5.85405 7.75642 6.07081C7.55594 6.48762 7.24686 6.84222 6.86194 7.09703C6.73927 7.20478 6.59104 7.31254 6.43259 7.42542C5.92146 7.80512 5.31321 8.2464 5.51767 8.76464L5.50744 8.76977Z" fill="#CFB2A1"/>
</svg>
