<svg width="20.000000" height="20.000000" viewBox="0 0 20 20" fill="none" xmlns="http://www.w3.org/2000/svg" xmlns:xlink="http://www.w3.org/1999/xlink">
	<desc>
			Created with Pixso.
	</desc>
	<defs/>
	<path id="Vector" d="M5 8.26C5.67 9.52 6.49 10.68 7.45 11.72C8.57 12.9 9.89 13.87 11.34 14.6C11.39 14.63 11.45 14.64 11.51 14.64C11.57 14.64 11.62 14.63 11.68 14.6C11.86 14.52 12.02 14.41 12.15 14.26C12.3 14.1 12.44 13.93 12.57 13.75C13.2 12.92 13.97 11.9 15.07 12.42L15.13 12.45L18.78 14.55L18.81 14.55C19.03 14.71 19.21 14.93 19.33 15.18C19.45 15.43 19.51 15.7 19.49 15.98C19.48 16.61 19.3 17.24 18.98 17.79C18.58 18.48 17.96 19.02 17.23 19.33C16.54 19.63 15.81 19.83 15.07 19.92C13.96 20.08 12.83 19.99 11.76 19.65C10.6 19.25 9.48 18.71 8.45 18.03L8.36 17.98C7.82 17.64 7.24 17.28 6.66 16.85C4.38 15.12 2.47 12.95 1.04 10.46C-0.12 8.34 -0.76 6.06 -0.41 3.88C-0.27 2.72 0.3 1.65 1.18 0.89C1.63 0.54 2.14 0.29 2.68 0.14C3.23 -0.01 3.8 -0.04 4.35 0.03C4.43 0.04 4.5 0.07 4.57 0.11C4.63 0.15 4.68 0.2 4.72 0.27L7.06 4.24C7.21 4.42 7.32 4.64 7.35 4.87C7.38 5.11 7.35 5.35 7.25 5.57C7.05 5.98 6.74 6.34 6.36 6.59C6.23 6.7 6.09 6.81 5.93 6.92C5.42 7.3 4.81 7.74 5.01 8.26L5 8.26Z" fill="#76212E" fill-opacity="1.000000" fill-rule="nonzero"/>
</svg>
