<svg width="32.000000" height="32.000000" viewBox="0 0 32 32" fill="none" xmlns="http://www.w3.org/2000/svg" xmlns:xlink="http://www.w3.org/1999/xlink">
	<desc>
			Created with Pixso.
	</desc>
	<defs/>
	<path id="Vector" d="M16 32C24.83 32 32 24.83 32 16C32 7.16 24.83 0 16 0C7.16 0 0 7.16 0 16C0 24.83 7.16 32 16 32ZM23.03 10.22C23.15 8.82 21.67 9.39 21.67 9.39C20.58 9.85 19.45 10.3 18.31 10.77C14.78 12.21 11.13 13.7 8.02 15.16C6.34 15.78 7.32 16.4 7.32 16.4L9.99 17.23C11.23 17.6 11.89 17.18 11.89 17.18L17.64 13.27C19.7 11.87 19.2 13.02 18.71 13.52L14.39 17.64C13.74 18.21 14.06 18.71 14.35 18.96C15.17 19.68 17.17 20.99 18.05 21.57C18.28 21.72 18.43 21.82 18.46 21.84C18.67 22.01 19.78 22.75 20.52 22.58C21.26 22.42 21.34 21.47 21.34 21.47L22.33 15C22.48 13.88 22.65 12.8 22.78 11.93C22.91 11.12 23.01 10.5 23.03 10.22Z" fill="#76212E" fill-opacity="1.000000" fill-rule="evenodd"/>
</svg>
