<svg width="32.000000" height="32.000000" viewBox="0 0 32 32" fill="none" xmlns="http://www.w3.org/2000/svg" xmlns:xlink="http://www.w3.org/1999/xlink">
	<desc>
			Created with Pixso.
	</desc>
	<defs/>
	<path id="Vector" d="M16 0C7.16 0 0 7.16 0 16C0 24.83 7.16 32 16 32C24.83 32 32 24.83 32 16C32 7.16 24.83 0 16 0ZM17.3 21.05C17.14 21.21 16.83 21.25 16.83 21.25L15.81 21.25C15.81 21.25 13.56 21.38 11.58 19.35C9.42 17.14 7.51 12.76 7.51 12.76C7.51 12.76 7.4 12.47 7.52 12.33C7.65 12.18 8.02 12.17 8.02 12.17L10.46 12.15C10.46 12.15 10.69 12.19 10.85 12.31C10.99 12.4 11.06 12.59 11.06 12.59C11.06 12.59 11.46 13.57 11.98 14.45C13 16.18 13.47 16.56 13.82 16.37C14.32 16.1 14.17 13.93 14.17 13.93C14.17 13.93 14.18 13.14 13.92 12.79C13.71 12.52 13.33 12.44 13.16 12.42C13.02 12.4 13.25 12.08 13.54 11.94C13.98 11.73 14.75 11.72 15.67 11.73C16.38 11.74 16.59 11.78 16.87 11.85C17.51 12 17.49 12.49 17.45 13.55C17.44 13.87 17.42 14.24 17.42 14.66C17.42 14.76 17.42 14.86 17.42 14.96C17.4 15.51 17.38 16.13 17.75 16.36C17.93 16.48 18.39 16.38 19.53 14.47C20.08 13.57 20.48 12.51 20.48 12.51C20.48 12.51 20.57 12.32 20.71 12.24C20.85 12.16 21.04 12.18 21.04 12.18L23.61 12.17C23.61 12.17 24.38 12.08 24.5 12.42C24.63 12.78 24.21 13.61 23.17 14.99C22.17 16.29 21.69 16.77 21.73 17.19C21.76 17.5 22.08 17.78 22.68 18.33C23.94 19.48 24.28 20.08 24.36 20.23C24.37 20.24 24.37 20.25 24.38 20.25C24.94 21.17 23.75 21.25 23.75 21.25L21.47 21.28C21.47 21.28 20.98 21.37 20.34 20.94C20 20.71 19.67 20.34 19.35 19.99C18.87 19.45 18.43 18.95 18.05 19.06C17.42 19.26 17.44 20.61 17.44 20.61C17.44 20.61 17.44 20.89 17.3 21.05Z" fill="#76212E" fill-opacity="1.000000" fill-rule="evenodd"/>
</svg>
