<svg width="54" height="32" viewBox="0 0 54 32" fill="none" xmlns="http://www.w3.org/2000/svg">
<path d="M52.0474 24.8572H52.0297V17.9378C52.0297 14.8803 50.8392 12.0106 48.6781 9.84937C46.5169 7.68819 43.6436 6.49777 40.5896 6.49777H37.2557V0.705108C37.2557 0.354359 36.9687 0.0673828 36.618 0.0673828H7.82471C7.47396 0.0673828 7.18699 0.354359 7.18699 0.705108V4.54917H0.639678C0.288929 4.54917 0.00195312 4.83615 0.00195312 5.18689C0.00195312 5.53764 0.288929 5.82462 0.639678 5.82462H12.9655C13.3162 5.82462 13.6032 5.53764 13.6032 5.18689C13.6032 4.83615 13.3162 4.54917 12.9655 4.54917H8.46243V1.34283H35.9838V24.8572H22.007C21.2382 22.9936 19.403 21.6792 17.263 21.6792C15.1231 21.6792 13.2879 22.9936 12.5191 24.8572H8.46243V19.1885H12.5403C12.8911 19.1885 13.1781 18.9015 13.1781 18.5508C13.1781 18.2 12.8911 17.913 12.5403 17.913H2.86817C2.51742 17.913 2.23045 18.2 2.23045 18.5508C2.23045 18.9015 2.51742 19.1885 2.86817 19.1885H7.18699V24.8572H7.16927C6.64846 24.8572 6.15954 25.0591 5.79108 25.4276C5.42261 25.796 5.22067 26.285 5.22067 26.8058C5.22067 27.8793 6.09577 28.7544 7.16927 28.7544H12.5191C13.2879 30.6179 15.1231 31.9324 17.263 31.9324C19.403 31.9324 21.2382 30.6179 22.007 28.7544H39.2645C40.0334 30.6179 41.8686 31.9324 44.0085 31.9324C46.1484 31.9324 47.9837 30.6179 48.7525 28.7544H52.0509C52.5717 28.7544 53.0607 28.5524 53.4291 28.184C53.7976 27.8155 53.9995 27.3266 53.9995 26.8058C53.996 25.7287 53.1209 24.8572 52.0474 24.8572ZM37.2557 7.77322H40.5896C46.1945 7.77322 50.7542 12.333 50.7542 17.9378V24.8572H48.7489C47.9801 22.9936 46.1449 21.6792 44.005 21.6792C41.865 21.6792 40.0298 22.9936 39.261 24.8572H37.2557V7.77322ZM7.16927 27.4789C6.79726 27.4789 6.49612 27.1778 6.49612 26.8058C6.49612 26.6251 6.56698 26.455 6.69452 26.3275C6.82206 26.1999 6.98858 26.1291 7.16927 26.1291H12.179C12.1506 26.3487 12.1364 26.5755 12.1364 26.8022C12.1364 27.029 12.1506 27.2557 12.179 27.4754H7.16927V27.4789ZM17.263 30.6569C15.1373 30.6569 13.4083 28.928 13.4083 26.8022C13.4083 24.6765 15.1373 22.9475 17.263 22.9475C19.3888 22.9475 21.1177 24.6765 21.1177 26.8022C21.1177 28.928 19.3888 30.6569 17.263 30.6569ZM22.3471 27.4789C22.3755 27.2593 22.3896 27.0325 22.3896 26.8058C22.3896 26.579 22.3755 26.3523 22.3471 26.1326H38.9209C38.8925 26.3523 38.8784 26.579 38.8784 26.8058C38.8784 27.0325 38.8925 27.2593 38.9209 27.4789H22.3471ZM44.005 30.6569C41.8792 30.6569 40.1503 28.928 40.1503 26.8022C40.1503 24.6765 41.8792 22.9475 44.005 22.9475C46.1307 22.9475 47.8597 24.6765 47.8597 26.8022C47.8597 28.928 46.1307 30.6569 44.005 30.6569ZM52.5221 27.2805C52.3946 27.4081 52.2245 27.4789 52.0474 27.4789H49.0926C49.1209 27.2593 49.1351 27.0325 49.1351 26.8058C49.1351 26.579 49.1209 26.3523 49.0926 26.1326H52.0509C52.4229 26.1326 52.7241 26.4338 52.7241 26.8058C52.7205 26.9829 52.6497 27.153 52.5221 27.2805Z" fill="#76212E"/>
</svg>
