<svg width="54" height="36" viewBox="0 0 54 36" fill="none" xmlns="http://www.w3.org/2000/svg">
<path d="M6.90493 12.8546H14.1056C14.9966 12.8546 15.7216 12.1297 15.7216 11.2387V6.98021C15.7216 6.08921 14.9966 5.36422 14.1056 5.36422H6.90493C6.01393 5.36422 5.28905 6.08921 5.28905 6.98021V11.2387C5.28905 12.1297 6.01393 12.8546 6.90493 12.8546ZM6.87108 6.98021C6.87108 6.96144 6.88627 6.94625 6.90493 6.94625H14.1056C14.1243 6.94625 14.1396 6.96154 14.1396 6.98021V11.2387C14.1395 11.2477 14.1359 11.2563 14.1296 11.2627C14.1232 11.269 14.1146 11.2726 14.1056 11.2726H6.90493C6.89596 11.2726 6.88737 11.269 6.88102 11.2626C6.87468 11.2563 6.87111 11.2477 6.87108 11.2387V6.98021ZM6.08006 30.6361H29.0348C29.4717 30.6361 29.8258 30.2821 29.8258 29.8451C29.8258 29.4081 29.4717 29.0541 29.0348 29.0541H6.08006C5.64321 29.0541 5.28905 29.4081 5.28905 29.8451C5.28905 30.2821 5.64321 30.6361 6.08006 30.6361ZM6.08006 21.6936H13.1676C13.6044 21.6936 13.9586 21.3396 13.9586 20.9026C13.9586 20.4657 13.6044 20.1116 13.1676 20.1116H6.08006C5.64321 20.1116 5.28905 20.4657 5.28905 20.9026C5.28905 21.3396 5.64321 21.6936 6.08006 21.6936ZM49.6736 0.0471191H4.32643C1.94084 0.0471191 0 1.98796 0 4.37355V23.358C0 23.795 0.354164 24.149 0.791016 24.149C1.22787 24.149 1.58203 23.795 1.58203 23.358V4.37355C1.58203 2.86029 2.81317 1.62915 4.32643 1.62915H49.6737C51.1869 1.62915 52.4181 2.86029 52.4181 4.37355V31.6267C52.4181 33.1399 51.1869 34.3711 49.6737 34.3711H4.32643C2.81317 34.3711 1.58203 33.1399 1.58203 31.6267V27.0494C1.58203 26.6125 1.22787 26.2584 0.791016 26.2584C0.354164 26.2584 0 26.6125 0 27.0494V31.6267C0 34.0123 1.94084 35.9531 4.32643 35.9531H49.6737C52.0593 35.9531 54.0001 34.0124 54.0001 31.6267V4.37355C54 1.98796 52.0592 0.0471191 49.6736 0.0471191ZM6.08006 27.0913H29.0348C29.4717 27.0913 29.8258 26.7373 29.8258 26.3003C29.8258 25.8633 29.4717 25.5093 29.0348 25.5093H6.08006C5.64321 25.5093 5.28905 25.8633 5.28905 26.3003C5.28905 26.7373 5.64321 27.0913 6.08006 27.0913ZM26.4452 20.9026C26.4452 21.1124 26.5286 21.3136 26.6769 21.4619C26.8253 21.6103 27.0265 21.6936 27.2362 21.6936H34.3239C34.7607 21.6936 35.1149 21.3396 35.1149 20.9026C35.1149 20.4657 34.7607 20.1116 34.3239 20.1116H27.2362C27.0265 20.1116 26.8253 20.1949 26.6769 20.3433C26.5286 20.4916 26.4452 20.6928 26.4452 20.9026ZM45.6929 20.9026C45.6929 20.6928 45.6095 20.4916 45.4612 20.3433C45.3128 20.1949 45.1116 20.1116 44.9018 20.1116H37.8143C37.3775 20.1116 37.0233 20.4657 37.0233 20.9026C37.0233 21.3396 37.3775 21.6936 37.8143 21.6936H44.9018C45.1116 21.6936 45.3128 21.6103 45.4612 21.4619C45.6095 21.3136 45.6929 21.1124 45.6929 20.9026ZM40.247 6.94615C40.6838 6.94615 41.038 6.59209 41.038 6.15513C41.038 5.71817 40.6838 5.36412 40.247 5.36412H33.035C32.3389 5.36412 31.7726 5.93038 31.7726 6.62658V9.90476C31.7726 10.6009 32.3389 11.1671 33.035 11.1671H47.4486C48.1447 11.1671 48.7109 10.6009 48.7109 9.90476V6.62658C48.7109 5.93038 48.1447 5.36412 47.4486 5.36412H43.9384C43.5015 5.36412 43.1474 5.71817 43.1474 6.15513C43.1474 6.59209 43.5015 6.94615 43.9384 6.94615H47.1289V9.58508H33.3546V6.94615H40.247ZM23.7457 21.6936C24.1825 21.6936 24.5367 21.3396 24.5367 20.9026C24.5367 20.4657 24.1825 20.1116 23.7457 20.1116H16.6582C16.2213 20.1116 15.8671 20.4657 15.8671 20.9026C15.8671 21.3396 16.2213 21.6936 16.6582 21.6936H23.7457Z" fill="#76212E"/>
</svg>
